<svg version="1.2" baseProfile="tiny-ps" xmlns="http://www.w3.org/2000/svg" viewBox="0 0 400 400" width="400" height="400">
	<title>Background</title>
	<style>
		tspan { white-space:pre }
		.shp0 { fill: #ffffff } 
		.shp1 { fill: #2f3138 } 
		.shp2 { fill: #ffd159 } 
	</style>
	<g id="Background">
		<path id="Path 0" class="shp0" d="M0 200L0 400L400 400L400 0L0 0L0 200Z" />
		<path id="Path 1" class="shp1" d="M196.96 0.21C196.94 0.26 196.8 4.92 196.65 10.58C196.49 16.23 196.37 22.12 196.36 23.65L196.35 26.44C198.42 26.59 202.14 26.68 205.96 26.73L212.91 26.84L212.81 22.43C203.49 22.19 200.78 22.11 200.77 22.08C200.77 22.06 200.8 20.45 200.85 18.51L200.93 14.99L211.93 15.28L211.93 10.87C206.35 10.64 203.91 10.58 202.91 10.58L201.08 10.58L201.08 4.7L212.81 4.96C213.08 1.18 213.06 0.65 212.87 0.54C212.73 0.46 211.69 0.4 210.55 0.39C209.41 0.39 205.9 0.33 202.74 0.26C199.59 0.19 196.99 0.17 196.96 0.21ZM177.33 1.49C173.21 1.97 169.81 2.38 169.78 2.4C169.74 2.43 170.36 8.27 171.14 15.38C171.92 22.49 172.62 28.37 172.68 28.44C172.74 28.52 176.43 28.18 180.88 27.69C185.32 27.2 188.99 26.78 189.02 26.77C189.05 26.75 188.96 25.75 188.82 24.53C188.68 23.32 188.52 22.33 188.47 22.33C188.41 22.34 185.71 22.64 182.45 23C179.2 23.37 176.53 23.65 176.51 23.63C176.5 23.62 176.31 22.06 176.09 20.18C175.88 18.29 175.76 16.69 175.83 16.63C175.89 16.56 178.26 16.26 181.07 15.96C183.89 15.66 186.27 15.36 186.36 15.3C186.45 15.23 186.42 14.26 186.3 13.12C186.17 11.99 186.05 11.04 186.04 11.01C186.02 10.98 183.61 11.21 180.68 11.53C177.75 11.85 175.31 12.06 175.26 12.01C175.2 11.96 175.03 10.68 174.86 9.17C174.7 7.67 174.61 6.4 174.67 6.37C174.72 6.33 177.25 6.03 180.29 5.69C183.32 5.35 185.89 5.05 186 5.01C186.13 4.97 186.12 4.22 185.96 2.81C185.83 1.64 185.72 0.66 185.72 0.64C185.71 0.61 185.51 0.6 185.26 0.61C185.02 0.62 181.45 1.02 177.33 1.49ZM222.14 14.54C220.98 21.68 220.05 27.54 220.07 27.57C220.09 27.59 221.01 27.77 222.12 27.96C223.23 28.15 224.2 28.23 224.29 28.14C224.38 28.05 224.78 25.89 225.19 23.34C225.6 20.79 225.98 18.66 226.04 18.61C226.1 18.56 227.27 18.68 228.65 18.88C230.23 19.11 231.8 19.22 232.92 19.17C234.38 19.1 234.86 19 235.58 18.58C236.07 18.3 236.81 17.69 237.23 17.22C237.66 16.74 238.21 15.92 238.46 15.38C238.71 14.84 239.07 13.82 239.24 13.12C239.48 12.2 239.55 11.29 239.49 9.79C239.43 8.29 239.3 7.5 239.01 6.86C238.79 6.37 238.27 5.59 237.84 5.12C237.41 4.65 236.73 4.1 236.32 3.89C235.92 3.69 235.03 3.4 234.35 3.24C233.67 3.08 231.19 2.64 228.83 2.26C226.47 1.88 224.48 1.57 224.39 1.57C224.31 1.57 223.29 7.41 222.14 14.54ZM157.07 4.68C155.59 5.07 154.29 5.48 154.19 5.58C154.09 5.69 152.84 8.6 151.4 12.05C149.97 15.49 148.75 18.45 148.69 18.61C148.6 18.84 148.55 18.82 148.44 18.51C148.36 18.3 147.7 15.78 146.96 12.93C146.22 10.07 145.61 7.72 145.6 7.7C145.6 7.68 144.66 7.89 143.52 8.17C142.38 8.45 141.42 8.69 141.39 8.7C141.36 8.71 142.81 14.45 144.63 21.45C146.44 28.45 147.93 34.21 147.94 34.24C147.95 34.27 148.89 34.06 150.02 33.78C151.16 33.5 152.12 33.25 152.15 33.24C152.18 33.22 151.76 31.46 151.22 29.33L150.22 25.47C151.98 21.66 152.53 20.56 152.59 20.55C152.64 20.55 154.63 22.82 157 25.6C159.37 28.38 161.46 30.68 161.63 30.7C161.81 30.73 163.03 30.46 164.34 30.11C165.65 29.77 166.74 29.41 166.75 29.33C166.77 29.25 164.05 26.22 160.72 22.6C157.39 18.97 154.68 15.91 154.7 15.79C154.73 15.67 155.91 12.97 157.32 9.79C158.74 6.62 159.86 4.01 159.82 3.99C159.78 3.98 158.54 4.29 157.07 4.68Z" />
		<path id="Path 2" class="shp0" d="M227.89 6.81C227.89 6.89 227.63 8.54 227.31 10.48C226.99 12.42 226.75 14.02 226.77 14.03C226.79 14.05 227.88 14.21 229.18 14.4C230.6 14.61 231.86 14.68 232.33 14.6C232.88 14.5 233.34 14.23 233.86 13.69C234.39 13.14 234.66 12.64 234.82 11.9C234.94 11.33 234.99 10.56 234.93 10.19C234.86 9.81 234.6 9.19 234.35 8.81C234.1 8.44 233.63 8.01 233.31 7.85C232.99 7.7 231.93 7.43 230.95 7.24C229.98 7.05 228.89 6.85 228.53 6.78C228.17 6.72 227.88 6.73 227.89 6.81Z" />
		<path id="Path 3" class="shp1" d="M247.19 19.25C244.56 27.77 243.39 31.87 243.54 31.95C243.66 32.01 247.2 33.11 251.4 34.4C255.6 35.68 259.08 36.68 259.13 36.63C259.18 36.58 259.5 35.61 259.83 34.48C260.17 33.34 260.42 32.41 260.38 32.39C260.35 32.38 257.77 31.59 254.65 30.63C251.15 29.56 248.98 28.8 248.98 28.65C248.99 28.51 249.4 27.06 249.91 25.42C250.41 23.77 250.87 22.36 250.94 22.27C251.01 22.18 253.14 22.74 255.69 23.51C258.24 24.27 260.57 24.98 260.87 25.08L261.41 25.27C262.43 22.01 262.72 21.04 262.71 21.01C262.7 20.99 260.38 20.26 257.57 19.39C254.75 18.53 252.41 17.8 252.38 17.77C252.34 17.75 252.59 16.8 252.93 15.67C253.27 14.54 253.63 13.33 253.73 12.98C253.83 12.63 254.03 12.34 254.16 12.34C254.3 12.34 256.76 13.06 259.64 13.93C262.51 14.8 264.94 15.53 265.04 15.55C265.14 15.56 265.52 14.65 265.88 13.52C266.24 12.38 266.47 11.41 266.39 11.34C266.31 11.28 262.85 10.2 258.7 8.94C254.55 7.69 251.14 6.66 251.11 6.66C251.08 6.66 249.32 12.32 247.19 19.25ZM123 15.5C118.94 17.19 115.65 18.68 115.67 18.79C115.7 18.91 117.95 24.31 120.68 30.8C123.41 37.29 125.7 42.68 125.76 42.77C125.82 42.86 129.25 41.55 133.37 39.85C137.49 38.15 140.92 36.71 140.99 36.65C141.07 36.58 140.77 35.7 140.33 34.67C139.89 33.65 139.48 32.74 139.41 32.66C139.34 32.58 136.82 33.55 133.8 34.82C130.28 36.3 128.26 37.05 128.15 36.92C128.06 36.82 127.44 35.45 126.79 33.89C126.14 32.33 125.58 30.93 125.55 30.79C125.5 30.62 127.16 29.83 130.41 28.48C133.12 27.34 135.36 26.4 135.39 26.38C135.42 26.36 135.07 25.44 134.6 24.33C134.14 23.22 133.72 22.32 133.66 22.32C133.61 22.32 132.19 22.89 130.51 23.58C128.83 24.27 126.59 25.2 125.53 25.64L123.61 26.44C121.92 22.27 121.45 21.04 121.48 21.03C121.51 21.01 123.8 20.05 126.56 18.9C129.33 17.75 131.7 16.77 131.84 16.73C131.97 16.69 132.09 16.54 132.09 16.41C132.09 16.27 131.76 15.35 131.35 14.37C130.94 13.39 130.55 12.54 130.49 12.49C130.43 12.45 127.06 13.8 123 15.5ZM276.6 16.31C276.4 16.77 273.88 22.12 270.99 28.21C268.11 34.29 265.77 39.28 265.8 39.3C265.82 39.31 266.73 39.73 267.82 40.23C268.9 40.73 269.79 41.11 269.8 41.09C269.81 41.06 270.87 38.82 272.16 36.1L274.52 31.17C276.2 32.03 276.84 32.44 277.02 32.64C277.2 32.84 277.48 33.32 277.64 33.69C277.8 34.07 277.98 34.91 278.05 35.55C278.12 36.2 278.31 38.67 278.47 41.04C278.63 43.41 278.78 45.36 278.81 45.37C278.83 45.38 279.9 45.89 281.17 46.5L283.49 47.6C283.48 46.46 283.4 44.32 283.29 42.12C283.19 39.91 283.01 37.62 282.9 37.02C282.78 36.43 282.48 35.5 282.24 34.97L281.78 33.99C285.33 33.99 285.68 33.92 286.55 33.47C287.09 33.19 287.96 32.49 288.49 31.91C289.01 31.33 289.69 30.32 289.99 29.68C290.29 29.03 290.65 28.02 290.79 27.42C290.94 26.77 290.99 25.87 290.91 25.12C290.84 24.45 290.57 23.48 290.32 22.97C290.06 22.46 289.55 21.78 289.18 21.48C288.82 21.17 288.03 20.63 287.43 20.29C286.84 19.95 284.33 18.72 281.86 17.57C279.4 16.42 277.29 15.48 277.18 15.48C277.06 15.48 276.81 15.85 276.6 16.31Z" />
		<path id="Path 4" class="shp0" d="M278.57 22.58C278.26 23.25 277.65 24.59 277.2 25.56C276.75 26.53 276.41 27.34 276.44 27.35C276.47 27.36 277.2 27.7 278.07 28.11C278.94 28.51 280.27 29.09 281.03 29.41C281.78 29.72 282.72 29.98 283.1 29.97C283.47 29.97 284.07 29.79 284.43 29.58C284.8 29.35 285.28 28.76 285.59 28.16C285.89 27.57 286.12 26.78 286.13 26.31C286.14 25.77 286.01 25.31 285.75 24.94C285.52 24.64 284.55 23.97 283.58 23.47C282.61 22.96 281.21 22.28 280.47 21.96L279.12 21.36L278.57 22.58Z" />
		<path id="Path 5" class="shp1" d="M99.26 27.25C95.79 29.29 92.66 31.14 92.31 31.35L91.67 31.73C102.1 49.27 105.14 54.38 105.15 54.41C105.17 54.44 108.37 52.59 112.27 50.31C116.18 48.04 119.39 46.14 119.42 46.1C119.45 46.06 118.96 45.19 118.33 44.16C117.5 42.78 117.12 42.32 116.9 42.41C116.74 42.48 114.57 43.74 112.07 45.2C109.58 46.66 107.36 47.98 107.15 48.12C106.78 48.36 106.65 48.2 104.98 45.4C104 43.77 103.2 42.36 103.2 42.28C103.2 42.19 105.24 40.93 107.74 39.47C110.23 38.01 112.27 36.71 112.27 36.58C112.27 36.44 111.83 35.57 111.29 34.63C110.74 33.69 110.26 32.91 110.2 32.91C110.15 32.9 108 34.13 105.42 35.64L100.74 38.39C98.86 35.13 98.19 34.01 98.04 33.79C97.78 33.42 98.02 33.25 102.73 30.46C105.46 28.84 107.72 27.46 107.76 27.38C107.8 27.29 107.36 26.39 106.78 25.37C106.2 24.34 105.69 23.51 105.65 23.52C105.6 23.52 102.73 25.2 99.26 27.25ZM303.01 31.01C302.63 31.15 301.92 31.48 301.43 31.76C300.94 32.04 300.27 32.57 299.94 32.93C299.61 33.3 299.11 33.99 298.83 34.48C298.54 34.96 298.15 35.89 297.97 36.53C297.73 37.38 297.66 38.1 297.74 39.08C297.82 40.06 298.02 40.79 298.45 41.63C298.78 42.27 299.9 43.86 300.95 45.15C301.99 46.44 302.97 47.74 303.13 48.04C303.28 48.34 303.4 48.91 303.41 49.31C303.41 49.76 303.24 50.31 302.96 50.72C302.72 51.08 302.29 51.55 302.02 51.75C301.75 51.95 301.17 52.2 300.74 52.29C300.22 52.4 299.64 52.39 299.05 52.24C298.56 52.11 297.77 51.74 297.31 51.42C296.84 51.1 296.22 50.44 295.93 49.95C295.51 49.23 295.42 48.83 295.43 47.8C295.44 46.94 295.58 46.23 295.85 45.64L296.26 44.76L292.36 42.7C291.78 43.84 291.41 44.83 291.17 45.64C290.81 46.84 290.75 47.43 290.82 48.87C290.89 50.28 291.01 50.84 291.44 51.67C291.73 52.23 292.3 53.06 292.71 53.5C293.11 53.95 294.11 54.74 294.92 55.27C295.74 55.79 296.98 56.41 297.68 56.64C298.66 56.95 299.32 57.04 300.45 56.98C301.61 56.92 302.21 56.77 303.21 56.29C304.05 55.88 304.86 55.27 305.57 54.52C306.17 53.88 306.94 52.8 307.28 52.1C307.63 51.4 308 50.44 308.12 49.95C308.23 49.47 308.32 48.76 308.33 48.38C308.33 48.01 308.22 47.26 308.08 46.72C307.94 46.18 307.52 45.23 307.14 44.6C306.77 43.97 305.76 42.6 304.91 41.56C304.05 40.52 303.15 39.31 302.89 38.88C302.63 38.45 302.42 37.79 302.42 37.41C302.42 37.04 302.59 36.44 302.81 36.09C303.09 35.64 303.44 35.39 304.04 35.23C304.73 35.04 305.05 35.05 305.86 35.32C306.41 35.49 307.24 35.97 307.72 36.38C308.19 36.79 308.7 37.36 308.85 37.66C309 37.96 309.12 38.55 309.12 38.98C309.12 39.41 308.96 40.12 308.77 40.55C308.58 40.98 308.47 41.37 308.53 41.4C308.58 41.44 309.45 41.94 310.45 42.52C311.46 43.11 312.31 43.54 312.35 43.49C312.39 43.43 312.64 42.95 312.91 42.41C313.18 41.87 313.51 40.95 313.65 40.35C313.81 39.69 313.85 38.82 313.78 38.1C313.71 37.45 313.43 36.48 313.17 35.95C312.9 35.41 312.39 34.61 312.02 34.18C311.66 33.75 310.74 32.99 309.99 32.49C309.24 32 308.11 31.4 307.49 31.17C306.73 30.89 305.92 30.76 305.03 30.76C304.3 30.77 303.39 30.88 303.01 31.01Z" />
		<path id="Path 6" class="shp2" d="M129.38 78.6L58.95 119L59.04 280.96C107.93 309.03 122.22 317.21 122.33 317.26C122.43 317.31 123.03 315.73 123.64 313.76C124.25 311.8 125.34 308.25 126.05 305.88C126.75 303.51 128.15 299.19 129.14 296.28C130.13 293.37 131.59 289.31 132.38 287.27C133.17 285.22 134.35 282.27 135.01 280.71C135.66 279.14 136.83 276.45 137.61 274.73C138.38 273.01 140.06 269.52 141.34 266.99C142.62 264.46 144.53 260.89 145.58 259.06C146.64 257.23 148.17 254.67 148.99 253.38C149.8 252.09 151.33 249.79 152.39 248.29C153.45 246.78 155.01 244.65 155.87 243.55C156.72 242.46 157.74 241.31 158.14 241.01C158.54 240.7 160 239.17 161.39 237.61C162.78 236.05 165.74 232.94 167.96 230.7C170.19 228.47 172.03 226.66 172.06 226.69C172.09 226.72 171.81 227.8 171.43 229.09C171.05 230.38 170.51 232.37 170.23 233.5C169.94 234.63 169.5 236.57 169.25 237.81C168.99 239.05 168.64 241.07 168.45 242.31C168.25 243.69 167.95 244.91 167.67 245.45C167.43 245.93 166.52 247.21 165.66 248.29C164.8 249.36 163.32 251.17 162.37 252.3C161.42 253.43 160.04 255.24 159.3 256.32C158.57 257.39 157.14 259.64 156.13 261.31C155.12 262.98 153.38 266.11 152.27 268.27C151.16 270.42 149.13 274.65 147.75 277.67C146.37 280.69 144.94 283.86 144.56 284.72C144.18 285.58 143.34 287.61 142.69 289.23C142.04 290.84 140.99 293.57 140.37 295.3C139.74 297.02 138.59 300.37 137.81 302.74C137.03 305.11 135.83 308.99 135.14 311.36C134.45 313.73 133.48 317.3 132.98 319.29C132.48 321.29 132.1 322.93 132.13 322.93C132.16 322.94 147.44 331.69 166.09 342.38C195.41 359.19 200.05 361.79 200.39 361.61C200.61 361.49 232.33 343.3 270.87 321.19L340.96 280.98L341.05 119C232.04 56.47 200.26 38.29 200.1 38.26C199.94 38.22 168.11 56.37 129.38 78.6Z" />
		<path id="Path 7" class="shp1" d="M79.25 41.19C78.87 41.33 78.12 41.7 77.58 42.01C77.03 42.33 74.77 44.03 72.55 45.8C70.33 47.57 68.51 49.12 68.52 49.24C68.53 49.36 72.11 53.91 76.48 59.35C80.85 64.79 84.55 69.38 84.69 69.54C84.91 69.79 85.53 69.37 89.25 66.38C91.61 64.48 94.04 62.41 94.65 61.78C95.25 61.15 95.87 60.27 96.02 59.84C96.18 59.41 96.3 58.35 96.3 57.49C96.29 56.07 96.22 55.78 95.52 54.36C95.01 53.34 94.36 52.41 93.65 51.7C92.88 50.94 92.21 50.48 91.38 50.17C90.43 49.81 89.9 49.73 88.69 49.78L87.19 49.85C87.5 48.94 87.55 48.15 87.49 47.5C87.44 46.85 87.18 45.85 86.9 45.25C86.63 44.66 86.01 43.74 85.54 43.22C85.02 42.65 84.2 42.04 83.49 41.7C82.76 41.36 81.85 41.1 81.12 41.03C80.39 40.97 79.68 41.03 79.25 41.19Z" />
		<path id="Path 8" class="shp0" d="M79.7 46.07C79.24 46.32 77.93 47.25 76.79 48.14C75.65 49.03 74.72 49.82 74.72 49.9C74.72 49.98 75.51 51.04 76.49 52.25C77.47 53.46 78.33 54.45 78.41 54.45C78.49 54.45 79.58 53.61 80.83 52.59C82.07 51.57 83.25 50.45 83.44 50.1C83.63 49.75 83.79 49.22 83.79 48.92C83.79 48.63 83.62 48.05 83.42 47.65C83.22 47.25 82.77 46.67 82.43 46.38C82.09 46.08 81.7 45.84 81.57 45.83C81.43 45.83 81.14 45.78 80.93 45.73C80.71 45.67 80.16 45.82 79.7 46.07ZM86.84 53.93C86.52 54.08 85.89 54.45 85.45 54.77C85.01 55.08 83.88 55.95 82.94 56.71C81.91 57.54 81.29 58.16 81.39 58.28C81.48 58.38 82.45 59.6 83.56 60.97L85.56 63.47C89.3 60.47 90.61 59.36 90.88 59.07C91.25 58.67 91.39 58.28 91.43 57.52C91.48 56.75 91.38 56.33 91.04 55.75C90.79 55.33 90.28 54.73 89.9 54.42C89.44 54.04 88.91 53.82 88.32 53.76C87.8 53.7 87.19 53.78 86.84 53.93Z" />
		<path id="Path 9" class="shp1" d="M326.92 62.94L314.65 69.25L317.99 72.58C320.51 71.22 321.75 70.55 322.37 70.23L323.5 69.64L329.63 75.71L326.76 81.28L330.17 84.72C339.75 65.74 342.56 60.1 342.6 59.94C342.63 59.78 341.97 58.96 341.12 58.13C340.27 57.29 339.49 56.61 339.38 56.62C339.27 56.62 333.66 59.47 326.92 62.94Z" />
		<path id="Path 10" class="shp0" d="M332.08 65.04C329.92 66.22 328.05 67.21 327.94 67.26C327.84 67.3 328.63 68.23 329.72 69.32C330.8 70.41 331.73 71.31 331.79 71.31C331.84 71.31 332.86 69.49 334.06 67.27C335.25 65.05 336.24 63.16 336.25 63.06C336.26 62.96 336.22 62.88 336.15 62.89C336.08 62.9 334.25 63.86 332.08 65.04Z" />
		<path id="Path 11" class="shp1" d="M48.89 68.62C48.19 69.5 47.61 70.28 47.61 70.35C47.61 70.41 49.38 71.9 51.55 73.65C53.72 75.41 55.47 76.92 55.45 77.01C55.42 77.1 54.24 78.59 52.83 80.31C51.42 82.04 50.23 83.45 50.17 83.45C50.12 83.45 48.63 82.28 46.87 80.86C45.11 79.44 43.31 77.99 42.88 77.63L42.09 76.99C40.1 79.41 39.51 80.23 39.49 80.36C39.47 80.5 43.88 84.18 49.3 88.54C54.72 92.9 59.34 96.61 59.57 96.77C59.95 97.04 60.01 97.02 60.45 96.47C60.71 96.15 61.32 95.38 61.81 94.76L62.69 93.63C55.61 87.93 53.85 86.38 53.92 86.24C53.97 86.1 55.15 84.62 56.53 82.95C57.91 81.28 59.11 79.91 59.19 79.91C59.27 79.92 61.22 81.45 63.53 83.31C65.83 85.18 67.83 86.76 67.96 86.84C68.12 86.92 68.67 86.41 69.49 85.41C70.2 84.54 70.77 83.75 70.77 83.64C70.77 83.54 66.2 79.77 60.62 75.27C55.03 70.77 50.4 67.07 50.32 67.05C50.24 67.03 49.6 67.74 48.89 68.62ZM351.4 75.96C350.86 76.15 350.02 76.58 349.53 76.91C349.04 77.24 348.32 77.9 347.93 78.37C347.54 78.85 347.03 79.61 346.8 80.07C346.57 80.53 346.3 81.41 346.2 82.03C346.1 82.67 346.1 83.62 346.19 84.23C346.29 84.82 346.81 86.63 347.36 88.25C347.9 89.86 348.35 91.54 348.36 91.97C348.36 92.46 348.19 93 347.91 93.42C347.66 93.78 347.15 94.25 346.77 94.45C346.39 94.65 345.7 94.81 345.24 94.81C344.78 94.81 344.12 94.69 343.77 94.54C343.41 94.4 342.72 93.85 342.22 93.32C341.73 92.79 341.2 92.01 341.06 91.58C340.92 91.14 340.85 90.4 340.91 89.91C340.96 89.43 341.15 88.74 341.33 88.39C341.5 88.04 341.98 87.4 342.39 86.97L343.12 86.18C340.83 83.83 340.12 83.13 340.07 83.09C340.01 83.06 339.45 83.59 338.82 84.27C338.19 84.95 337.36 86.12 336.98 86.88C336.44 87.95 336.27 88.56 336.18 89.72C336.11 90.76 336.17 91.5 336.39 92.26C336.56 92.86 337.04 93.9 337.45 94.59C337.86 95.28 338.68 96.34 339.28 96.95C339.93 97.61 340.88 98.31 341.65 98.69C342.35 99.04 343.37 99.38 343.91 99.44C344.46 99.51 345.48 99.46 346.18 99.33C346.89 99.19 347.99 98.81 348.64 98.46C349.28 98.12 350.3 97.4 350.9 96.85C351.51 96.29 352.3 95.29 352.69 94.59C353.35 93.39 353.38 93.26 353.38 91.28C353.38 89.3 353.34 89.12 352.31 86.19C351.65 84.33 351.23 82.81 351.22 82.26C351.21 81.73 351.35 81.16 351.55 80.84C351.74 80.55 352.21 80.18 352.59 80.02C353.15 79.78 353.44 79.77 354.12 79.95C354.67 80.1 355.25 80.47 355.85 81.07C356.38 81.62 356.88 82.37 357.09 82.96C357.37 83.74 357.4 84.1 357.24 84.72C357.13 85.15 356.73 85.86 356.35 86.29L355.67 87.07C357.79 89.58 358.51 90.3 358.65 90.3C358.79 90.3 359.32 89.84 359.85 89.27C360.37 88.71 361.04 87.76 361.33 87.17C361.79 86.23 361.85 85.85 361.85 84.21C361.85 82.41 361.82 82.27 361.06 80.79C360.54 79.75 359.85 78.81 358.99 77.95C358.29 77.24 357.27 76.45 356.73 76.19C355.97 75.82 355.36 75.7 354.07 75.66C352.85 75.62 352.12 75.7 351.4 75.96Z" />
		<path id="Path 12" class="shp0" d="M218.43 78.1C218.05 78.15 216.72 78.41 215.48 78.68C214.23 78.96 212.5 79.43 211.63 79.74C210.76 80.05 209.52 80.64 208.87 81.06C208.22 81.47 207.22 82.33 206.65 82.97C206.08 83.61 205.31 84.75 204.93 85.5C204.56 86.26 204.03 87.67 203.74 88.64C203.46 89.61 202.97 91.9 202.66 93.73C202.35 95.56 201.96 98.3 201.79 99.8C201.63 101.31 201.39 104.22 201.26 106.27C201.12 108.56 201.08 112.51 201.14 116.55C201.2 120.16 201.44 125.76 201.67 128.99C201.9 132.22 202.15 135.47 202.23 136.2L202.37 137.54C206.34 139.12 208.02 139.87 208.67 140.23C209.32 140.59 210.32 141.23 210.89 141.65L211.93 142.41L211.67 109.21C212.48 108.22 212.96 107.88 213.26 107.82C213.56 107.76 214.13 107.85 214.54 108.02C215.04 108.22 215.37 108.53 215.55 108.96C215.77 109.47 215.85 112.35 215.95 123.7C216.02 131.46 216.14 139.25 216.22 141.02L216.36 144.23C219.57 144.06 220.9 143.92 221.39 143.8L222.28 143.58C223.62 140.02 224.49 137.57 225.08 135.85C225.66 134.12 226.63 131.04 227.23 128.99C227.83 126.94 228.67 123.86 229.1 122.14C229.53 120.41 230.23 117.28 230.65 115.18C231.08 113.08 231.66 109.86 231.94 108.03C232.23 106.2 232.64 103.07 232.85 101.08C233.11 98.72 233.29 95.36 233.36 91.48L233.48 85.5C232.43 83.53 231.5 82.3 230.72 81.49C229.95 80.68 228.84 79.74 228.26 79.39C227.68 79.04 226.5 78.58 225.63 78.36C224.4 78.05 223.5 77.97 221.59 77.99C220.23 78.01 218.81 78.06 218.43 78.1ZM185.51 89.42C184.59 89.57 182.86 89.97 181.67 90.31C180.47 90.65 178.48 91.32 177.23 91.81C175.98 92.29 173.59 93.35 171.91 94.16L168.85 95.63C171.45 96.34 173 96.82 173.98 97.16C174.95 97.5 177.08 98.42 178.71 99.19C180.34 99.97 182.55 101.13 183.64 101.76C184.72 102.39 186.45 103.43 187.48 104.08C188.51 104.72 190.53 106.08 191.97 107.08C193.4 108.09 194.62 108.91 194.68 108.91C194.73 108.91 195.03 108.1 195.35 107.1C195.66 106.1 196.16 104.23 196.45 102.94C196.74 101.65 197.02 99.71 197.09 98.63C197.15 97.44 197.1 96.13 196.96 95.3C196.82 94.54 196.51 93.49 196.26 92.95C195.99 92.38 195.36 91.57 194.74 91.03C194.14 90.49 193.23 89.91 192.61 89.68C191.82 89.39 190.92 89.26 189.35 89.21C188.06 89.17 186.51 89.25 185.51 89.42ZM125.59 90.96C125.21 91.09 124.75 91.42 124.55 91.68C124.36 91.95 123.97 92.78 123.68 93.54C123.31 94.52 123.14 95.43 123.06 96.77C123 97.88 123.05 99.14 123.2 99.9C123.34 100.6 123.72 101.84 124.06 102.64C124.4 103.45 125.3 105.04 126.06 106.17C126.98 107.55 128.23 109.01 129.81 110.59C131.12 111.88 133.11 113.64 134.25 114.48C135.39 115.33 136.86 116.28 137.51 116.61C138.16 116.93 140.44 118.2 142.58 119.42C144.72 120.64 148.8 123.07 151.65 124.81C154.5 126.55 158.96 129.31 161.56 130.95C164.16 132.59 167.97 135.01 170.03 136.34L173.78 138.75C176.84 138.37 178.12 138.32 178.61 138.39C179.1 138.46 180.69 138.82 182.16 139.18C183.62 139.55 185.62 139.98 186.59 140.15C187.57 140.32 188.92 140.45 189.6 140.45C190.53 140.45 191.23 140.29 192.44 139.81L194.04 139.18C190.87 136.17 188.53 134.05 186.79 132.52C185.06 131 182.48 128.8 181.07 127.63C179.66 126.47 176.96 124.36 175.06 122.94C173.16 121.53 170.46 119.61 169.05 118.68C167.64 117.75 165.33 116.35 163.92 115.56C162.51 114.77 160.38 113.71 159.19 113.21C158 112.71 156.51 112.15 155.89 111.98C155.11 111.76 154.63 111.48 154.35 111.12C154.11 110.79 153.96 110.28 153.96 109.84C153.97 109.35 154.13 108.91 154.46 108.52C154.73 108.2 155.2 107.88 155.5 107.82C155.85 107.75 156.8 107.96 158.21 108.42C159.4 108.81 161.39 109.62 162.64 110.21C163.89 110.8 166.24 112.08 167.87 113.04C169.49 114.01 172.02 115.64 173.48 116.66C174.95 117.68 177.57 119.61 179.3 120.94C181.03 122.28 183.79 124.49 185.41 125.85C187.04 127.22 189.97 129.77 191.92 131.53C193.87 133.29 196.02 135.31 196.7 136.02C197.38 136.73 197.93 137.45 197.93 137.61C197.93 137.81 198.07 137.87 198.37 137.81C198.62 137.76 199.35 137.66 200 137.59L201.18 137.47C200.16 124.74 200.06 123.95 199.57 122.62C199.27 121.82 198.49 120.27 197.84 119.19C197.18 118.11 196.21 116.62 195.67 115.86C195.13 115.11 193.8 113.58 192.71 112.47C191.63 111.35 189.85 109.72 188.76 108.85C187.68 107.98 185.86 106.67 184.72 105.93C183.58 105.18 181.14 103.84 179.3 102.94C177.46 102.04 174.88 100.91 173.58 100.43C172.28 99.95 169.98 99.2 168.46 98.77C166.94 98.34 164.54 97.76 163.13 97.48C161.72 97.2 158.84 96.7 156.73 96.36C153.93 95.93 152.1 95.75 150.02 95.73C148.45 95.71 144.19 95.77 140.56 95.86C136 95.98 133.71 95.97 133.17 95.83C132.67 95.7 132.24 95.41 132 95.07C131.79 94.76 131.04 93.91 130.33 93.17C129.61 92.44 128.67 91.63 128.24 91.38C127.81 91.13 127.19 90.88 126.86 90.82C126.54 90.76 125.96 90.82 125.59 90.96Z" />
		<path id="Path 13" class="shp1" d="M32.63 92.73C32.19 92.86 31.53 93.15 31.15 93.38C30.77 93.61 30.01 94.27 29.46 94.84C28.92 95.42 28.19 96.37 27.86 96.96C27.53 97.56 27.1 98.53 26.91 99.12C26.65 99.91 26.59 100.59 26.66 101.67C26.72 102.64 26.91 103.46 27.22 104.11C27.47 104.65 28.13 105.54 28.68 106.08C29.22 106.63 30.16 107.31 30.75 107.6C31.35 107.89 32.41 108.24 33.12 108.36C34.1 108.54 34.7 108.54 35.68 108.37C36.46 108.22 37.37 107.89 38.01 107.5C38.59 107.14 39.92 106.11 40.97 105.21C42.02 104.3 43.23 103.31 43.67 103C44.1 102.69 44.72 102.38 45.05 102.32C45.46 102.24 45.93 102.34 46.6 102.67C47.2 102.96 47.71 103.39 47.97 103.82C48.19 104.2 48.44 104.77 48.51 105.09C48.59 105.42 48.57 106.08 48.46 106.56C48.36 107.05 47.99 107.87 47.65 108.4C47.3 108.94 46.67 109.56 46.23 109.8C45.8 110.05 45.09 110.3 44.65 110.36C44.19 110.43 43.38 110.36 42.68 110.18C42.03 110.01 41.37 109.86 41.22 109.84C41.04 109.81 40.63 110.47 40.09 111.66C39.3 113.38 39.27 113.53 39.58 113.76C39.77 113.89 40.54 114.2 41.3 114.44C42.36 114.78 43.14 114.89 44.65 114.89C46.35 114.89 46.77 114.82 47.71 114.39C48.3 114.11 49.22 113.5 49.75 113.02C50.28 112.54 51.09 111.53 51.56 110.77C52.03 110.02 52.6 108.83 52.84 108.13C53.17 107.14 53.25 106.51 53.2 105.29C53.14 104.04 53.01 103.48 52.55 102.55C52.23 101.9 51.5 100.91 50.92 100.34C50.26 99.69 49.28 99.03 48.25 98.52C47.01 97.92 46.3 97.7 45.24 97.61C44.36 97.54 43.47 97.59 42.78 97.76C42.15 97.91 41.12 98.41 40.32 98.94C39.56 99.44 38.23 100.5 37.36 101.28C36.49 102.06 35.38 102.95 34.89 103.26C34.38 103.59 33.74 103.82 33.37 103.82C33.01 103.82 32.48 103.7 32.18 103.55C31.89 103.41 31.48 102.94 31.27 102.52C31.01 101.99 30.94 101.55 31.03 101.03C31.09 100.62 31.33 99.94 31.54 99.51C31.76 99.08 32.25 98.42 32.63 98.04C33.01 97.66 33.61 97.28 33.96 97.18C34.31 97.09 34.95 97.08 35.39 97.16C35.82 97.24 36.4 97.37 36.67 97.45C37.13 97.58 37.22 97.47 38.2 95.61L39.23 93.63C37.78 93.06 37 92.79 36.57 92.67C36.14 92.56 35.25 92.47 34.6 92.47C33.95 92.48 33.06 92.59 32.63 92.73Z" />
		<path id="Path 14" class="shp0" d="M236.57 97.08C236.3 97.13 235.89 97.21 235.65 97.27C235.29 97.35 235.22 97.51 235.21 98.29C235.2 98.8 235.05 100.27 234.88 101.57C234.71 102.86 234.23 105.99 233.8 108.52C233.37 111.05 232.91 113.75 232.78 114.53L232.53 115.93L237.65 117.36C238.11 116.67 238.99 115.45 239.9 114.21C240.81 112.96 242.96 110.12 244.68 107.88L247.81 103.82C247.5 102.45 247.22 101.68 247 101.22C246.77 100.77 246.37 100.11 246.11 99.76C245.85 99.4 245.22 98.84 244.7 98.5C244.19 98.15 243.28 97.71 242.68 97.5C241.94 97.25 240.88 97.11 239.33 97.06C238.08 97.02 236.84 97.03 236.57 97.08Z" />
		<path id="Path 15" class="shp1" d="M365.98 97.89C365.42 98.08 364.46 98.59 363.83 99.02C363.2 99.45 362.4 100.2 362.05 100.69C361.69 101.17 361.25 101.92 361.07 102.35C360.89 102.78 360.69 103.75 360.64 104.51C360.56 105.55 360.69 106.62 361.15 108.96C361.48 110.66 361.75 112.33 361.75 112.68C361.75 113.03 361.6 113.62 361.41 114C361.19 114.42 360.74 114.84 360.18 115.13C359.69 115.38 358.98 115.58 358.6 115.57C358.22 115.57 357.56 115.41 357.12 115.21C356.69 115.02 356.08 114.55 355.76 114.19C355.45 113.82 355.03 113.16 354.83 112.73C354.63 112.3 354.47 111.55 354.46 111.07C354.46 110.52 354.64 109.82 354.94 109.21C355.2 108.67 355.82 107.85 356.32 107.39L357.22 106.56C355.37 104.06 354.7 103.31 354.55 103.28C354.39 103.25 353.52 103.96 352.62 104.85C351.5 105.95 350.79 106.84 350.4 107.64C349.88 108.7 349.83 109 349.84 110.77C349.85 112.32 349.94 112.95 350.28 113.76C350.52 114.33 351.06 115.34 351.49 116.01C351.91 116.69 352.71 117.66 353.26 118.17C353.81 118.68 354.68 119.3 355.2 119.54C355.99 119.91 356.47 119.98 358.22 119.98C360.27 119.98 360.33 119.97 361.97 119.16C362.9 118.7 364.06 117.93 364.63 117.4C365.18 116.88 365.88 115.97 366.19 115.38C366.66 114.49 366.77 113.99 366.84 112.54C366.91 111.13 366.82 110.24 366.39 108.13C366.09 106.67 365.83 105 365.82 104.4C365.8 103.67 365.91 103.14 366.14 102.78C366.33 102.49 366.82 102.11 367.23 101.94C367.82 101.69 368.11 101.67 368.7 101.84C369.11 101.96 369.72 102.34 370.06 102.69C370.4 103.04 370.89 103.75 371.15 104.26C371.44 104.86 371.61 105.53 371.61 106.12C371.6 106.74 371.45 107.27 371.16 107.72C370.92 108.09 370.47 108.57 370.17 108.8L369.61 109.21C371.31 112.02 371.92 112.83 372.06 112.83C372.19 112.82 372.72 112.51 373.24 112.14C373.75 111.77 374.45 111.08 374.79 110.63C375.13 110.17 375.57 109.44 375.77 109.01C375.97 108.58 376.19 107.7 376.26 107.05C376.35 106.22 376.29 105.5 376.06 104.6C375.88 103.9 375.4 102.72 375 101.96C374.6 101.21 373.83 100.15 373.29 99.6C372.75 99.06 371.86 98.39 371.32 98.13C370.55 97.76 369.95 97.64 368.65 97.6C367.45 97.56 366.7 97.64 365.98 97.89Z" />
		<path id="Path 16" class="shp0" d="M261.02 98.55C260.42 98.66 259.27 98.97 258.45 99.24C257.64 99.51 256.28 100.1 255.43 100.55C254.57 101 252.98 102.04 251.88 102.87C250.78 103.69 248.81 105.45 247.5 106.79C246.2 108.12 244.53 109.96 243.8 110.87C243.07 111.79 241.78 113.51 240.93 114.69C240.08 115.88 238.69 117.95 237.84 119.29C236.99 120.64 235.56 123.07 234.65 124.68C233.74 126.3 232.16 129.29 231.14 131.34C230.13 133.39 228.63 136.61 227.81 138.49C227 140.38 226.35 141.94 226.38 141.96C226.4 141.99 226.92 141.81 227.54 141.57C228.48 141.21 230.33 139.69 239.07 132.13C244.8 127.18 249.75 123 250.07 122.85C250.54 122.63 250.82 122.62 251.4 122.79C251.83 122.92 252.29 123.24 252.49 123.55C252.68 123.84 252.83 124.4 252.83 124.79C252.83 125.18 252.7 125.66 252.54 125.86C252.38 126.06 248.85 129.15 244.7 132.75C240.55 136.34 237.32 139.27 237.51 139.27C237.7 139.27 238.43 139.18 239.13 139.08C239.84 138.98 242.19 138.76 244.36 138.59C246.53 138.42 248.83 138.21 249.48 138.12C250.13 138.03 251.24 137.71 251.95 137.42C252.65 137.13 254.65 136.17 256.38 135.29C258.12 134.41 260.82 132.85 262.4 131.81C263.97 130.78 266.41 129.03 267.82 127.92C269.23 126.81 271.94 124.35 273.84 122.45C275.74 120.55 277.72 118.43 278.24 117.73C278.75 117.03 279.36 115.97 279.57 115.38C279.79 114.78 280.11 113.77 280.29 113.12C280.46 112.48 280.6 111.16 280.61 110.19C280.61 109.09 280.49 108.02 280.29 107.35C280.11 106.75 279.58 105.7 279.12 105.01C278.65 104.31 277.73 103.32 277.08 102.8C276.43 102.28 275.1 101.46 274.13 100.99C273.15 100.51 271.6 99.91 270.68 99.64C269.75 99.37 268.25 99.01 267.32 98.84C266.4 98.67 264.85 98.49 263.87 98.44C262.9 98.39 261.61 98.44 261.02 98.55Z" />
		<path id="Path 17" class="shp1" d="M19.04 114.43C18.57 115.42 18.17 116.32 18.16 116.44C18.15 116.56 23.51 119.14 30.07 122.18C36.62 125.23 42.03 127.7 42.08 127.67C42.12 127.64 42.56 126.78 43.05 125.76C43.54 124.74 43.88 123.84 43.81 123.77C43.73 123.71 38.61 121.3 32.43 118.42C26.25 115.54 20.9 113.06 20.55 112.9L19.91 112.63L19.04 114.43ZM374.37 122.53C373.67 122.69 372.51 123.01 371.81 123.24C371.1 123.47 369.86 123.97 369.05 124.34C368.24 124.71 366.91 125.46 366.11 126.02C365.31 126.58 364.21 127.52 363.68 128.11C363.15 128.7 362.41 129.8 362.04 130.56C361.66 131.31 361.26 132.46 361.14 133.1C361.03 133.75 360.99 134.76 361.06 135.36C361.14 135.95 361.41 137.07 361.67 137.86C361.93 138.64 362.45 139.74 362.81 140.3C363.17 140.87 363.88 141.71 364.39 142.16C364.89 142.62 365.75 143.22 366.29 143.49C366.83 143.76 367.83 144.11 368.51 144.27C369.18 144.43 370.56 144.56 371.56 144.56C372.57 144.56 374.03 144.43 374.82 144.26C375.6 144.09 376.89 143.74 377.67 143.48C378.46 143.21 379.75 142.68 380.53 142.28C381.32 141.89 382.45 141.24 383.05 140.84C383.64 140.44 384.52 139.72 385 139.25C385.47 138.78 386.16 137.95 386.52 137.41C386.88 136.88 387.37 135.91 387.6 135.26C387.82 134.61 388.06 133.47 388.11 132.71C388.18 131.8 388.1 130.89 387.88 129.97C387.7 129.22 387.25 128.03 386.88 127.33C386.51 126.63 385.91 125.7 385.55 125.27C385.18 124.84 384.45 124.2 383.92 123.86C383.38 123.51 382.41 123.04 381.76 122.81C380.86 122.49 380 122.37 378.12 122.31C376.41 122.26 375.26 122.33 374.37 122.53Z" />
		<path id="Path 18" class="shp0" d="M126.47 123.49C125.27 123.74 123.5 124.24 122.52 124.58C121.55 124.92 119.73 125.71 118.48 126.32C117.24 126.94 115.33 128 114.24 128.67C113.16 129.34 111.47 130.46 110.5 131.15C109.52 131.85 107.44 133.58 105.87 135.01C104.3 136.44 102.28 138.32 101.38 139.18C100.42 140.1 99.5 141.19 99.16 141.82C98.78 142.53 98.58 143.2 98.57 143.78C98.56 144.38 98.69 144.84 98.96 145.2C99.18 145.5 99.74 145.93 100.2 146.16C100.78 146.46 101.52 146.61 102.61 146.68C103.48 146.72 104.72 146.66 105.37 146.52C106.02 146.39 108.15 145.77 110.1 145.15C112.06 144.52 114.32 143.83 115.13 143.62C115.94 143.41 117.54 143.12 118.68 142.99C120.1 142.82 122.47 142.78 126.27 142.86C130.07 142.94 133.3 143.13 136.62 143.47C139.28 143.74 142.42 144.11 143.62 144.28C144.81 144.46 146.63 144.77 147.66 144.98C148.69 145.19 151.17 145.89 153.18 146.55C155.18 147.2 157.45 147.86 158.21 148L159.59 148.26C161.29 146.38 162.39 145.42 163.15 144.92C163.9 144.41 165.05 143.78 165.7 143.51C166.41 143.21 166.85 142.92 166.82 142.76C166.78 142.62 166.38 142.03 165.93 141.45C165.48 140.87 164.57 139.91 163.92 139.32C163.27 138.73 161.68 137.46 160.37 136.49C159.07 135.52 156.9 134.05 155.54 133.21C154.19 132.38 151.88 131.03 150.42 130.22C148.96 129.41 146.16 127.96 144.21 126.99C142.26 126.02 140.04 124.98 139.28 124.68C138.52 124.38 137.15 123.92 136.22 123.66C134.88 123.27 133.97 123.16 131.59 123.1C129.01 123.03 128.36 123.08 126.47 123.49Z" />
		<path id="Path 19" class="shp1" d="M14.23 125.01C14.13 125.26 12.83 128.9 11.34 133.1C9.86 137.31 8.72 140.8 8.81 140.86C8.9 140.93 9.83 141.28 10.89 141.65C11.94 142.01 12.84 142.27 12.88 142.21C12.92 142.16 13.38 140.88 13.9 139.37C14.42 137.86 14.9 136.56 14.96 136.46C15.03 136.37 18.63 137.54 22.97 139.05C27.3 140.56 31.98 142.2 33.37 142.69L35.88 143.58C36.96 140.32 37.25 139.37 37.22 139.36C37.19 139.35 32.55 137.73 26.91 135.76C21.27 133.79 16.61 132.14 16.56 132.1C16.51 132.06 16.93 130.75 17.5 129.19C18.07 127.63 18.52 126.27 18.51 126.17C18.5 126.07 17.67 125.71 16.68 125.37C15.69 125.03 14.78 124.7 14.65 124.65C14.53 124.6 14.34 124.76 14.23 125.01Z" />
		<path id="Path 20" class="shp0" d="M375.55 126.94C375.07 127.05 374.09 127.32 373.39 127.55C372.68 127.78 371.44 128.3 370.63 128.7C369.81 129.1 368.63 129.9 368 130.48C367.28 131.13 366.65 131.95 366.33 132.62C365.94 133.42 365.81 133.99 365.82 134.87C365.83 135.73 365.96 136.3 366.34 137.02C366.62 137.56 367.1 138.24 367.4 138.53C367.71 138.82 368.41 139.25 368.95 139.49C369.55 139.76 370.48 139.96 371.32 140.01C372.37 140.07 373.17 139.97 374.67 139.58C375.75 139.3 377.44 138.69 378.41 138.24C379.58 137.69 380.59 137.04 381.35 136.33C382.03 135.71 382.7 134.85 382.97 134.28C383.3 133.59 383.44 132.95 383.44 132.13C383.44 131.31 383.3 130.65 382.98 129.97C382.73 129.43 382.22 128.69 381.85 128.32C381.48 127.95 380.77 127.48 380.29 127.26C379.72 127.01 378.87 126.85 377.92 126.81C377.11 126.78 376.04 126.84 375.55 126.94ZM270.58 130.73C269.93 130.88 268.86 131.21 268.21 131.47C267.56 131.73 266.41 132.29 265.65 132.71C264.89 133.13 263.43 134.11 262.4 134.88C261.37 135.66 260.36 136.49 260.16 136.74L259.79 137.19C262.5 136.99 265.63 136.83 268.51 136.71C271.49 136.58 275.87 136.54 278.71 136.61L283.69 136.73C283.37 135.74 283.11 135.19 282.91 134.87C282.71 134.54 282.16 133.93 281.69 133.51C281.21 133.08 280.12 132.41 279.25 132.01C278.38 131.62 277.05 131.15 276.29 130.96C275.53 130.78 274.2 130.59 273.34 130.55C272.41 130.5 271.27 130.57 270.58 130.73Z" />
		<path id="Path 21" class="shp1" d="M268.21 138.5C265.28 138.58 261.47 138.75 259.73 138.87C258 138.99 255.2 139.22 253.52 139.37C251.84 139.53 248.21 139.88 245.44 140.15C242.68 140.42 239.39 140.77 238.15 140.93C236.9 141.08 234.99 141.4 233.91 141.63C232.82 141.86 230.87 142.35 229.57 142.73C228.27 143.11 225.83 143.95 224.15 144.6C222.47 145.25 220.52 145.9 219.81 146.05C219.11 146.2 218.13 146.32 217.64 146.32C217.16 146.32 216.18 146.2 215.48 146.05C214.77 145.9 213.66 145.56 213.01 145.29C212.36 145.02 210.68 144.04 209.27 143.1C207.86 142.16 206.08 141.1 205.32 140.75C204.56 140.39 203.45 139.99 202.86 139.86C202.19 139.7 201.14 139.65 200.1 139.72C198.92 139.8 197.7 140.06 195.96 140.62C194.6 141.05 193.01 141.54 192.41 141.72C191.81 141.89 190.7 142.11 189.95 142.21C189.05 142.33 188.11 142.32 187.28 142.19C186.58 142.08 184.94 141.65 183.64 141.23C182.34 140.82 180.69 140.37 179.99 140.25C179.29 140.12 178.27 140.08 177.72 140.15C177.18 140.21 176.21 140.44 175.55 140.65C174.9 140.86 173.31 141.65 172.01 142.41C170.7 143.16 168.71 144.23 167.57 144.77C166.43 145.32 164.97 146.02 164.32 146.33C163.67 146.65 162.75 147.23 162.27 147.64C161.79 148.05 161.17 148.78 160.89 149.27C160.47 150 160.39 150.37 160.41 151.52C160.43 152.69 160.55 153.1 161.19 154.36C161.66 155.29 162.34 156.22 163.05 156.9C163.66 157.5 165.08 158.56 166.21 159.26C167.52 160.07 168.78 161.06 169.7 162C170.49 162.81 171.22 163.73 171.32 164.05C171.42 164.38 171.58 165.66 171.68 166.9C171.78 168.13 171.81 169.41 171.76 169.74C171.71 170.06 171.8 170.76 171.97 171.3C172.14 171.84 172.42 172.41 172.6 172.58C172.8 172.77 172.97 172.8 173.1 172.67C173.21 172.57 173.43 171.33 173.6 169.93C173.77 168.53 173.99 167.23 174.09 167.04C174.19 166.85 174.43 166.69 174.62 166.68C174.81 166.67 175.18 166.67 175.46 166.69C175.73 166.71 176.44 167 177.03 167.33C177.63 167.66 178.65 168.28 179.3 168.72C179.95 169.15 180.5 169.51 180.53 169.52C180.55 169.53 180.11 170.05 179.54 170.66C178.95 171.31 178.31 172.27 178.05 172.92C177.7 173.77 177.52 174.81 177.31 177.18C177.16 178.9 177.03 180.8 177.01 181.39C176.99 182.06 177.1 182.71 177.3 183.1C177.48 183.45 177.74 183.74 177.87 183.74C178.01 183.74 178.22 183.67 178.34 183.59C178.46 183.51 178.7 183.16 178.88 182.81C179.06 182.46 179.34 181.4 179.5 180.46C179.66 179.52 179.8 178.31 179.8 177.77C179.8 177.23 179.96 176.43 180.16 176C180.35 175.57 180.82 174.96 181.19 174.65C181.56 174.34 182.22 173.92 182.65 173.73C183.09 173.53 183.77 173.37 184.18 173.36C184.59 173.36 185.3 173.51 185.76 173.68C186.22 173.86 188.41 175.35 190.64 176.99C192.86 178.63 195.65 180.61 196.85 181.39C198.04 182.17 199.59 183.09 200.3 183.44C201 183.8 202.6 184.48 203.84 184.97C205.09 185.46 207.71 186.4 209.66 187.06C211.61 187.73 213.51 188.46 213.88 188.7C214.25 188.94 214.73 189.39 214.96 189.72C215.18 190.04 215.52 190.83 215.72 191.48C215.92 192.13 216.25 194.06 216.46 195.79C216.73 197.95 216.9 201.05 217 205.75C217.14 212.25 217.17 212.58 217.55 212.85C217.76 213 218.03 213.1 218.14 213.06C218.25 213.03 218.44 212.78 218.57 212.52C218.7 212.26 218.94 211.21 219.1 210.19C219.27 209.16 219.5 206.74 219.61 204.8C219.73 202.86 219.91 199.77 220.01 197.94C220.1 196.11 220.29 194.17 220.42 193.63C220.55 193.09 220.81 192.35 221 191.97C221.18 191.59 221.59 191.06 221.91 190.78C222.22 190.51 222.83 190.17 223.26 190.03C223.7 189.89 224.34 189.82 224.69 189.89C225.08 189.96 225.56 190.28 225.92 190.7C226.25 191.07 226.6 191.71 226.71 192.12C226.81 192.52 227.3 194.5 227.79 196.52C228.28 198.54 228.68 200.35 228.68 200.54C228.68 200.73 229.3 202.16 230.06 203.72C230.85 205.37 231.59 207.22 231.81 208.13C232.02 208.99 232.44 211.33 232.73 213.32C233.03 215.31 233.5 218.09 233.79 219.49L234.3 222.04C236.2 222.12 236.6 222.05 236.67 221.89C236.72 221.76 237.12 219.05 237.55 215.87C238.28 210.41 238.35 210.06 238.83 209.6C239.21 209.23 239.55 209.11 240.18 209.11C240.69 209.11 241.38 209.3 241.95 209.6C242.47 209.87 245.48 212.07 248.64 214.5C251.8 216.92 255.32 219.74 256.45 220.76C257.59 221.79 259.06 223.1 259.72 223.68C260.38 224.26 261.89 225.46 263.09 226.35C264.28 227.24 265.96 228.37 266.83 228.87C267.7 229.37 269.07 230 269.89 230.28C270.7 230.56 271.94 230.84 272.65 230.9C273.52 230.97 274.34 230.89 275.21 230.67C275.91 230.48 276.75 230.14 277.06 229.91C277.38 229.67 278.19 228.64 278.87 227.62C279.55 226.6 280.41 225.19 280.8 224.49C281.18 223.79 281.74 222.51 282.04 221.65L282.58 220.08C282.63 208.69 282.7 205.19 282.77 204.95C282.9 204.51 282.91 204.51 283.93 204.8C284.5 204.97 285.94 205.28 287.14 205.51C288.93 205.84 290.38 205.93 295.42 206.01C299.44 206.08 302.37 206.04 303.99 205.88C305.35 205.75 307.08 205.49 307.84 205.3C308.6 205.1 309.68 204.71 310.25 204.43C310.82 204.15 311.66 203.59 312.11 203.18C312.56 202.78 313.25 201.96 313.64 201.37C314.04 200.78 314.52 199.72 314.72 199.02C314.99 198.06 315.05 197.31 314.99 195.98C314.92 194.65 314.77 193.91 314.36 192.95C314.07 192.25 313.41 191.06 312.9 190.31C312.39 189.55 311.22 188.19 310.3 187.27C309.37 186.35 307.78 184.97 306.75 184.21C305.72 183.44 304.08 182.3 303.1 181.68C302.13 181.05 300.04 179.81 298.47 178.92C296.9 178.02 295.75 177.25 295.91 177.21C296.07 177.17 297.36 176.85 298.77 176.51C300.47 176.1 301.96 175.59 303.2 174.99C304.59 174.32 305.39 173.77 306.28 172.89C307.28 171.91 307.55 171.49 307.84 170.52C308.07 169.71 308.14 169.04 308.06 168.36C307.99 167.83 307.73 166.94 307.48 166.41C307.23 165.87 306.45 164.82 305.75 164.08C305.06 163.34 303.61 162.15 302.55 161.44C300.92 160.35 300.66 160.11 300.94 159.94C301.13 159.83 302 159.24 302.88 158.63C303.76 158.02 305.13 156.96 305.92 156.28C306.7 155.6 307.74 154.52 308.23 153.87C308.72 153.22 309.3 152.23 309.51 151.67C309.76 151.03 309.91 150.17 309.9 149.41C309.9 148.55 309.77 147.9 309.45 147.21C309.2 146.67 308.64 145.84 308.22 145.37C307.79 144.9 306.91 144.15 306.26 143.72C305.61 143.28 304.46 142.64 303.7 142.3C302.94 141.96 301.43 141.4 300.34 141.05C299.26 140.7 297.62 140.25 296.7 140.04C295.78 139.82 293.96 139.48 292.66 139.27C291.36 139.06 288.78 138.8 286.94 138.7C285.1 138.59 281.33 138.48 278.56 138.43C275.8 138.39 271.14 138.42 268.21 138.5Z" />
		<path id="Path 22" class="shp0" d="M265.75 141.94C265.15 141.98 262.98 142.1 260.92 142.22C258.86 142.33 255.88 142.55 254.31 142.7C252.74 142.86 249.1 143.2 246.23 143.48C243.36 143.76 239.81 144.16 238.34 144.37C236.88 144.58 234.57 145.03 233.22 145.37C231.86 145.7 230.09 146.24 229.28 146.56C228.46 146.88 227.26 147.43 226.61 147.79C225.96 148.15 224.97 148.85 224.4 149.34C223.62 150.02 223.36 150.38 223.36 150.78C223.35 151.11 223.56 151.54 223.9 151.87L224.45 152.42C227.35 151.52 229.03 151.03 230.06 150.76C231.09 150.48 232.74 150.12 233.71 149.96C234.69 149.8 236.95 149.58 238.74 149.47C240.53 149.36 244.81 149.27 248.25 149.27C251.69 149.27 255.86 149.36 257.52 149.47C259.17 149.58 262.12 149.85 264.07 150.07C266.02 150.28 269.39 150.76 271.56 151.12C273.73 151.49 276.75 152.06 278.27 152.39C279.78 152.73 282.36 153.36 283.98 153.8C285.61 154.24 288.14 154.99 289.6 155.48C291.06 155.97 293.28 156.78 294.53 157.3L296.8 158.23C299.09 157.02 300.33 156.26 301.03 155.76C301.74 155.26 302.89 154.37 303.58 153.77C304.28 153.18 305.15 152.3 305.52 151.81C305.88 151.33 306.28 150.62 306.39 150.24C306.51 149.87 306.55 149.32 306.48 149.02C306.41 148.72 305.94 148.04 305.42 147.49C304.75 146.78 303.97 146.25 302.71 145.64C301.73 145.17 299.87 144.47 298.57 144.08C297.27 143.69 295.05 143.16 293.64 142.9C292.23 142.65 290.24 142.33 289.21 142.21C288.07 142.07 283.28 141.96 277.08 141.93C271.44 141.9 266.34 141.9 265.75 141.94ZM201.28 144.43C200.69 144.56 199.89 144.86 199.51 145.09C199.13 145.32 198.71 145.73 198.57 146.01C198.44 146.29 198.32 146.68 198.32 146.87C198.32 147.05 198.48 147.43 198.67 147.69C198.86 147.95 199.64 148.46 200.39 148.8C201.15 149.15 202.55 149.62 203.5 149.84C204.45 150.06 205.62 150.24 206.11 150.24C206.6 150.24 207.41 150.13 207.92 150C208.46 149.86 208.99 149.55 209.22 149.27C209.51 148.89 209.57 148.59 209.48 147.99C209.42 147.56 209.15 146.92 208.87 146.57C208.6 146.22 208 145.72 207.54 145.46C207.08 145.2 206.3 144.86 205.82 144.7C205.33 144.54 204.35 144.36 203.65 144.3C202.92 144.23 201.9 144.29 201.28 144.43Z" />
		<path id="Path 23" class="shp1" d="M5.9 151.32C5.49 153.09 5.46 153.39 5.72 153.47C5.88 153.52 11.62 154.93 18.48 156.6C25.34 158.28 31.02 159.61 31.1 159.57C31.18 159.53 31.47 158.61 31.74 157.52C32.01 156.44 32.19 155.52 32.13 155.47C32.08 155.42 26.4 154.01 19.52 152.33C12.63 150.65 6.86 149.27 6.69 149.27C6.46 149.27 6.26 149.78 5.9 151.32Z" />
		<path id="Path 24" class="shp0" d="M172.95 151.27C172.62 151.62 172.19 152.22 172 152.6C171.81 152.97 171.53 153.72 171.39 154.26C171.24 154.8 171.12 155.72 171.12 156.32C171.12 156.91 171.24 157.62 171.37 157.88C171.54 158.21 171.82 158.39 172.21 158.44C172.64 158.48 172.94 158.35 173.36 157.95C173.67 157.64 174.08 157.09 174.27 156.71C174.47 156.33 174.77 155.54 174.94 154.95C175.12 154.35 175.26 153.41 175.26 152.84C175.26 152.27 175.13 151.55 174.96 151.22C174.74 150.78 174.53 150.64 174.11 150.64C173.75 150.64 173.36 150.85 172.95 151.27Z" />
		<path id="Path 25" class="shp1" d="M381.27 150.95C380.46 151.09 379.04 151.44 378.12 151.73C377.2 152.01 376 152.47 375.46 152.74C374.91 153.01 373.94 153.6 373.29 154.06C372.64 154.51 371.72 155.32 371.25 155.85C370.78 156.37 370.12 157.38 369.78 158.08C369.27 159.13 369.14 159.65 369.08 161.02C369.04 161.93 369.1 163.15 369.22 163.71C369.34 164.28 369.69 165.25 369.98 165.87C370.28 166.49 370.92 167.4 371.41 167.89C371.9 168.38 372.88 169.06 373.58 169.41C374.29 169.76 375.57 170.17 376.44 170.32C377.31 170.48 378.33 170.61 378.71 170.61L379.4 170.62C379.93 167.58 380.09 166.59 380.09 166.45C380.09 166.3 379.62 166.16 378.76 166.07C378.03 166 377.03 165.8 376.54 165.63C376.05 165.45 375.35 165.03 374.99 164.68C374.62 164.34 374.16 163.7 373.96 163.27C373.76 162.84 373.59 162.09 373.59 161.61C373.58 161.06 373.76 160.35 374.06 159.75C374.32 159.21 374.85 158.48 375.24 158.13C375.63 157.78 376.37 157.28 376.89 157.03C377.4 156.78 378.4 156.38 379.1 156.15C379.81 155.92 381.01 155.61 381.76 155.45C382.52 155.29 383.85 155.1 384.72 155.03C385.9 154.93 386.62 154.98 387.58 155.22C388.28 155.4 389.22 155.79 389.65 156.09C390.08 156.39 390.68 157.02 390.98 157.5C391.29 157.99 391.58 158.81 391.65 159.35C391.74 160.14 391.67 160.55 391.3 161.39C391.01 162.05 390.5 162.75 389.95 163.22C389.46 163.64 388.86 164.02 388.62 164.07C388.37 164.11 388.17 164.2 388.17 164.25C388.17 164.3 388.63 165.21 389.19 166.26C389.75 167.31 390.24 168.19 390.27 168.22C390.31 168.24 390.89 167.98 391.56 167.63C392.24 167.28 393.25 166.55 393.81 166.01C394.46 165.39 395.08 164.53 395.49 163.66C396.08 162.46 396.16 162.07 396.22 160.43C396.27 158.99 396.19 158.28 395.88 157.3C395.67 156.6 395.14 155.49 394.73 154.85C394.31 154.2 393.53 153.35 392.99 152.95C392.45 152.56 391.53 152.01 390.93 151.73C390.34 151.46 389.23 151.1 388.47 150.94C387.67 150.77 386.17 150.65 384.92 150.66C383.73 150.67 382.08 150.8 381.27 150.95Z" />
		<path id="Path 26" class="shp0" d="M129.52 151.71C127.19 151.86 123.46 152.07 121.24 152.2C119.02 152.32 115.78 152.55 114.05 152.71C112.31 152.88 107.92 153.4 104.29 153.88C100.66 154.36 95.95 155.02 93.84 155.35C91.72 155.68 88.97 156.17 87.73 156.44C86.48 156.72 84.17 157.36 82.6 157.87C81.03 158.39 78.95 159.2 77.97 159.68C76.99 160.15 75.66 160.9 75.01 161.32C74.36 161.75 73.31 162.62 72.68 163.27C71.99 163.97 71.28 164.96 70.91 165.72C70.46 166.66 70.28 167.35 70.22 168.36C70.17 169.12 70.24 170.22 70.37 170.81C70.49 171.41 70.85 172.42 71.16 173.07C71.47 173.71 72.11 174.74 72.58 175.35C73.05 175.96 73.97 176.88 74.62 177.4C75.27 177.93 76.42 178.76 77.18 179.26C77.94 179.76 79.4 180.61 80.43 181.16C81.46 181.71 83.33 182.56 84.57 183.06C85.82 183.56 87.99 184.3 89.4 184.71C90.81 185.12 93.08 185.68 94.43 185.96C95.79 186.24 98.14 186.64 99.65 186.85C101.17 187.07 103.61 187.36 105.08 187.49C106.67 187.64 110.5 187.74 114.64 187.74C119.56 187.73 122.58 187.63 125.18 187.39C127.19 187.21 129.36 186.98 130.01 186.9C131.07 186.76 131.45 186.56 133.56 185.07C134.86 184.15 136.9 182.78 138.1 182.03C139.29 181.28 141.33 180.06 142.63 179.33C143.93 178.59 146.15 177.44 147.56 176.77C148.97 176.1 151.05 175.18 152.19 174.72C153.33 174.26 155.68 173.43 157.42 172.86L160.57 171.83C159.04 171.17 157.56 170.63 156.28 170.21C155.01 169.79 152.84 169.2 151.45 168.92C149.27 168.46 148.49 168.39 145.49 168.39C142.57 168.4 141.8 168.46 140.46 168.82C139.6 169.06 138.64 169.25 138.34 169.25C138.05 169.25 137.62 169.16 137.41 169.05C137.19 168.94 136.88 168.59 136.72 168.27C136.55 167.94 136.42 167.41 136.42 167.09C136.42 166.72 136.63 166.28 136.96 165.91C137.4 165.44 137.91 165.21 139.48 164.8C141.3 164.32 141.74 164.28 145.49 164.27C149.15 164.27 149.77 164.32 152.09 164.81C153.5 165.1 156.12 165.83 157.91 166.42C159.71 167.02 162.53 168.15 164.22 168.97L167.27 170.44L170.17 170.13C170.03 165.15 169.95 164.51 169.63 163.9C169.33 163.33 168.87 162.94 167.57 162.2C166.65 161.68 165.1 160.64 164.12 159.9C163.14 159.15 161.87 158.02 161.29 157.38C160.72 156.74 160.05 155.89 159.82 155.49C159.58 155.1 159.26 154.73 159.09 154.68C158.93 154.63 157.69 154.28 156.33 153.89C154.98 153.5 152.83 152.96 151.55 152.69C150.28 152.42 148.37 152.06 147.31 151.89C145.95 151.67 143.7 151.56 139.58 151.51C136.15 151.48 132.02 151.56 129.52 151.71ZM242.68 152.8C241.65 152.9 239.88 153.12 238.74 153.29C237.6 153.46 235.91 153.78 234.99 154.01C234.07 154.23 232.67 154.66 231.89 154.97C231.1 155.28 230.13 155.74 229.72 155.99C229.31 156.24 228.74 156.73 228.44 157.07C228.14 157.41 227.84 157.89 227.77 158.13C227.69 158.41 227.82 158.93 228.12 159.55C228.47 160.29 228.68 160.52 228.98 160.49C229.2 160.46 230.13 160.34 231.05 160.22C232.04 160.08 233.45 160.04 234.5 160.12C235.48 160.19 238.18 160.52 240.51 160.84C242.84 161.16 246.57 161.69 248.79 162.02C251.02 162.34 254.61 162.96 256.78 163.39C258.95 163.82 262.27 164.56 264.17 165.03C266.07 165.51 269.13 166.34 270.97 166.9C272.81 167.45 275.92 168.48 277.87 169.18C279.82 169.89 282.66 170.99 284.18 171.64C285.7 172.29 287.74 173.21 288.71 173.7L290.49 174.59C294.31 174.1 296.48 173.69 297.78 173.36C299.08 173.04 300.85 172.44 301.7 172.04C302.69 171.57 303.53 171 304.02 170.47C304.57 169.86 304.78 169.46 304.78 169C304.79 168.63 304.55 167.99 304.22 167.48C303.91 167 303.27 166.25 302.79 165.81C302.31 165.37 301.39 164.66 300.74 164.22C300.09 163.78 298.71 162.97 297.68 162.43C296.65 161.88 294.7 160.99 293.35 160.44C291.99 159.89 289.42 158.96 287.63 158.39C285.84 157.81 282.96 156.98 281.22 156.55C279.49 156.11 276.74 155.49 275.11 155.17C273.48 154.84 270.69 154.36 268.9 154.08C267.11 153.81 263.92 153.4 261.8 153.17C258.9 152.86 256.31 152.74 251.26 152.69C247.57 152.65 243.71 152.7 242.68 152.8ZM231.54 163.48C231.33 163.53 230.7 163.66 230.16 163.76C229.59 163.88 228.89 164.19 228.49 164.52C227.87 165.03 227.8 165.18 227.81 166.04C227.82 166.68 228.03 167.41 228.44 168.27C228.78 168.97 229.58 170.16 230.22 170.91C230.87 171.68 232.02 172.72 232.84 173.28C233.64 173.83 235.5 174.98 236.96 175.85C238.43 176.71 242.07 178.72 245.05 180.31C248.03 181.91 251.62 183.88 253.03 184.68C254.44 185.48 257.77 187.51 260.42 189.19C263.08 190.86 266.72 193.11 268.51 194.19C270.3 195.27 273 196.78 274.52 197.55C276.04 198.32 278.43 199.4 279.84 199.95C281.25 200.5 283.43 201.22 284.67 201.54C285.92 201.86 287.6 202.24 288.42 202.39C289.46 202.57 292 202.64 297.09 202.64C302.29 202.64 304.67 202.57 305.67 202.38C306.43 202.24 307.54 201.93 308.13 201.71C308.73 201.48 309.56 200.98 309.97 200.6C310.39 200.22 310.96 199.42 311.24 198.82C311.62 198.02 311.75 197.45 311.74 196.57C311.73 195.9 311.55 194.93 311.32 194.32C311.1 193.73 310.49 192.67 309.98 191.97C309.46 191.27 308.42 190.09 307.65 189.35C306.89 188.61 305.46 187.41 304.48 186.68C303.51 185.95 302.09 184.96 301.33 184.47C300.57 183.99 298.22 182.6 296.11 181.4C293.99 180.2 290.89 178.52 289.21 177.68C287.53 176.84 284.91 175.61 283.39 174.96C281.87 174.31 279.21 173.25 277.48 172.61C275.74 171.96 273.04 171.04 271.46 170.56C269.89 170.07 267.45 169.36 266.04 168.98C264.63 168.59 262.1 167.96 260.42 167.58C258.74 167.19 255.73 166.58 253.72 166.21C251.72 165.85 248.39 165.32 246.33 165.04C244.27 164.76 241.1 164.31 239.28 164.05C237.46 163.78 235.07 163.53 233.96 163.48C232.85 163.43 231.76 163.43 231.54 163.48Z" />
		<path id="Path 27" class="shp1" d="M6.6 164.5C6.05 164.69 5.23 165.08 4.77 165.38C4.32 165.67 3.68 166.33 3.36 166.85C3.03 167.36 2.64 168.31 2.48 168.95C2.32 169.6 1.87 172.51 1.48 175.42C1.1 178.33 0.8 180.73 0.83 180.76C0.86 180.78 6.74 181.59 13.9 182.56C21.05 183.52 26.97 184.24 27.03 184.17C27.1 184.1 27.26 183.15 27.39 182.08C27.51 181 27.56 180.07 27.49 180.02C27.42 179.97 25 179.61 22.11 179.23L16.86 178.55C16.93 176.96 17.13 176.14 17.35 175.71C17.61 175.19 18.05 174.75 18.68 174.39C19.19 174.09 21.7 173.05 24.25 172.06C27.56 170.77 28.91 170.16 29 169.9C29.06 169.7 29.24 168.6 29.39 167.44C29.55 166.29 29.63 165.3 29.57 165.24C29.52 165.18 27.92 165.66 26.02 166.32C24.13 166.98 21.91 167.79 21.09 168.13C20.28 168.47 19.06 169.16 18.38 169.68C17.71 170.19 17.11 170.62 17.05 170.62C17 170.62 16.95 170.35 16.95 170.03C16.95 169.71 16.78 168.98 16.57 168.41C16.35 167.8 15.83 167 15.29 166.45C14.8 165.94 14.04 165.35 13.6 165.13C13.17 164.92 12.26 164.61 11.58 164.45C10.9 164.29 9.73 164.16 8.97 164.16C8.19 164.16 7.16 164.31 6.6 164.5Z" />
		<path id="Path 28" class="shp0" d="M8.58 168.9C8.14 169.01 7.62 169.31 7.39 169.61C7.16 169.89 6.87 170.57 6.75 171.11C6.63 171.65 6.39 173.19 6.21 174.53C6.03 175.88 5.92 177 5.95 177.02C5.98 177.04 7.43 177.24 9.17 177.46C10.9 177.69 12.34 177.85 12.37 177.82C12.4 177.79 12.54 176.89 12.7 175.81C12.85 174.73 13.03 173.23 13.1 172.48C13.2 171.37 13.16 170.97 12.87 170.42C12.67 170.02 12.19 169.56 11.73 169.32C11.3 169.09 10.59 168.86 10.15 168.8C9.72 168.75 9.01 168.79 8.58 168.9ZM221.98 171.85C221.49 171.98 220.85 172.24 220.55 172.43C220.25 172.62 219.95 172.97 219.89 173.21C219.81 173.48 219.93 174.01 220.17 174.53C220.41 175.06 221.2 176.01 222.12 176.89C222.96 177.69 224.59 178.98 225.73 179.74C226.87 180.5 228.51 181.53 229.37 182.02C230.24 182.51 232.02 183.44 233.32 184.08C234.62 184.73 236.75 185.72 238.05 186.29C239.35 186.85 241.43 187.71 242.68 188.19C243.93 188.67 246.37 189.55 248.1 190.13C249.84 190.72 252.68 191.59 254.41 192.06C256.15 192.54 258.23 193.07 259.04 193.25C259.86 193.42 260.61 193.53 260.72 193.49C260.83 193.45 259.5 192.53 257.76 191.45C256.03 190.37 253.63 188.91 252.44 188.21C251.25 187.51 247.92 185.68 245.05 184.14C242.17 182.6 238.8 180.76 237.56 180.06C236.31 179.36 234.14 178.07 232.73 177.2C231.33 176.33 229.73 175.21 229.18 174.71C228.64 174.21 227.79 173.31 227.3 172.69L226.42 171.58C223.67 171.61 222.47 171.73 221.98 171.85Z" />
		<path id="Path 29" class="shp1" d="M251.16 173.4C251.01 173.53 250.9 173.86 250.92 174.13C250.95 174.41 251.03 174.73 251.11 174.86C251.19 174.98 252.59 175.93 254.21 176.97C255.84 178.01 257.33 178.85 257.52 178.85C257.71 178.85 258.13 178.56 258.46 178.21C258.8 177.85 259.11 177.27 259.17 176.89C259.23 176.51 259.18 176 259.06 175.76C258.94 175.52 258.65 175.19 258.4 175.02C258.16 174.86 256.58 174.38 254.9 173.95C253.22 173.52 251.76 173.17 251.64 173.17C251.53 173.17 251.31 173.27 251.16 173.4Z" />
		<path id="Path 30" fill-rule="evenodd" class="shp0" d="M175.95 173.37L175.79 174.29C175.71 174.8 175.52 176.45 175.37 177.96C175.22 179.47 175.16 181.18 175.36 182.8L173.98 183.49C173.22 183.87 171.89 184.64 171.02 185.2C170.15 185.76 168.83 186.78 168.09 187.47C167.34 188.17 166.44 189.13 166.09 189.62C165.73 190.1 165.42 190.68 165.4 190.89C165.38 191.11 165.37 191.48 165.38 191.72C165.39 191.97 165.67 192.43 165.99 192.75C166.47 193.22 166.75 193.34 167.42 193.33C168.22 193.33 168.34 193.24 169.94 191.55C170.86 190.57 172.28 189.33 173.09 188.79C173.9 188.25 175.37 187.43 176.34 186.97C177.32 186.51 179.05 185.81 180.19 185.41C181.33 185.02 183.28 184.44 184.52 184.13C185.77 183.82 188.08 183.34 189.65 183.08C191.22 182.81 192.95 182.53 193.49 182.46C194.41 182.34 194.6 182.4 196.24 183.28C197.42 183.92 198.15 184.45 198.46 184.92C198.72 185.29 199.1 186.18 199.32 186.88C199.54 187.58 199.71 188.68 199.7 189.32C199.7 190 199.51 191.04 199.26 191.78C199.01 192.48 198.51 193.58 198.13 194.21C197.75 194.84 196.68 196.15 195.76 197.12C194.84 198.09 193.2 199.54 192.11 200.34C190.72 201.38 189.42 202.62 187.67 204.58C186.31 206.1 182.59 210.3 179.41 213.91C176.23 217.52 172.63 221.66 171.4 223.11C170.18 224.57 168.4 226.43 167.44 227.24C166.48 228.06 164.85 229.38 163.82 230.19C162.79 230.99 161.33 232.1 160.57 232.64C159.81 233.19 158.39 234.16 157.42 234.81C156.44 235.45 154.65 236.57 153.43 237.28C152.21 238 149.99 239.2 148.5 239.94C147.01 240.68 144.54 241.78 143.03 242.38C141.51 242.98 139.16 243.77 137.8 244.14C136.45 244.51 134.23 245 132.87 245.22C131.52 245.44 129.43 245.68 128.24 245.75C127.03 245.82 125.03 245.78 123.71 245.65C122.41 245.53 120.59 245.27 119.66 245.07C118.74 244.87 117.28 244.46 116.41 244.17C115.54 243.88 113.81 243.12 112.57 242.5C111.32 241.87 109.5 240.8 108.53 240.12C107.55 239.44 105.58 237.74 104.15 236.34C101.91 234.14 101.46 233.6 100.92 232.42C100.58 231.67 100.13 230.39 99.93 229.58C99.72 228.77 99.55 227.58 99.56 226.93C99.56 226.29 99.65 225.43 99.75 225.02C99.86 224.62 100.19 224.01 100.49 223.67C100.79 223.33 101.48 222.84 102.02 222.59C102.89 222.19 103.31 222.14 107.93 222.14L110 220.81C111.14 220.08 113.01 218.78 114.14 217.92C115.28 217.07 117.1 215.6 118.19 214.67C119.27 213.74 121.18 211.93 122.43 210.65C123.69 209.37 125.37 207.53 126.18 206.56C126.99 205.59 128.19 204.05 128.85 203.13C129.5 202.22 130.61 200.54 131.3 199.41C132.39 197.65 133.09 196.84 136.22 193.73C138.23 191.73 140.98 189.18 142.34 188.06C143.69 186.93 145.86 185.23 147.17 184.27C148.47 183.32 150.55 181.89 151.8 181.1C153.05 180.32 155.17 179.1 156.53 178.39C157.89 177.68 159.97 176.71 161.16 176.23C162.36 175.74 164.13 175.12 165.11 174.84C166.08 174.55 167.77 174.14 168.85 173.92C170.53 173.58 170.97 173.56 171.81 173.75C172.61 173.94 172.94 173.92 173.58 173.69C174.02 173.53 174.73 173.4 175.95 173.37ZM183.55 175C183.87 175.07 184.77 175.42 185.56 175.79C186.57 176.26 187.29 176.78 188.02 177.55C188.59 178.15 189.04 178.71 189.01 178.79C188.98 178.87 187.81 179.17 186.4 179.45C184.99 179.74 183.24 180.16 181.17 180.8L181.17 179.53C181.17 178.83 181.27 177.79 181.4 177.23C181.56 176.49 181.82 176.01 182.3 175.54C182.86 174.99 183.08 174.9 183.55 175Z" />
		<path id="Path 31" class="shp1" d="M385.18 177.84C378.17 178.55 372.38 179.18 372.31 179.24C372.25 179.29 372.29 180.26 372.41 181.39C372.53 182.52 372.64 183.46 372.66 183.48C372.68 183.5 378.42 182.94 385.41 182.25C392.41 181.55 398.33 180.94 398.57 180.89C398.99 180.81 399.01 180.73 398.91 179.48C398.85 178.75 398.78 177.78 398.75 177.33C398.71 176.64 398.63 176.5 398.32 176.52C398.1 176.53 392.19 177.12 385.18 177.84ZM264.96 179.33C264.47 179.62 263.92 180.04 263.73 180.28C263.51 180.56 263.39 181.06 263.39 181.73L263.38 182.76C266.67 184.85 268.33 185.81 269.2 186.24C270.06 186.67 271.26 187.17 271.86 187.34C272.45 187.52 273.32 187.66 273.78 187.66C274.24 187.66 274.86 187.54 275.16 187.39C275.46 187.24 276.21 186.58 276.84 185.92C277.46 185.26 277.97 184.54 277.97 184.33C277.97 184.11 277.84 183.69 277.69 183.4C277.54 183.1 277.16 182.63 276.85 182.34C276.54 182.06 275.24 181.43 273.93 180.94C272.63 180.46 270.81 179.82 269.89 179.54C268.97 179.25 267.68 178.97 267.03 178.92C266.01 178.84 265.72 178.89 264.96 179.33ZM281.69 184.97C281.52 185.1 280.93 185.94 280.37 186.83C279.65 187.97 279.35 188.64 279.35 189.13C279.35 189.73 279.45 189.87 280.19 190.3C280.65 190.56 281.6 191 282.31 191.28C283.01 191.56 284.65 192.04 285.95 192.36C287.25 192.68 289.21 193.08 290.29 193.25C291.38 193.42 292.62 193.51 293.05 193.45C293.48 193.39 294.05 193.14 294.3 192.9C294.69 192.53 294.74 192.31 294.68 191.48C294.64 190.94 294.43 190.15 294.22 189.72C293.96 189.18 293.46 188.68 292.66 188.15C291.93 187.66 290.53 187.04 289.01 186.53C287.65 186.08 285.61 185.48 284.48 185.21C283.34 184.94 282.31 184.72 282.2 184.72C282.09 184.72 281.86 184.83 281.69 184.97Z" />
		<path id="Path 32" class="shp0" d="M206.74 189.67C207.01 190.56 207.55 192.12 207.93 193.14C208.31 194.17 209.12 196.11 209.73 197.45C210.33 198.8 211.26 200.74 211.79 201.76C212.31 202.79 213.29 204.61 213.96 205.82C214.63 207.03 215.2 208 215.23 207.97C215.25 207.95 215.18 205.47 215.08 202.45C214.97 199.43 214.79 196.17 214.67 195.2C214.55 194.17 214.28 193.08 214.03 192.57C213.8 192.09 213.2 191.35 212.72 190.93C212.23 190.51 211.41 189.95 210.89 189.7C210.38 189.44 209.36 189.06 208.62 188.86C207.89 188.66 207.09 188.4 206.85 188.28C206.61 188.15 206.37 188.05 206.33 188.05C206.29 188.05 206.47 188.78 206.74 189.67Z" />
		<path id="Path 33" class="shp1" d="M373.43 191.31L373.48 193.59L379.29 195.4L379.31 204.02C377.7 204.52 376.32 204.94 375.21 205.27L373.19 205.88C373.19 210.57 373.19 210.58 373.63 210.47C373.88 210.41 379.84 208.57 386.89 206.39L399.7 202.43L399.73 197.71C379.7 190.98 373.77 189.03 373.63 189.03C373.43 189.03 373.39 189.56 373.43 191.31ZM17.25 191.77C16.82 191.85 16.02 192.14 15.48 192.41C14.93 192.68 14.18 193.24 13.8 193.66C13.41 194.08 12.99 194.7 12.86 195.05L12.62 195.69C11.32 194.39 10.5 193.8 9.96 193.55C9.24 193.21 8.51 193.05 7.29 192.99C6.07 192.92 5.33 192.98 4.53 193.22C3.94 193.4 3.01 193.88 2.46 194.28C1.77 194.79 1.31 195.35 0.89 196.18L0.3 197.36L0.17 210.09C15.85 209.86 21.85 209.72 23.61 209.64L26.81 209.5C26.8 203.88 26.71 200.91 26.61 199.27C26.49 197.45 26.3 196.01 26.12 195.59C25.96 195.22 25.44 194.49 24.96 193.98C24.49 193.46 23.62 192.81 23.04 192.53C22.46 192.24 21.45 191.91 20.8 191.79C20.15 191.67 19.26 191.58 18.83 191.6C18.39 191.61 17.68 191.69 17.25 191.77Z" />
		<path id="Path 34" fill-rule="evenodd" class="shp0" d="M223.46 193.27L223.72 194.14C223.87 194.62 224.5 196.11 225.13 197.45C225.76 198.8 226.98 201.4 227.85 203.23C228.71 205.06 229.64 207.18 229.92 207.93C230.2 208.69 230.52 209.88 230.64 210.58C230.76 211.28 230.99 213.09 231.14 214.59C231.3 216.1 231.66 218.44 231.93 219.78C232.21 221.13 232.53 222.56 232.63 222.97C232.74 223.39 233.06 223.87 233.37 224.1C233.73 224.37 234.2 224.5 234.8 224.49C235.28 224.48 236.03 224.37 236.44 224.24C236.86 224.1 237.51 223.75 237.87 223.46C238.31 223.1 238.68 222.53 238.95 221.79C239.22 221.04 239.42 219.77 239.56 217.92C239.67 216.42 239.8 215.14 239.86 215.08C239.92 215.03 240.59 215.65 241.35 216.45C242.12 217.26 244 219.29 245.53 220.96C247.07 222.63 249.51 225.36 250.96 227.03C252.41 228.7 254.27 230.91 255.09 231.93C255.9 232.95 257.22 234.74 258.01 235.9C258.79 237.05 259.89 238.91 260.44 240.01C261 241.11 261.64 242.22 261.87 242.46C262.11 242.71 262.56 242.96 262.89 243.02C263.25 243.09 263.73 243.01 264.12 242.82C264.47 242.65 264.9 242.22 265.08 241.87C265.28 241.46 265.35 241.02 265.27 240.65C265.2 240.32 264.72 239.22 264.22 238.2C263.71 237.17 262.52 235.19 261.58 233.79C260.64 232.39 259.05 230.23 258.05 228.99C257.05 227.75 254.84 225.16 253.15 223.23C251.46 221.3 249.45 219.07 248.69 218.28C247.93 217.48 247.36 216.79 247.41 216.74C247.47 216.69 249.37 218.25 251.65 220.21C253.93 222.17 257.12 224.83 258.75 226.13C260.37 227.42 262.77 229.17 264.07 230.01C265.37 230.86 267.1 231.82 267.92 232.15C268.73 232.49 270.06 232.93 270.87 233.13C271.69 233.33 272.79 233.5 273.34 233.5C273.88 233.5 274.81 233.36 275.41 233.18C276 233.01 276.85 232.62 277.28 232.32C277.71 232.02 278.47 231.35 278.97 230.83C279.46 230.3 280.13 229.49 281.03 228.17L281.48 228.73C281.73 229.03 282.71 230.3 283.66 231.54C284.62 232.78 285.93 234.58 286.58 235.55C287.24 236.52 288.46 238.51 289.31 239.96C290.15 241.42 291.33 243.62 291.92 244.86C292.51 246.1 293.43 248.21 293.97 249.56C294.5 250.91 295.24 253.02 295.61 254.26C295.98 255.5 296.42 257.13 296.6 257.88C296.77 258.64 297.09 260.31 297.32 261.61C297.6 263.26 297.75 265.23 297.83 268.27C297.89 270.98 297.85 273.34 297.7 274.63C297.57 275.76 297.41 276.99 297.33 277.36C297.21 277.93 297.04 278.1 296.21 278.47C295.66 278.71 294.47 279.06 293.54 279.24C292.23 279.51 291.29 279.56 289.21 279.48C287.16 279.39 286.02 279.24 284.28 278.79C283.03 278.47 281.17 277.88 280.14 277.47C279.11 277.07 277.4 276.31 276.34 275.78C275.29 275.26 273.47 274.25 272.3 273.54C271.14 272.83 269.34 271.66 268.31 270.95C267.28 270.23 265.37 268.8 264.07 267.76C262.77 266.72 260.73 265.01 259.54 263.94C258.34 262.88 256.36 261.04 255.13 259.85C253.9 258.66 251.58 256.28 249.97 254.55C248.37 252.83 245.92 250.1 244.52 248.48C243.13 246.87 240.78 244.05 239.31 242.21C237.83 240.38 235.49 237.38 234.11 235.55C232.72 233.72 230.42 230.59 228.99 228.6C227.56 226.61 224.78 222.62 222.81 219.74C220.84 216.85 219.22 214.45 219.22 214.4C219.22 214.34 219.49 213.88 219.82 213.37C220.15 212.86 220.55 212 220.71 211.46C220.87 210.92 221.13 209.51 221.29 208.33C221.45 207.14 221.67 203.92 221.78 201.18C221.89 198.43 222.03 195.92 222.08 195.59C222.13 195.27 222.46 194.62 222.81 194.14L223.46 193.27ZM254.25 193.6L256.4 194.16C257.58 194.47 258.57 194.74 258.6 194.76C258.63 194.79 258.14 195.42 257.52 196.17C256.89 196.92 255.81 198 255.1 198.57C254.4 199.14 252.89 200.08 251.75 200.67C250.61 201.25 248.88 201.99 247.91 202.31C246.93 202.63 245.86 202.95 245.54 203.03C245.16 203.11 244.68 203.05 244.21 202.85C243.7 202.64 243.38 202.34 243.17 201.86C243.01 201.48 242.92 200.93 242.98 200.64C243.04 200.34 243.28 199.9 243.52 199.67C243.77 199.42 244.73 199.01 245.74 198.72C246.71 198.44 248.31 197.83 249.29 197.37C250.26 196.9 251.6 196.09 252.27 195.57C252.93 195.04 253.65 194.38 253.87 194.11L254.25 193.6ZM206.31 195.47L206.93 197.39C207.27 198.45 207.97 200.28 208.48 201.47C208.99 202.65 209.74 204.29 210.15 205.09C210.56 205.9 211.49 207.58 213.54 211.07L213.32 215.57C213.21 218.05 213.02 222.24 212.91 224.88C212.8 227.52 212.63 233.11 212.54 237.32C212.45 241.52 212.44 246.45 212.51 248.29C212.62 250.65 212.75 251.79 212.96 252.2C213.12 252.53 213.49 252.9 213.78 253.04C214.06 253.17 214.56 253.28 214.88 253.28C215.25 253.28 215.7 253.08 216.67 252.2L216.74 241.53C216.78 235.66 216.91 228.56 217.03 225.76C217.15 222.96 217.3 219.92 217.47 217.34L218.37 218.81C218.87 219.61 220.21 221.9 221.34 223.9C222.48 225.89 223.99 228.49 224.7 229.68C225.41 230.86 226.87 233.11 227.94 234.67C229.01 236.23 230.68 238.66 231.67 240.06C232.65 241.46 233.66 243.02 233.93 243.54C234.36 244.39 234.42 244.84 234.63 248.92C234.79 252.25 234.79 254.6 234.63 258.18C234.5 260.82 234.23 264.52 234.01 266.41C233.79 268.29 233.39 271.11 233.11 272.67C232.84 274.24 232.31 276.75 231.94 278.26C231.57 279.76 230.91 282.1 230.47 283.45C230.04 284.79 229.23 287 228.68 288.34C228.12 289.69 227.09 291.9 226.39 293.24C225.69 294.59 224.46 296.66 223.66 297.85C222.87 299.03 221.48 300.88 220.57 301.95C219.67 303.02 218.22 304.54 217.35 305.32C216.48 306.11 215.06 307.29 214.19 307.94C213.33 308.58 212.17 309.34 211.63 309.6C210.97 309.93 210.32 310.09 209.66 310.09C208.98 310.09 208.3 309.91 207.49 309.52C206.79 309.19 205.9 308.53 205.3 307.91C204.75 307.33 204 306.42 203.64 305.88C203.27 305.34 202.51 303.93 201.95 302.74C201.38 301.56 200.64 299.75 200.3 298.73C199.95 297.7 199.36 295.68 198.29 291.58L198.09 283.35C197.98 278.82 197.95 270.41 198.01 264.64C198.08 258.88 198.22 251.87 198.33 249.07C198.43 246.27 198.61 242.35 198.73 240.35C198.84 238.36 199.06 235.1 199.22 233.1C199.38 231.11 199.65 228.25 199.81 226.74C199.98 225.23 200.29 222.72 200.51 221.16C200.74 219.59 201.09 217.39 201.31 216.26C201.52 215.13 201.91 213.36 202.17 212.34C202.43 211.32 203.04 209.29 203.52 207.84C204 206.38 204.58 204.27 204.8 203.13C205.03 202 205.35 200.24 205.53 199.22C205.7 198.19 205.95 196.93 206.07 196.41L206.31 195.47ZM18.73 196.27C19.74 196.27 20.16 196.36 20.7 196.72C21.08 196.96 21.54 197.47 21.72 197.85C21.97 198.36 22.08 199.37 22.32 205.19L18.9 205.32C17.02 205.39 15.41 205.41 15.33 205.37C15.25 205.32 15.18 203.99 15.18 202.4C15.19 200.81 15.28 199.11 15.39 198.63C15.51 198.14 15.71 197.57 15.84 197.36C15.97 197.14 16.39 196.81 16.76 196.62C17.2 196.4 17.91 196.28 18.73 196.27ZM265.55 196.39C265.71 196.45 266.51 196.91 267.32 197.4C268.14 197.89 268.82 198.3 268.85 198.31C268.88 198.32 268.76 198.69 268.6 199.12C268.43 199.55 268.19 200.12 268.06 200.39C267.94 200.66 267.46 201.45 267.01 202.15C266.56 202.86 265.55 204.02 264.78 204.75C264.01 205.48 262.92 206.37 262.35 206.73C261.78 207.09 260.65 207.72 259.83 208.13C259.02 208.53 257.47 209.16 256.38 209.52C255.3 209.88 254.08 210.18 253.67 210.18C253.27 210.18 252.76 210.1 252.54 209.99C252.32 209.88 252.01 209.53 251.85 209.21C251.69 208.88 251.55 208.42 251.55 208.18C251.55 207.94 251.73 207.45 251.95 207.1C252.3 206.53 252.6 206.39 254.66 205.75C255.93 205.36 257.64 204.69 258.45 204.26C259.27 203.83 260.29 203.21 260.72 202.87C261.15 202.53 261.76 202.03 262.07 201.76C262.38 201.49 263.07 200.61 263.61 199.8C264.15 199 264.74 197.87 264.92 197.3C265.17 196.52 265.32 196.3 265.55 196.39ZM384.08 197.06C384.22 197.06 386.34 197.7 388.81 198.48C391.27 199.26 393.26 199.92 393.24 199.94C393.22 199.97 391.18 200.56 388.71 201.27C386.25 201.97 384.14 202.55 384.03 202.55C383.91 202.55 383.83 201.5 383.83 199.8C383.83 197.74 383.9 197.06 384.08 197.06ZM7.64 197.26C8.75 197.26 8.94 197.32 9.57 197.89C9.96 198.24 10.36 198.84 10.46 199.22C10.56 199.59 10.64 201.16 10.65 205.48L4.73 205.58L4.69 203.82C4.67 202.85 4.68 201.35 4.71 200.49C4.75 199.63 4.86 198.72 4.95 198.48C5.05 198.24 5.41 197.87 5.77 197.65C6.23 197.37 6.75 197.26 7.64 197.26ZM203.68 198.84C203.75 198.83 203.64 199.11 203.44 199.46C203.25 199.81 202.76 200.85 202.36 201.76C201.96 202.68 201.1 204.84 200.45 206.56C199.8 208.29 198.35 212.43 197.24 215.77C196.12 219.11 194.49 224.13 192.04 232.03L191.54 236.83C191.26 239.47 190.91 243.08 190.74 244.86C190.58 246.64 190.31 249.94 190.15 252.2C189.98 254.47 189.76 258.17 189.65 260.43C189.54 262.69 189.45 266.18 189.45 268.17C189.45 270.16 189.56 272.98 189.69 274.44C189.83 275.89 189.93 277.48 189.91 277.96C189.9 278.45 189.65 279.64 189.36 280.61C189.07 281.58 188.53 283.12 188.16 284.04C187.78 284.95 187.1 286.35 186.64 287.15C186.18 287.94 185.36 289.05 184.82 289.61C184.28 290.18 183.37 290.87 182.8 291.16C181.97 291.57 181.48 291.68 180.34 291.68C179.08 291.68 178.73 291.6 177.43 290.96C176.3 290.4 175.52 289.8 174.16 288.45C173.17 287.48 171.93 286.11 171.39 285.41C170.49 284.23 170.4 284.02 170.26 282.66C170.17 281.86 169.97 279.83 169.81 278.16C169.65 276.49 169.47 271.86 169.41 267.87C169.33 263.25 169.38 259.32 169.52 257C169.65 255.01 169.89 252.14 170.05 250.64C170.21 249.13 170.57 246.57 170.84 244.96C171.11 243.34 171.55 241.09 171.82 239.96C172.09 238.83 172.59 237.07 172.92 236.04C173.26 235.02 173.98 233.08 174.52 231.73C175.06 230.39 176.28 227.7 177.22 225.76C178.16 223.82 179.67 220.91 180.58 219.29C181.48 217.68 183.03 215.03 184.02 213.42C185.01 211.8 186.22 209.95 186.72 209.3C187.22 208.66 188.33 207.45 189.18 206.62C190.04 205.78 191.22 204.74 191.82 204.3C192.41 203.86 193.66 203.06 194.58 202.52C195.5 201.99 196.28 201.58 196.3 201.61C196.33 201.64 193.58 207.09 190.18 213.71C186.79 220.34 183.95 226 183.87 226.3C183.79 226.63 183.85 227.09 184.02 227.47C184.19 227.85 184.59 228.25 185.01 228.45C185.4 228.65 185.94 228.75 186.25 228.7C186.55 228.65 187.02 228.36 187.31 228.06C187.59 227.76 191.1 221.15 195.1 213.35C201.85 200.19 202.41 199.17 202.96 199.02C203.28 198.93 203.61 198.85 203.68 198.84ZM277.33 202.64L277.06 203.77C276.91 204.39 276.56 205.45 276.29 206.12C276.01 206.79 275.44 207.87 275.02 208.52C274.59 209.17 273.6 210.32 272.81 211.09C272.01 211.85 270.7 212.91 269.89 213.43C269.07 213.95 267.65 214.7 266.73 215.1C265.81 215.49 264.39 216 263.58 216.23C262.76 216.46 261.81 216.65 261.46 216.65C261.11 216.65 260.64 216.56 260.42 216.45C260.21 216.35 259.9 215.99 259.73 215.67C259.57 215.35 259.44 214.91 259.44 214.69C259.44 214.48 259.56 214.06 259.71 213.76C259.86 213.46 260.19 213.12 260.45 213C260.71 212.87 261.8 212.49 262.89 212.15C263.97 211.8 265.52 211.18 266.34 210.76C267.15 210.34 268.39 209.53 269.1 208.96C269.8 208.38 270.7 207.48 271.1 206.94C271.5 206.41 272.05 205.49 272.33 204.9C272.61 204.3 272.93 203.33 273.05 202.74C273.17 202.15 273.3 201.47 273.33 201.24C273.39 200.83 273.47 200.85 277.33 202.64ZM311.86 206.56C312.03 206.68 312.87 207.39 313.73 208.14C314.59 208.89 315.96 210.29 316.77 211.26C317.59 212.23 318.72 213.73 319.28 214.59C319.85 215.46 320.75 217.04 321.3 218.12C321.84 219.2 322.61 221 323 222.14C323.4 223.27 323.94 225.25 324.2 226.54C324.46 227.84 324.78 229.91 324.9 231.15C325.02 232.38 325.09 234.5 325.05 235.85C324.98 238.07 324.92 238.41 324.39 239.55C324.04 240.3 323.45 241.12 322.92 241.61C322.43 242.06 321.63 242.62 321.14 242.86C320.66 243.09 319.59 243.43 318.78 243.6C317.67 243.84 316.75 243.89 315.13 243.8C313.94 243.74 312.16 243.52 311.19 243.31C310.21 243.1 308.75 242.74 307.93 242.49C306.73 242.13 305.65 241.51 302.12 239.18C299.73 237.6 296.36 235.31 294.63 234.08C292.89 232.86 289.92 230.69 288.02 229.27C286.13 227.84 284.23 226.38 283.05 225.37L283.57 224.58C283.86 224.15 284.22 223.36 284.38 222.82C284.53 222.28 284.76 221.22 284.89 220.47C285.02 219.68 285.13 216.79 285.14 213.67C285.16 209.13 285.21 208.19 285.46 207.94C285.62 207.77 285.93 207.62 286.15 207.61C286.37 207.59 287.7 207.79 289.11 208.04C291.32 208.44 292.3 208.5 296.21 208.5C299.87 208.49 301.27 208.41 303.5 208.07C305.02 207.83 307.45 207.35 308.91 206.99C310.92 206.5 311.63 206.39 311.86 206.56Z" />
		<path id="Path 35" class="shp1" d="M394.78 215.92C394.72 216.27 394.52 217.7 394.33 219.1C393.99 221.62 393.98 221.64 393.49 221.6C393.22 221.57 388.5 220.98 383 220.28C377.49 219.57 372.79 219 372.55 219C372.13 219 372.09 219.12 371.85 221.11C371.72 222.26 371.63 223.22 371.66 223.23C371.69 223.24 376.59 223.88 382.55 224.65C388.52 225.41 393.41 226.06 393.42 226.09C393.43 226.13 393.28 227.47 393.07 229.09C392.86 230.71 392.73 232.12 392.77 232.22C392.81 232.33 393.77 232.53 394.9 232.66C396.02 232.8 397 232.84 397.06 232.76C397.12 232.68 397.66 228.9 398.24 224.35C398.83 219.81 399.27 216.04 399.21 215.99C399.16 215.93 398.4 215.79 397.54 215.68C396.67 215.56 395.72 215.43 395.42 215.38C394.94 215.3 394.87 215.36 394.78 215.92ZM26.71 228.92C25.63 229.19 24.72 229.42 24.7 229.44C24.67 229.46 25.23 232.02 25.93 235.11C26.63 238.21 27.21 240.85 27.21 240.99C27.21 241.15 25.99 241.5 23.81 241.98C21.93 242.39 20.35 242.66 20.29 242.57C20.23 242.48 19.66 240.12 19.04 237.32C18.41 234.52 17.89 232.21 17.87 232.19C17.85 232.17 16.89 232.37 15.72 232.63C14.42 232.92 13.6 233.2 13.6 233.35C13.6 233.48 14.09 235.75 14.69 238.39C15.29 241.03 15.78 243.33 15.78 243.49C15.78 243.7 15.07 243.94 13.06 244.39C11.57 244.72 10.29 244.94 10.22 244.88C10.15 244.81 9.53 242.27 8.84 239.22C8.15 236.18 7.5 233.69 7.39 233.7C7.28 233.7 6.31 233.9 5.22 234.15C3.79 234.47 3.26 234.67 3.29 234.88C3.31 235.03 4.09 238.56 5.03 242.7C5.97 246.85 6.75 250.26 6.77 250.27C6.79 250.28 12.43 249.03 19.32 247.48C26.21 245.94 32.02 244.63 32.23 244.58C32.61 244.48 32.56 244.15 30.85 236.51C29.88 232.12 28.99 228.52 28.88 228.49C28.77 228.46 27.8 228.66 26.71 228.92ZM369.36 235.62C369.32 235.69 369.08 236.61 368.83 237.65C368.57 238.71 368.44 239.63 368.53 239.71C368.62 239.79 374.43 241.16 381.44 242.76C388.45 244.35 394.23 245.59 394.28 245.52C394.34 245.46 394.58 244.51 394.81 243.41C395.05 242.32 395.23 241.42 395.21 241.41C395.19 241.4 389.67 240.14 382.95 238.6C376.22 237.07 370.43 235.75 370.07 235.65C369.71 235.56 369.39 235.55 369.36 235.62ZM370.92 249.57C370.27 249.67 369.34 249.88 368.85 250.04C368.36 250.2 367.43 250.67 366.78 251.08C366.13 251.49 365.27 252.22 364.87 252.7C364.48 253.18 363.88 254.13 363.54 254.8C363.21 255.47 362.81 256.57 362.64 257.25C362.48 257.92 362.35 258.96 362.35 259.55C362.35 260.14 362.48 261.16 362.65 261.8C362.82 262.45 363.21 263.42 363.52 263.96C363.83 264.5 364.51 265.41 365.04 265.99C365.56 266.57 366.53 267.42 367.18 267.88C367.83 268.34 368.91 268.98 369.59 269.32C370.27 269.66 371.29 270.11 371.86 270.33C372.43 270.55 373.78 270.95 374.86 271.21C376.33 271.57 377.37 271.69 378.91 271.69C380.1 271.69 381.43 271.57 382.06 271.4C382.66 271.24 383.63 270.87 384.23 270.57C384.83 270.28 385.83 269.55 386.47 268.96C387.25 268.22 387.83 267.44 388.29 266.5C388.66 265.75 389.1 264.56 389.28 263.86C389.51 262.94 389.57 262.12 389.49 260.92C389.4 259.52 389.26 259.02 388.65 257.79C388.12 256.73 387.49 255.9 386.42 254.83C385.59 254.01 384.3 252.99 383.54 252.56C382.78 252.12 381.36 251.45 380.38 251.06C379.41 250.68 377.86 250.19 376.93 249.97C376.01 249.76 374.55 249.54 373.68 249.49C372.81 249.43 371.57 249.47 370.92 249.57ZM22.38 256.81C13.85 260.06 10.17 261.55 10.21 261.73C10.24 261.88 10.57 262.81 10.95 263.81C11.6 265.53 11.65 265.61 12.07 265.43C12.32 265.32 14.51 264.48 16.95 263.57C19.39 262.65 21.41 261.92 21.43 261.95C21.44 261.98 22.13 263.76 22.95 265.92C23.77 268.07 24.42 269.85 24.39 269.88C24.37 269.9 22.22 270.73 19.62 271.71C17.01 272.7 14.84 273.54 14.79 273.58C14.73 273.62 15.04 274.54 15.48 275.62C15.91 276.7 16.33 277.58 16.41 277.58C16.49 277.57 21.82 275.58 28.24 273.14C34.66 270.71 40.17 268.64 40.46 268.54C40.76 268.44 41 268.25 41 268.12C41 267.98 40.67 267.05 40.26 266.04C39.72 264.7 39.45 264.24 39.23 264.3C39.07 264.35 36.7 265.24 33.96 266.28C31.22 267.32 28.91 268.17 28.83 268.17C28.75 268.17 28.05 266.52 27.27 264.5C26.49 262.48 25.82 260.7 25.79 260.55C25.74 260.35 27.25 259.69 31.05 258.24C33.98 257.12 36.4 256.19 36.42 256.16C36.45 256.14 36.14 255.25 35.73 254.18C35.33 253.11 34.9 252.22 34.8 252.19C34.69 252.17 29.1 254.24 22.38 256.81Z" />
		<path id="Path 36" class="shp0" d="M371.12 254.33C370.69 254.47 370.06 254.73 369.74 254.9C369.41 255.07 368.87 255.5 368.53 255.86C368.19 256.22 367.76 256.82 367.57 257.2C367.38 257.58 367.18 258.37 367.13 258.96C367.06 259.74 367.15 260.34 367.44 261.12C367.67 261.74 368.2 262.57 368.69 263.09C369.16 263.58 369.94 264.23 370.43 264.54C370.92 264.85 372.03 265.41 372.89 265.77C373.76 266.14 375.18 266.6 376.05 266.81C376.91 267.02 378.22 267.19 378.96 267.19C379.82 267.19 380.65 267.05 381.32 266.79C381.89 266.57 382.62 266.19 382.95 265.94C383.27 265.69 383.8 265.01 384.11 264.43C384.5 263.72 384.72 262.98 384.78 262.19C384.86 261.2 384.79 260.83 384.31 259.76C383.92 258.91 383.42 258.23 382.75 257.63C382.21 257.15 381.1 256.43 380.29 256.02C379.47 255.62 378.05 255.05 377.13 254.76C376.01 254.4 374.87 254.2 373.68 254.15C372.52 254.09 371.64 254.15 371.12 254.33Z" />
		<path id="Path 37" class="shp1" d="M355.96 274.19C355.46 275.13 355.12 275.96 355.2 276.03C355.28 276.09 358.65 277.9 362.68 280.04C366.71 282.18 369.99 283.96 369.97 283.99C369.95 284.03 365.68 283.96 360.47 283.84C352.79 283.67 350.97 283.68 350.79 283.88C350.67 284.02 350.18 284.89 349.71 285.82L348.84 287.51C366.56 296.95 371.84 299.73 372.01 299.79C372.22 299.87 372.56 299.42 373.24 298.14L374.17 296.38C373.49 295.96 370.32 294.27 366.68 292.35C363.05 290.43 359.81 288.69 359.49 288.49C358.9 288.12 358.95 288.11 364.91 288.23C368.22 288.3 372.61 288.4 374.67 288.47L378.41 288.59C379.94 285.69 380.34 284.81 380.29 284.76C380.23 284.71 375.02 281.93 368.7 278.58C362.39 275.22 357.14 272.48 357.05 272.48C356.95 272.48 356.46 273.25 355.96 274.19ZM37.46 284.65C32.31 287.47 27.94 289.8 27.75 289.84C27.48 289.9 27.07 289.29 25.92 287.17L24.45 284.43C22.05 285.72 21.16 286.22 20.92 286.39C20.48 286.68 20.48 286.68 24.36 293.73C26.49 297.61 28.36 300.98 28.51 301.22L28.78 301.67C31.76 300.11 32.65 299.62 32.68 299.58C32.7 299.54 32.06 298.3 31.24 296.82C30.43 295.34 29.78 294.05 29.81 293.96C29.84 293.87 34.08 291.51 39.23 288.7C44.38 285.9 48.67 283.55 48.76 283.48C48.86 283.41 48.5 282.49 47.97 281.44C47.44 280.39 46.96 279.53 46.91 279.53C46.86 279.54 42.61 281.84 37.46 284.65ZM347.66 308.42C347.23 308.58 346.66 308.92 346.4 309.16C346.14 309.4 345.77 309.95 345.57 310.38C345.37 310.81 345.2 311.52 345.2 311.95C345.19 312.38 345.32 313.13 345.48 313.61C345.64 314.1 346.16 314.94 346.64 315.48C347.12 316.01 347.94 316.67 348.47 316.94C349.13 317.27 349.87 317.45 350.81 317.51C351.98 317.58 352.35 317.52 353.17 317.12C353.79 316.82 354.32 316.37 354.65 315.88C355.07 315.23 355.15 314.89 355.14 313.73C355.14 312.69 355.03 312.13 354.7 311.51C354.46 311.05 353.89 310.32 353.43 309.88C352.96 309.44 352.19 308.9 351.7 308.67C351.21 308.44 350.28 308.23 349.63 308.19C348.89 308.15 348.15 308.23 347.66 308.42ZM49.58 309.71C49.04 309.93 48.21 310.43 47.73 310.83C47.25 311.23 46.63 311.95 46.35 312.44C45.91 313.19 45.84 313.55 45.84 314.92C45.84 316.4 45.88 316.57 46.43 317.25C46.75 317.65 47.37 318.16 47.81 318.38C48.34 318.65 48.97 318.77 49.78 318.77C50.61 318.77 51.28 318.62 52.05 318.28C52.64 318.01 53.43 317.53 53.8 317.22C54.16 316.91 54.67 316.3 54.92 315.87C55.18 315.44 55.47 314.64 55.57 314.1C55.7 313.44 55.69 312.81 55.54 312.14C55.39 311.45 55.12 310.96 54.62 310.48C54.24 310.1 53.56 309.68 53.13 309.55C52.7 309.42 51.94 309.31 51.45 309.32C50.97 309.32 50.12 309.5 49.58 309.71ZM67.62 332.96L58.69 342.7C61.1 344.9 61.87 345.53 61.95 345.54C62.03 345.54 63.76 343.73 65.8 341.52C67.83 339.31 69.54 337.5 69.59 337.5C69.65 337.5 71.15 338.82 72.94 340.44C74.73 342.05 76.24 343.38 76.29 343.39C76.35 343.4 77.06 342.69 77.87 341.81C78.96 340.63 79.3 340.14 79.15 339.96C79.04 339.82 77.55 338.44 75.84 336.9C74.13 335.35 72.74 334.04 72.74 333.99C72.75 333.93 73.08 333.54 73.48 333.1C73.87 332.67 74.8 331.68 75.54 330.9L76.89 329.48C82.77 334.8 84.56 336.33 84.67 336.33C84.78 336.32 85.45 335.66 86.15 334.87C86.86 334.08 87.45 333.33 87.48 333.22C87.51 333.1 85.09 330.8 82.11 328.11C79.13 325.42 76.65 323.21 76.61 323.21C76.57 323.21 72.53 327.6 67.62 332.96ZM320.77 325.32L319.5 326.44L323.93 345.25C325.71 347.22 326.39 347.95 326.59 348.13C326.94 348.46 327.09 348.35 330.21 345.53L333.46 342.58L337.07 346.43C337.94 345.77 338.62 345.15 339.13 344.63L340.07 343.68L336.55 339.76L338.55 338C336.3 335.57 335.56 334.84 335.44 334.81C335.33 334.78 334.88 335.11 334.45 335.55C334.02 335.99 333.57 336.33 333.46 336.32C333.36 336.31 330.82 333.58 327.84 330.25C324.85 326.92 322.32 324.19 322.22 324.2C322.11 324.2 321.46 324.71 320.77 325.32Z" />
		<path id="Path 38" class="shp0" d="M324.7 333.35C324.7 333.48 325.14 335.47 325.69 337.76C326.24 340.05 326.72 342.03 326.77 342.16C326.83 342.31 327.57 341.76 328.63 340.79L330.4 339.18C327.89 336.47 326.61 335.11 325.93 334.4C325.26 333.69 324.71 333.21 324.7 333.35Z" />
		<path id="Path 39" class="shp1" d="M301.91 341.34C298.77 343.55 296.18 345.45 296.16 345.55C296.13 345.66 296.66 346.5 297.34 347.43C298.02 348.36 298.64 349.15 298.72 349.19C298.8 349.23 300.57 348.07 302.66 346.61L306.46 343.95C306.54 345.26 306.7 346.57 306.86 347.7C307.02 348.83 307.38 350.64 307.65 351.71C307.93 352.79 308.42 354.47 308.76 355.44C309.09 356.41 309.74 358.04 310.2 359.06C310.66 360.08 311.47 361.67 312.01 362.59C312.54 363.5 313.11 364.44 313.27 364.68C313.55 365.1 313.56 365.1 315 364.09C315.8 363.53 316.52 362.99 316.61 362.88C316.71 362.77 316.49 362.23 316.09 361.61C315.71 361.01 314.9 359.56 314.3 358.37C313.7 357.19 312.83 355.25 312.37 354.06C311.91 352.88 311.31 351.03 311.02 349.95C310.74 348.87 310.37 347.2 310.21 346.23C310.04 345.26 309.84 343.46 309.76 342.23L309.61 340C308.27 338.15 307.82 337.54 307.75 337.46C307.68 337.38 305.05 339.13 301.91 341.34ZM94.03 342.07C93.32 342.31 92.22 342.82 91.58 343.19C90.94 343.57 89.7 344.58 88.82 345.45C87.94 346.31 86.72 347.76 86.11 348.68C85.51 349.59 84.7 350.96 84.32 351.71C83.94 352.47 83.49 353.57 83.31 354.16C83.13 354.76 82.9 355.86 82.8 356.61C82.7 357.44 82.7 358.56 82.81 359.45C82.93 360.36 83.21 361.37 83.57 362.1C83.89 362.74 84.54 363.71 85.02 364.25C85.5 364.79 86.46 365.6 87.15 366.06C87.85 366.51 88.91 367.05 89.5 367.26C90.1 367.46 91.07 367.69 91.67 367.77C92.29 367.85 93.3 367.81 94.04 367.68C94.74 367.56 96.03 367.12 96.9 366.7C97.76 366.28 99.05 365.47 99.75 364.9C100.45 364.33 101.56 363.18 102.21 362.36C102.87 361.53 103.81 360.17 104.32 359.32C104.82 358.48 105.47 357.21 105.75 356.51C106.04 355.81 106.4 354.6 106.56 353.82C106.72 353.04 106.85 352.02 106.85 351.57C106.85 351.11 106.71 350.12 106.55 349.36C106.39 348.61 106.01 347.51 105.72 346.92C105.42 346.33 104.69 345.36 104.09 344.75C103.49 344.15 102.43 343.34 101.72 342.95C101.02 342.56 99.96 342.11 99.36 341.93C98.76 341.76 97.61 341.63 96.8 341.63C95.8 341.63 94.9 341.78 94.03 342.07Z" />
		<path id="Path 40" class="shp0" d="M95.38 346.5C95.09 346.59 94.55 346.82 94.2 347.01C93.84 347.2 93.19 347.63 92.77 347.97C92.34 348.31 91.46 349.24 90.82 350.05C90.18 350.86 89.36 352.05 88.99 352.69C88.63 353.34 88.15 354.4 87.92 355.04C87.66 355.78 87.5 356.73 87.49 357.59C87.48 358.64 87.58 359.21 87.94 360.02C88.21 360.6 88.75 361.37 89.16 361.73C89.56 362.09 90.23 362.53 90.64 362.7C91.06 362.88 91.92 363.01 92.66 363.01C93.68 363.01 94.17 362.89 95.12 362.42C95.77 362.1 96.75 361.41 97.3 360.89C97.85 360.37 98.72 359.37 99.24 358.67C99.77 357.97 100.55 356.69 100.98 355.83C101.42 354.97 101.89 353.69 102.03 352.99C102.21 352.12 102.24 351.43 102.12 350.83C102.03 350.35 101.86 349.71 101.74 349.41C101.62 349.12 101.2 348.51 100.79 348.07C100.38 347.62 99.69 347.08 99.26 346.86C98.78 346.62 97.98 346.44 97.19 346.4C96.49 346.37 95.67 346.41 95.38 346.5Z" />
		<path id="Path 41" class="shp1" d="M284.57 351.77C284.03 351.97 283.32 352.3 283 352.5C282.67 352.7 282.06 353.18 281.65 353.56C281.23 353.95 280.66 354.7 280.38 355.24C279.97 356.03 279.86 356.5 279.85 357.69C279.85 358.65 279.97 359.49 280.2 360.14C280.4 360.68 280.9 361.6 281.3 362.19C281.79 362.9 282.41 363.49 283.11 363.91C283.76 364.3 284.54 364.59 285.12 364.64L286.05 364.74C285.23 366.28 285.17 366.71 285.17 368.36C285.17 370.21 285.21 370.41 285.87 371.79C286.28 372.64 287.03 373.75 287.65 374.41C288.36 375.17 289.14 375.76 289.99 376.17C291.12 376.72 291.47 376.79 292.95 376.79C294.44 376.79 294.79 376.72 295.91 376.17C296.71 375.78 297.56 375.16 298.18 374.5C298.79 373.86 299.3 373.08 299.51 372.48C299.72 371.89 299.86 370.91 299.86 370.03C299.86 369.12 299.71 368.07 299.47 367.29C299.26 366.59 298.74 365.48 298.32 364.84C297.9 364.19 297.21 363.36 296.78 362.99C296.36 362.62 295.61 362.15 295.12 361.94C294.63 361.73 293.82 361.51 293.31 361.44L292.39 361.31C292.95 360.31 293.04 359.64 293.05 358.47C293.05 356.99 292.98 356.66 292.43 355.53C292.08 354.83 291.44 353.89 291 353.43C290.55 352.97 289.73 352.36 289.16 352.08C288.45 351.72 287.72 351.53 286.84 351.48C285.93 351.43 285.28 351.51 284.57 351.77ZM117.7 354.13C117.51 354.52 115.93 357.89 114.2 361.61C112.46 365.32 110.78 369.07 110.45 369.93C110.12 370.79 109.74 371.98 109.61 372.58C109.47 373.17 109.4 374.27 109.45 375.02C109.5 375.96 109.7 376.74 110.05 377.47C110.36 378.13 110.98 378.93 111.61 379.5C112.19 380.02 113.46 380.84 114.44 381.32C115.42 381.79 116.75 382.28 117.4 382.39C118.05 382.51 119.07 382.55 119.66 382.48C120.26 382.41 121.21 382.14 121.78 381.87C122.35 381.61 123.2 381.01 123.66 380.54C124.12 380.07 124.94 378.94 125.48 378.04C126.02 377.14 128.12 372.87 130.15 368.56L133.83 360.72C130.72 359.28 129.8 358.88 129.79 358.91C129.77 358.94 128.19 362.31 126.28 366.41C124.36 370.5 122.5 374.38 122.14 375.02C121.78 375.67 121.12 376.53 120.67 376.93C120.09 377.46 119.62 377.7 119.02 377.78C118.49 377.85 117.86 377.77 117.3 377.57C116.81 377.4 116.1 377.05 115.72 376.79C115.34 376.53 114.82 375.94 114.56 375.48C114.24 374.89 114.1 374.33 114.1 373.65C114.11 373.11 114.31 372.14 114.56 371.5C114.8 370.85 116.58 366.93 118.51 362.78C120.45 358.63 122.01 355.23 121.98 355.22C121.95 355.21 121.06 354.79 120 354.3L118.06 353.4L117.7 354.13Z" />
		<path id="Path 42" class="shp0" d="M285.5 355.8C285.14 355.95 284.67 356.33 284.46 356.64C284.21 357 284.07 357.52 284.07 358.08C284.07 358.62 284.25 359.3 284.53 359.84C284.79 360.33 285.3 360.93 285.67 361.17C286.12 361.46 286.64 361.62 287.19 361.61C287.82 361.61 288.17 361.47 288.63 361.07C288.96 360.77 289.32 360.26 289.43 359.94C289.56 359.55 289.55 359.09 289.42 358.57C289.31 358.14 289.02 357.49 288.77 357.12C288.52 356.75 288.1 356.29 287.83 356.09C287.56 355.9 287.07 355.69 286.74 355.63C286.42 355.58 285.86 355.66 285.5 355.8Z" />
		<path id="Path 43" class="shp1" d="M265.36 360.67L263.88 361.26C263.96 362.86 263.81 363.83 263.57 364.64C263.34 365.4 262.88 366.5 262.55 367.09C262.22 367.68 261.66 368.52 261.3 368.95L260.64 369.74C261.92 373 262.36 373.94 262.44 373.95C262.53 373.95 262.99 373.44 263.48 372.82C263.97 372.2 264.74 370.99 265.19 370.13C265.95 368.66 266.02 368.59 266.18 369.05C266.28 369.32 267.83 373.29 269.63 377.86C271.43 382.44 272.91 386.2 272.92 386.22C272.93 386.24 273.79 385.91 274.82 385.5C276.29 384.91 276.68 384.68 276.64 384.39C276.62 384.2 274.48 378.66 271.88 372.09C269.29 365.51 267.09 360.12 267 360.11C266.91 360.09 266.17 360.34 265.36 360.67ZM142.45 364.19C142.39 364.33 140.76 369.87 138.82 376.49C136.88 383.12 135.24 388.72 135.17 388.93C135.06 389.28 135.24 389.38 136.92 389.86C137.95 390.16 138.85 390.37 138.94 390.33C139.02 390.28 140.15 386.63 141.45 382.21C142.75 377.78 143.83 374.18 143.86 374.2C143.88 374.22 144.66 378.25 145.59 383.15C146.51 388.06 147.3 392.24 147.35 392.46C147.42 392.77 147.88 392.98 149.57 393.48C150.74 393.83 151.71 394.1 151.72 394.07C151.73 394.05 153.4 388.34 155.42 381.39C157.45 374.44 159.08 368.74 159.05 368.73C159.02 368.72 158.15 368.47 157.12 368.18C156.07 367.89 155.21 367.74 155.15 367.84C155.1 367.94 153.99 371.65 152.69 376.07C151.38 380.5 150.27 384.06 150.2 383.98C150.13 383.9 149.3 379.65 148.36 374.53C147.41 369.42 146.62 365.21 146.61 365.19C146.59 365.17 145.82 364.92 144.9 364.65C143.98 364.37 143.07 364.1 142.89 364.04C142.71 363.98 142.51 364.05 142.45 364.19Z" />
		<path id="Path 44" class="shp0" d="M290.24 365.13C289.89 365.35 289.45 365.76 289.26 366.05C289.04 366.39 288.92 366.95 288.92 367.57C288.93 368.16 289.12 368.96 289.38 369.54C289.63 370.08 290.05 370.78 290.33 371.11C290.6 371.43 291.15 371.89 291.55 372.13C292.02 372.43 292.57 372.57 293.2 372.57C293.94 372.58 294.26 372.47 294.74 372.04C295.07 371.74 295.44 371.19 295.55 370.81C295.67 370.44 295.7 369.77 295.62 369.34C295.55 368.91 295.28 368.12 295.02 367.58C294.76 367.04 294.26 366.3 293.9 365.94C293.54 365.57 292.96 365.15 292.61 365.01C292.25 364.86 291.72 364.74 291.42 364.74C291.13 364.74 290.59 364.92 290.24 365.13Z" />
		<path id="Path 45" class="shp1" d="M325.28 365.21C324.8 365.34 324 365.64 323.51 365.87C323.02 366.1 322.1 366.72 321.46 367.23C320.81 367.75 319.95 368.65 319.54 369.25C319.12 369.84 318.59 370.81 318.36 371.4C318.06 372.16 317.91 373.09 317.84 374.53C317.75 376.25 317.8 376.82 318.15 377.96C318.37 378.72 318.9 379.86 319.32 380.51C319.74 381.16 320.57 382.12 321.16 382.64C321.75 383.17 322.85 383.9 323.61 384.26C324.51 384.69 325.53 384.98 326.56 385.12C327.68 385.27 328.53 385.27 329.47 385.12C330.2 385.01 331.18 384.77 331.64 384.59C332.1 384.41 332.92 383.98 333.46 383.64C334.01 383.3 334.93 382.5 335.52 381.86C336.13 381.2 336.88 380.08 337.28 379.24C337.92 377.89 337.99 377.58 338.07 375.61C338.14 373.83 338.08 373.22 337.74 372.09C337.52 371.33 336.95 370.15 336.48 369.46C336.02 368.76 335.19 367.82 334.65 367.35C334.11 366.88 333.13 366.24 332.48 365.93C331.83 365.61 330.9 365.26 330.41 365.15C329.92 365.04 328.77 364.95 327.85 364.96C326.92 364.97 325.77 365.08 325.28 365.21Z" />
		<path id="Path 46" class="shp0" d="M326.07 366.38C325.48 366.51 324.54 366.83 324 367.1C323.46 367.36 322.43 368.15 321.72 368.85C320.94 369.61 320.22 370.56 319.91 371.2C319.63 371.8 319.29 372.94 319.16 373.75C318.97 374.88 318.97 375.52 319.14 376.49C319.27 377.19 319.6 378.25 319.88 378.84C320.16 379.44 320.91 380.45 321.53 381.1C322.16 381.74 323.19 382.55 323.83 382.89C324.47 383.22 325.48 383.61 326.07 383.75C326.76 383.9 327.74 383.95 328.73 383.87C329.95 383.78 330.62 383.61 331.69 383.1C332.56 382.69 333.49 382.03 334.2 381.33C334.83 380.72 335.59 379.71 335.9 379.09C336.22 378.47 336.57 377.5 336.69 376.93C336.81 376.37 336.92 375.49 336.92 374.98C336.92 374.46 336.78 373.52 336.61 372.87C336.44 372.22 336.06 371.26 335.77 370.74C335.48 370.21 334.71 369.28 334.06 368.68C333.41 368.07 332.39 367.34 331.79 367.05C331.19 366.77 330.17 366.44 329.52 366.32C328.87 366.21 328.07 366.12 327.75 366.13C327.42 366.14 326.67 366.25 326.07 366.38Z" />
		<path id="Path 47" class="shp1" d="M323.9 375.22L323.9 380.61L325.09 380.61L325.09 375.91C326.61 375.91 327.37 376.04 327.75 376.2C328.14 376.37 328.68 376.85 329 377.33C329.31 377.78 329.85 378.71 330.19 379.38C330.79 380.58 330.82 380.61 331.59 380.61C332.03 380.61 332.38 380.56 332.38 380.51C332.38 380.46 332.03 379.68 331.61 378.8C331.19 377.91 330.54 376.89 330.18 376.54C329.82 376.19 329.46 375.9 329.37 375.9C329.29 375.9 329.22 375.84 329.22 375.76C329.22 375.68 329.46 375.55 329.76 375.49C330.06 375.42 330.6 375.13 330.95 374.85C331.31 374.56 331.69 374.02 331.81 373.6C331.94 373.17 331.97 372.55 331.89 372.09C331.81 371.65 331.51 371.08 331.22 370.79C330.94 370.51 330.35 370.18 329.92 370.06C329.48 369.94 327.95 369.84 326.52 369.83L323.9 369.83L323.9 375.22ZM168.27 370.79C168.25 370.86 167.46 376.73 166.52 383.84C165.57 390.95 164.83 396.79 164.86 396.81C164.88 396.83 166.95 397.13 169.44 397.47C172.63 397.9 174.45 398.05 175.55 397.99C176.59 397.93 177.47 397.75 178.12 397.46C178.66 397.23 179.49 396.75 179.95 396.41C180.42 396.07 181.14 395.3 181.55 394.71C181.97 394.12 182.53 393.19 182.8 392.65C183.07 392.12 183.49 391.06 183.72 390.3C183.96 389.55 184.29 388.09 184.46 387.07C184.63 386.05 184.77 384.06 184.77 382.66C184.78 380.88 184.67 379.71 184.43 378.75C184.24 377.99 183.76 376.77 183.37 376.02C182.95 375.24 182.23 374.29 181.67 373.76C180.99 373.15 180.27 372.72 179.4 372.42C178.63 372.15 176.35 371.75 173.68 371.4C171.24 371.08 169.04 370.78 168.78 370.74C168.52 370.7 168.3 370.73 168.27 370.79ZM223.79 371.77L219.58 372.48C219.73 373.24 220.69 379.05 221.79 385.9C222.9 392.74 223.85 398.38 223.89 398.43C223.94 398.49 226.03 398.19 228.55 397.78C231.06 397.36 233.65 396.85 234.3 396.64C234.95 396.43 235.92 395.94 236.46 395.54C237 395.14 237.77 394.37 238.19 393.83C238.6 393.29 239.11 392.32 239.32 391.67C239.53 391.03 239.8 389.97 239.91 389.32C240.03 388.68 240.12 387.44 240.12 386.58C240.12 385.72 239.97 384.09 239.8 382.96C239.63 381.83 239.27 380.15 239 379.24C238.73 378.32 238.14 376.87 237.69 376.01C237.22 375.12 236.4 373.96 235.78 373.33C235.1 372.63 234.22 372 233.42 371.62C232.22 371.05 232 371.01 230.06 371.03C228.68 371.05 226.61 371.29 223.79 371.77Z" />
		<path id="Path 48" class="shp0" d="M325.28 372.92L325.28 374.83C328.61 374.6 329.26 374.47 329.6 374.21C329.86 374.01 330.14 373.63 330.22 373.36C330.3 373.09 330.31 372.61 330.24 372.29C330.16 371.94 329.88 371.58 329.52 371.36C329.07 371.09 328.51 371.01 327.11 371.01L325.28 371.01L325.28 372.92Z" />
		<path id="Path 49" class="shp1" d="M199.31 373.31L194.68 373.37C194.9 382.85 195.03 388.82 195.1 392.75L195.23 399.9C202.29 399.68 206 399.61 208.03 399.61L211.73 399.61L211.73 395L199.51 395.3C199.41 389.91 199.41 388.28 199.45 388.2C199.48 388.12 201.39 388.05 203.7 388.05C206 388.05 208.44 387.99 209.12 387.91L210.35 387.76L210.35 383.55L199.41 383.58L199.3 377.96C202.13 377.73 204.75 377.67 206.95 377.67L210.94 377.67L210.94 373.16C205.52 373.23 201.86 373.28 199.31 373.31Z" />
		<path id="Path 50" class="shp0" d="M226.81 375.85C225.73 376.01 224.82 376.16 224.79 376.17C224.76 376.19 225.37 380.03 226.13 384.72C226.89 389.41 227.54 393.26 227.56 393.28C227.58 393.31 228.66 393.15 229.97 392.93C231.27 392.71 232.69 392.37 233.12 392.18C233.55 391.99 234.18 391.54 234.51 391.17C234.89 390.75 235.21 390.11 235.35 389.47C235.48 388.91 235.58 387.78 235.58 386.97C235.58 386.17 235.41 384.51 235.2 383.3C234.99 382.09 234.64 380.52 234.42 379.82C234.21 379.12 233.73 378.11 233.36 377.57C232.89 376.88 232.37 376.43 231.62 376.05C230.88 375.66 230.29 375.51 229.67 375.53C229.18 375.54 227.9 375.69 226.81 375.85ZM172.02 376.14C171.96 376.39 171.43 380.25 170.84 384.72C170.26 389.19 169.79 392.87 169.81 392.9C169.82 392.93 171.03 393.09 172.5 393.27C174.6 393.52 175.34 393.54 176 393.37C176.46 393.24 177.11 392.9 177.45 392.61C177.79 392.31 178.25 391.71 178.47 391.28C178.68 390.85 178.99 390.15 179.14 389.72C179.29 389.28 179.54 388.36 179.69 387.66C179.85 386.96 180.06 385.39 180.18 384.18C180.32 382.69 180.32 381.57 180.19 380.71C180.08 380 179.82 379.1 179.62 378.7C179.41 378.29 179.03 377.77 178.78 377.54C178.52 377.32 178.03 376.98 177.67 376.81C177.32 376.64 176.21 376.36 175.21 376.2C174.21 376.03 173.1 375.85 172.76 375.8C172.22 375.71 172.11 375.76 172.02 376.14Z" />
	</g>
</svg>