<svg id="Layer_1" data-name="Layer 1" xmlns="http://www.w3.org/2000/svg" xmlns:xlink="http://www.w3.org/1999/xlink" viewBox="0 0 283.5 283.5" baseProfile="tiny-ps" version="1.2"><title>BBKA.org.uk</title><defs><clipPath id="clip-path"><rect x="20.5" y="19.1" width="243.3" height="244.85" style="fill:none"/></clipPath></defs><g style="clip-path:url(#clip-path)"><path d="M142.1,42.4,56.3,92v99.1l38.8,22.5c2.8-11,9.3-31.9,21-46.3a3.1,3.1,0,0,1,4.4-.5,3.1,3.1,0,0,1,.4,4.4c-11.4,14.1-17.7,35.8-20.1,45.6l41.3,23.9L228,191.1V92Z" style="fill:#ffd53e"/><path d="M146,138.8c-.7,2.8-.8,5.1-1.8,7.8-4.4,12.2-3.1,50.9-3.1,50.9,3.1,14.4,8.1,11.3,8.1,11.3,17-10.7,13.9-39.9,13.9-39.9a22.5,22.5,0,0,0-2.2-3.5c-.7-1-1.6-2.2-2.2-3.2s-2.5-4.1-3.7-6.1c-2.1-3.9-4.6-7.4-6.7-11.3,0,0-2.1-4.4-2.3-6" style="fill:#fff"/><path d="M151.9,142.9s-1.4,25.7-.8,30.1" style="fill:none;stroke:#ffd53e;stroke-linecap:round;stroke-linejoin:round;stroke-width:2.51084750979777px"/><path d="M101,140.2s18.8-22,33.9-12.6c0,0,15,5.7,1.2,15.1,0,0-10,11.3-12.5,14.4,0,0-25.1,24.5-41.4,5,0,0-4.4-8.1,3.7-6.9a42.4,42.4,0,0,0,15.1-15" style="fill:#fff"/><path d="M130.6,123.5s-12.7-3.2-30.3,10c0,0-23.8,3.7-35.1-6.3,0,0-8.8-8.8,10-12.6L86.5,113a98.1,98.1,0,0,1,10.7-.8,76.5,76.5,0,0,1,10.7-.3,53.2,53.2,0,0,1,14.1,3.6c2.8,1.1,6.9,2.1,8.9,4.6a2.5,2.5,0,0,1-.3,3.4" style="fill:#fff"/><path d="M80.5,106.5l.2-.3c.7-1.5,2-2.4,3.2-3.5s2.2-2.1,3.4-3c3.5-2.5,7.3-4.7,11.6-5.2a12.9,12.9,0,0,1,7,1.3c.1,0,19.5,8.8,16.4,13.8a16.3,16.3,0,0,1-4.4.3c-2.4-.1-4.7-1.4-7-1.9a59,59,0,0,0-8.3-1.1,62.9,62.9,0,0,0-9.7-.3c-3.1.2-5.7,1.7-8.7,2.3s-4.4-.3-3.7-2.4" style="fill:#fff"/><path d="M126,104s-16.3-10.7-22.6-13.8c0,0-8.7-5.7-8.1-12,0,0,.6-7.5,5.6-.6.3.4,3.3.3,3.8.3,3.2.1,6.5-.5,9.7,0s4.5.7,6.7,1.2a35.6,35.6,0,0,1,15.4,7.7,25.7,25.7,0,0,1,3.5,3.9c.8,1.3,2.1,3.4,2.2,4.9l.7,7.7-7.8,2.2-6.4-.9Z" style="fill:#fff"/><path d="M138.9,85.9s-8.8-6.9-15.7-8.2c0,0,23.2-13.2,15.7,8.2" style="fill:#fff"/><path d="M143.9,106.3c-.4-3.5-.7-7.4-.9-10.9a84.4,84.4,0,0,1,.7-18.8c.7-3.7,1.4-7.1,5.2-8.6s6.6-1.7,9.3-.8a7.7,7.7,0,0,1,4.2,4.1s1.5,15.7-7.7,38.2Z" style="fill:#fff"/><path d="M157.9,106.8s10.3-27.5,22.9-27.5c0,0,14.4.7,9.4,11.3,0,0-11.6,16-31.1,15.4Z" style="fill:#fff"/><path d="M196.3,139.7s22.6,2.5,22,24.5c0,0,0,6.9-11.3,3.1,0,0-20-12.6-23.2-19.5,0,0,10-8.1,12.5-8.1" style="fill:#fff"/><path d="M163.1,132.8l26.3,23.9s15.1,14.4,11.9,32.6c0,0-14.4,10.7-45.8-36.4,0,0-11.5-15.8-10.1-25.1Z" style="fill:#fff"/><path d="M125,166.2c-2.9,12.7-.9,26.9-.9,26.9,8.8,12.5,12-3.8,12-3.8-1.3-7.5,1.2-28.2,1.2-28.2s5.3-17.6,7.2-20.2c0,0-7.9,1.4-11.7,8.4,0,0-6.2,9.6-7.8,16.9" style="fill:#fff"/><path d="M139.6,103.6s-14.8-14.7-24.2-17.2" style="fill:none;stroke:#ffd53e;stroke-linecap:round;stroke-linejoin:round;stroke-width:2.51084750979777px"/><path d="M150.7,107.9s-.2-17.7-.2-21.5" style="fill:none;stroke:#ffd53e;stroke-linecap:round;stroke-linejoin:round;stroke-width:2.51084750979777px"/><line x1="160.2" y1="106.7" x2="173" y2="95.5" style="fill:none;stroke:#ffd53e;stroke-linecap:round;stroke-linejoin:round;stroke-width:2.51084750979777px"/><path d="M180.6,166.7c-1.6-3.8-4.6-7.2-7.3-10.3s-6.2-6.8-9.4-10a22,22,0,0,1-5.3-7.9c-1.1-2.5-2.6-5.7-2.2-8.5" style="fill:none;stroke:#ffd53e;stroke-linecap:round;stroke-linejoin:round;stroke-width:2.51084750979777px"/><line x1="143.2" y1="138.9" x2="133.6" y2="157.9" style="fill:none;stroke:#ffd53e;stroke-linecap:round;stroke-linejoin:round;stroke-width:2.51084750979777px"/><path d="M140.5,129.4s-13.8.6-18.2,6.9" style="fill:none;stroke:#ffd53e;stroke-linecap:round;stroke-linejoin:round;stroke-width:2.51084750979777px"/><path d="M121.6,124.7s-9.4-5.7-16.9-3.2" style="fill:none;stroke:#ffd53e;stroke-linecap:round;stroke-linejoin:round;stroke-width:2.51084750979777px"/><path d="M176.8,104.8s5.4-6.3,10.4-5.7c0,0,7,.6,5.8,5.6" style="fill:#fff"/><path d="M116.9,111.5s.8-4.1,6.8-5.2c0,0,1.8-3.1,6.2-2.3,0,0,4.7,1.4,6.7,1.2,0,0,5.4-2.6,7.3-1.7,0,0,3.9,1.3,5.7,3.1,0,0,2.5,1.9,7.6,0,0,0,3.8-2.3,13.3-2.7,0,0,17.1-2.2,28.2-.4l14.6,40.8s-9.1,4.1-18.6,1.9c0,0-.8,0-.8.7s.6,8-1,9.8-3.1,6-7,5.3-6.2-3-8.7-5-2.3-1.9-3.5-3l-2.6-2.2-2.4-2c-.2-.2-1.1-1.1-1.4-1.1s-.9,1.7-1,2.2.1,3.4-.8,4.7-3.1,1.7-3.5,0-.5-2.2-.7-3.3a38.7,38.7,0,0,0-.6-4.6,24.5,24.5,0,0,0-1.7-4.5c-.3-.5-2.8-5.5-2.5-5.8a3.4,3.4,0,0,0-1.1,2s.1,8.6-1.1,10.1-1.4,3.2-2.9-.2c0,0,.1-11-.6-12.2s-.8-1.9-4-2.5c0,0-9.9-4.1-11.8-6.6-.6-.8-2.1-2.2-3.2-1.7s-1,3.2-1.3,4.4-.7,1.7-1.3,1.8-2.8,1-2-4.6c0,0,.3-4,1.4-4.7s-.7-.6-.9-.4-.1,1-.3,1.4-2.6,2.1-3.2.4-.1-2.8-.2-4.2a2.2,2.2,0,0,0-.9-1.6s-6.6-3.3-6.2-7.3" style="fill:#ffd53e"/><path d="M167.8,105.6c-.6-.5-2-.1-3.3.6l.3-.7-3.4.7a30.4,30.4,0,0,0-4,1.2,10.9,10.9,0,0,1-5,1.3,8.9,8.9,0,0,1-3.5-1.1,13.3,13.3,0,0,0-2-1.4,6.1,6.1,0,0,0-2.1-1.1c-3.5-1.5-6.2,1.2-9.6,1.2s-4.7-2-7.6-1.2-4.1,2.5-6.4,3.3c0,0-3.7,1.2-3.1,4s3,3.9,5.2,5.3a18.5,18.5,0,0,1,1.4,1.8,19.6,19.6,0,0,1,.2,3.9s.5,2,.9,1.5a19.7,19.7,0,0,0,.3-2.4c.1-.4.1-1,.4-1.3a1.8,1.8,0,0,1,1.6.3h0l2.3,1.5h0l-1.3,1.3a7.9,7.9,0,0,0-.7,2.1l-.3,4.2s.3,1.5,1,.8.8-3.7.8-3.7c0-1.9,2.3-2.4,2.3-2.4a3,3,0,0,1,2,.5l2.2,1.7h.1a43.7,43.7,0,0,0,4.4,3.1,20.4,20.4,0,0,0,5,2.3l2.4.9c1.2.4,2.5.6,3.2,1.8a16.5,16.5,0,0,1,.7,3.2,28.3,28.3,0,0,1,.2,2.9l.2,7.6.5.4c.3,0,.5-.8.5-.8a31.5,31.5,0,0,0,.5-4.3c0-1,.1-2,.2-3s-.4-5.8,2.3-6.2a1.6,1.6,0,0,1,1.8,1.2l1.2,4.9a5.9,5.9,0,0,0,1,2.6,10.4,10.4,0,0,1,1.1,3.4c.4,2.5.8,5.1,1.4,7.7a2.3,2.3,0,0,0,1.4-.2l.9-7.1s.7-1.9,3.4.3l5.9,4.5c1.7,1.3,3.2,2.9,4.9,4.3a15.6,15.6,0,0,0,6,3.4,4.9,4.9,0,0,0,1.7.1,3,3,0,0,0,2.5-1.5,16.9,16.9,0,0,0,2.2-3.9c.7-1.8.4-3.5.4-5.3s0-2.8.1-4.2a31.6,31.6,0,0,1,1.8-10.1,8.8,8.8,0,0,1,2.9-4s-29.4-25.8-29.4-25.9" style="fill:#1d1d1b"/><path d="M168.6,107.9c.9.8,2,1.4,2.9,2.2s4.3,4,6.6,5.9l8.4,7.4" style="fill:#1d1d1b"/><path d="M141.1,109.1c0-1.2,2-1.9,3.9-1.6a4.1,4.1,0,0,1,2.8,1.8,1.1,1.1,0,0,1-.8,1.7,5.2,5.2,0,0,1-2.5-.1s-3.4-.7-3.4-1.8" style="fill:#fff"/><path d="M126.9,114.1c-.4,1.3-1.2,2.3-1.8,2.1s-.8-1.4-.4-2.7,1.2-2.3,1.8-2.2.8,1.4.4,2.8" style="fill:#fff"/><path d="M100.8,216.8a132.7,132.7,0,0,1,8.1-24.5c3.1-6.7,6.1-14,11-19.5l1.3-1.5c.8-1.1,1.5-1.8,1.6-3.1h.1a50.8,50.8,0,0,1,2-9.4,3.8,3.8,0,0,0,.3-1c-.1.4-.7.8-.9,1.1l-1.2,1.1-2.5,2.7a99.5,99.5,0,0,0-7.9,9.3l-1.8,2.9c-1.4,2.5-2.8,5-4,7.6a228.1,228.1,0,0,0-11,28.4l-.9,2.7Z" style="fill:#fff"/><path d="M161.9,90.1s1.9-10.2,1.7-11.4,6.9-1.7,7.6,4c0,0-5.6,7.2-6.1,8.3Z" style="fill:#fff"/><path d="M155.7,110.4c3.5-4,12-4.2,17.1-4.7A149.3,149.3,0,0,1,195,105c4.9.3,18.3,2.8,10.8,9.1-2.6,2.3-5.7,4.1-9.4,3.6l-6.4-.6-16.4-1.6-12.9-1.3-2.5-.2c-1.5-.2-3.6-1.7-2.8-3.3l.3-.3" style="fill:#fff"/><path d="M155.7,110.4c3.5-4,12-4.2,17.1-4.7A149.3,149.3,0,0,1,195,105c4.9.3,18.3,2.8,10.8,9.1-2.6,2.3-5.7,4.1-9.4,3.6l-6.4-.6-16.4-1.6-12.9-1.3-2.5-.2c-1.5-.2-3.6-1.7-2.8-3.3Z" style="fill:none;stroke:#1d1d1b;stroke-miterlimit:2;stroke-width:2.08224843561982px"/><path d="M187.9,140.6s1.7,7.5-8.3,10" style="fill:none;stroke:#fff;stroke-linecap:round;stroke-linejoin:round;stroke-width:2.51084750979777px"/><path d="M183.1,136.6s1.7,7.5-8.3,10" style="fill:none;stroke:#fff;stroke-linecap:round;stroke-linejoin:round;stroke-width:2.51084750979777px"/><path d="M206.9,122.9c-.5,3.9-11.9,5.5-25.4,3.5s-24-6.7-23.5-10.5,12-5.5,25.5-3.6,24,6.7,23.4,10.6" style="fill:#fff"/><path d="M206.9,122.9c-.5,3.9-11.9,5.5-25.4,3.5s-24-6.7-23.5-10.5,12-5.5,25.5-3.6S207.5,119,206.9,122.9Z" style="fill:none;stroke:#1d1d1b;stroke-miterlimit:2;stroke-width:2.00800309776673px"/><path d="M177.9,132.2s1.7,7.5-8.4,10" style="fill:none;stroke:#fff;stroke-linecap:round;stroke-linejoin:round;stroke-width:2.51084750979777px"/><path d="M189.2,137.6c-.8,2.4-9.4,1.4-19.2-2s-17-8.3-16.2-10.6,9.5-1.4,19.2,2.1,17,8.2,16.2,10.5" style="fill:#fff"/><path d="M189.2,137.6c-.8,2.4-9.4,1.4-19.2-2s-17-8.3-16.2-10.6,9.5-1.4,19.2,2.1S190,135.3,189.2,137.6Z" style="fill:none;stroke:#1d1d1b;stroke-miterlimit:2;stroke-width:0.870697053822681px"/><path d="M159.4,118.7l.5-.2c2.6-.8,5.7,0,8.2.3a96.3,96.3,0,0,1,24.3,6.1,94,94,0,0,1,10,5.1c3.4,2,11.7,7.2,7.7,12.4-1.8,2.4-7.7,1.9-10.4,1.9-9.6.3-17-6-24.9-10.7-4.4-2.6-9.2-4.8-13.4-7.6-1.9-1.3-5.3-5.7-2-7.3" style="fill:#fff"/><path d="M159.4,118.7l.5-.2c2.6-.8,5.7,0,8.2.3a96.3,96.3,0,0,1,24.3,6.1,94,94,0,0,1,10,5.1c3.4,2,11.7,7.2,7.7,12.4-1.8,2.4-7.7,1.9-10.4,1.9-9.6.3-17-6-24.9-10.7-4.4-2.6-9.2-4.8-13.4-7.6C159.5,124.7,156.1,120.3,159.4,118.7Z" style="fill:none;stroke:#1d1d1b;stroke-miterlimit:2;stroke-width:2.00800309776673px"/><path d="M170.3,110.5c-2.3.1-4.6.1-6.9.4a21.6,21.6,0,0,0-4.4,1c-.4.1-2.9,1-3.1.7l1,1.3,3.1.3,9.8-2.8Z" style="fill:#1d1d1b"/><path d="M192.3,132.3s5.7,1.1,7,2.7c0,0,1.8,2.8-1.2,2.6,0,0-5.3-.6-7.6-2.2a1.2,1.2,0,0,1,.1-1.2l1-1.5a.6.6,0,0,1,.7-.4" style="fill:#1d1d1b"/><path d="M180.8,131s5.6,4.3,7.4,2.7c0,0,1.5-1.3,1.4-1.9a2.8,2.8,0,0,0-1-1.3s-5.6-2.3-6.4-1.8-2,.5-1.4,2.3" style="fill:#1d1d1b"/><path d="M173.4,126.3l3.2,2.2a.9.9,0,0,0,1.2-.3,1.3,1.3,0,0,0-.7-2.2l-3.3-.8a.5.5,0,0,0-.5.1l-.2.4s.1.6.3.6" style="fill:#1d1d1b"/><polygon points="50.2 192.7 38.4 199.1 40.3 202.6 37.9 203.9 32.9 194.7 35.3 193.3 37.1 196.8 48.9 190.3 50.2 192.7" style="fill:#1d1d1b"/><polygon points="45.4 183.4 30.3 189.2 29.4 186.7 35.3 184.4 33.4 179.5 27.5 181.8 26.5 179.3 41.6 173.5 42.6 176 36 178.5 37.9 183.4 44.5 180.9 45.4 183.4" style="fill:#1d1d1b"/><polygon points="40.3 168.9 24.5 172.4 22.3 162.8 25 162.2 26.6 169.2 30.1 168.4 28.6 161.9 31.3 161.3 32.7 167.8 37 166.8 35.4 159.6 38.1 159 40.3 168.9" style="fill:#1d1d1b"/><path d="M20.6,147.8v-5.3a10.9,10.9,0,0,1,.3-3.1,3.3,3.3,0,0,1,1.4-1.5,4.5,4.5,0,0,1,2.3-.7,4.6,4.6,0,0,1,2.1.5A4.4,4.4,0,0,1,28,139a3.6,3.6,0,0,1,1.4-1.8,4.1,4.1,0,0,1,2.5-.7,4.8,4.8,0,0,1,3,.8,3.3,3.3,0,0,1,1.5,2,19,19,0,0,1,.3,3.7v4.5Zm2.6-2.7H27v-1.8a7.7,7.7,0,0,0-.1-1.9,1.3,1.3,0,0,0-.6-1.1,2,2,0,0,0-2.4,0c-.3.2-.5.4-.5.7a14.3,14.3,0,0,0-.1,2.6Zm6.5-.2H34v-2.5a7.8,7.8,0,0,0-.2-2.1,1.3,1.3,0,0,0-.7-.8,2.1,2.1,0,0,0-1.2-.3,2.2,2.2,0,0,0-1.3.4,1.3,1.3,0,0,0-.7.9,6.2,6.2,0,0,0-.2,2.3Z" style="fill:#1d1d1b"/><path d="M36.9,132l-16-2.2.7-5.5a7.7,7.7,0,0,1,.9-3.1,3.4,3.4,0,0,1,1.7-1.3,5.4,5.4,0,0,1,2.6-.2,5.2,5.2,0,0,1,2.9,1.3,4.2,4.2,0,0,1,1.1,2.8,5.8,5.8,0,0,1,1.5-1.3,18,18,0,0,1,2.8-1.1l3.4-1.2-.5,3.2-3.7,1.4-2.6,1.1a1.6,1.6,0,0,0-.7.7,3.3,3.3,0,0,0-.4,1.3v.5l6.7.9ZM28,128.1l.3-2a10,10,0,0,0,.1-2.3,2,2,0,0,0-.5-.9,2.2,2.2,0,0,0-1.3-.4,1.6,1.6,0,0,0-1.2.1,1.9,1.9,0,0,0-.8.7c-.1.3-.2,1-.4,2.2l-.3,2.1Z" style="fill:#1d1d1b"/><rect x="30.5" y="105.6" width="2.7" height="16.17" transform="translate(-86.1 117.5) rotate(-76.2)" style="fill:#1d1d1b"/><polygon points="42.2 107 29.5 102.5 28.2 106.2 25.6 105.3 29.1 95.4 31.7 96.3 30.4 100 43.1 104.5 42.2 107" style="fill:#1d1d1b"/><rect x="37.9" y="84.6" width="2.7" height="16.17" transform="translate(-61.3 88.9) rotate(-64.9)" style="fill:#1d1d1b"/><path d="M44.3,88.7l1.1-2.4c1.9.8,3.3.5,4.1-.9a2.5,2.5,0,0,0,.4-2A1.9,1.9,0,0,0,49,82l-1-.3-.9.4a12.8,12.8,0,0,0-1.9,1.6,10.8,10.8,0,0,1-2.3,1.6,4.4,4.4,0,0,1-2,.2,5.8,5.8,0,0,1-2.1-.7,4.6,4.6,0,0,1-1.7-1.7,3.7,3.7,0,0,1-.5-2.3,4.5,4.5,0,0,1,.9-2.5,5.7,5.7,0,0,1,2.9-2.5,5.7,5.7,0,0,1,3.9.7L43,78.9a3.1,3.1,0,0,0-2-.3,2.9,2.9,0,0,0-1.3,1.2,2.5,2.5,0,0,0-.4,1.6,1.1,1.1,0,0,0,.6,1.1,1.5,1.5,0,0,0,1.3.1A6.1,6.1,0,0,0,43.3,81a10,10,0,0,1,2.5-1.8,4.1,4.1,0,0,1,2.2-.3,4.6,4.6,0,0,1,2.3.8,5.1,5.1,0,0,1,2.4,3,5,5,0,0,1-.9,4.2c-1.6,2.8-4.2,3.4-7.5,1.8" style="fill:#1d1d1b"/><polygon points="56.9 78.5 44.3 68.3 46 66.3 50.9 70.3 54.3 66.2 49.3 62.2 51 60.1 63.6 70.3 61.9 72.4 56.4 67.9 53.1 72 58.6 76.5 56.9 78.5" style="fill:#1d1d1b"/><path d="M62,49.2l4.1-3.3a8.2,8.2,0,0,1,2.7-1.6,3.5,3.5,0,0,1,2,.1,5.2,5.2,0,0,1,1.9,1.4,4,4,0,0,1,.9,2,3,3,0,0,1-.2,1.9,4.9,4.9,0,0,1,2.4,0,5.5,5.5,0,0,1,2,1.5A4.4,4.4,0,0,1,79,54.1a3.1,3.1,0,0,1-.6,2.4A15.8,15.8,0,0,1,75.6,59l-3.5,2.8Zm3.8.4,2.3,3,1.4-1.1L71,50.2a1.7,1.7,0,0,0,.4-1.1,1.5,1.5,0,0,0-.5-1.3,2,2,0,0,0-.9-.7,1.1,1.1,0,0,0-1,.1l-2,1.5Zm4,5.1L72.5,58l1.9-1.5A4.9,4.9,0,0,0,75.9,55a1.2,1.2,0,0,0,.2-1,2.5,2.5,0,0,0-1.6-2,2,2,0,0,0-1.1,0l-1.9,1.3Z" style="fill:#1d1d1b"/><polygon points="84.4 52.4 76.2 38.5 84.7 33.5 86.1 35.9 79.9 39.5 81.7 42.6 87.5 39.2 88.9 41.5 83.1 44.9 85.4 48.7 91.7 44.9 93.1 47.3 84.4 52.4" style="fill:#1d1d1b"/><polygon points="97 45.4 90.8 30.5 99.8 26.7 100.9 29.2 94.3 32 95.7 35.3 101.8 32.7 102.9 35.2 96.7 37.8 98.4 41.8 105.2 39 106.3 41.5 97 45.4" style="fill:#1d1d1b"/><polygon points="110.5 40.1 106.4 24.4 109 23.8 110.8 30.7 114.3 22.4 117.7 21.5 114.5 28.9 122.1 37.1 118.7 38 113.3 31.5 111.8 34.7 113.1 39.4 110.5 40.1" style="fill:#1d1d1b"/><polygon points="125.5 36.6 123.7 20.5 133.5 19.4 133.8 22.2 126.6 23 127 26.5 133.7 25.8 134 28.5 127.3 29.2 127.8 33.6 135.2 32.8 135.5 35.5 125.5 36.6" style="fill:#1d1d1b"/><polygon points="139.9 35.3 140.2 19.1 150.1 19.4 150 22.1 142.9 21.9 142.8 25.5 149.4 25.7 149.4 28.4 142.7 28.3 142.6 32.6 150 32.8 149.9 35.6 139.9 35.3" style="fill:#1d1d1b"/><path d="M154.3,36l2.6-16,4.3.7a19.3,19.3,0,0,1,3,.7,3.5,3.5,0,0,1,1.7,1.9,5.9,5.9,0,0,1,.2,3.3,5,5,0,0,1-1.1,2.8,3.5,3.5,0,0,1-1.9,1.3,7.5,7.5,0,0,1-3.4,0l-1.8-.3-.9,6Zm4.8-12.9-.7,4.6,1.4.2a5.2,5.2,0,0,0,2.1.1,1.4,1.4,0,0,0,1-.6,3.3,3.3,0,0,0,.5-1.2,2.1,2.1,0,0,0-.1-1.4,1.8,1.8,0,0,0-.8-.9,5.2,5.2,0,0,0-2.1-.5Z" style="fill:#1d1d1b"/><polygon points="168.5 38.6 173.2 23.2 182.7 26 181.8 28.7 175 26.6 173.9 30 180.3 31.9 179.5 34.5 173.2 32.6 171.9 36.8 178.9 39 178.1 41.6 168.5 38.6" style="fill:#1d1d1b"/><path d="M182.2,43.1l6.9-14.6,5.1,2.4a8.9,8.9,0,0,1,2.6,1.7,4,4,0,0,1,.7,2,5,5,0,0,1-.5,2.6,5.7,5.7,0,0,1-2.2,2.4,4.1,4.1,0,0,1-2.9.2,13.4,13.4,0,0,1,.7,1.8,19.5,19.5,0,0,1,.2,3.1l.2,3.5-2.9-1.4-.3-4a20.6,20.6,0,0,0-.3-2.7,1.8,1.8,0,0,0-.4-1l-1.1-.7-.5-.3-2.9,6.2Zm6.4-7.3,1.8.9a8.4,8.4,0,0,0,2.1.8,1.6,1.6,0,0,0,1-.2c.4-.2.6-.6.9-1.1a1.8,1.8,0,0,0,.2-1.2,1.4,1.4,0,0,0-.5-1l-1.9-1-1.9-.9Z" style="fill:#1d1d1b"/><path d="M198.4,45.3l2.3,1.2c-.9,1.8-.6,3.2.7,4.1a2.6,2.6,0,0,0,2,.6,1.8,1.8,0,0,0,1.4-1,1.5,1.5,0,0,0,0-1.8,13.6,13.6,0,0,0-1.5-2,7.5,7.5,0,0,1-1.5-2.4,4.4,4.4,0,0,1-.2-2,5,5,0,0,1,.8-2,5.8,5.8,0,0,1,1.8-1.7,4.7,4.7,0,0,1,2.3-.4,5.7,5.7,0,0,1,2.5,1,4.8,4.8,0,0,1,2.3,3.1,5,5,0,0,1-.8,3.8l-2.3-1.4a2.3,2.3,0,0,0,.3-1.9,2.4,2.4,0,0,0-1.1-1.4,2.2,2.2,0,0,0-1.6-.5,1.1,1.1,0,0,0-1.1.6,1.7,1.7,0,0,0-.2,1.2,10.6,10.6,0,0,0,1.5,2.2,10.2,10.2,0,0,1,1.8,2.6,5.3,5.3,0,0,1,.2,2.2,5,5,0,0,1-1,2.3,4.5,4.5,0,0,1-3,2.2c-1.2.4-2.6,0-4.2-1s-3.2-4.3-1.4-7.6" style="fill:#1d1d1b"/><path d="M221.4,70.9l-2.1-2,1.8-3.4-3.8-3.8-3.4,1.8-2-2L227,53.7l2,2Zm1-8,2.9-5.5-5.5,3Z" style="fill:#1d1d1b"/><path d="M227.4,70l1.8,1.9c-1.5,1.4-1.7,2.8-.7,4.1a2.3,2.3,0,0,0,1.6,1.2,2.1,2.1,0,0,0,1.7-.4,1.6,1.6,0,0,0,.6-.8,2.8,2.8,0,0,0,.1-.9l-.8-2.5a8.4,8.4,0,0,1-.6-2.6,3.5,3.5,0,0,1,.5-2,4.6,4.6,0,0,1,1.4-1.7,4.7,4.7,0,0,1,2.2-.9,3.5,3.5,0,0,1,2.3.4,5.2,5.2,0,0,1,2,1.7,4.6,4.6,0,0,1-.9,7l-1.7-2.1a2.6,2.6,0,0,0,1-1.7,1.9,1.9,0,0,0-.6-1.6A3.2,3.2,0,0,0,236,68a1.9,1.9,0,0,0-1.3.2,1.6,1.6,0,0,0-.5,1.1,5.6,5.6,0,0,0,.6,2.6,9.6,9.6,0,0,1,.8,3,4.6,4.6,0,0,1-.5,2.1,6,6,0,0,1-1.7,1.9,4.8,4.8,0,0,1-3.6,1.1,5.1,5.1,0,0,1-3.6-2.4c-1.9-2.6-1.6-5.1,1.2-7.6" style="fill:#1d1d1b"/><path d="M236.3,82.3l1.5,2.1c-1.6,1.2-2.1,2.6-1.3,4a2.9,2.9,0,0,0,1.5,1.4,2,2,0,0,0,1.7-.2,2.2,2.2,0,0,0,.7-.6,1.6,1.6,0,0,0,.2-1c0-.4-.2-1.2-.4-2.5a7.3,7.3,0,0,1-.3-2.7,4.6,4.6,0,0,1,.8-1.9,5.7,5.7,0,0,1,1.6-1.5,5.3,5.3,0,0,1,2.4-.6,3.6,3.6,0,0,1,2.2.7,6.3,6.3,0,0,1,2.4,5.8,4.8,4.8,0,0,1-2.5,3L245.4,86a2.7,2.7,0,0,0,1.2-1.5,2.7,2.7,0,0,0-.3-1.7,3.1,3.1,0,0,0-1.2-1.3,1.2,1.2,0,0,0-1.3.1,1.3,1.3,0,0,0-.7,1,7.3,7.3,0,0,0,.3,2.6,9.3,9.3,0,0,1,.3,3.1,3.5,3.5,0,0,1-.7,2,5.4,5.4,0,0,1-2,1.6,4.9,4.9,0,0,1-3.7.6,5,5,0,0,1-3.2-2.8c-1.6-2.8-.9-5.3,2.2-7.4" style="fill:#1d1d1b"/><path d="M246.1,94.8a10.8,10.8,0,0,1,4.7-.9,6.8,6.8,0,0,1,3.4,1.1,5.6,5.6,0,0,1,2,2.9,5.7,5.7,0,0,1-.3,5.1,11.9,11.9,0,0,1-11.8,4.3,5.8,5.8,0,0,1-3.5-3.5,5.5,5.5,0,0,1,.3-5c.9-1.7,2.7-3,5.2-4m1,2.6a6.4,6.4,0,0,0-3.5,2.4,3.3,3.3,0,0,0-.4,3,3,3,0,0,0,2.2,1.9,6.5,6.5,0,0,0,4.4-.5,6.4,6.4,0,0,0,3.5-2.4,3.3,3.3,0,0,0-1.9-5,7.1,7.1,0,0,0-4.3.6" style="fill:#1d1d1b"/><path d="M251.8,120.8l-.4,2.8a6.7,6.7,0,0,1-4.3-1.2,5.1,5.1,0,0,1-2-3.1,5.2,5.2,0,0,1,1.1-4.5,9.4,9.4,0,0,1,5.7-3.1,9.9,9.9,0,0,1,6.7.5,5,5,0,0,1,2.9,3.8,5.1,5.1,0,0,1-.7,4,8.3,8.3,0,0,1-2.8,2.2l-1.3-2.5a3,3,0,0,0,1.7-1.4,2.6,2.6,0,0,0,.4-1.9,2.8,2.8,0,0,0-1.8-2c-.9-.5-2.4-.5-4.3-.1a7.5,7.5,0,0,0-4.1,1.8,2.9,2.9,0,0,0-.8,2.6,2.8,2.8,0,0,0,1.2,1.6,4.7,4.7,0,0,0,2.8.5" style="fill:#1d1d1b"/><rect x="247" y="128" width="16.2" height="2.67" transform="translate(-11.7 26.3) rotate(-5.8)" style="fill:#1d1d1b"/><path d="M247.5,148.1v-2.9l3.6-1.1v-5.3l-3.6-1.2v-2.8l16.1,5.4v2.9Zm6.5-4.8,6-1.7-6-1.9Z" style="fill:#1d1d1b"/><polygon points="246.9 153.2 260.2 154.9 260.7 151 263.5 151.3 262.1 161.8 259.4 161.4 259.9 157.5 246.6 155.8 246.9 153.2" style="fill:#1d1d1b"/><rect x="251.5" y="158.4" width="2.7" height="16.17" transform="translate(33.9 375.5) rotate(-77)" style="fill:#1d1d1b"/><path d="M251.3,172.6a13.7,13.7,0,0,1,4.2,2.4,6.9,6.9,0,0,1,1.9,3.1,5.8,5.8,0,0,1-.3,3.4,5.8,5.8,0,0,1-3.6,3.7,9.6,9.6,0,0,1-6.4-.4,10.3,10.3,0,0,1-5.4-3.9,5.6,5.6,0,0,1-.3-4.9,5.4,5.4,0,0,1,3.3-3.7,10.1,10.1,0,0,1,6.6.3m-.8,2.7c-1.8-.6-3.2-.8-4.3-.4a3,3,0,0,0-2.2,2,3,3,0,0,0,.4,2.9,7,7,0,0,0,3.7,2.4,6.4,6.4,0,0,0,4.2.4,3.2,3.2,0,0,0,2.2-2,3.3,3.3,0,0,0-.4-3,6.8,6.8,0,0,0-3.6-2.3" style="fill:#1d1d1b"/><polygon points="237.7 185.9 251.9 193.6 250.7 195.9 238.6 195.5 248.2 200.6 247 202.8 232.7 195.2 234 192.8 245.8 193.1 236.5 188.1 237.7 185.9" style="fill:#1d1d1b"/><path d="M52.9,213.6a3.4,3.4,0,0,1-2.3.8,2.6,2.6,0,0,1-1.9-.9,2.2,2.2,0,0,1-.4-2.1,3,3,0,0,1,1.3-2,3.1,3.1,0,0,1,2.3-.8,2.1,2.1,0,0,1,1.9.9,2,2,0,0,1,.4,2,3.4,3.4,0,0,1-1.3,2.1" style="fill:#1d1d1b"/><polygon points="56.1 229 67 217.1 73.8 223.2 71.9 225.2 67.2 220.9 64.6 223.7 68.7 227.5 66.9 229.5 62.8 225.7 58.1 230.8 56.1 229" style="fill:#1d1d1b"/><path d="M72.7,232.9a11.4,11.4,0,0,1,3.4-3.5,6.5,6.5,0,0,1,3.4-1.1,6.1,6.1,0,0,1,5.9,5.5c.2,1.9-.5,3.9-2,6.2a10,10,0,0,1-5.1,4.2,5.5,5.5,0,0,1-4.9-.9,5.4,5.4,0,0,1-2.6-4.2,9.3,9.3,0,0,1,1.9-6.2m2.3,1.4a6.9,6.9,0,0,0-1.4,4.1A3.3,3.3,0,0,0,75,241a3,3,0,0,0,2.9.3,7.2,7.2,0,0,0,3.3-2.9,8,8,0,0,0,1.5-4,3.2,3.2,0,0,0-1.5-2.6,2.9,2.9,0,0,0-3-.4,7.5,7.5,0,0,0-3.2,2.9" style="fill:#1d1d1b"/><path d="M92.3,235.6l2.4,1.1-3.7,8c-.6,1.2-.9,2-1.1,2.4A4,4,0,0,0,90,249a2.8,2.8,0,0,0,1.4,1.2,2.1,2.1,0,0,0,1.5.3,1.9,1.9,0,0,0,1.2-.7,11.4,11.4,0,0,0,1.6-2.8l3.7-8.1,2.4,1.2-3.5,7.7a37.6,37.6,0,0,1-2.3,4.1,4.9,4.9,0,0,1-2.4,1.4,5,5,0,0,1-3.3-.5,6.8,6.8,0,0,1-2.7-2,4.2,4.2,0,0,1-.6-2.7,18.1,18.1,0,0,1,1.6-4.7Z" style="fill:#1d1d1b"/><polygon points="102.6 257.6 107.1 242 109.6 242.8 111.8 254.7 114.9 244.3 117.3 245 112.7 260.5 110.1 259.8 108 248.1 105 258.3 102.6 257.6" style="fill:#1d1d1b"/><path d="M122.8,246.2l4.8.6a5.8,5.8,0,0,1,2.8.8,4.7,4.7,0,0,1,1.5,1.6,8.5,8.5,0,0,1,.9,2.7,13.1,13.1,0,0,1-.1,3.9,10.5,10.5,0,0,1-.9,3.5,7,7,0,0,1-1.5,2.3,5.2,5.2,0,0,1-1.9,1.1,6,6,0,0,1-2.7.1l-5-.6Zm2.3,3-1.4,10.6,2,.3h1.9a2.1,2.1,0,0,0,1-.6,3.5,3.5,0,0,0,.8-1.5,8.3,8.3,0,0,0,.6-2.7,9.2,9.2,0,0,0,.1-2.8,3.2,3.2,0,0,0-.5-1.8,2.7,2.7,0,0,0-1.2-.9,9.4,9.4,0,0,0-2.1-.4Z" style="fill:#1d1d1b"/><polygon points="139.2 264 139 247.8 148.8 247.7 148.8 250.4 141.7 250.5 141.7 254.1 148.4 254 148.4 256.7 141.8 256.8 141.8 261.2 149.3 261.1 149.3 263.8 139.2 264" style="fill:#1d1d1b"/><path d="M154.1,247.2l4.8-.7a9.2,9.2,0,0,1,2.8-.1,6.6,6.6,0,0,1,2,1.1,10.3,10.3,0,0,1,1.6,2.3,15.1,15.1,0,0,1,1.2,7.5,8,8,0,0,1-.8,2.6,4.6,4.6,0,0,1-1.5,1.6,7.9,7.9,0,0,1-2.6.9l-4.9.8Zm3.1,2.3,1.7,10.6,1.9-.3,1.9-.6a2.4,2.4,0,0,0,.8-.9,3.2,3.2,0,0,0,.3-1.6,9.8,9.8,0,0,0-.2-2.8,10.3,10.3,0,0,0-.7-2.7,3.6,3.6,0,0,0-1-1.5,2.5,2.5,0,0,0-1.4-.6l-2.2.2Z" style="fill:#1d1d1b"/><path d="M188.9,254.7l-2.4,1-4.2-10.9a8.7,8.7,0,0,1-2.2,3.4l-1-2.6a8.2,8.2,0,0,0,1.4-2.3,4.9,4.9,0,0,0,.6-2.9l1.9-.8Z" style="fill:#1d1d1b"/><path d="M194.6,242.5a3,3,0,0,1-1.9-.5,4.1,4.1,0,0,1-1.4-1.5,4.6,4.6,0,0,1-.5-3.2,4.1,4.1,0,0,1,2.1-2.4,3.5,3.5,0,0,1,3.1-.3,4.3,4.3,0,0,1,2.3,2.1,3.9,3.9,0,0,1,.6,2,3.5,3.5,0,0,1-.6,1.8,4,4,0,0,1,2.2.5,6.3,6.3,0,0,1,1.7,1.9,7,7,0,0,1,.8,2.6,5.6,5.6,0,0,1-.5,2.3,4.4,4.4,0,0,1-1.7,1.6,4.1,4.1,0,0,1-3.4.3,4.9,4.9,0,0,1-2.8-2.5,5,5,0,0,1-.7-2.5,3.6,3.6,0,0,1,.7-2.2m-1.1-3a2.3,2.3,0,0,0,1.1,1.1,2,2,0,0,0,1.3-.1,1.4,1.4,0,0,0,.7-1,2.2,2.2,0,0,0-.3-1.5c-.3-.5-.6-.9-1-1a1.5,1.5,0,0,0-1.3.1,1.3,1.3,0,0,0-.7,1,2.4,2.4,0,0,0,.2,1.4m3.1,6.2a2.7,2.7,0,0,0,1.5,1.5,1.4,1.4,0,0,0,1.5,0,1.5,1.5,0,0,0,.8-1.2,3.4,3.4,0,0,0-.5-2,3.6,3.6,0,0,0-1.3-1.4,1.6,1.6,0,0,0-1.5.1,1.4,1.4,0,0,0-.9,1.2,3,3,0,0,0,.4,1.8" style="fill:#1d1d1b"/><path d="M202.2,233.1l-1.6-2.3,7.1-5.1,1.3,1.9a16.5,16.5,0,0,0,.3,4.2,25,25,0,0,0,1.6,5.1,20.2,20.2,0,0,0,2.4,4.4l-2,1.4a27.7,27.7,0,0,1-3.1-6.2,27,27,0,0,1-1.2-6.7Z" style="fill:#1d1d1b"/><path d="M225.6,231.3l-2.2-2.4-4,3.7-1.8-2-2.7-11.5,1.6-1.4,6.9,7.5,1.2-1.1,1.8,2-1.2,1.1,2.2,2.4Zm-4-4.4-3.8-4.1,1.5,6.1Z" style="fill:#1d1d1b"/><path d="M235.2,208.6a4.1,4.1,0,0,1,1.4,2.1,2.6,2.6,0,0,1-.4,2,2.3,2.3,0,0,1-1.9.9,3.7,3.7,0,0,1-2.4-.7,3.9,3.9,0,0,1-1.3-2.1,2.3,2.3,0,0,1,.4-2,2.4,2.4,0,0,1,1.9-1,4,4,0,0,1,2.3.8" style="fill:#1d1d1b"/><path d="M213.8,248.8a6.2,6.2,0,0,1,1.8-4.4,6.3,6.3,0,0,1,8.8,0,6.3,6.3,0,0,1,1.9,4.4,6,6,0,0,1-1.9,4.4,6,6,0,0,1-8.8,0,5.9,5.9,0,0,1-1.8-4.4m11.7,0a5.5,5.5,0,0,0-1.6-3.8,5.3,5.3,0,0,0-3.9-1.6,5.5,5.5,0,0,0-5.4,5.4,5.3,5.3,0,0,0,1.6,3.9,5.1,5.1,0,0,0,3.8,1.6,5.3,5.3,0,0,0,3.9-1.6,5.7,5.7,0,0,0,1.6-3.9m-8-3.2h2.7a2.9,2.9,0,0,1,1.7.5,1.4,1.4,0,0,1,.5,1.3c0,1-.5,1.6-1.7,1.8a4.5,4.5,0,0,1,1,.9,22.8,22.8,0,0,1,1,2.1h-1a7.3,7.3,0,0,0-1.4-2.4,2.2,2.2,0,0,0-1.6-.5h-.4v2.9h-.8Zm.8,3.1h1.1a3,3,0,0,0,1.6-.3,1.1,1.1,0,0,0,.5-1,1.3,1.3,0,0,0-.4-.9l-1.6-.2h-1.2Z" style="fill:#1d1d1b"/></g></svg>