<svg version="1.2" baseProfile="tiny-ps" xmlns="http://www.w3.org/2000/svg" viewBox="0 0 283.46 283.46"><title>BBKA</title><path d="M142.15,42.44,56.3,92v99.13l38.81,22.41c2.8-10.91,9.32-31.88,21-46.3a3.14,3.14,0,1,1,4.88,3.95c-11.41,14.14-17.75,35.85-20.17,45.62l41.38,23.89L228,191.14V92Z" fill="#ffd53e"/><path d="M146,138.75c-.64,2.84-.73,5.15-1.73,7.88-4.46,12.13-3.14,50.83-3.14,50.83,3.14,14.44,8.16,11.3,8.16,11.3,16.94-10.67,13.81-39.84,13.81-39.85a21.25,21.25,0,0,0-2.19-3.56c-.7-.94-1.53-2.12-2.18-3.11-1.28-1.93-2.53-4.15-3.66-6.17-2.18-3.89-4.64-7.38-6.72-11.31a36.07,36.07,0,0,1-2.35-6" fill="#fff"/><path d="M151.93,142.94s-1.43,25.66-.8,30.05" fill="none" stroke="#ffd53e" stroke-linecap="round" stroke-linejoin="round" stroke-width="2.51"/><path d="M101,140.17s18.83-22,33.89-12.55c0,0,15.06,5.65,1.25,15.06,0,0-10,11.3-12.55,14.44,0,0-25.1,24.47-41.41,5,0,0-4.4-8.15,3.76-6.9A42.06,42.06,0,0,0,101,140.17" fill="#fff"/><path d="M130.56,123.5s-12.69-3.22-30.26,9.95c0,0-23.85,3.77-35.14-6.27,0,0-8.79-8.78,10-12.55C79,114,82.76,113.5,86.55,113c3.54-.48,7.1-.68,10.68-.84a84.18,84.18,0,0,1,10.65-.26,51.73,51.73,0,0,1,14.1,3.63c2.82,1.08,6.89,2.12,8.87,4.54a2.41,2.41,0,0,1-.29,3.43" fill="#fff"/><path d="M80.5,106.54a3.09,3.09,0,0,1,.17-.39,12.12,12.12,0,0,1,3.21-3.41,45.56,45.56,0,0,1,3.45-3.07c3.48-2.51,7.26-4.69,11.59-5.19a13.07,13.07,0,0,1,7,1.32s19.45,8.79,16.31,13.81a17.09,17.09,0,0,1-4.34.29c-2.41-.14-4.72-1.4-7.07-1.91a71.58,71.58,0,0,0-8.26-1.12,57.25,57.25,0,0,0-9.71-.24c-3,.22-5.7,1.68-8.64,2.25-1.81.36-4.44-.24-3.74-2.34" fill="#fff"/><path d="M126,104s-16.32-10.67-22.59-13.81c0,0-8.79-5.64-8.16-11.92,0,0,.63-7.53,5.65-.63.32.44,3.29.25,3.76.27,3.23.09,6.48-.5,9.69,0,2.24.38,4.51.66,6.72,1.21a35.08,35.08,0,0,1,15.4,7.68A20.7,20.7,0,0,1,140,90.74c.82,1.25,2.15,3.33,2.28,4.86l.63,7.73-7.74,2.2-6.38-.94Z" fill="#fff"/><path d="M138.89,85.87S130.11,79,123.2,77.71c0,0,23.22-13.18,15.69,8.16" fill="#fff"/><path d="M143.88,106.28c-.41-3.44-.68-7.42-.89-10.87a83,83,0,0,1,.75-18.84c.62-3.63,1.36-7.07,5.19-8.52,2.6-1,6.62-1.73,9.3-.84a7.71,7.71,0,0,1,4.2,4.12s1.49,15.72-7.73,38.2Z" fill="#fff"/><path d="M157.87,106.85s10.35-27.51,22.9-27.51c0,0,14.44.63,9.41,11.3,0,0-11.6,16-31.06,15.37Z" fill="#fff"/><path d="M196.31,139.73s22.59,2.51,22,24.47c0,0,0,6.91-11.3,3.14,0,0-20-12.6-23.13-19.5,0,0,10-8.11,12.46-8.11" fill="#fff"/><path d="M163.05,132.83l26.36,23.84s15.06,14.44,11.92,32.63c0,0-14.43,10.67-45.81-36.39,0,0-11.53-15.78-10.16-25.14Z" fill="#fff"/><path d="M125,166.21c-2.84,12.65-.81,26.86-.81,26.86,8.78,12.55,11.92-3.76,11.92-3.76-1.26-7.54,1.25-28.24,1.25-28.24s5.28-17.55,7.14-20.16c0,0-7.82,1.37-11.68,8.35,0,0-6.18,9.6-7.82,17" fill="#fff"/><path d="M139.62,103.65S124.78,88.9,115.36,86.39" fill="none" stroke="#ffd53e" stroke-linecap="round" stroke-linejoin="round" stroke-width="2.51"/><path d="M150.74,107.88s-.24-17.72-.24-21.49" fill="none" stroke="#ffd53e" stroke-linecap="round" stroke-linejoin="round" stroke-width="2.51"/><line x1="160.18" y1="106.69" x2="173.05" y2="95.5" fill="none" stroke="#ffd53e" stroke-linecap="round" stroke-linejoin="round" stroke-width="2.51"/><path d="M180.62,166.71c-1.6-3.85-4.65-7.23-7.35-10.36-3-3.44-6.14-6.74-9.37-10a23,23,0,0,1-5.35-7.86c-1-2.5-2.53-5.71-2.14-8.5" fill="none" stroke="#ffd53e" stroke-linecap="round" stroke-linejoin="round" stroke-width="2.51"/><line x1="143.25" y1="138.92" x2="133.56" y2="157.93" fill="none" stroke="#ffd53e" stroke-linecap="round" stroke-linejoin="round" stroke-width="2.51"/><path d="M140.49,129.39s-13.81.62-18.2,6.9" fill="none" stroke="#ffd53e" stroke-linecap="round" stroke-linejoin="round" stroke-width="2.51"/><path d="M121.64,124.67s-9.42-5.65-17-3.14" fill="none" stroke="#ffd53e" stroke-linecap="round" stroke-linejoin="round" stroke-width="2.51"/><path d="M176.82,104.81s5.36-6.35,10.34-5.74c0,0,7,.6,5.81,5.59" fill="#fff"/><path d="M116.91,111.52s.83-4.07,6.82-5.25c0,0,1.79-3.1,6.21-2.27,0,0,4.61,1.38,6.62,1.17,0,0,5.44-2.55,7.37-1.65,0,0,3.86,1.24,5.65,3,0,0,2.49,2,7.65,0,0,0,3.79-2.2,13.24-2.62,0,0,17.16-2.27,28.19-.48l14.61,40.88s-9.1,4.06-18.54,1.86c0,0-.82,0-.82.76,0,0,.54,7.93-1,9.78-2,2.48-3.09,5.92-7,5.29-3.25-.51-6.24-3-8.72-5-1.2-1-2.36-2-3.5-3-.85-.76-1.73-1.5-2.6-2.25s-1.6-1.39-2.43-2c-.22-.17-1.13-1-1.39-1-.72,0-.86,1.64-1,2.22-.24,1.43,0,3.39-.79,4.63-.69,1-3.17,1.72-3.55,0-.24-1.09-.46-2.19-.67-3.29-.26-1.39-.24-3.12-.57-4.61A25.65,25.65,0,0,0,159,143.2c-.21-.52-2.8-5.52-2.49-5.84a3.64,3.64,0,0,0-1,2.07s.07,8.55-1.1,10.07c0,0-1.45,3.17-2.9-.21,0,0,.07-11-.69-12.2,0,0-.76-1.86-3.93-2.48,0,0-9.92-4.13-11.78-6.62-.63-.83-2.13-2.15-3.26-1.71-1.52.59-.93,3.19-1.31,4.38-.17.54-.63,1.73-1.29,1.88,0,0-2.76,1-2-4.62,0,0,.27-4.07,1.37-4.75,0,0-.69-.56-.82-.35s-.16,1-.3,1.35c-.54,1.36-2.63,2.17-3.19.45-.42-1.33-.11-2.82-.28-4.18a2.1,2.1,0,0,0-.85-1.62s-6.61-3.31-6.2-7.3" fill="#ffd53e"/><path d="M167.76,105.64c-.61-.52-1.92-.1-3.27.54l.33-.69c-.79.12-2.62.48-3.38.68a33,33,0,0,0-4,1.28,10.94,10.94,0,0,1-5,1.24,8.66,8.66,0,0,1-3.45-1.12c-.34-.19-1.37-1.07-2.06-1.4a11.35,11.35,0,0,0-2.06-1.11c-3.56-1.43-6.2,1.22-9.63,1.21-2.76,0-4.72-2-7.6-1.13-2.29.69-4.1,2.46-6.38,3.21,0,0-3.76,1.26-3.13,4.08s3,3.9,5.21,5.31a17.88,17.88,0,0,1,1.42,1.72,19.71,19.71,0,0,1,.22,4s.45,2,.86,1.46a13.44,13.44,0,0,0,.35-2.36c0-.44,0-1,.37-1.32a1.88,1.88,0,0,1,1.56.3h.05c.76.51,1.54,1,2.26,1.5h0a9.05,9.05,0,0,0-1.28,1.32,6.07,6.07,0,0,0-.68,2.13l-.33,4.17s.3,1.49,1,.81.78-3.74.78-3.74c.09-1.88,2.31-2.41,2.31-2.41a2.9,2.9,0,0,1,2,.51l2.24,1.68,0,0c1.46,1.09,2.93,2.17,4.46,3.15a24.92,24.92,0,0,0,5,2.27l2.35.85c1.18.42,2.55.59,3.17,1.84a10.77,10.77,0,0,1,.69,3.18,28.81,28.81,0,0,1,.27,2.92l.18,7.58.47.36c.34,0,.5-.79.5-.79a21.15,21.15,0,0,0,.48-4.26c0-1,.13-2,.23-3,.19-1.92-.35-5.76,2.33-6.18.89-.14,1.45.48,1.78,1.25l1.18,4.89a7,7,0,0,0,1,2.62,10.43,10.43,0,0,1,1.12,3.32c.34,2.56.76,5.18,1.34,7.7a2.75,2.75,0,0,0,1.43-.15l.94-7.08s.63-1.93,3.32.22l5.92,4.56c1.71,1.33,3.2,2.93,4.9,4.28s3.82,2.93,6,3.43a5.17,5.17,0,0,0,1.71.08,2.9,2.9,0,0,0,2.52-1.52,19,19,0,0,0,2.17-3.92c.65-1.74.44-3.47.42-5.26,0-1.41,0-2.82.06-4.22a30.89,30.89,0,0,1,1.82-10,9.42,9.42,0,0,1,2.86-4.06s-29.39-25.82-29.4-25.84" fill="#1d1d1b"/><path d="M168.58,107.85c.9.85,2,1.5,2.94,2.3,2.22,1.9,4.33,3.93,6.57,5.83,2.84,2.4,5.6,5,8.39,7.44" fill="#1d1d1b"/><path d="M141.11,109.09c0-1.24,2-1.91,3.86-1.55a4,4,0,0,1,2.84,1.76c.42.86,0,1.47-.85,1.7a4.89,4.89,0,0,1-2.46-.07s-3.37-.69-3.39-1.84" fill="#fff"/><path d="M126.88,114.09c-.4,1.34-1.2,2.28-1.79,2.11s-.74-1.4-.35-2.74,1.2-2.29,1.79-2.12.74,1.41.35,2.75" fill="#fff"/><path d="M100.77,216.82a129.64,129.64,0,0,1,8.15-24.54c3-6.65,6-14,11-19.48l1.23-1.55a5.78,5.78,0,0,0,1.69-3s0-.05,0-.08a60.55,60.55,0,0,1,2.07-9.39,4.67,4.67,0,0,0,.3-1c-.11.35-.72.78-1,1l-1.15,1.15c-.86.87-1.71,1.76-2.54,2.67a88.53,88.53,0,0,0-7.82,9.36c-.64.92-1.26,1.87-1.83,2.84-1.46,2.49-2.79,5.06-4,7.66a237.78,237.78,0,0,0-11,28.4c-.29.89-.59,1.77-.87,2.65Z" fill="#fff"/><path d="M161.93,90.09s1.89-10.19,1.65-11.37c0,0,6.92-1.69,7.63,4,0,0-5.64,7.22-6.12,8.24Z" fill="#fff"/><path d="M155.69,110.36c3.54-3.94,12-4.12,17.07-4.68A144.48,144.48,0,0,1,195,105c4.93.22,18.34,2.76,10.85,9.1-2.66,2.26-5.67,4-9.41,3.58-2.14-.25-4.29-.42-6.42-.63l-16.42-1.6-12.83-1.24-2.5-.25c-1.55-.15-3.64-1.74-2.81-3.27a2.26,2.26,0,0,1,.26-.37" fill="#fff"/><path d="M155.69,110.36c3.54-3.94,12-4.12,17.07-4.68A144.48,144.48,0,0,1,195,105c4.93.22,18.34,2.76,10.85,9.1-2.66,2.26-5.67,4-9.41,3.58-2.14-.25-4.29-.42-6.42-.63l-16.42-1.6-12.83-1.24-2.5-.25c-1.55-.15-3.64-1.74-2.81-3.27A2.26,2.26,0,0,1,155.69,110.36Z" fill="none" stroke="#1d1d1b" stroke-miterlimit="2" stroke-width="2.08"/><path d="M187.94,140.57s1.67,7.53-8.37,10" fill="none" stroke="#fff" stroke-linecap="round" stroke-linejoin="round" stroke-width="2.51"/><path d="M183.14,136.59s1.67,7.53-8.37,10" fill="none" stroke="#fff" stroke-linecap="round" stroke-linejoin="round" stroke-width="2.51"/><path d="M206.93,122.89c-.56,3.89-12,5.47-25.46,3.53s-24-6.67-23.44-10.56,12-5.46,25.46-3.52,24,6.67,23.44,10.55" fill="#fff"/><path d="M206.93,122.89c-.56,3.89-12,5.47-25.46,3.53s-24-6.67-23.44-10.56,12-5.46,25.46-3.52S207.49,119,206.93,122.89Z" fill="none" stroke="#1d1d1b" stroke-miterlimit="2" stroke-width="2.01"/><path d="M177.9,132.2s1.67,7.53-8.37,10" fill="none" stroke="#fff" stroke-linecap="round" stroke-linejoin="round" stroke-width="2.51"/><path d="M189.19,137.61c-.83,2.35-9.43,1.43-19.19-2.05s-17-8.22-16.18-10.56,9.44-1.43,19.2,2,17,8.21,16.17,10.56" fill="#fff"/><path d="M189.19,137.61c-.83,2.35-9.43,1.43-19.19-2.05s-17-8.22-16.18-10.56,9.44-1.43,19.2,2S190,135.26,189.19,137.61Z" fill="none" stroke="#1d1d1b" stroke-miterlimit="2" stroke-width="0.87"/><path d="M159.42,118.67a2.78,2.78,0,0,1,.49-.2c2.54-.74,5.67.07,8.23.38a91.48,91.48,0,0,1,24.26,6.07,80.73,80.73,0,0,1,10,5.09c3.46,2,11.77,7.18,7.76,12.38-1.86,2.42-7.74,1.86-10.44,1.93-9.6.23-17-6-24.88-10.69-4.4-2.61-9.18-4.8-13.43-7.64-1.88-1.26-5.32-5.69-2-7.32" fill="#fff"/><path d="M159.42,118.67a2.78,2.78,0,0,1,.49-.2c2.54-.74,5.67.07,8.23.38a91.48,91.48,0,0,1,24.26,6.07,80.73,80.73,0,0,1,10,5.09c3.46,2,11.77,7.18,7.76,12.38-1.86,2.42-7.74,1.86-10.44,1.93-9.6.23-17-6-24.88-10.69-4.4-2.61-9.18-4.8-13.43-7.64C159.51,124.73,156.07,120.3,159.42,118.67Z" fill="none" stroke="#1d1d1b" stroke-miterlimit="2" stroke-width="2.01"/><path d="M170.31,110.51c-2.3,0-4.61.11-6.89.35a26.34,26.34,0,0,0-4.47,1c-.31.09-2.83,1-3,.74l1,1.25,3.14.36,9.73-2.83Z" fill="#1d1d1b"/><path d="M192.34,132.28s5.67,1.07,7,2.68c0,0,1.78,2.86-1.23,2.64,0,0-5.24-.56-7.57-2.24a1,1,0,0,1,.12-1.12l1-1.53a.61.61,0,0,1,.74-.43" fill="#1d1d1b"/><path d="M180.78,131s5.61,4.3,7.38,2.69c0,0,1.56-1.25,1.45-1.88a2.41,2.41,0,0,0-1-1.3s-5.61-2.35-6.36-1.8c0,0-2.08.54-1.45,2.29" fill="#1d1d1b"/><path d="M173.37,126.32l3.26,2.15a.88.88,0,0,0,1.21-.31,1.27,1.27,0,0,0-.7-2.12l-3.34-.82a.43.43,0,0,0-.51.08l-.16.39s.08.63.24.63" fill="#1d1d1b"/><polygon points="50.21 192.67 38.43 199.13 40.32 202.58 37.92 203.9 32.86 194.66 35.26 193.34 37.15 196.79 48.93 190.33 50.21 192.67" fill="#1d1d1b"/><polygon points="45.43 183.42 30.32 189.17 29.37 186.68 35.31 184.41 33.44 179.5 27.49 181.76 26.54 179.27 41.65 173.51 42.6 176 35.99 178.52 37.87 183.44 44.48 180.92 45.43 183.42" fill="#1d1d1b"/><polygon points="40.28 168.85 24.5 172.4 22.35 162.8 25.02 162.2 26.59 169.2 30.09 168.41 28.62 161.91 31.28 161.31 32.74 167.81 37.03 166.85 35.4 159.62 38.07 159.01 40.28 168.85" fill="#1d1d1b"/><path d="M20.57,147.77l-.08-5.31a8.45,8.45,0,0,1,.34-3.07,3.42,3.42,0,0,1,1.38-1.51,4.36,4.36,0,0,1,2.27-.65,4.3,4.3,0,0,1,2.12.49A3.43,3.43,0,0,1,28,139.05a3.63,3.63,0,0,1,1.41-1.87,4.36,4.36,0,0,1,2.46-.71,5.09,5.09,0,0,1,3,.8,3.48,3.48,0,0,1,1.54,2,20.61,20.61,0,0,1,.26,3.73l.07,4.51Zm2.65-2.72L27,145l0-1.76a15.28,15.28,0,0,0-.09-2,1.68,1.68,0,0,0-.59-1.06,2,2,0,0,0-1.28-.36,2,2,0,0,0-1.16.33,1.45,1.45,0,0,0-.55.77,17.05,17.05,0,0,0-.06,2.57Zm6.43-.1,4.32-.07,0-2.49a7.65,7.65,0,0,0-.21-2.09,1.52,1.52,0,0,0-.68-.77,2.32,2.32,0,0,0-1.28-.3,2.35,2.35,0,0,0-1.3.36,1.83,1.83,0,0,0-.69.91,8.58,8.58,0,0,0-.15,2.28Z" fill="#1d1d1b"/><path d="M36.88,132l-16-2.15.75-5.59a7.78,7.78,0,0,1,.84-3,3.47,3.47,0,0,1,1.7-1.31,5.14,5.14,0,0,1,2.63-.24,4.75,4.75,0,0,1,2.91,1.3,4.11,4.11,0,0,1,1.1,2.76,6.67,6.67,0,0,1,1.53-1.23,19.23,19.23,0,0,1,2.81-1.17l3.34-1.17L38,123.35,34.3,124.8a23.45,23.45,0,0,0-2.56,1.09,2.17,2.17,0,0,0-.76.7,3.82,3.82,0,0,0-.36,1.31l-.07.55,6.69.9ZM28,128.1l.26-2a9.78,9.78,0,0,0,.16-2.32,1.43,1.43,0,0,0-.54-.88,2.4,2.4,0,0,0-1.24-.49,2.27,2.27,0,0,0-1.26.15,1.56,1.56,0,0,0-.76.74,11,11,0,0,0-.41,2.14l-.28,2.08Z" fill="#1d1d1b"/><rect x="30.51" y="105.59" width="2.67" height="16.17" transform="translate(-86.14 117.49) rotate(-76.2)" fill="#1d1d1b"/><polygon points="42.2 107.01 29.53 102.53 28.22 106.25 25.64 105.33 29.15 95.4 31.73 96.31 30.42 100.01 43.09 104.49 42.2 107.01" fill="#1d1d1b"/><rect x="37.93" y="84.62" width="2.67" height="16.17" transform="translate(-61.35 88.9) rotate(-64.88)" fill="#1d1d1b"/><path d="M44.28,88.67l1.08-2.4c1.92.81,3.31.52,4.15-.88a2.78,2.78,0,0,0,.44-2A2.07,2.07,0,0,0,49,82a1.81,1.81,0,0,0-.93-.28,1.76,1.76,0,0,0-.93.32,19.6,19.6,0,0,0-2,1.63,7.9,7.9,0,0,1-2.25,1.56,4.23,4.23,0,0,1-2,.27,5.06,5.06,0,0,1-3.79-2.43,4,4,0,0,1-.52-2.25,5.86,5.86,0,0,1,.89-2.52,4.61,4.61,0,0,1,6.79-1.8L43,78.89a2.93,2.93,0,0,0-2-.28,2.41,2.41,0,0,0-1.3,1.16,2.67,2.67,0,0,0-.47,1.66,1.38,1.38,0,0,0,.66,1.08,1.43,1.43,0,0,0,1.23.12A7.49,7.49,0,0,0,43.26,81a10,10,0,0,1,2.56-1.86A4.2,4.2,0,0,1,48,78.86a5.7,5.7,0,0,1,2.37.87,5.08,5.08,0,0,1,2.37,2.93,5.2,5.2,0,0,1-.86,4.21q-2.51,4.18-7.55,1.8" fill="#1d1d1b"/><polygon points="56.88 78.53 44.33 68.33 46.01 66.26 50.95 70.28 54.27 66.2 49.33 62.18 51.01 60.11 63.56 70.31 61.88 72.38 56.39 67.92 53.07 72 58.56 76.47 56.88 78.53" fill="#1d1d1b"/><path d="M62,49.2l4.15-3.32a8.34,8.34,0,0,1,2.63-1.6,3.39,3.39,0,0,1,2,.16,4.31,4.31,0,0,1,1.9,1.4,4.18,4.18,0,0,1,.91,2,3.49,3.49,0,0,1-.18,1.94,3.58,3.58,0,0,1,2.33,0,4.43,4.43,0,0,1,2.07,1.52A5.05,5.05,0,0,1,79,54.09a3.55,3.55,0,0,1-.62,2.43A21.52,21.52,0,0,1,75.62,59L72.1,61.83Zm3.77.43,2.33,2.93,1.38-1.11A17.21,17.21,0,0,0,71,50.18a1.63,1.63,0,0,0,.47-1.12A1.89,1.89,0,0,0,71,47.83a2,2,0,0,0-1-.72,1.39,1.39,0,0,0-1,0A17.38,17.38,0,0,0,67,48.67Zm4,5L72.47,58l1.94-1.55A7.93,7.93,0,0,0,76,55a1.59,1.59,0,0,0,.18-1,2.25,2.25,0,0,0-.55-1.19,2.21,2.21,0,0,0-1.07-.8,1.65,1.65,0,0,0-1.14,0,8.36,8.36,0,0,0-1.9,1.27Z" fill="#1d1d1b"/><polygon points="84.44 52.43 76.23 38.5 84.7 33.5 86.09 35.86 79.92 39.5 81.74 42.59 87.47 39.2 88.86 41.55 83.12 44.94 85.35 48.72 91.74 44.95 93.13 47.3 84.44 52.43" fill="#1d1d1b"/><polygon points="97 45.4 90.75 30.48 99.83 26.68 100.89 29.2 94.28 31.97 95.66 35.28 101.8 32.71 102.86 35.22 96.71 37.79 98.41 41.84 105.24 38.98 106.3 41.51 97 45.4" fill="#1d1d1b"/><polygon points="110.48 40.09 106.42 24.44 109.01 23.77 110.81 30.74 114.25 22.41 117.75 21.51 114.49 28.86 122.06 37.09 118.7 37.96 113.26 31.52 111.84 34.69 113.06 39.42 110.48 40.09" fill="#1d1d1b"/><polygon points="125.48 36.6 123.68 20.53 133.46 19.43 133.76 22.16 126.64 22.95 127.04 26.51 133.66 25.77 133.96 28.48 127.34 29.22 127.83 33.58 135.2 32.76 135.5 35.48 125.48 36.6" fill="#1d1d1b"/><polygon points="139.87 35.32 140.25 19.15 150.09 19.39 150.02 22.12 142.85 21.95 142.77 25.53 149.43 25.69 149.37 28.42 142.7 28.26 142.6 32.65 150.01 32.82 149.94 35.56 139.87 35.32" fill="#1d1d1b"/><path d="M154.33,36l2.58-16,4.25.69a13.37,13.37,0,0,1,3.06.73,3.52,3.52,0,0,1,1.67,1.89,5.76,5.76,0,0,1,.25,3.23A6.09,6.09,0,0,1,165,29.37a3.89,3.89,0,0,1-1.9,1.37,8.36,8.36,0,0,1-3.45-.07l-1.73-.28-1,6Zm4.78-12.84-.74,4.54,1.47.24a6.78,6.78,0,0,0,2,.12,1.8,1.8,0,0,0,1-.61,2.82,2.82,0,0,0,.42-2.67,1.7,1.7,0,0,0-.74-.87,8,8,0,0,0-2.14-.54Z" fill="#1d1d1b"/><polygon points="168.51 38.61 173.25 23.15 182.65 26.04 181.85 28.65 175 26.55 173.95 29.98 180.32 31.93 179.52 34.54 173.15 32.58 171.86 36.78 178.95 38.95 178.14 41.57 168.51 38.61" fill="#1d1d1b"/><path d="M182.18,43.12l6.88-14.63,5.11,2.4a7.81,7.81,0,0,1,2.6,1.71,3.36,3.36,0,0,1,.73,2A5.2,5.2,0,0,1,197,37.2a4.79,4.79,0,0,1-2.13,2.38,4,4,0,0,1-3,.21,6.88,6.88,0,0,1,.72,1.83,20.09,20.09,0,0,1,.26,3L193,48.2l-2.88-1.36-.26-4a23.1,23.1,0,0,0-.27-2.77,2.06,2.06,0,0,0-.43-.93,3.72,3.72,0,0,0-1.15-.74l-.49-.24-2.88,6.11Zm6.39-7.3,1.79.84a10.21,10.21,0,0,0,2.17.85,1.49,1.49,0,0,0,1-.25,2.4,2.4,0,0,0,.83-1,2.27,2.27,0,0,0,.25-1.26,1.61,1.61,0,0,0-.48-.94,10.93,10.93,0,0,0-1.92-1l-1.9-.9Z" fill="#1d1d1b"/><path d="M198.36,45.28l2.35,1.18c-.89,1.89-.66,3.28.71,4.18a2.73,2.73,0,0,0,1.94.52,2,2,0,0,0,1.44-.93,1.71,1.71,0,0,0,.32-.92,2,2,0,0,0-.27-.94,19.16,19.16,0,0,0-1.55-2A8.17,8.17,0,0,1,201.82,44a4.12,4.12,0,0,1-.17-2,4.94,4.94,0,0,1,.77-2,4.85,4.85,0,0,1,1.81-1.66,3.9,3.9,0,0,1,2.26-.42,5.59,5.59,0,0,1,2.48,1A5,5,0,0,1,211.33,42a5.1,5.1,0,0,1-.83,3.8l-2.32-1.36a2.91,2.91,0,0,0,.37-1.93,2.42,2.42,0,0,0-1.11-1.35,2.65,2.65,0,0,0-1.64-.54,1.34,1.34,0,0,0-1.11.61,1.42,1.42,0,0,0-.17,1.22A7.75,7.75,0,0,0,206,44.58a10.21,10.21,0,0,1,1.77,2.63,4.25,4.25,0,0,1,.23,2.15,5.93,5.93,0,0,1-1,2.33,5.06,5.06,0,0,1-3,2.24,5.17,5.17,0,0,1-4.17-1q-4.08-2.68-1.48-7.62" fill="#1d1d1b"/><path d="M221.36,70.92l-2.06-2,1.77-3.42-3.76-3.75L214,63.53l-2-2L227,53.72l2,2Zm1-8,3-5.54-5.52,3Z" fill="#1d1d1b"/><path d="M227.38,70l1.81,1.91c-1.47,1.47-1.72,2.86-.73,4.17a2.74,2.74,0,0,0,1.65,1.14,2,2,0,0,0,1.67-.39,1.68,1.68,0,0,0,.61-.76,1.82,1.82,0,0,0,.06-1,22.36,22.36,0,0,0-.78-2.42,8,8,0,0,1-.61-2.67,4.16,4.16,0,0,1,.51-2A4.85,4.85,0,0,1,233,66.34a4.76,4.76,0,0,1,2.27-1,3.91,3.91,0,0,1,2.27.36,5.66,5.66,0,0,1,2,1.77,5,5,0,0,1,1.18,3.68,5.07,5.07,0,0,1-2.06,3.29l-1.73-2a3,3,0,0,0,1-1.71,2.46,2.46,0,0,0-.59-1.64A2.63,2.63,0,0,0,236,68a1.36,1.36,0,0,0-1.24.21,1.41,1.41,0,0,0-.57,1.09,7.42,7.42,0,0,0,.68,2.54,10.33,10.33,0,0,1,.77,3.07,4.18,4.18,0,0,1-.51,2.1,6,6,0,0,1-1.69,1.87A5.06,5.06,0,0,1,229.79,80a5.22,5.22,0,0,1-3.59-2.38q-2.92-3.89,1.18-7.67" fill="#1d1d1b"/><path d="M236.28,82.25l1.54,2.14q-2.49,1.89-1.3,4A2.72,2.72,0,0,0,238,89.78a2.05,2.05,0,0,0,1.71-.16,1.74,1.74,0,0,0,.7-.67,1.78,1.78,0,0,0,.2-1,22.13,22.13,0,0,0-.45-2.51,8,8,0,0,1-.23-2.73,4.21,4.21,0,0,1,.77-1.88,4.93,4.93,0,0,1,1.63-1.44,4.8,4.8,0,0,1,2.37-.64,4,4,0,0,1,2.2.68,5.7,5.7,0,0,1,1.75,2,5,5,0,0,1,.67,3.8,5.11,5.11,0,0,1-2.49,3L245.39,86a2.92,2.92,0,0,0,1.22-1.56,2.39,2.39,0,0,0-.36-1.7,2.72,2.72,0,0,0-1.2-1.24,1.39,1.39,0,0,0-1.27,0,1.42,1.42,0,0,0-.71,1,7.6,7.6,0,0,0,.32,2.61,10,10,0,0,1,.35,3.15,4.28,4.28,0,0,1-.79,2A5.75,5.75,0,0,1,241,92a5.11,5.11,0,0,1-3.73.59,5.23,5.23,0,0,1-3.22-2.85q-2.37-4.26,2.21-7.44" fill="#1d1d1b"/><path d="M246.06,94.82a11.71,11.71,0,0,1,4.76-.88,6.48,6.48,0,0,1,3.39,1.11,5.86,5.86,0,0,1,2,2.8,5.75,5.75,0,0,1-.39,5.11,9.5,9.5,0,0,1-5.16,3.86,9.67,9.67,0,0,1-6.61.47,6.13,6.13,0,0,1-3.22-8.48,9.55,9.55,0,0,1,5.19-4m1.08,2.54a6.89,6.89,0,0,0-3.54,2.48,3.17,3.17,0,0,0,1.84,4.91,7.12,7.12,0,0,0,4.34-.53,7,7,0,0,0,3.54-2.42,3.28,3.28,0,0,0-1.89-5,7,7,0,0,0-4.29.52" fill="#1d1d1b"/><path d="M251.81,120.84l-.45,2.75a7.3,7.3,0,0,1-4.29-1.16,5,5,0,0,1-1.95-3.14,5.13,5.13,0,0,1,1.09-4.52,9.64,9.64,0,0,1,5.7-3.1,10.08,10.08,0,0,1,6.72.49,5.27,5.27,0,0,1,2.89,3.84,5,5,0,0,1-.72,4,6.6,6.6,0,0,1-2.81,2.2l-1.31-2.43a3.6,3.6,0,0,0,1.76-1.41,2.51,2.51,0,0,0,.32-1.89,2.82,2.82,0,0,0-1.75-2.08,7.3,7.3,0,0,0-4.32,0,7.9,7.9,0,0,0-4.07,1.78,2.75,2.75,0,0,0-.77,2.57,2.38,2.38,0,0,0,1.18,1.62,5.14,5.14,0,0,0,2.78.55" fill="#1d1d1b"/><rect x="247.04" y="128.02" width="16.17" height="2.67" transform="translate(-11.72 26.32) rotate(-5.77)" fill="#1d1d1b"/><path d="M247.51,148.11l0-2.9,3.69-1.1.08-5.31-3.64-1.16,0-2.84,16.08,5.42-.05,2.84Zm6.48-4.82,6-1.73-6-1.89Z" fill="#1d1d1b"/><polygon points="246.92 153.18 260.24 154.89 260.74 150.99 263.46 151.34 262.11 161.78 259.4 161.43 259.9 157.54 246.57 155.82 246.92 153.18" fill="#1d1d1b"/><rect x="251.48" y="158.38" width="2.67" height="16.17" transform="translate(33.87 375.48) rotate(-77.03)" fill="#1d1d1b"/><path d="M251.29,172.64a11.26,11.26,0,0,1,4.2,2.38,6.41,6.41,0,0,1,1.88,3,5.88,5.88,0,0,1-.25,3.46,5.74,5.74,0,0,1-3.59,3.65,9.51,9.51,0,0,1-6.43-.37,9.69,9.69,0,0,1-5.35-3.91,6.1,6.1,0,0,1,3-8.55,9.46,9.46,0,0,1,6.54.3m-.81,2.63a6.87,6.87,0,0,0-4.31-.39,3.21,3.21,0,0,0-2.19,2,3.15,3.15,0,0,0,.44,2.94,9.22,9.22,0,0,0,7.92,2.82,3.28,3.28,0,0,0,1.75-5,6.92,6.92,0,0,0-3.61-2.37" fill="#1d1d1b"/><polygon points="237.7 185.92 251.95 193.56 250.72 195.85 238.64 195.54 248.16 200.63 246.98 202.83 232.72 195.2 234 192.83 245.81 193.1 236.52 188.12 237.7 185.92" fill="#1d1d1b"/><path d="M52.9,213.59a3.48,3.48,0,0,1-2.34.79,2.32,2.32,0,0,1-2.29-2.95,3.47,3.47,0,0,1,1.35-2.07,3.39,3.39,0,0,1,2.33-.79,2.44,2.44,0,0,1,1.87.9,2.42,2.42,0,0,1,.42,2.05,3.42,3.42,0,0,1-1.34,2.07" fill="#1d1d1b"/><polygon points="56.15 229.02 67.04 217.06 73.75 223.18 71.91 225.2 67.17 220.88 64.59 223.71 68.7 227.45 66.86 229.47 62.75 225.73 58.12 230.81 56.15 229.02" fill="#1d1d1b"/><path d="M72.69,232.87a11.6,11.6,0,0,1,3.37-3.48,6.47,6.47,0,0,1,3.41-1.07,6,6,0,0,1,3.28,1.11,5.77,5.77,0,0,1,2.64,4.39,9.54,9.54,0,0,1-2,6.14,9.66,9.66,0,0,1-5.11,4.2,5.58,5.58,0,0,1-4.88-.84,5.65,5.65,0,0,1-2.66-4.19,9.52,9.52,0,0,1,1.92-6.26M75,234.31a6.84,6.84,0,0,0-1.45,4.06,3.17,3.17,0,0,0,4.34,2.95,7.12,7.12,0,0,0,3.24-3,6.87,6.87,0,0,0,1.48-4,3.14,3.14,0,0,0-1.45-2.59,3.17,3.17,0,0,0-3-.36,7,7,0,0,0-3.2,2.91" fill="#1d1d1b"/><path d="M92.25,235.59l2.42,1.12L91,244.65a22.05,22.05,0,0,0-1,2.46A2.7,2.7,0,0,0,90,249a2.57,2.57,0,0,0,1.35,1.28,2.54,2.54,0,0,0,1.55.26,2,2,0,0,0,1.21-.7A14.74,14.74,0,0,0,95.65,247l3.77-8.12,2.42,1.13-3.58,7.7a22,22,0,0,1-2.3,4.12,4,4,0,0,1-2.41,1.47,5.28,5.28,0,0,1-3.29-.54,6,6,0,0,1-2.62-2,4.23,4.23,0,0,1-.65-2.62,16.14,16.14,0,0,1,1.62-4.73Z" fill="#1d1d1b"/><polygon points="102.63 257.57 107.14 242.04 109.65 242.77 111.84 254.66 114.86 244.29 117.25 244.98 112.73 260.51 110.15 259.76 107.97 248.14 105.02 258.27 102.63 257.57" fill="#1d1d1b"/><path d="M122.8,246.16l4.84.63a7.42,7.42,0,0,1,2.72.77,4.69,4.69,0,0,1,1.54,1.61,7.16,7.16,0,0,1,.9,2.69,14.47,14.47,0,0,1-.06,3.92,12.63,12.63,0,0,1-.94,3.55,7.22,7.22,0,0,1-1.51,2.28,4.7,4.7,0,0,1-1.92,1.13,6.65,6.65,0,0,1-2.69.11l-5-.66Zm2.29,3.05-1.39,10.61,2,.26a5.12,5.12,0,0,0,1.89,0,2.25,2.25,0,0,0,1-.61,4,4,0,0,0,.81-1.45,13.12,13.12,0,0,0,.6-2.73,12.87,12.87,0,0,0,.13-2.85,3.88,3.88,0,0,0-.55-1.71,2.44,2.44,0,0,0-1.17-.94,10.75,10.75,0,0,0-2.13-.43Z" fill="#1d1d1b"/><polygon points="139.22 264 138.95 247.83 148.79 247.67 148.84 250.41 141.67 250.53 141.72 254.1 148.39 254 148.43 256.72 141.77 256.83 141.84 261.22 149.25 261.1 149.3 263.83 139.22 264" fill="#1d1d1b"/><path d="M154.08,247.24l4.82-.78a7.23,7.23,0,0,1,2.82,0,4.67,4.67,0,0,1,1.94,1.1,7,7,0,0,1,1.63,2.32,14.1,14.1,0,0,1,1.07,3.77,12.56,12.56,0,0,1,.12,3.68,7.45,7.45,0,0,1-.79,2.61,4.73,4.73,0,0,1-1.52,1.62,6.57,6.57,0,0,1-2.54.88l-5,.8Zm3.07,2.27,1.71,10.56,2-.31a5.21,5.21,0,0,0,1.8-.54,2.24,2.24,0,0,0,.82-.88,4.23,4.23,0,0,0,.36-1.62,13.83,13.83,0,0,0-.21-2.8,12.15,12.15,0,0,0-.7-2.75,3.7,3.7,0,0,0-1-1.49,2.56,2.56,0,0,0-1.38-.57,11.15,11.15,0,0,0-2.17.21Z" fill="#1d1d1b"/><path d="M188.9,254.75l-2.36.93-4.25-10.89a8.76,8.76,0,0,1-2.21,3.39l-1-2.62a7,7,0,0,0,1.48-2.23,5.84,5.84,0,0,0,.54-2.94l1.91-.75Z" fill="#1d1d1b"/><path d="M194.56,242.52a3.32,3.32,0,0,1-1.86-.49,4.13,4.13,0,0,1-1.38-1.55,4.23,4.23,0,0,1-.49-3.18,3.83,3.83,0,0,1,2-2.38,3.64,3.64,0,0,1,3.17-.34,4.38,4.38,0,0,1,2.29,2.09,4.15,4.15,0,0,1,.54,2,3.27,3.27,0,0,1-.56,1.79,3.82,3.82,0,0,1,2.24.56,4.94,4.94,0,0,1,1.66,1.89,6,6,0,0,1,.77,2.59,4.1,4.1,0,0,1-.52,2.27,4.38,4.38,0,0,1-5.07,1.93,5,5,0,0,1-2.81-2.55,5.21,5.21,0,0,1-.69-2.48,3.9,3.9,0,0,1,.68-2.18m-1-3a2.1,2.1,0,0,0,1.09,1.06,1.47,1.47,0,0,0,1.23-.09,1.5,1.5,0,0,0,.77-1,2.07,2.07,0,0,0-.29-1.49,2,2,0,0,0-1.07-1,1.38,1.38,0,0,0-1.22.09,1.44,1.44,0,0,0-.78,1,2,2,0,0,0,.27,1.45m3.08,6.2a3.28,3.28,0,0,0,1.44,1.5,1.64,1.64,0,0,0,1.51,0,1.6,1.6,0,0,0,.82-1.21,3.25,3.25,0,0,0-.5-2,2.78,2.78,0,0,0-1.34-1.35,1.61,1.61,0,0,0-1.48,0,1.65,1.65,0,0,0-.83,1.22,2.84,2.84,0,0,0,.38,1.84" fill="#1d1d1b"/><path d="M202.25,233.1l-1.67-2.34,7.08-5,1.31,1.83a16.35,16.35,0,0,0,.36,4.25,25,25,0,0,0,1.56,5.14,23.61,23.61,0,0,0,2.37,4.37l-2,1.42a25.67,25.67,0,0,1-3.05-6.27,24.55,24.55,0,0,1-1.26-6.7Z" fill="#1d1d1b"/><path d="M225.61,231.3l-2.2-2.4-4,3.66-1.83-2-2.68-11.45,1.58-1.44,6.92,7.56,1.21-1.11,1.84,2-1.22,1.11,2.2,2.4Zm-4-4.41-3.72-4.07,1.47,6.12Z" fill="#1d1d1b"/><path d="M235.2,208.62a3.48,3.48,0,0,1,1.36,2.06,2.35,2.35,0,0,1-2.27,3,3.76,3.76,0,0,1-3.7-2.83,2.46,2.46,0,0,1,.39-2,2.49,2.49,0,0,1,1.88-.93,3.47,3.47,0,0,1,2.34.78" fill="#1d1d1b"/><path d="M213.8,248.84a6.23,6.23,0,0,1,12.46,0,6.23,6.23,0,0,1-12.46,0m11.68,0a5.48,5.48,0,1,0-1.61,3.85,5.24,5.24,0,0,0,1.61-3.85m-8-3.2h2.71a2.59,2.59,0,0,1,1.63.46,1.53,1.53,0,0,1,.59,1.28c0,1-.59,1.61-1.79,1.82a3.38,3.38,0,0,1,1,.86,13.41,13.41,0,0,1,1,2.13h-1a9.46,9.46,0,0,0-1.38-2.4,2.32,2.32,0,0,0-1.63-.48h-.39v2.88h-.8Zm.8,3h1.08a3.67,3.67,0,0,0,1.62-.27,1,1,0,0,0,.47-.95.93.93,0,0,0-.43-.9,3.27,3.27,0,0,0-1.53-.25h-1.21Z" fill="#1d1d1b"/><rect x="20.48" y="19.15" width="243.33" height="244.85" fill="none"/></svg>
