<svg xmlns="http://www.w3.org/2000/svg" baseProfile="tiny-ps" width="604" height="604" xmlns:v="https://vecta.io/nano"></style><path d="M.15 151.25l.5 147.5c.2-1.56 1.54-3.63 3.1-4.78 1.53-1.13 4.31-2.04 6.25-2.05 1.98 0 4.59.85 6 1.97l2.5 1.97c3.42-4.3 5.31-5.18 8.5-5.57 3.08-.37 5.53-.03 7.75 1.08 1.79.9 3.7 2.75 4.25 4.13.55 1.37 1 6.77 1 12v9.5l-32.75.55L1 318c-.53-5.04-.75 59.31-.84 139.75L0 604h295c-.76-3.49-1.32-12.49-1.74-22.25l-.76-17.76 25.5.01v6l-17.5.5-.5 8.5h17v7h-17l.5 10.5 18.5.5c0 4.65-.56 6.19-1.25 6.42s63.21.46 142 .5L603 604l-1.75-297.44-19.25 5.99-18.25 5.44c-.41 0-.75-1.57-.75-3.49 0-3.33.21-3.55 4.5-4.5l4.5-1 .02-13.5c-8.76-2.43-9.02-2.7-9.02-6 0-1.93.11-3.5.25-3.5.14-.01 9.02 2.92 19.75 6.5l19.75 6.5c.14 0 .25-67.05.25-149V1l-290.25.7L321 2v6h-18v9h17v7h-17c-.12 4.26-.34 6.29-.58 7.25-.28 1.16.42 2.09 2.08 2.75 1.37.55 5.65 1 9.5 1h7c-.39 4.69-.84 6.04-1.25 6.03-.41-.02-5.93-.03-12.25-.03H296l1-40H0l.15 150.25z" class="D"/><path d="M297.1 7.11l-.66 20.14L296 41l23.75.03c.41.01.86-1.34 1-3L321 35c-10.85 0-15.13-.45-16.5-1-1.66-.66-2.36-1.59-2.08-2.75.24-.96.46-2.99.5-4.5L303 24h17v-7h-17V8h18c0-5.99-.03-6-5.75-5.99-3.16 0-8.49-.29-11.84-.65l-6.09-.64-.22 6.39zm-31.02-3.72c-5.18.61-9.59 1.56-9.79 2.11-.21.55.57 9.32 1.71 19.5l2.3 18.76c.11.15 5.6-.31 12.2-1.02l12-1.29c-.51-4.61-.74-6.09-.83-6.25-.09-.17-4 .1-8.67.61-4.68.5-8.73.7-9 .45-.28-.26-.73-2.63-1-5.28l-.5-4.81 13.25-1.71c2.26-.32 3.25-.99 3.23-2.21 0-.96-.34-2.34-.75-3.06-.56-1.01-2.51-1.16-8.23-.63-7.29.66-7.52.61-8.24-1.69-.4-1.3-.74-3.38-.75-4.62-.01-2.12.48-2.28 8.49-2.75L280 9c0-6.5-.32-6.98-2.25-6.86-1.24.08-6.49.64-11.67 1.25zm68.9 19.53l-2.71 19.73c.12.09 1.57.31 3.2.5 2.86.34 3 .16 3.76-4.65.44-2.75 1.01-6.01 1.28-7.25.46-2.11.84-2.21 6.24-1.61 3.59.4 6.6.21 8-.5 1.24-.63 3.15-2.6 4.25-4.39 1.17-1.9 1.99-5.01 2-7.5 0-2.34-.56-5.38-1.25-6.77-.69-1.38-2.38-2.96-3.75-3.51-1.38-.55-6.01-1.59-10.29-2.32l-7.79-1.32-2.94 19.59zM236 8.11c-3.27.84-3.77 1.54-7.5 10.5-2.2 5.28-4.23 9.75-4.5 9.93-.28.18-1.4-3.28-2.5-7.69l-2-8.03c-4.65.98-6.1 1.36-6.22 1.47-.11.12 1.6 7.18 3.81 15.71l4.96 19c.83 3.09 1.25 3.44 3.59 3 1.46-.28 2.81-.95 2.99-1.5.19-.55-.25-3.25-.96-6-1.12-4.3-1.09-5.52.26-8.74.86-2.06 1.79-3.71 2.07-3.67.27.03 3.42 3.45 7 7.59 6.31 7.31 6.6 7.52 10 6.84 1.92-.38 3.72-.88 4-1.09.27-.22-3.66-4.91-8.75-10.42L233 25c6.2-13.95 7.66-17.95 7.25-17.9-.41.06-2.33.51-4.25 1.01z" class="E"/><path d="M343.48 12.89l-.89 5.36c-.52 3.31-.33 3.81 1.66 4.24 1.24.26 3.4.49 4.8.5 1.4 0 3.1-.55 3.77-1.24s1.21-2.71 1.2-4.5-.58-3.56-1.27-3.94c-.69-.39-2.98-1-5.1-1.37-3.09-.53-3.92-.34-4.17.95z" class="D"/><path d="M373 29.27l-5.5 19.1c0 .48 4.95 2.39 11 4.25 6.05 1.85 11.34 3.37 11.75 3.38.41 0 1.2-1.35 1.75-3l1-3-17.74-5.41c-.13-.05.5-2.34 1.4-5.09l1.73-5.24c.06-.13 3.48.89 7.61 2.25 4.12 1.37 7.78 2.15 8.12 1.74s.9-1.99 1.25-3.5c.36-1.59.21-2.75-.37-2.75-.55 0-4.15-.9-8-2l-7-2 3-9 16.5 5.78c1.94-5.26 2.39-6.77 2.25-6.76s-4.75-1.35-10.25-3.03L380 11.5c-1.17-.35-2.71 3.57-7 17.77zM186 24.1c-5.23 2.2-9.95 4.42-10.5 4.93-.65.6 1.04 5.7 4.9 14.7l7.75 18.02L190 66c17.98-7.76 22.01-10.05 22.02-11 .01-.83-.56-2.27-1.25-3.21-1.18-1.6-1.85-1.47-9.27 1.74-4.4 1.9-8.08 3.34-8.18 3.21s-1.09-2.27-2.2-4.74c-1.11-2.48-1.71-4.77-1.32-5.09.38-.33 3.75-1.91 7.48-3.5 3.73-1.6 6.77-3.02 6.75-3.16s-.59-1.39-1.28-2.78-1.59-2.51-2-2.5c-.41.02-3.79 1.35-7.5 2.97l-6.75 2.93c-2.73-6.49-3.4-8.42-3.26-8.47.14-.06 3.58-1.41 7.63-3 4.05-1.6 7.54-3.24 7.75-3.65s-.18-1.89-.87-3.28-1.48-2.49-1.75-2.45c-.28.04-4.78 1.88-10 4.08zm223.24 17.69c-4.55 9.74-8.26 18.05-8.25 18.46 0 .41 1.25 1.16 2.76 1.67 2.68.89 2.84.72 6.25-6.47 1.92-4.06 3.72-7.4 4-7.43.27-.03 1.33.52 2.34 1.21 1.11.76 2.19 3.27 2.69 6.27.47 2.75.88 6.91.91 9.25.05 3.7.45 4.45 3.06 5.75 1.65.82 3.34 1.5 3.75 1.51.41 0 .47-3.71.13-8.25s-.9-9.05-1.25-10.01c-.52-1.45-.04-1.75 2.87-1.75 2.76 0 4.13-.74 6.5-3.5 2.25-2.63 3-4.5 3-7.5 0-2.2-.45-4.9-1-6s-5.05-4.03-10-6.5c-4.95-2.48-9.11-4.48-9.25-4.46s-3.97 8.01-8.51 17.75z" class="E"/><path d="M418.97 36.95c-1.14 2.19-2.05 4.33-2.02 4.76s1.97 1.58 4.3 2.54c2.34.96 5.04 1.75 6 1.75s2.2-.9 2.75-2 1.01-2.89 1.03-3.98c.02-1.39-1.47-2.74-4.97-4.51l-5-2.52-2.09 3.96z" class="D"/><path d="M148.6 42.71c-5.45 3.13-9.85 5.93-9.79 6.24.07.3 4.49 7.97 9.83 17.05l9.79 16.77c.04.14 4.91-2.56 10.83-6 5.92-3.45 10.75-6.5 10.73-6.77-.02-.28-.81-1.54-1.76-2.81l-1.73-2.32L161 74c-3.84-6.59-4.97-8.84-4.98-9.25s2.9-2.33 6.48-4.25c3.57-1.93 6.49-4.06 6.47-4.75s-.68-2.15-1.47-3.25c-1.42-1.96-1.59-1.91-8.47 2.25L152 59c-3.1-5.43-3.84-7.34-3.64-7.75.19-.41 3.34-2.44 7-4.5 3.65-2.06 6.64-4.2 6.64-4.75s-.45-1.9-1-3-1.34-1.99-1.75-1.98-5.21 2.57-10.65 5.69zm306.65 5.79c-1.79.83-3.93 2.85-4.75 4.5-.83 1.65-1.5 4.57-1.5 6.5 0 2.54 1.09 4.93 4.01 8.75 2.2 2.89 4.01 6.15 4.01 7.25.01 1.1-.53 2.56-1.2 3.25s-2.14 1.27-3.27 1.28c-1.13.02-3.34-.99-4.93-2.25-2.53-2.01-2.8-2.73-2.25-6.03.56-3.33.34-3.89-1.94-5-2.14-1.04-2.72-1-3.48.25-.51.82-1.22 3.07-1.58 5-.47 2.52-.12 4.48 1.24 6.97 1.04 1.92 3.69 4.5 5.89 5.74s5.57 2.25 7.5 2.24c2.77-.01 4.28-.84 7.25-3.98 2.06-2.18 3.82-4.98 3.91-6.22.08-1.24.05-3.38-.08-4.75-.13-1.38-2.01-4.75-4.19-7.5-2.67-3.38-3.87-5.81-3.67-7.5.2-1.82.96-2.58 2.78-2.8 1.56-.18 3.4.57 4.87 2 1.74 1.68 2.22 2.97 1.79 4.8-.47 1.98-.07 2.76 1.87 3.75 1.36.69 2.92 1.02 3.47.75.55-.28 1.26-1.96 1.57-3.75s.08-4.49-.5-6c-.59-1.51-2.53-3.86-4.32-5.21s-4.6-2.7-6.25-3c-1.7-.3-4.41.11-6.25.96z" class="E"/><path d="M292.5 63.42L281 70.19l-31.5 18.05-60.5 34.73-66.79 38.37-33.29 19.16.09 244L119 441.76l33.5 19.2 20.75 11.85c5.91 3.4 10.97 6.19 11.25 6.19.27 0 1.66-3.94 3.07-8.75s4.18-13.7 6.16-19.75 5.81-16.4 8.53-23c2.71-6.6 6.88-16.05 9.26-21s7.33-13.95 11.01-20c3.67-6.05 8.08-12.8 9.8-15 1.71-2.2 7.86-9.07 13.64-15.27 5.79-6.2 10.87-11.27 11.28-11.25.41.01.58 1.03.37 2.27-.2 1.24-1.15 6.3-2.1 11.25-.94 4.95-2.12 10.12-2.62 11.5-.49 1.37-3.17 5.2-5.96 8.5s-7.61 10.05-10.71 15-9.33 17.1-13.85 27c-4.51 9.9-9.85 22.72-11.86 28.5-2.01 5.77-5.41 16.8-7.55 24.5-2.15 7.7-3.81 14.06-3.69 14.14s4.04 2.38 8.72 5.11L234.5 508l27 15.5 24.25 13.87c9.6 5.43 15.9 8.42 17 8.06.96-.31 8.5-4.43 16.75-9.16l29-16.76L368 508.3l38.5-21.99 42.5-24.5 15.59-8.93L492.35 437l21.68-12.5.03-244L483 162.49l-18.5-10.64-26-14.84-55-31.48-62.75-36.18c-9.76-5.69-18.54-10.31-19.5-10.26s-4.9 1.99-8.75 4.33z" class="F"/><path d="M117.43 64.29c-1.14.66-4.58 3.23-7.64 5.7-3.07 2.46-5.62 4.83-5.68 5.25S109.4 82.75 116 91c10.6 13.25 12.2 14.86 13.75 13.79.96-.67 4.22-3.22 7.25-5.68 3.02-2.45 6.07-5.17 6.77-6.03.69-.87 1.27-3.16 1.27-5.08.01-1.99-.98-5.01-2.28-7-1.72-2.61-3.38-3.75-6.54-4.5-3.72-.88-4.24-1.34-4.23-3.75.01-1.82-1.17-3.93-3.49-6.25-2.34-2.34-4.41-3.49-6.25-3.46-1.51.01-3.68.58-4.82 1.25z" class="E"/><path d="M116.66 73.25l-3.7 3.25L118 83c5.44-4.26 7.27-6.4 7.57-7.5.34-1.21-.16-2.7-1.26-3.78-.99-.98-2.29-1.77-2.88-1.75s-2.74 1.49-4.77 3.28zM127.23 85c-3.46 2.46-4.05 3.32-3.25 4.75.54.96 1.89 2.76 3 4L129 96c4.9-3.49 6.91-5.4 7.62-6.5 1.06-1.65 1.03-2.48-.17-4.75-.8-1.51-2.25-2.75-3.22-2.75s-3.67 1.35-6 3z" class="D"/><path d="M492.7 95.86l-18.71 9.64 5.15 5 8.36-4.54 9.29 9.54-4.59 8 5.3 4.25c2.51-3.29 6.88-11.45 11.32-20.25l8.08-16-5.48-5.28-18.72 9.64z" class="E"/><path d="M499.56 99.57c-2.71 1.36-4.86 2.8-4.77 3.2s1.29 1.85 2.68 3.23c1.39 1.37 2.69 2.27 2.91 2 .21-.28 1.48-2.86 2.81-5.75 1.34-2.89 2.19-5.23 1.87-5.2-.31.02-2.78 1.16-5.5 2.52z" class="D"/><path d="M73.46 104.76c-1.66 2.63-1.66 2.8.21 4.24l5.89 4.62c3.88 3.08 3.91 3.16 2.22 5.5l-4 5.12-2.28 2.74L63 117l-4 5 29.33 23.87c1.7 1.52 1.95 1.46 3.74-.87 1.91-2.5 1.91-2.5-.84-5l-6.74-5.67-3.99-3.17c6.2-7.17 8.34-9.23 8.75-9.21.41.03 3.67 2.3 7.25 5.05l6.5 5c3.3-4.82 3.33-5.26 2-6.39-.83-.7-7.35-5.99-14.5-11.75L76.35 102.7c-.66-.39-1.89.48-2.89 2.06zm454.04 12.05c-1.65 1-3.54 3.24-4.19 4.99-.65 1.74-1.05 4.42-.89 5.94.17 1.52.93 4.91 1.69 7.53 1.03 3.55 1.11 5.22.29 6.5-.61.95-2.18 1.86-3.5 2.03-1.47.18-3.28-.6-4.68-2-1.25-1.27-2.26-3.2-2.25-4.3s.69-3.01 1.52-4.25c1.36-2.03 1.34-2.45-.24-4.28-.96-1.12-2.2-2.01-2.75-1.97-.55.03-1.87 1.29-2.93 2.78-1.07 1.5-2.13 4.52-2.37 6.72-.36 3.36.11 4.71 2.94 8.42 1.88 2.47 4.68 4.84 6.36 5.37 1.65.51 4.35.68 6 .37s4.41-1.82 6.14-3.36 3.49-4.15 3.91-5.8c.46-1.82.24-4.77-.55-7.5-.72-2.48-1.52-6.08-1.77-8-.36-2.74-.06-3.67 1.41-4.26 1.15-.48 2.72-.19 4.11.75 1.24.83 2.52 2.52 2.85 3.76.32 1.24-.01 3.27-.75 4.53-1.2 2.03-1.1 2.52.96 4.5l2.31 2.22c3.12-3.88 4.26-6.13 4.56-7.5.29-1.38.22-3.63-.17-5-.39-1.38-2.35-4.17-4.36-6.21-2.8-2.84-4.47-3.71-7.15-3.74-1.93-.02-4.85.77-6.5 1.76z" class="E"/><path d="M320.4 120.82c-2.81.92-6.14 2.58-7.4 3.68s-3.18 4.02-4.27 6.5c-1.08 2.47-2.67 8.55-3.51 13.5-1.06 6.19-1.55 15.71-1.55 30.5 0 11.82.29 24.09.66 27.25L305 208c10.83 5.05 14.12 6.05 14.33 5.5s.15-10.68-.12-22.5c-.28-11.83-.21-22.74.14-24.25.4-1.69 1.32-2.76 2.4-2.77.96-.01 2.32.56 3.02 1.25.95.96 1.26 7.55 1.25 27.02L326 218c5.81.07 8.03-.49 8.68-1.21.65-.71 3.02-6.92 5.27-13.79l5.01-15.5c.5-1.65 1.6-6.38 2.44-10.5.84-4.13 2.22-12.45 3.07-18.5s1.54-15.16 1.54-20.25c-.01-8.54-.22-9.53-2.76-12.88-1.51-1.99-3.99-4.24-5.5-5-1.67-.83-5.79-1.34-10.5-1.3-4.37.04-9.97.8-12.85 1.75zm-43.9 15.59c-2.75.71-8.11 2.6-11.92 4.19-3.8 1.6-7.07 3.46-7.25 4.15-.19.71 1.28 1.73 3.42 2.37 2.06.62 6.9 2.69 10.75 4.6s9.92 5.43 13.5 7.84c3.57 2.4 7.06 4.38 7.75 4.4s1.72-1.42 2.29-3.21 1.31-5.73 1.64-8.75c.33-3.11.1-7.13-.54-9.25-.63-2.06-2.15-4.41-3.39-5.22s-4.28-1.68-6.75-1.94c-2.48-.26-6.75.11-9.5.82zm-89.22 4.21c-1.06 1.59-1.74 4.43-1.71 7.25.03 2.84.99 6.51 2.49 9.51 1.34 2.68 4.91 7.33 7.94 10.34 3.02 3.01 9.77 7.97 15 11.03l21 12.58 20.75 12.85c7.51 4.73 10.05 5.82 13.5 5.82 2.34 0 7.72.79 11.96 1.75 7.03 1.6 7.99 1.61 11 .19l3.29-1.55c-15.5-13.59-23.15-19.92-27-22.84s-10.83-7.63-15.5-10.47c-4.68-2.84-10.24-5.71-12.36-6.37-2.13-.67-4.26-1.77-4.75-2.46s-.67-1.93-.39-2.75c.29-.86 1.68-1.49 3.25-1.48 1.51.01 4.77.95 7.25 2.07 2.47 1.13 7.2 3.69 10.5 5.68 3.3 2 9.37 6.12 13.5 9.15 4.12 3.04 10.87 8.41 15 11.95 4.12 3.54 9.75 8.62 12.5 11.31 3.84 3.75 5.43 4.7 6.85 4.1 1.69-.71 1.79-1.62 1.14-10.78-.61-8.71-1.13-10.77-4.01-16-1.82-3.3-5.93-8.59-9.14-11.76s-7.19-6.68-8.84-7.8c-1.65-1.13-5.7-3.43-9-5.13s-8.48-3.95-11.5-4.99c-3.03-1.05-7.53-2.36-10-2.93-2.48-.56-8.33-1.68-13-2.5-5.55-.96-13.37-1.37-22.52-1.18l-14.02.29c-5.78-5.81-8.35-7.5-9.44-7.5s-2.77 1.18-3.74 2.62z" class="D"/><path d="M49.5 140.72c-1.1.26-3.06 1.45-4.35 2.63-1.28 1.18-2.97 3.39-3.75 4.9-.77 1.51-1.4 4.1-1.4 5.75 0 1.87 1.03 4.13 2.75 6.02 1.51 1.66 4.1 3.39 5.75 3.83 1.65.45 4.35.46 6 .01 1.65-.44 5.14-2.62 7.75-4.83 2.61-2.22 5.31-4.04 6-4.06s2.03.77 2.97 1.75c.95.98 1.76 2.68 1.8 3.78.03 1.1-.74 3.07-1.73 4.39-1.41 1.88-2.63 2.36-5.79 2.23-3.35-.12-4.2.26-5.25 2.37-1.1 2.21-1.01 2.63.75 3.51 1.1.55 3.91.99 6.25.98 2.5-.02 5.14-.74 6.41-1.75 1.18-.95 3.09-3.31 4.24-5.23 1.15-1.93 2.09-4.85 2.09-6.5s-.81-4.35-1.8-6c-1-1.65-3.47-3.79-5.5-4.75s-4.7-1.77-5.94-1.79-4.5 1.55-7.25 3.5l-7 5.05c-1.1.84-2.79 1.29-3.75 1-1.16-.34-1.75-1.52-1.75-3.51 0-1.67.89-3.89 2-5 1.33-1.33 2.83-1.83 4.5-1.5 2.02.4 2.79-.08 4-2.5 1.49-2.98 1.48-3.01-1.75-4.02-1.79-.56-3.48-.95-3.75-.88l-2.5.62z" class="E"/><path d="M355.65 148.08c-.25.59-.92 3.85-1.5 7.25l-2.17 13.17c-.91 5.65-.87 7.14.2 7.73.73.41 2.67.72 4.32.69 2.6-.05 3.87-1.25 9.5-8.94 3.57-4.88 6.63-9.91 6.79-11.18.16-1.26-.4-3.31-1.25-4.55s-3.12-2.93-5.04-3.75c-1.93-.83-5.05-1.5-6.95-1.5s-3.65.48-3.9 1.08z" class="D"/><path d="M549.25 150c-1.79 1.1-3.76 3.01-4.39 4.25-.7 1.38-.92 4.57-.56 8.25.31 3.3.86 6.67 1.21 7.5.35.82-.11 2.29-1.01 3.25s-2.62 1.76-3.82 1.78-2.99-.77-3.99-1.75c-.99-.98-1.8-3.13-1.8-4.78s.81-3.8 1.8-4.77c1.64-1.61 1.67-2 .31-4.28-.83-1.38-2.06-2.49-2.75-2.48-.69.02-2.32 1.49-3.63 3.28-1.32 1.79-2.71 4.37-3.1 5.75-.43 1.5-.1 4.1.82 6.5.83 2.2 2.9 5.24 4.59 6.75 2.2 1.97 4.14 2.75 6.82 2.75 2.06-.01 5.21-.91 7-2 1.79-1.1 3.95-3.01 4.8-4.25 1.26-1.83 1.43-3.95.88-11.25-.57-7.74-.44-9.1.95-9.75.89-.41 2.36-.41 3.26 0s2.23 1.87 2.94 3.25c1.08 2.08 1.06 2.96-.14 5.25-1.18 2.25-1.21 3.21-.19 5.28.69 1.39 1.59 2.51 2 2.5.41-.02 1.87-1.38 3.25-3.03 1.62-1.94 2.5-4.23 2.5-6.5 0-1.93-.68-4.85-1.5-6.5-.83-1.65-2.74-3.92-4.25-5.03-1.51-1.12-4.1-2.02-5.75-2s-4.46.94-6.25 2.03z" class="E"/><path d="M388.5 151.02c-2.75 1.12-6.35 3.08-8 4.36-1.65 1.27-5.42 4.75-8.37 7.72s-7.9 9.22-11 13.89-8.67 14.57-12.39 22-6.76 14.07-6.75 14.76c.01.89.52.97 1.76.3.96-.53 8.05-6.43 15.75-13.12s15.01-12.78 16.25-13.54c1.24-.77 2.92-1.17 3.75-.89.82.27 1.52 1.29 1.54 2.25.02 1.01-4.82 5.99-11.41 11.75l-11.29 10.15c.09.08 4.66-.28 10.16-.8 8.11-.76 11.23-1.55 16.5-4.19 3.57-1.79 9.2-5.02 12.5-7.19s9.89-7.77 14.65-12.45c6.94-6.83 8.89-9.41 9.85-13.02.66-2.48.95-6.3.64-8.5-.39-2.72-1.62-5.04-3.85-7.24-1.81-1.78-5.88-4.14-9.04-5.25-3.16-1.1-8.11-2.24-11-2.52-3.89-.38-6.54.02-10.25 1.53z" class="D"/><path d="M28.58 173.75l-1.48 2.75 35.65 16.53c.41.01 1.32-1.22 2.03-2.75.7-1.53 1.15-2.84 1-2.91-.16-.07-6.81-3.16-14.78-6.86l-17.72-8.13c-3.1-1.33-3.28-1.28-4.7 1.37zM560.5 187c-3.3 1.04-7.71 3.38-9.8 5.2-2.17 1.88-4.37 5.02-5.12 7.3-.88 2.66-1.04 5.17-.48 7.5.46 1.92 1.67 4.62 2.69 6 1.02 1.37 3.4 3.29 5.28 4.25 1.89.96 5.12 1.75 7.18 1.75s6.34-.92 9.5-2.04 7.3-3.25 9.19-4.75c1.89-1.49 4.03-4.17 4.75-5.96s1.31-4.71 1.31-6.5c.01-1.79-.82-4.83-1.82-6.75-1.15-2.2-3.47-4.34-6.25-5.76-2.44-1.24-5.78-2.23-7.43-2.19-1.65.03-5.7.91-9 1.95z" class="E"/><path d="M192 187c-2.48.43-6.53 1.59-9 2.58-2.48.98-7.43 3.53-11 5.66-3.58 2.12-10.21 7.33-14.74 11.56-6.44 6.02-8.25 8.3-8.25 10.45-.01 1.76.71 3.11 1.99 3.75 1.1.55 3.35 1 5 1s6.71-1.24 11.25-2.75c7.52-2.51 9.49-2.74 22.25-2.65 7.7.06 18.95.84 25 1.74 6.05.91 13.59 2.55 16.75 3.65 3.16 1.11 6.42 2.01 7.25 2.01.82 0 3.41-1.48 5.75-3.3 2.34-1.81 4.92-3.56 5.75-3.87 1.15-.45.58-1.55-2.5-4.78-2.2-2.31-6.93-6.12-10.5-8.48-3.58-2.36-9.43-5.87-13-7.81-3.58-1.94-9.2-4.65-12.5-6.02s-8.03-2.72-10.5-3.01c-2.48-.28-6.53-.16-9 .27z" class="D"/><path d="M17.2 201L13 213l5.75 2.02c.41.02 1.31-1.78 2-4 .69-2.21 1.81-4.02 2.5-4.02s7.77 2.26 15.75 5.01c7.97 2.76 14.55 4.9 14.61 4.75l1.25-2.51c.63-1.24 1.03-2.47.89-2.73s-6.78-2.78-14.75-5.6c-7.98-2.81-14.84-5.41-15.26-5.77s-.12-2.45.67-4.65c1.39-3.88 1.36-4.04-.99-5.25-1.33-.69-2.78-1.25-3.22-1.25s-2.69 5.4-5 12z" class="E"/><path d="M563.81 192.93c-1.49.42-4.03 1.51-5.66 2.41-1.62.91-3.68 2.66-4.56 3.9s-1.6 3.72-1.6 5.51c.01 2.36.76 3.82 2.76 5.35 2.17 1.66 3.71 2 7.25 1.61 2.47-.27 6.32-1.44 8.53-2.59 2.22-1.15 4.81-3.11 5.76-4.36.95-1.24 1.72-3.27 1.72-4.51-.01-1.24-.35-2.99-.76-3.89s-1.99-2.25-3.5-3-3.76-1.32-5-1.27c-1.24.04-3.46.42-4.94.84zm-158.31 5.75c-1.1.31-4.48 2.2-7.5 4.19l-5.5 3.63c26.02.43 33.78.31 34.04.02.25-.28.01-1.42-.54-2.52s-2.46-2.74-4.25-3.63c-1.79-.9-5.73-1.78-8.75-1.95-3.03-.17-6.4-.05-7.5.26z" class="D"/><path d="M376 211.57c-7.43.73-16.65 1.87-20.5 2.52s-11.5 2.73-17 4.62c-7.12 2.45-10.86 3.24-13 2.77-1.65-.36-5.93-2.41-9.5-4.55-3.58-2.14-7.85-4.31-9.5-4.82s-4.58-.56-6.5-.12c-1.93.44-6.2 1.52-9.5 2.4-5.72 1.53-6.34 1.51-13.5-.49-4.27-1.19-8.68-1.84-10.25-1.5-1.51.33-7.36 3.1-13 6.17-5.64 3.06-10.58 6.09-10.98 6.75-.41.65-.73 2.75-.72 4.68.02 2.85.85 4.24 4.43 7.5 2.42 2.2 6.03 5.35 8.03 7 3.26 2.7 3.69 3.64 4.31 9.36.37 3.5 1.02 6.53 1.43 6.75.41.21 1.09-1.46 1.5-3.73.41-2.26 1.09-4.29 1.5-4.5s2.51.63 4.67 1.87l3.92 2.25c-3.91 5.1-4.39 7.25-4.59 13.58-.15 4.78.15 7.92.75 7.92.55 0 1.24-.56 1.53-1.25s.85-3.45 1.25-6.14c.51-3.5 1.43-5.45 3.22-6.84 1.47-1.15 3.32-1.72 4.5-1.4 1.1.31 5.82 3.31 10.5 6.68 4.67 3.37 9.85 6.84 11.5 7.72s7.5 3.25 13 5.28c8.27 3.04 10.25 4.18 11.42 6.56.92 1.88 1.62 8 2 17.56.32 8.07.92 15.04 1.33 15.5s.99.6 1.28.33c.29-.28 1.08-7.31 1.75-15.63 1.02-12.69 1.54-15.48 3.22-17.28 1.1-1.19 2.56-2.14 3.25-2.12s1.83.59 2.53 1.28 2.11 4.62 3.14 8.75c1.02 4.12 2.75 9.3 3.84 11.5s2.82 8.95 3.85 15l1.88 11.75c.01.41.91.75 2.01.75 1.56 0 2.1-.82 2.47-3.75l1.13-8.75c.36-2.75 1.16-5.58 1.78-6.29.61-.72 1.68-1.28 2.37-1.25.69.02 5.19 3.05 10 6.74 4.81 3.68 12.57 9.99 17.25 14.02 4.67 4.03 10.75 8.45 13.5 9.82 2.75 1.36 6.69 2.48 8.75 2.47 2.79-.01 4.4-.71 6.31-2.76 1.41-1.51 3.66-5 5.01-7.75 2.2-4.49 2.45-6.26 2.44-17.25L426 309c5.95 1.93 13.28 2.44 21.5 2.46 8.15.01 15.46-.47 17.5-1.16 1.92-.64 4.74-2.55 6.25-4.24 1.51-1.68 3.02-4.52 3.36-6.31s.04-5.05-.67-7.25c-.76-2.37-3.35-6.06-6.36-9.05-2.79-2.78-8.68-7.32-13.08-10.08l-8-5.02c8.68-2.5 12.37-4.47 14.25-6.26 2.55-2.42 3.25-3.9 3.24-6.84-.02-3.2-.73-4.41-4.91-8.25l-4.9-4.5c10.95-10.06 12.07-11.69 12.5-15 .39-3.07.02-4.64-1.58-6.75-1.16-1.51-4.46-3.84-7.35-5.16-2.89-1.33-9.08-3.14-13.75-4.02-6.4-1.2-14.17-1.56-31.5-1.47-12.65.07-29.08.73-36.5 1.47z" class="E"/><path d="M389.5 215.62L371 217.5c-7.98.82-17.2 2.19-20.5 3.04s-7.69 2.65-9.75 4-3.76 3.02-3.78 3.71c-.01.69.2 1.47.48 1.75.28.27 3.56-.34 7.28-1.38 4.89-1.35 11.49-2.01 23.77-2.37 10.03-.29 21.31-.01 27.5.69 5.77.65 15 2.08 20.5 3.18 5.5 1.09 14.72 3.57 20.5 5.49 8.85 2.94 10.89 3.31 13 2.34 1.37-.63 4.25-2.57 6.39-4.3 2.13-1.73 4.27-3.94 4.75-4.9.47-.96.65-2.54.39-3.5-.25-.96-2.16-2.72-4.25-3.91-2.08-1.19-6.48-2.94-9.78-3.88-4.77-1.36-10.94-1.76-30-1.97-13.2-.14-25.8-.08-28 .13zm-89.39 4.88c-.61.82-.89 1.95-.61 2.5.27.55 2.07 1.67 4 2.5 1.92.82 5.3 1.5 7.5 1.5 2.67 0 4.17-.5 4.5-1.5.27-.83-.63-2.63-2-4-1.98-1.98-3.51-2.5-7.39-2.5-3.18 0-5.27.52-6 1.5z" class="D"/><path d="M9.56 227.43L8.5 230.5c-.36 1.07.59 1.77 3.25 2.45l19.42 4.75c15.27 3.7 15.68 3.75 16.24 1.8.31-1.1.56-2.52.55-3.17-.01-.68-7.19-2.88-17.24-5.28l-18.91-4.65c-1-.32-1.92.1-2.25 1.03z" class="E"/><path d="M260.04 229.79c-.81.94-1.48 3.46-1.5 5.61-.03 2.29.48 4.04 1.21 4.25.69.19 1.92-1 2.75-2.65.82-1.65 1.39-4.2 1.25-5.67s-.7-2.8-1.25-2.96-1.66.48-2.46 1.42z" class="D"/><path d="M571.5 229.34c-2.2.73-5.46 2.07-7.25 2.98s-4.09 2.89-5.12 4.41c-1.04 1.53-2.16 4.23-2.51 6.02-.4 2.13 0 4.72 1.19 7.5 1.31 3.06 2.84 4.74 5.5 6 2.03.96 4.81 1.75 6.19 1.75 1.37 0 2.72-.68 3-1.5.27-.83.5-2.4.5-3.5 0-1.52-.75-2.06-3.15-2.25-2.1-.17-3.85-1.18-5.25-3.05-1.93-2.57-1.98-3.01-.6-5.44.82-1.45 3.07-3.54 5-4.63 1.96-1.12 6.13-2.19 9.5-2.45 3.46-.26 6.95.02 8.25.68 1.24.63 2.7 2.26 3.25 3.64.7 1.75.65 3.18-.16 4.75-.64 1.24-1.88 2.77-2.75 3.41-1.45 1.05-1.45 1.44.02 4.5l1.61 3.34c7.73-7.55 8.2-8.53 8.24-12.75.02-2.8-.68-5.97-1.71-7.71-.96-1.64-3.1-3.73-4.75-4.67-1.65-.93-5.7-1.85-9-2.03s-7.8.27-10 1z" class="E"/><path d="M182.5 230.46c-9.35.73-20.6 1.82-25 2.43l-15 2.12c-3.85.57-9.7 1.7-13 2.53-3.3.82-8.81 2.84-12.25 4.48-4.29 2.04-7.04 4.16-8.75 6.73-1.4 2.09-2.51 5.19-2.5 7 0 1.79.62 4.49 1.38 6s3.23 4.44 5.5 6.5 6.03 4.71 8.37 5.89 6.72 3 9.75 4.04c3.02 1.04 8.65 2.56 12.5 3.38s12.62 1.76 19.5 2.1c6.87.34 17.45.25 23.5-.19l11-.81c11.62-7.79 18.82-11.99 23.5-14.37 4.67-2.37 10.88-5.09 13.78-6.05s5.27-2.08 5.25-2.49-.82-1.02-1.78-1.34c-.96-.33-4.23-1.26-7.25-2.08-3.61-.97-8.77-1.37-15-1.16-9.22.32-9.51.26-9.75-1.92-.18-1.6.48-2.54 2.25-3.25 1.37-.55 6.44-1 11.25-1.01 5.11-.01 11.04.66 14.25 1.59 3.02.89 8.54 2.92 12.25 4.51 4.11 1.78 7.37 2.62 8.33 2.16 1.18-.56 1.5-1.89 1.25-5.19-.31-4.12-.72-4.71-5.83-8.23-3.03-2.09-6.63-5.15-8-6.81-1.95-2.34-4.26-3.47-10.5-5.11-5.35-1.4-11.98-2.21-20-2.44-6.6-.19-19.65.26-29 .99zm177.5 1.62c-3.58.55-8.53 1.99-11 3.2-3.54 1.75-4.5 2.75-4.5 4.72 0 2.25.35 2.47 3.5 2.19 1.92-.17 8.9.43 15.5 1.32 6.6.9 16.72 2.54 22.5 3.63 5.77 1.1 14.32 3.07 19 4.38 4.67 1.31 11.42 3.49 15 4.85 3.57 1.36 9.2 3.68 12.5 5.16 5.73 2.58 6.29 2.64 12.5 1.5 3.57-.66 8.19-2.07 10.25-3.12 2.13-1.09 3.76-2.66 3.78-3.66.02-.96-.88-2.99-2-4.5-1.14-1.55-5.64-4.47-10.28-6.69-4.54-2.16-12.3-5.08-17.25-6.48-4.95-1.41-14.4-3.48-21-4.61-6.92-1.19-18.35-2.23-27-2.46-8.25-.23-17.93.03-21.5.57zm-12.5 15.85c-2.52.49-3.04 1.09-3.25 3.82-.2 2.66.52 4.02 4.01 7.5 2.34 2.34 8.75 6.68 14.25 9.65 5.49 2.97 15.61 8.77 22.49 12.88l22.5 13.34c5.5 3.22 13.82 7.09 18.5 8.61 7.6 2.48 9.93 2.77 22 2.74 9.83-.02 14.31-.42 16.48-1.5 1.64-.81 3.56-2.71 4.25-4.22 1-2.16 1.02-3.56.09-6.5-.66-2.11-3.18-5.66-5.75-8.11-2.51-2.4-8.4-6.66-13.07-9.45-4.68-2.8-13-7.2-18.5-9.78-5.5-2.57-14.95-6.27-21-8.2-6.05-1.94-15.28-4.44-20.5-5.56-5.23-1.12-14.9-2.73-21.5-3.59l-15-1.89c-1.65-.18-4.35-.06-6 .26z" class="D"/><path d="M10.03 249.16c-1.82.44-3.9 1.6-4.62 2.57-.72.98-1.98 6.27-2.81 11.77-.82 5.5-1.41 10.05-1.3 10.11.11.05 8.07 1.1 17.7 2.33l19.75 2.64c1.98.37 2.25.01 2.25-3.08V272c-10.46-.89-14.1-1.46-14.84-1.83-.83-.41-1.11-1.53-.75-2.92.4-1.54 2.41-3.06 6.34-4.81l9-4c2.67-1.18 3.29-2.06 3.5-4.93l.25-3.52c0-.01-2.7.9-6 2.03s-7.46 2.94-9.25 4.02-3.36 1.97-3.5 1.98c-.14.02-.59-1.33-1-3-.41-1.66-1.76-3.54-3-4.18-1.24-.65-3.64-1.47-5.33-1.83-1.7-.37-4.57-.3-6.39.15z" class="E"/><path d="M12.75 255.76c-.79.19-1.69.89-1.98 1.55-.3.65-.86 3.21-1.25 5.69l-.71 4.5 9.8 1.29c.07-.16.51-2.59 1-5.4.7-4.13.58-5.31-.62-6.1-.82-.54-2.23-1.18-3.14-1.43-.91-.26-2.3-.3-3.1-.1zm319.75 4.91c-.46.36-.76 1.49-.67 2.5.09 1 2.31 3.65 4.92 5.88s8.12 5.78 12.25 7.9c4.12 2.12 10.2 4.98 13.5 6.36 3.3 1.39 11.4 4.14 18 6.11 6.6 1.98 12.13 3.48 12.28 3.34.16-.14-3.89-2.78-9-5.85-5.1-3.08-14.62-8.48-21.16-12-6.53-3.53-14.07-8.32-16.75-10.66-3.91-3.41-5.62-4.25-8.7-4.25-2.11 0-4.21.3-4.67.67z" class="D"/><path d="M378.65 262.93c-.36.59.81 2.14 2.6 3.44 1.79 1.31 4.26 2.89 5.5 3.5 1.9.96 2.41.82 3.25-.87.71-1.42.64-2.44-.25-3.5-.69-.83-2.83-1.77-4.75-2.11-1.93-.33-3.99-.81-4.6-1.07-.6-.25-1.39.02-1.75.61z" class="E"/><path d="M259.25 263.05c5.45-.05 5.72.07 5.26 2.2-.26 1.24-.49 4.27-.49 6.75-.01 4.39-.14 4.58-5.51 7.75-3.03 1.79-6.41 4.6-7.51 6.25s-1.78 3.67-1.5 4.5c.27.82 1.29 1.52 2.25 1.54.96.03 2.42-.71 3.25-1.63.82-.92 3.3-2.93 5.5-4.45s7.37-3.9 11.5-5.3c4.12-1.39 10.42-3.05 14-3.7 5.41-.97 7-.92 9.5.3 1.72.84 3.6 2.91 4.4 4.85.85 2.07 1.12 4.56.7 6.39-.38 1.65-1.68 4.56-2.9 6.46-1.21 1.9-4.52 5.28-7.36 7.5s-12.24 12.14-20.88 22.04c-8.65 9.9-18.47 20.21-21.84 22.91s-8.37 6.35-11.12 8.12c-2.75 1.76-8.71 5.06-13.25 7.34-4.54 2.27-11.51 5.03-15.5 6.13-4.95 1.37-10.26 2-16.75 1.98-7.28-.02-11.02-.56-16-2.3-3.58-1.26-8.98-4.12-12-6.36-3.03-2.24-6.49-5.14-7.7-6.45-1.21-1.3-2.91-4.4-3.77-6.87-.86-2.48-1.56-5.51-1.55-6.75s.92-3.15 2.02-4.25c1.37-1.37 3.33-2 6.25-2 3.37.01 5.64-.92 11-4.5 3.71-2.47 10.04-7.76 14.06-11.75 4.01-3.99 9.58-10.63 12.36-14.75 2.78-4.13 8.4-10.65 12.48-14.5s9.87-8.87 12.88-11.17c3.01-2.29 9.07-6.09 13.47-8.45s10.47-5.07 13.5-6.03c3.02-.96 8.09-1.77 11.25-1.8zm17.48 1.92c.97-.02 3.01.88 4.52 2 1.51 1.11 2.75 2.48 2.75 3.03s-1.69 1.27-3.75 1.61c-2.06.33-4.31.78-5 1-.69.21-1.49-.17-1.79-.86s-.08-2.49.48-4c.58-1.55 1.79-2.77 2.79-2.78z" class="D G"/><path d="M579.5 269.17l-18.24 2.13c-.13.11.02 1.55.33 3.2l.57 3 36.09-3.44c2.46-.05 2.75-.42 2.75-3.56 0-2.71-.39-3.47-1.75-3.38-.96.07-9.85.99-19.75 2.05zM398 272.2c-.77.66-1.32 1.9-1.21 2.75.1.85 2.55 3.01 5.45 4.8 2.89 1.79 6.83 3.51 8.76 3.84 2.91.49 3.92.14 6-2.05 1.99-2.1 2.28-2.98 1.4-4.34-.6-.93-3.75-2.69-7-3.89-3.24-1.21-7.27-2.22-8.95-2.25s-3.68.48-4.45 1.14zm24.85 9.77c-1.14 1.56-2.03 3.33-1.96 3.93.06.61 1.57 1.83 3.36 2.73 1.79.89 6.29 2.24 10 3 3.71.75 7.46 1.03 8.33.62.96-.46 1.45-1.69 1.25-3.15-.18-1.32-1.46-3.25-2.83-4.29-1.38-1.04-5.55-2.74-9.28-3.78l-6.79-1.89-2.08 2.83z" class="E"/><path d="M312.35 288.25c.36 1.79 2.99 7.97 5.84 13.75 4.19 8.49 5.26 10.02 5.6 8 .22-1.38.25-5.94.06-10.14-.27-5.92-.8-8.15-2.35-9.85-1.1-1.21-3.58-2.84-5.5-3.63-1.93-.79-3.68-1.42-3.9-1.4-.23.01-.11 1.48.25 3.27z" class="D"/><path d="M563.16 289.39c-.15 3.47.02 3.66 4.35 4.86l4.51 1.25L572 309c-8.79 1.95-9 2.17-9 5.5 0 1.92.34 3.51.75 3.51.41.01 2.77-.64 5.25-1.44l19.25-6.01L603 306l.23-6.83-38.82-12.92c-.66-.28-1.16.97-1.25 3.14zm-539.7 1.62c-1.13.48-2.59 1.8-3.25 2.93L19 296c-4.28-3.17-7.05-4.07-9-4.07s-4.72.9-6.25 2.04c-2.18 1.61-2.86 3.07-3.27 7.05-.29 2.76-.29 7.71 0 11L1 318c9.69-.7 18.46-.92 25.75-.95L40 317c0-14.73-.45-20.13-1-21.5-.55-1.38-2.35-3.18-4-4-1.65-.83-4.46-1.47-6.25-1.44-1.79.04-4.17.46-5.29.95z" class="E"/><path d="M384.75 293.53c.69.26 2.15.47 3.25.47 1.94 0 1.94.08.25 2.61-.96 1.44-3.55 3.81-5.75 5.27s-6.15 3.32-8.77 4.14c-4.4 1.36-4.91 1.34-6.5-.27-1.53-1.55-1.56-1.9-.23-3.09.82-.74 3.75-2.18 6.5-3.21s6.12-2.89 7.5-4.13c1.37-1.25 3.06-2.05 3.75-1.79zm-48.2.47c.25 0 2.7 4.61 5.45 10.25 4.25 8.71 5.24 11.9 6.62 21.25.89 6.05 2.12 11.58 2.75 12.29.62.72 2.37 1.28 3.88 1.25 1.7-.02 3.32-.9 4.26-2.29.83-1.24 1.5-3.71 1.5-5.5-.01-1.79.55-3.53 1.24-3.88.76-.38 4.12 2.47 8.52 7.25 3.99 4.33 9.77 11.03 12.84 14.88s6.84 9.25 8.38 12c1.8 3.22 3.55 5.09 4.91 5.25 1.15.14 2.36-.31 2.68-1 .31-.69-.42-3.28-1.62-5.75-1.21-2.48-3.79-6.75-5.74-9.5-1.94-2.75-6.05-7.83-9.13-11.29-3.07-3.47-5.25-6.28-4.84-6.25.41.02 4.69 3.2 9.5 7.07s11.45 8.38 14.75 10.02c3.59 1.79 7.55 2.98 9.85 2.97 3.05-.02 4.58-.75 7.35-3.52 1.92-1.93 3.79-3.51 4.15-3.53.36-.01 3.17 3.48 6.26 7.75 3.09 4.28 7.45 11.6 9.7 16.28 2.25 4.67 5.1 12.1 6.33 16.5 1.75 6.22 2.26 10.71 2.31 20.2.03 8.75-.32 12.56-1.25 13.5-.72.71-4.32 1.47-8 1.68-4.83.28-8.66-.2-13.7-1.71-3.85-1.16-9.7-3.71-13-5.67s-8.53-5.46-11.63-7.78c-3.09-2.32-8.53-6.92-12.09-10.22s-10.41-10.28-15.22-15.5c-4.82-5.23-12.87-14.9-17.89-21.5-5.03-6.6-12.65-17.18-24.75-35l1.47-4c.81-2.2 1.74-8.66 2.06-14.37.33-5.7.83-10.76 1.12-11.25.29-.48.73-.88.98-.88zm-308.6 2.98c1.4-.01 3.12.56 3.82 1.25.72.72 1.26 3.64 1.23 12.27l-10 .5-.2-5.8c-.14-3.94.25-6.18 1.2-7 .77-.66 2.55-1.21 3.95-1.22zm374.11 1.01c1.07.56 2.16 1.46 2.44 2.01.27.55-.12 2.24-.88 3.75s-3.12 4.35-5.25 6.31-6.46 4.55-9.62 5.75-6.09 2.21-6.5 2.23c-.41.03-1.31-.53-2-1.25-.69-.71-1.04-1.97-.78-2.79.27-.83 2.63-2.17 5.26-2.99 2.62-.82 6.34-2.64 8.27-4.05 1.92-1.41 4.31-4.23 5.31-6.27 1.55-3.17 2.09-3.56 3.75-2.7zm-390.31.04c.69-.02 1.92.64 2.75 1.47.93.93 1.5 3.39 1.5 11.5H7l-.17-5.45c-.14-4.46.18-5.64 1.75-6.47 1.06-.56 2.48-1.03 3.17-1.05zm568.66.22c.6.25 3.56 1.28 12.09 4.1l-6 1.81c-3.3 1-6.34 1.82-6.75 1.83-.41 0-.68-1.84-.59-4.1.09-2.54.57-3.93 1.25-3.64zm-269.19.75c.57 0 3.29 5.06 6.06 11.25 4.55 10.18 4.97 11.73 4.41 16.25-.34 2.75-.91 15.8-1.26 29-.52 19.42-.39 24.36.71 25.86.94 1.28 2.06 1.67 3.61 1.25 2.23-.6 2.25-.78 2.25-18.86-.01-10.04.28-21.85.63-26.25.58-7.31.76-7.83 2.08-6 .8 1.1 2.71 4.47 4.24 7.5 1.54 3.02 6.75 11.35 20.38 31.5l-.63 17c-.39 10.55-1.37 20.61-2.58 26.5-1.07 5.22-3.16 12.87-4.65 17-1.48 4.12-4.19 10.2-6.01 13.5-1.83 3.3-6.16 9.09-9.64 12.86-3.48 3.78-7.67 7.7-9.32 8.72s-4.13 1.89-5.5 1.92c-1.38.04-3.63-.78-5-1.82-1.38-1.04-3.91-4.54-5.64-7.78-1.72-3.25-3.87-8.83-4.76-12.4-1.32-5.28-1.64-12.22-1.66-37-.02-16.78.45-38.15 1.03-47.5s1.76-21.73 2.6-27.5c.85-5.78 2.6-13.88 3.89-18 1.29-4.13 2.66-9.64 3.04-12.25.39-2.61 1.16-4.75 1.72-4.75zm101.39 5c.21 0 1.55.56 2.96 1.25 2.07 1.01 2.45 1.73 1.94 3.75-.35 1.37-1.73 4.19-3.07 6.25s-3.9 4.86-5.69 6.21c-1.79 1.36-5.84 3.38-9 4.5-4.67 1.66-6.04 1.81-7.31.79-.86-.69-1.43-1.84-1.25-2.56.17-.72 3.01-2.39 6.31-3.72 3.71-1.49 7.43-3.95 9.75-6.44 2.06-2.22 4.02-5.38 4.36-7.03.33-1.65.78-3 1-3zm-109.11 1.38c.06.19-3.12 10.42-7.08 22.73-7.05 21.95-7.22 22.74-8.82 40.39-.9 9.9-1.64 25.87-1.66 35.5-.02 13.3-.41 18.7-1.64 22.5-.89 2.75-2.59 6.57-3.78 8.5-1.2 1.92-3.49 4.1-5.1 4.84-2.25 1.04-3.78 1.09-6.67.25-2.47-.72-5.13-2.72-7.77-5.84-2.79-3.3-4.24-6.12-4.75-9.25-.4-2.48-.71-13.5-.68-24.5.03-14.2.52-22.61 1.71-29 .91-4.95 2.53-11.7 3.6-15 1.08-3.3 3.43-9.15 5.24-13 1.8-3.85 5.51-10.83 8.23-15.5 2.72-4.68 6.58-10.49 8.56-12.93 1.99-2.43 5.3-5.58 7.38-7 2.07-1.41 3.94-2.35 4.16-2.07.22.27-3.73 8.7-8.77 18.73-8.18 16.27-9 18.39-7.66 19.77.82.86 2.17 1.34 3 1.07.82-.27 5.32-7.82 9.98-16.78l10.44-20.02c1.08-2.06 2.02-3.58 2.08-3.39zm167.89 8.55c1.13.87 2.54 2.02 3.15 2.57.6.55 2.8 3.25 4.89 6 2.08 2.75 4.69 7.02 5.8 9.5 1.11 2.47 2.62 7.42 3.37 11 .75 3.57 1.37 9.09 1.38 12.25.02 4.68-.44 6.31-2.48 8.75-1.53 1.84-4.15 3.42-6.75 4.09-3.15.81-5.81.79-10.25-.1-3.3-.66-7.58-2.01-9.5-2.99-1.93-.99-8.45-5.27-14.5-9.5s-12.91-9.23-15.25-11.1c-3.98-3.19-4.18-3.57-3.1-6.15.63-1.51 1.41-7.48 2.35-23.75l13.5.25c8.46.16 15.71-.23 19.42-1.06 5.19-1.16 6.18-1.13 7.97.24z" class="D G"/><path d="M594.63 330.25l-.87 4.56c-.14.17-7.46-.6-16.26-1.71l-16.15-1.81c-.09.12-.31 1.56-.5 3.21l-.35 3 32.25 4.41c.14.05.14 2.23 0 4.84-.24 4.61-.16 4.76 2.75 5.05l3 .31 3.05-22.86c.43-3.11.31-3.25-2.93-3.25-3.22 0-3.42.21-3.99 4.25zm-556.3 16.52c-.89.55-.7 2.86.75 9.23 1.06 4.67 1.81 8.55 1.67 8.6-.14.06-2.5.63-5.25 1.27-2.75.65-5.05 1.05-5.12.9-.06-.15-.85-3.76-1.75-8.02-1.27-6.02-1.96-7.64-3.13-7.25-.83.27-2.18.5-3 .5-.89 0-1.49.91-1.48 2.25.01 1.24.7 4.95 1.53 8.25s1.39 6.08 1.23 6.19c-.15.1-2.14.55-4.42 1l-4.14.81c-3.79-16.98-3.8-17-6.76-16.65-1.63.19-3.11.41-3.28.5-.18.08.83 5.44 2.25 11.9 1.41 6.46 2.91 11.75 3.32 11.76.41 0 9.07-1.87 19.25-4.15l18.74-4.26c.13-.05-.88-5.16-2.25-11.35L44 346.5c0-.28-1.01-.49-2.25-.48-1.24 0-2.78.34-3.42.75zm518.31 10.7c-.35.84-.65 2.32-.65 3.28-.02 1.46 3.14 2.47 18.75 6.02l19.51 4.25c.41-.01.86-1.37 1-3.02.16-1.97-.27-3.15-1.25-3.43-.83-.23-8.7-2.05-17.5-4.05l-17.61-4.1c-.88-.26-1.9.21-2.25 1.05zm-1.44 20.95c-1.82.74-4.21 2.64-5.31 4.21-1.1 1.58-2.42 4.56-2.94 6.62-.75 2.95-.56 4.66.85 8 1 2.34 3.36 5.48 5.25 6.99 1.9 1.5 6.37 3.67 9.95 4.81 4.36 1.39 7.81 1.89 10.5 1.5 2.2-.32 5.35-1.39 7-2.38 1.65-.98 3.79-3.45 4.75-5.48s1.75-5.27 1.75-7.19c0-1.93-.68-4.85-1.5-6.5-.83-1.65-3.41-4.37-5.75-6.05s-6.5-3.71-9.25-4.51-6.58-1.44-8.5-1.41c-1.93.03-4.99.65-6.8 1.39zm-521.95 9.7L15 395c1.55 4.65 2.34 6 2.75 6 .41-.01 3.79-1.13 7.5-2.5 3.71-1.38 6.89-2.39 7.07-2.25s1.3 2.84 2.5 6L37 408c-14.63 5.45-14.75 5.55-13.89 8.25.49 1.51 1.34 2.75 1.89 2.75s8.76-2.96 18.25-6.57l17.58-6.75c.19-.1.07-1.42-.25-2.93s-1.14-2.76-1.83-2.76c-.69-.01-4.06 1.11-7.5 2.5-3.44 1.38-6.7 2.51-7.25 2.51s-1.7-1.69-2.55-3.75-1.78-4.65-2.07-5.75c-.44-1.64.34-2.35 4.29-3.92l8.08-3.25c3-1.23 3.18-1.56 2.39-4.33-.48-1.65-1.27-2.95-1.75-2.88-.49.06-9.1 3.21-19.14 7z" class="E"/><path d="M556.65 385.97c-2.25 1.72-2.83 2.94-2.77 5.85.05 2.47.82 4.38 2.34 5.81 1.26 1.18 3.63 2.82 5.28 3.66 1.65.83 4.8 1.83 7 2.2 2.6.45 5.01.23 6.88-.65 1.59-.74 3.27-2.13 3.75-3.09s.87-2.76.88-4c0-1.24-.67-3.26-1.5-4.5s-3.42-3.2-5.76-4.36-6.28-2.33-8.75-2.6c-3.58-.39-5.08-.05-7.35 1.68z" class="D"/><path d="M536.73 414.67c-.78 1.7-.86 2.8-.23 3.02.55.19 5.5 2.8 11 5.8l10 5.45-28.5.06-2.8 5.5 35.16 18.25c.21-.14.88-1.26 1.5-2.5.63-1.24 1.03-2.42.89-2.63s-3.4-1.97-7.25-3.9c-3.85-1.94-9.03-4.7-11.5-6.14l-4.5-2.63 30 1.34c2-4.49 2.22-6.07 1.79-6.42-.44-.35-7.99-4.5-16.79-9.22s-16.35-8.6-16.77-8.62-1.32 1.17-2 2.64zM55.75 430.51C48.19 434.63 41.77 438 41.5 438c-.28 0-1.4-1.8-2.5-4s-2.34-3.99-2.75-3.98-1.75.8-2.98 1.75l-2.23 1.73 12.46 22.42c4.26-2.26 5.5-3.15 5.5-3.42 0-.28-.9-2.08-2-4-1.1-1.93-1.87-3.92-1.71-4.44.16-.51 6.48-4.23 14.04-8.25s13.72-7.65 13.71-8.06c-.02-.41-.49-1.65-1.04-2.75s-1.34-2-1.75-1.99c-.41 0-6.94 3.38-14.5 7.5zM522 467.2c-.77.66-1.31 2.68-1.2 4.5.14 2.38 1.1 4.02 3.45 5.9 2.51 2.01 3.93 2.46 6.25 1.99 1.65-.34 3.57-1.4 4.27-2.35.69-.96 1.26-2.53 1.25-3.49s-1.37-3.1-3.02-4.75c-2.12-2.12-3.97-3-6.3-3-1.82 0-3.93.54-4.7 1.2zm-447.66.73c-1.19.44-2.89 1.65-3.78 2.69-.98 1.14-1.51 3.25-1.34 5.37.22 2.7.9 3.78 3.03 4.75 2.26 1.04 3.33 1 6-.2 1.79-.81 3.81-2.61 4.5-4 .69-1.4 1.26-3.1 1.27-3.79s-.89-2.26-2-3.5-2.81-2.22-3.77-2.19c-.96.04-2.72.43-3.91.87zm29.02 33.82L90.22 516c-1.12 1.27-1.01 1.85.72 3.75L93 522l11.79-12.5L115 518l4.91-4.5-10.93-9 6.88-7 11.64 10.44L132 503c-7.36-6.79-10.96-9.94-12.75-11.38s-3.44-2.62-3.66-2.62c-.23 0-5.73 5.74-12.23 12.75zM483 491.2c-.77.66-1.3 1.9-1.19 2.75.12.85 1.59 7.4 3.27 14.55 2.28 9.73 3.66 13.63 5.48 15.5l2.42 2.5c6.6-6.57 8.97-8.47 9.52-8.47s2.12 1.13 3.5 2.51l2.5 2.5 4-4.07c-5.31-5.21-5.43-5.61-4.01-6.97 1.43-1.36 1.36-1.71-.71-3.74-1.84-1.81-2.55-2-3.67-1-1.14 1.02-2.91-.41-10-8.03-4.73-5.1-8.86-9.26-9.16-9.25s-1.18.56-1.95 1.22z" class="E"/><path d="M491.51 510c.38 2.47.99 4.85 1.34 5.27.36.43 1.55-.15 2.65-1.29l2-2.06-6.68-6.42.69 4.5z" class="D"/><path d="M454.25 516.04L446 522l4.5 5.86 10.75-7.88c.14 0 .63 2.36 1.09 5.25.46 2.9 1.99 8.42 3.41 12.27 1.41 3.85 3.39 8.46 4.41 10.25 1.01 1.79 2.18 3.24 2.59 3.22s1.53-.58 2.49-1.25c1.62-1.13 1.47-1.83-2.14-9.72-2.14-4.68-4.39-10.86-4.99-13.75-.61-2.89-1.11-6.71-1.1-8.5 0-1.79-.67-4.26-1.5-5.5s-1.85-2.23-2.26-2.21-4.46 2.72-9 6zM138 518.82c-2.48 1.56-5.72 4.6-7.2 6.75-1.49 2.16-3.4 5.62-4.25 7.68s-1.55 5.44-1.55 7.5c.01 2.06.91 5.21 2 7 1.1 1.79 3.46 4.15 5.25 5.25 1.9 1.17 5.01 1.99 7.5 2 2.34 0 5.49-.62 7-1.38s4.52-3.35 6.69-5.75c2.16-2.4 4.74-6.17 5.72-8.37.99-2.2 1.82-6.03 1.85-8.5.03-3.08-.67-5.57-2.23-7.9-1.25-1.87-3.86-4.23-5.78-5.25-1.93-1.02-5.08-1.86-7-1.85-2.11 0-5.29 1.12-8 2.82z" class="E"/><path d="M141.25 525c-1.79 1.1-4.6 4.36-6.24 7.25-1.65 2.89-3.01 6.37-3.04 7.75-.02 1.37.88 3.74 2 5.25 1.54 2.09 2.87 2.75 5.53 2.75 2.54 0 4.5-.89 7.13-3.25 1.99-1.79 4.47-4.94 5.5-7s1.87-5.1 1.87-6.75c0-1.87-.94-3.94-2.5-5.5-1.38-1.38-3.51-2.5-4.75-2.5-1.24.01-3.71.91-5.5 2z" class="D"/><path d="M425 533.92c-1.81 1.86-2.87 4.05-2.92 6-.05 1.7.59 4.43 1.42 6.08.82 1.65 2.74 3.45 4.25 4.01 2.55.94 2.73 1.37 2.5 6-.23 4.55.08 5.34 3.5 8.95 3.07 3.24 4.44 3.96 7.6 4 3.12.03 4.5-.63 7.25-3.46 2.33-2.4 3.4-4.44 3.4-6.5 0-1.65-.72-4.46-1.61-6.25-.88-1.79-2.57-4.03-3.75-4.98s-2.82-1.74-3.64-1.75c-1.11-.01-1.5-1.21-1.5-4.6 0-3.91-.48-5.02-3.25-7.5-2.31-2.08-4.28-2.92-6.83-2.92-2.63 0-4.32.77-6.42 2.92zm-251.69 9.86c-2.48 5.34-5.36 11.86-6.41 14.47-1.04 2.61-1.9 6.1-1.9 7.75 0 1.86 1.04 4.16 2.75 6.07 1.51 1.69 4.55 3.76 6.75 4.6 3.18 1.22 4.77 1.31 7.75.43 2.89-.85 4.4-2.19 6.58-5.85 1.55-2.61 4.93-9.36 7.5-15s4.73-10.63 4.79-11.09c.07-.46-1.17-1.37-2.75-2.03-1.58-.65-2.89-1.06-2.92-.91-.03.16-2.73 6.08-6 13.18-3.27 7.09-6.85 13.51-7.95 14.26-1.12.77-2.88 1.08-4 .7-1.1-.36-2.8-1.38-3.78-2.26s-1.77-2.5-1.75-3.6 2.74-7.85 6.05-15l5.92-13.15c-.05-.09-1.45-.64-3.11-1.22l-3.01-1.08-4.51 9.73z" class="E"/><path d="M429.11 538.5c-.61.82-.89 2.62-.61 4 .3 1.49 1.41 2.75 2.75 3.12 1.24.34 2.81.34 3.5 0s1.25-1.75 1.25-3.12c0-1.38-.68-3.18-1.5-4-.83-.83-2.12-1.5-2.89-1.5-.76 0-1.89.67-2.5 1.5z" class="D"/><path d="M399.51 544.69c-1.46.33-1.93 1.17-1.76 3.13.12 1.48-.89 4.59-2.26 6.93-2.28 3.89-2.38 4.52-1.15 7.5l1.35 3.25c3.34-5.04 4.3-7.06 4.29-7.75-.01-.82.3-.91.91-.25.51.55 3.1 6.52 5.77 13.27 4.29 10.9 5.07 12.21 6.84 11.64 1.1-.35 2.35-.92 2.78-1.27.42-.35-2.5-8.87-6.5-18.92-4.01-10.06-7.51-18.22-7.78-18.14-.28.08-1.4.36-2.49.61zm-184.84 6.06c-.24.41-2.77 8.85-5.61 18.75-4.05 14.09-4.89 18.16-3.87 18.73.72.41 1.98.76 2.81.78 1.05.02 2.48-3.2 4.75-10.74 1.79-5.92 3.24-11.45 3.22-12.27-.01-.83.2-1.28.47-1 .27.27 1.67 6.57 3.1 14 1.43 7.42 2.91 13.78 3.28 14.12s1.8.9 3.18 1.23c2.47.61 2.57.37 8-18.34l5.5-18.95c-4.81-1.8-5.61-1.75-5.95-.81-.24.69-1.88 6.2-3.63 12.25l-3.3 11.22c-.07.11-1.37-6.19-2.89-14-2.45-12.58-3.03-14.3-5-14.96-1.23-.4-2.55-.74-2.93-.75-.39 0-.9.33-1.13.74z" class="E"/><path d="M436.1 552.94c-.76 1.41-.79 2.84-.1 4.56.55 1.37 2.01 3.18 3.25 4.01 1.38.93 2.94 1.22 4.04.75.98-.42 2-1.44 2.26-2.26.27-.83-.31-3.08-1.28-5-1.25-2.47-2.55-3.59-4.42-3.81s-2.99.3-3.75 1.75z" class="D"/><path d="M487.13 553.17c-2.56 1.36-5.18 3.79-6.32 5.83-1.38 2.51-1.84 4.97-1.62 8.68.26 4.35.87 5.76 3.81 8.79 2.05 2.11 5.15 4.03 7.5 4.63 2.2.57 5.35.72 7 .34s4.24-1.53 5.75-2.56c1.51-1.04 3.48-3.34 4.36-5.13.89-1.79 1.58-5.28 1.53-7.75-.05-2.48-.89-5.8-1.87-7.4-.97-1.59-2.9-3.75-4.27-4.81-1.38-1.05-4.53-2.14-7-2.43-3.48-.4-5.49.01-8.87 1.81z" class="E"/><path d="M488.45 554.48c-1.68.77-4.04 2.89-5.25 4.71-1.34 2.03-2.19 4.86-2.19 7.31 0 2.2.81 5.35 1.8 7 1 1.65 3.47 3.79 5.5 4.75s4.93 1.74 6.44 1.72 4.32-.93 6.25-2.02c1.92-1.09 4.29-3.33 5.25-4.97s1.75-4.67 1.75-6.73c-.01-2.06-.82-5.1-1.81-6.75-1-1.65-3.47-3.79-5.5-4.75s-4.93-1.73-6.44-1.71-4.12.67-5.8 1.44z" class="D"/><path d="M488.25 558.92c-.32.23-.51 3.71-.42 7.75.09 4.03.62 7.55 1.17 7.83.56.28 1.11-1.15 1.25-3.25.21-3.12.59-3.7 2.25-3.44 1.1.17 2.67 1.12 3.5 2.13.82 1 2.01 2.66 2.63 3.69.63 1.03 1.42 1.64 1.76 1.37.34-.28-.42-2.08-1.68-4-2.26-3.44-2.26-3.53-.37-5 1.43-1.11 1.77-2.21 1.3-4.25-.58-2.51-1.08-2.77-5.72-3-2.8-.14-5.35-.06-5.67.17zm-237.38 20.33c-2.33 18.36-2.36 19.28-.66 20 .99.41 5.36 1.09 9.72 1.5l7.94.75c6.34-6.59 8.13-9.68 8.91-12.75.67-2.61 1.22-7.45 1.22-10.75 0-3.65-.69-7.44-1.75-9.67-.96-2.02-2.65-4.23-3.75-4.91-1.1-.69-5.26-1.73-9.25-2.33s-7.86-1.09-8.6-1.09c-.99 0-1.98 5-3.78 19.25zM338 561.31c-4.76.87-6.45 1.59-6.31 2.69.11.82 1.38 9.15 2.82 18.5l2.96 18c.21.66 2.84.6 7.68-.16 4.04-.63 8.62-1.76 10.18-2.5 1.55-.74 3.54-2.47 4.4-3.84.87-1.38 1.8-5.2 2.06-8.5.3-3.87-.11-8.04-1.16-11.75-.98-3.44-2.93-7.18-4.88-9.31-2.47-2.71-4.21-3.65-7.25-3.94-2.2-.21-6.93.16-10.5.81z" class="E"/><path d="M491 563c0 2.43.43 3.01 2.25 3.04 1.24.03 2.81-.65 3.5-1.5 1-1.23 1-1.85 0-3.08-.69-.85-2.26-1.53-3.5-1.5-1.82.03-2.25.61-2.25 3.04z" class="D"/><path d="M293.38 575.5c0 6.6.17 9.07.36 5.5.2-3.58.19-8.98 0-12-.2-3.03-.36-.1-.36 6.5z" class="F"/><path d="M293.96 583.5c.02 10.72.38 19.66.79 19.86.41.19 6.04.08 12.5-.25l11.76-.61-.01-5.5-18.5-.5-.5-10.5h17v-7h-17l.5-8.5 17.5-.5v-6h-24.07l.03 19.5z" class="E"/><path d="M341.25 567.64c-1.72.27-2.15.89-1.83 2.61l2.25 13.01c1.46 8.55 2.14 10.66 3.33 10.32.82-.24 2.96-.69 4.75-1.01 1.84-.32 3.68-1.44 4.25-2.57.55-1.1 1-3.8 1-6s-.56-6.1-1.25-8.66c-.75-2.78-2.26-5.42-3.75-6.53-1.38-1.04-3.4-1.8-4.5-1.71-1.1.1-3.01.34-4.25.54zm-81.68 1.61c-.21.69-.91 5.07-1.56 9.75l-1.53 11c-.19 1.37.19 2.83.84 3.23.65.41 2.75.74 4.68.74 1.92 0 4.03-.33 4.69-.74.65-.4 1.89-2.42 2.75-4.48s1.55-6.56 1.54-10c0-3.44-.34-6.75-.75-7.35-.4-.61-1.74-1.62-2.98-2.25s-3.39-1.15-4.77-1.15c-1.39 0-2.7.56-2.91 1.25z" class="D"/><path d="M304.5 603.73c2.2.21 6.02.21 8.5 0 2.47-.21.67-.38-4-.38-4.68 0-6.7.17-4.5.38z" class="F"/></svg>
