<svg version="1.2" baseProfile="tiny-ps" xmlns="http://www.w3.org/2000/svg" viewBox="0 0 604 604" width="604" height="604">
	<title>Background</title>
	<style>
		tspan { white-space:pre }
		.shp0 { fill: #fdfdfc } 
		.shp1 { fill: #1d1b1b } 
		.shp2 { fill: #fbcc55 } 
	</style>
	<g id="Background">
		<path id="Path 0" class="shp0" d="M0.15 151.25C0.23 233.89 0.46 300.26 0.65 298.75C0.85 297.19 2.19 295.12 3.75 293.97C5.28 292.84 8.06 291.93 10 291.92C11.98 291.92 14.59 292.77 16 293.89L18.5 295.86C21.92 291.56 23.81 290.68 27 290.29C30.08 289.92 32.53 290.26 34.75 291.37C36.54 292.27 38.45 294.12 39 295.5C39.55 296.87 40 302.27 40 307.5L40 317C19.46 317.08 10.69 317.3 7.25 317.55L1 318C0.47 312.96 0.25 377.31 0.16 457.75L0 604L295 604C294.24 600.51 293.68 591.51 293.26 581.75L292.5 563.99L318 564L318 570L300.5 570.5L300 579L317 579L317 586L300 586L300.5 596.5L319 597C319 601.65 318.44 603.19 317.75 603.42C317.06 603.65 380.96 603.88 459.75 603.92L603 604C603 313.55 602.91 306.03 601.25 306.56C600.29 306.87 591.62 309.56 582 312.55C572.37 315.53 564.16 317.98 563.75 317.99C563.34 317.99 563 316.42 563 314.5C563 311.17 563.21 310.95 567.5 310L572 309L572.02 295.5C563.26 293.07 563 292.8 563 289.5C563 287.57 563.11 286 563.25 286C563.39 285.99 572.27 288.92 583 292.5C593.72 296.08 602.61 299.01 602.75 299C602.89 299 603 231.95 603 150L603 1C371.66 1.32 308.21 1.54 312.75 1.7L321 2L321 8L303 8L303 17L320 17L320 24L303 24C302.88 28.26 302.66 30.29 302.42 31.25C302.14 32.41 302.84 33.34 304.5 34C305.87 34.55 310.15 35 314 35L321 35C320.61 39.69 320.16 41.04 319.75 41.03C319.34 41.01 313.82 41 307.5 41L296 41L297 1L0 1L0.15 151.25Z" />
		<path id="Path 1" class="shp1" d="M297.1 7.11C296.98 10.62 296.69 19.69 296.44 27.25L296 41C313.82 41 319.34 41.01 319.75 41.03C320.16 41.04 320.61 39.69 320.75 38.03L321 35C310.15 35 305.87 34.55 304.5 34C302.84 33.34 302.14 32.41 302.42 31.25C302.66 30.29 302.88 28.26 302.92 26.75L303 24L320 24L320 17L303 17L303 8L321 8C321 2.01 320.97 2 315.25 2.01C312.09 2.01 306.76 1.72 303.41 1.36L297.32 0.72L297.1 7.11ZM266.08 3.39C260.9 4 256.49 4.95 256.29 5.5C256.08 6.05 256.86 14.82 258 25C259.15 35.17 260.18 43.62 260.3 43.76C260.41 43.91 265.9 43.45 272.5 42.74L284.5 41.45C283.99 36.84 283.76 35.36 283.67 35.2C283.58 35.03 279.67 35.3 275 35.81C270.32 36.31 266.27 36.51 266 36.26C265.72 36 265.27 33.63 265 30.98L264.5 26.17C272.25 25.2 275.96 24.71 277.75 24.46C280.01 24.14 281 23.47 280.98 22.25C280.98 21.29 280.64 19.91 280.23 19.19C279.67 18.18 277.72 18.03 272 18.56C264.71 19.22 264.48 19.17 263.76 16.87C263.36 15.57 263.02 13.49 263.01 12.25C263 10.13 263.49 9.97 271.5 9.5L280 9C280 2.5 279.68 2.02 277.75 2.14C276.51 2.22 271.26 2.78 266.08 3.39ZM334.98 22.92C333.36 33.69 332.14 42.57 332.27 42.65C332.39 42.74 333.84 42.96 335.47 43.15C338.33 43.49 338.47 43.31 339.23 38.5C339.67 35.75 340.24 32.49 340.51 31.25C340.97 29.14 341.35 29.04 346.75 29.64C350.34 30.04 353.35 29.85 354.75 29.14C355.99 28.51 357.9 26.54 359 24.75C360.17 22.85 360.99 19.74 361 17.25C361 14.91 360.44 11.87 359.75 10.48C359.06 9.1 357.37 7.52 356 6.97C354.62 6.42 349.99 5.38 345.71 4.65L337.92 3.33L334.98 22.92ZM236 8.11C232.73 8.95 232.23 9.65 228.5 18.61C226.3 23.89 224.27 28.36 224 28.54C223.72 28.72 222.6 25.26 221.5 20.85L219.5 12.82C214.85 13.8 213.4 14.18 213.28 14.29C213.17 14.41 214.88 21.47 217.09 30C219.31 38.52 221.54 47.07 222.05 49C222.88 52.09 223.3 52.44 225.64 52C227.1 51.72 228.45 51.05 228.63 50.5C228.82 49.95 228.38 47.25 227.67 44.5C226.55 40.2 226.58 38.98 227.93 35.76C228.79 33.7 229.72 32.05 230 32.09C230.27 32.12 233.42 35.54 237 39.68C243.31 46.99 243.6 47.2 247 46.52C248.92 46.14 250.72 45.64 251 45.43C251.27 45.21 247.34 40.52 242.25 35.01L233 25C239.2 11.05 240.66 7.05 240.25 7.1C239.84 7.16 237.92 7.61 236 8.11Z" />
		<path id="Path 2" class="shp0" d="M343.48 12.89C343.31 13.77 342.91 16.19 342.59 18.25C342.07 21.56 342.26 22.06 344.25 22.49C345.49 22.75 347.65 22.98 349.05 22.99C350.45 22.99 352.15 22.44 352.82 21.75C353.49 21.06 354.03 19.04 354.02 17.25C354.01 15.46 353.44 13.69 352.75 13.31C352.06 12.92 349.77 12.31 347.65 11.94C344.56 11.41 343.73 11.6 343.48 12.89Z" />
		<path id="Path 3" class="shp1" d="M373 29.27C369.97 39.3 367.5 47.89 367.5 48.37C367.5 48.85 372.45 50.76 378.5 52.62C384.55 54.47 389.84 55.99 390.25 56C390.66 56 391.45 54.65 392 53L393 50C379.44 45.88 375.39 44.65 375.26 44.59C375.13 44.54 375.76 42.25 376.66 39.5C377.56 36.75 378.34 34.39 378.39 34.26C378.45 34.13 381.87 35.15 386 36.51C390.12 37.88 393.78 38.66 394.12 38.25C394.46 37.84 395.02 36.26 395.37 34.75C395.73 33.16 395.58 32 395 32C394.45 32 390.85 31.1 387 30L380 28L383 19L399.5 24.78C401.44 19.52 401.89 18.01 401.75 18.02C401.61 18.03 397 16.67 391.5 14.99C386 13.32 380.82 11.75 380 11.5C378.83 11.15 377.29 15.07 373 29.27ZM186 24.1C180.77 26.3 176.05 28.52 175.5 29.03C174.85 29.63 176.54 34.73 180.4 43.73C183.64 51.3 187.13 59.41 188.15 61.75L190 66C207.98 58.24 212.01 55.95 212.02 55C212.03 54.17 211.46 52.73 210.77 51.79C209.59 50.19 208.92 50.32 201.5 53.53C197.1 55.43 193.42 56.87 193.32 56.74C193.22 56.61 192.23 54.47 191.12 52C190.01 49.52 189.41 47.23 189.8 46.91C190.18 46.58 193.55 45 197.28 43.41C201.01 41.81 204.05 40.39 204.03 40.25C204.01 40.11 203.44 38.86 202.75 37.47C202.06 36.08 201.16 34.96 200.75 34.97C200.34 34.99 196.96 36.32 193.25 37.94L186.5 40.87C183.77 34.38 183.1 32.45 183.24 32.4C183.38 32.34 186.82 30.99 190.87 29.4C194.92 27.8 198.41 26.16 198.62 25.75C198.83 25.34 198.44 23.86 197.75 22.47C197.06 21.08 196.27 19.98 196 20.02C195.72 20.06 191.22 21.9 186 24.1ZM409.24 41.79C404.69 51.53 400.98 59.84 400.99 60.25C400.99 60.66 402.24 61.41 403.75 61.92C406.43 62.81 406.59 62.64 410 55.45C411.92 51.39 413.72 48.05 414 48.02C414.27 47.99 415.33 48.54 416.34 49.23C417.45 49.99 418.53 52.5 419.03 55.5C419.5 58.25 419.91 62.41 419.94 64.75C419.99 68.45 420.39 69.2 423 70.5C424.65 71.32 426.34 72 426.75 72.01C427.16 72.01 427.22 68.3 426.88 63.76C426.54 59.22 425.98 54.71 425.63 53.75C425.11 52.3 425.59 52 428.5 52C431.26 52 432.63 51.26 435 48.5C437.25 45.87 438 44 438 41C438 38.8 437.55 36.1 437 35C436.45 33.9 431.95 30.97 427 28.5C422.05 26.02 417.89 24.02 417.75 24.04C417.61 24.06 413.78 32.05 409.24 41.79Z" />
		<path id="Path 4" class="shp0" d="M418.97 36.95C417.83 39.14 416.92 41.28 416.95 41.71C416.98 42.14 418.92 43.29 421.25 44.25C423.59 45.21 426.29 46 427.25 46C428.21 46 429.45 45.1 430 44C430.55 42.9 431.01 41.11 431.03 40.02C431.05 38.63 429.56 37.28 426.06 35.51L421.06 32.99L418.97 36.95Z" />
		<path id="Path 5" class="shp1" d="M148.6 42.71C143.15 45.84 138.75 48.64 138.81 48.95C138.88 49.25 143.3 56.92 148.64 66C153.98 75.07 158.38 82.62 158.43 82.77C158.47 82.91 163.34 80.21 169.26 76.77C175.18 73.32 180.01 70.27 179.99 70C179.97 69.72 179.18 68.46 178.23 67.19L176.5 64.87L161 74C157.16 67.41 156.03 65.16 156.02 64.75C156.01 64.34 158.92 62.42 162.5 60.5C166.07 58.57 168.99 56.44 168.97 55.75C168.95 55.06 168.29 53.6 167.5 52.5C166.08 50.54 165.91 50.59 159.03 54.75L152 59C148.9 53.57 148.16 51.66 148.36 51.25C148.55 50.84 151.7 48.81 155.36 46.75C159.01 44.69 162 42.55 162 42C162 41.45 161.55 40.1 161 39C160.45 37.9 159.66 37.01 159.25 37.02C158.84 37.03 154.04 39.59 148.6 42.71ZM455.25 48.5C453.46 49.33 451.32 51.35 450.5 53C449.67 54.65 449 57.57 449 59.5C449 62.04 450.09 64.43 453.01 68.25C455.21 71.14 457.02 74.4 457.02 75.5C457.03 76.6 456.49 78.06 455.82 78.75C455.15 79.44 453.68 80.02 452.55 80.03C451.42 80.05 449.21 79.04 447.62 77.78C445.09 75.77 444.82 75.05 445.37 71.75C445.93 68.42 445.71 67.86 443.43 66.75C441.29 65.71 440.71 65.75 439.95 67C439.44 67.82 438.73 70.07 438.37 72C437.9 74.52 438.25 76.48 439.61 78.97C440.65 80.89 443.3 83.47 445.5 84.71C447.7 85.95 451.07 86.96 453 86.95C455.77 86.94 457.28 86.11 460.25 82.97C462.31 80.79 464.07 77.99 464.16 76.75C464.24 75.51 464.21 73.37 464.08 72C463.95 70.62 462.07 67.25 459.89 64.5C457.22 61.12 456.02 58.69 456.22 57C456.42 55.18 457.18 54.42 459 54.2C460.56 54.02 462.4 54.77 463.87 56.2C465.61 57.88 466.09 59.17 465.66 61C465.19 62.98 465.59 63.76 467.53 64.75C468.89 65.44 470.45 65.77 471 65.5C471.55 65.22 472.26 63.54 472.57 61.75C472.88 59.96 472.65 57.26 472.07 55.75C471.48 54.24 469.54 51.89 467.75 50.54C465.96 49.19 463.15 47.84 461.5 47.54C459.8 47.24 457.09 47.65 455.25 48.5Z" />
		<path id="Path 6" class="shp2" d="M292.5 63.42C288.65 65.75 283.47 68.8 281 70.19C278.52 71.59 264.35 79.71 249.5 88.24C234.65 96.78 207.42 112.4 189 122.97C170.57 133.54 140.52 150.81 122.21 161.34L88.92 180.5L89.01 424.5C94.04 427.39 106.07 434.32 119 441.76C131.92 449.2 147 457.84 152.5 460.96C158 464.07 167.34 469.4 173.25 472.81C179.16 476.21 184.22 479 184.5 479C184.77 479 186.16 475.06 187.57 470.25C188.98 465.44 191.75 456.55 193.73 450.5C195.71 444.45 199.54 434.1 202.26 427.5C204.97 420.9 209.14 411.45 211.52 406.5C213.9 401.55 218.85 392.55 222.53 386.5C226.2 380.45 230.61 373.7 232.33 371.5C234.04 369.3 240.19 362.43 245.97 356.23C251.76 350.03 256.84 344.96 257.25 344.98C257.66 344.99 257.83 346.01 257.62 347.25C257.42 348.49 256.47 353.55 255.52 358.5C254.58 363.45 253.4 368.62 252.9 370C252.41 371.37 249.73 375.2 246.94 378.5C244.15 381.8 239.33 388.55 236.23 393.5C233.13 398.45 226.9 410.6 222.38 420.5C217.87 430.4 212.53 443.22 210.52 449C208.51 454.77 205.11 465.8 202.97 473.5C200.82 481.2 199.16 487.56 199.28 487.64C199.4 487.72 203.32 490.02 208 492.75C212.67 495.49 224.6 502.35 234.5 508C244.4 513.65 256.55 520.62 261.5 523.5C266.45 526.38 277.36 532.62 285.75 537.37C295.35 542.8 301.65 545.79 302.75 545.43C303.71 545.12 311.25 541 319.5 536.27C327.75 531.54 340.8 524 348.5 519.51C356.2 515.02 364.97 509.98 368 508.3C371.02 506.63 388.35 496.73 406.5 486.31C424.65 475.89 443.77 464.86 449 461.81C454.22 458.75 461.24 454.73 464.59 452.88C467.93 451.02 480.43 443.87 492.35 437L514.03 424.5L514.06 180.5C491.93 167.67 484.37 163.29 483 162.49C481.62 161.69 473.3 156.9 464.5 151.85C455.7 146.8 444 140.12 438.5 137.01C433 133.89 408.25 119.73 383.5 105.53C358.75 91.33 330.51 75.05 320.75 69.35C310.99 63.66 302.21 59.04 301.25 59.09C300.29 59.14 296.35 61.08 292.5 63.42Z" />
		<path id="Path 7" class="shp1" d="M117.43 64.29C116.29 64.95 112.85 67.52 109.79 69.99C106.72 72.45 104.17 74.82 104.11 75.24C104.05 75.66 109.4 82.75 116 91C126.6 104.25 128.2 105.86 129.75 104.79C130.71 104.12 133.97 101.57 137 99.11C140.02 96.66 143.07 93.94 143.77 93.08C144.46 92.21 145.04 89.92 145.04 88C145.05 86.01 144.06 82.99 142.76 81C141.04 78.39 139.38 77.25 136.22 76.5C132.5 75.62 131.98 75.16 131.99 72.75C132 70.93 130.82 68.82 128.5 66.5C126.16 64.16 124.09 63.01 122.25 63.04C120.74 63.05 118.57 63.62 117.43 64.29Z" />
		<path id="Path 8" class="shp0" d="M116.66 73.25L112.96 76.5L118 83C123.44 78.74 125.27 76.6 125.57 75.5C125.91 74.29 125.41 72.8 124.31 71.72C123.32 70.74 122.02 69.95 121.43 69.97C120.84 69.99 118.69 71.46 116.66 73.25ZM127.23 85C123.77 87.46 123.18 88.32 123.98 89.75C124.52 90.71 125.87 92.51 126.98 93.75L129 96C133.9 92.51 135.91 90.6 136.62 89.5C137.68 87.85 137.65 87.02 136.45 84.75C135.65 83.24 134.2 82 133.23 82C132.26 82 129.56 83.35 127.23 85Z" />
		<path id="Path 9" class="shp1" d="M492.7 95.86L473.99 105.5L479.14 110.5L487.5 105.96L496.79 115.5L492.2 123.5L497.5 127.75C500.01 124.46 504.38 116.3 508.82 107.5L516.9 91.5L511.42 86.22L492.7 95.86Z" />
		<path id="Path 10" class="shp0" d="M499.56 99.57C496.85 100.93 494.7 102.37 494.79 102.77C494.88 103.17 496.08 104.62 497.47 106C498.86 107.37 500.16 108.27 500.38 108C500.59 107.72 501.86 105.14 503.19 102.25C504.53 99.36 505.38 97.02 505.06 97.05C504.75 97.07 502.28 98.21 499.56 99.57Z" />
		<path id="Path 11" class="shp1" d="M73.46 104.76C71.8 107.39 71.8 107.56 73.67 109C74.74 109.82 77.39 111.91 79.56 113.62C83.44 116.7 83.47 116.78 81.78 119.12C80.84 120.43 79.04 122.73 77.78 124.24L75.5 126.98L63 117L59 122C80.31 139.24 87.32 144.98 88.33 145.87C90.03 147.39 90.28 147.33 92.07 145C93.98 142.5 93.98 142.5 91.23 140C89.72 138.62 86.69 136.07 84.49 134.33L80.5 131.16C86.7 123.99 88.84 121.93 89.25 121.95C89.66 121.98 92.92 124.25 96.5 127L103 132C106.3 127.18 106.33 126.74 105 125.61C104.17 124.91 97.65 119.62 90.5 113.86C83.35 108.1 76.98 103.08 76.35 102.7C75.69 102.31 74.46 103.18 73.46 104.76ZM527.5 116.81C525.85 117.81 523.96 120.05 523.31 121.8C522.66 123.54 522.26 126.22 522.42 127.74C522.59 129.26 523.35 132.65 524.11 135.27C525.14 138.82 525.22 140.49 524.4 141.77C523.79 142.72 522.22 143.63 520.9 143.8C519.43 143.98 517.62 143.2 516.22 141.8C514.97 140.53 513.96 138.6 513.97 137.5C513.98 136.4 514.66 134.49 515.49 133.25C516.85 131.22 516.83 130.8 515.25 128.97C514.29 127.85 513.05 126.96 512.5 127C511.95 127.03 510.63 128.29 509.57 129.78C508.5 131.28 507.44 134.3 507.2 136.5C506.84 139.86 507.31 141.21 510.14 144.92C512.02 147.39 514.82 149.76 516.5 150.29C518.15 150.8 520.85 150.97 522.5 150.66C524.15 150.35 526.91 148.84 528.64 147.3C530.37 145.76 532.13 143.15 532.55 141.5C533.01 139.68 532.79 136.73 532 134C531.28 131.52 530.48 127.92 530.23 126C529.87 123.26 530.17 122.33 531.64 121.74C532.79 121.26 534.36 121.55 535.75 122.49C536.99 123.32 538.27 125.01 538.6 126.25C538.92 127.49 538.59 129.52 537.85 130.78C536.65 132.81 536.75 133.3 538.81 135.28L541.12 137.5C544.24 133.62 545.38 131.37 545.68 130C545.97 128.62 545.9 126.37 545.51 125C545.12 123.62 543.16 120.83 541.15 118.79C538.35 115.95 536.68 115.08 534 115.05C532.07 115.03 529.15 115.82 527.5 116.81Z" />
		<path id="Path 12" class="shp0" d="M320.4 120.82C317.59 121.74 314.26 123.4 313 124.5C311.74 125.6 309.82 128.52 308.73 131C307.65 133.47 306.06 139.55 305.22 144.5C304.16 150.69 303.67 160.21 303.67 175C303.67 186.82 303.96 199.09 304.33 202.25L305 208C315.83 213.05 319.12 214.05 319.33 213.5C319.54 212.95 319.48 202.82 319.21 191C318.93 179.17 319 168.26 319.35 166.75C319.75 165.06 320.67 163.99 321.75 163.98C322.71 163.97 324.07 164.54 324.77 165.23C325.72 166.19 326.03 172.78 326.02 192.25L326 218C331.81 218.07 334.03 217.51 334.68 216.79C335.33 216.08 337.7 209.87 339.95 203C342.2 196.12 344.45 189.15 344.96 187.5C345.46 185.85 346.56 181.12 347.4 177C348.24 172.87 349.62 164.55 350.47 158.5C351.32 152.45 352.01 143.34 352.01 138.25C352 129.71 351.79 128.72 349.25 125.37C347.74 123.38 345.26 121.13 343.75 120.37C342.08 119.54 337.96 119.03 333.25 119.07C328.88 119.11 323.28 119.87 320.4 120.82ZM276.5 136.41C273.75 137.12 268.39 139.01 264.58 140.6C260.78 142.2 257.51 144.06 257.33 144.75C257.14 145.46 258.61 146.48 260.75 147.12C262.81 147.74 267.65 149.81 271.5 151.72C275.35 153.63 281.42 157.15 285 159.56C288.57 161.96 292.06 163.94 292.75 163.96C293.44 163.98 294.47 162.54 295.04 160.75C295.61 158.96 296.35 155.02 296.68 152C297.01 148.89 296.78 144.87 296.14 142.75C295.51 140.69 293.99 138.34 292.75 137.53C291.51 136.72 288.47 135.85 286 135.59C283.52 135.33 279.25 135.7 276.5 136.41ZM187.28 140.62C186.22 142.21 185.54 145.05 185.57 147.87C185.6 150.71 186.56 154.38 188.06 157.38C189.4 160.06 192.97 164.71 196 167.72C199.02 170.73 205.77 175.69 211 178.75C216.22 181.8 225.67 187.46 232 191.33C238.32 195.2 247.66 200.98 252.75 204.18C260.26 208.91 262.8 210 266.25 210C268.59 210 273.97 210.79 278.21 211.75C285.24 213.35 286.2 213.36 289.21 211.94L292.5 210.39C277 196.8 269.35 190.47 265.5 187.55C261.65 184.63 254.67 179.92 250 177.08C245.32 174.24 239.76 171.37 237.64 170.71C235.51 170.04 233.38 168.94 232.89 168.25C232.4 167.56 232.22 166.32 232.5 165.5C232.79 164.64 234.18 164.01 235.75 164.02C237.26 164.03 240.52 164.97 243 166.09C245.47 167.22 250.2 169.78 253.5 171.77C256.8 173.77 262.87 177.89 267 180.92C271.12 183.96 277.87 189.33 282 192.87C286.12 196.41 291.75 201.49 294.5 204.18C298.34 207.93 299.93 208.88 301.35 208.28C303.04 207.57 303.14 206.66 302.49 197.5C301.88 188.79 301.36 186.73 298.48 181.5C296.66 178.2 292.55 172.91 289.34 169.74C286.13 166.57 282.15 163.06 280.5 161.94C278.85 160.81 274.8 158.51 271.5 156.81C268.2 155.11 263.02 152.86 260 151.82C256.97 150.77 252.47 149.46 250 148.89C247.52 148.33 241.67 147.21 237 146.39C231.45 145.43 223.63 145.02 214.48 145.21L200.46 145.5C194.68 139.69 192.11 138 191.02 138C189.93 138 188.25 139.18 187.28 140.62Z" />
		<path id="Path 13" class="shp1" d="M49.5 140.72C48.4 140.98 46.44 142.17 45.15 143.35C43.87 144.53 42.18 146.74 41.4 148.25C40.63 149.76 40 152.35 40 154C40 155.87 41.03 158.13 42.75 160.02C44.26 161.68 46.85 163.41 48.5 163.85C50.15 164.3 52.85 164.31 54.5 163.86C56.15 163.42 59.64 161.24 62.25 159.03C64.86 156.81 67.56 154.99 68.25 154.97C68.94 154.95 70.28 155.74 71.22 156.72C72.17 157.7 72.98 159.4 73.02 160.5C73.05 161.6 72.28 163.57 71.29 164.89C69.88 166.77 68.66 167.25 65.5 167.12C62.15 167 61.3 167.38 60.25 169.49C59.15 171.7 59.24 172.12 61 173C62.1 173.55 64.91 173.99 67.25 173.98C69.75 173.96 72.39 173.24 73.66 172.23C74.84 171.28 76.75 168.92 77.9 167C79.05 165.07 79.99 162.15 79.99 160.5C79.99 158.85 79.18 156.15 78.19 154.5C77.19 152.85 74.72 150.71 72.69 149.75C70.66 148.79 67.99 147.98 66.75 147.96C65.51 147.94 62.25 149.51 59.5 151.46C56.75 153.4 53.6 155.68 52.5 156.51C51.4 157.35 49.71 157.8 48.75 157.51C47.59 157.17 47 155.99 47 154C47 152.33 47.89 150.11 49 149C50.33 147.67 51.83 147.17 53.5 147.5C55.52 147.9 56.29 147.42 57.5 145C58.99 142.02 58.98 141.99 55.75 140.98C53.96 140.42 52.27 140.03 52 140.1C51.72 140.17 50.6 140.45 49.5 140.72Z" />
		<path id="Path 14" class="shp0" d="M355.65 148.08C355.4 148.67 354.73 151.93 354.15 155.33C353.57 158.72 352.6 164.65 351.98 168.5C351.07 174.15 351.11 175.64 352.18 176.23C352.91 176.64 354.85 176.95 356.5 176.92C359.1 176.87 360.37 175.67 366 167.98C369.57 163.1 372.63 158.07 372.79 156.8C372.95 155.54 372.39 153.49 371.54 152.25C370.69 151.01 368.42 149.32 366.5 148.5C364.57 147.67 361.45 147 359.55 147C357.65 147 355.9 147.48 355.65 148.08Z" />
		<path id="Path 15" class="shp1" d="M549.25 150C547.46 151.1 545.49 153.01 544.86 154.25C544.16 155.63 543.94 158.82 544.3 162.5C544.61 165.8 545.16 169.17 545.51 170C545.86 170.82 545.4 172.29 544.5 173.25C543.6 174.21 541.88 175.01 540.68 175.03C539.48 175.05 537.69 174.26 536.69 173.28C535.7 172.3 534.89 170.15 534.89 168.5C534.89 166.85 535.7 164.7 536.69 163.73C538.33 162.12 538.36 161.73 537 159.45C536.17 158.07 534.94 156.96 534.25 156.97C533.56 156.99 531.93 158.46 530.62 160.25C529.3 162.04 527.91 164.62 527.52 166C527.09 167.5 527.42 170.1 528.34 172.5C529.17 174.7 531.24 177.74 532.93 179.25C535.13 181.22 537.07 182 539.75 182C541.81 181.99 544.96 181.09 546.75 180C548.54 178.9 550.7 176.99 551.55 175.75C552.81 173.92 552.98 171.8 552.43 164.5C551.86 156.76 551.99 155.4 553.38 154.75C554.27 154.34 555.74 154.34 556.64 154.75C557.54 155.16 558.87 156.62 559.58 158C560.66 160.08 560.64 160.96 559.44 163.25C558.26 165.5 558.23 166.46 559.25 168.53C559.94 169.92 560.84 171.04 561.25 171.03C561.66 171.01 563.12 169.65 564.5 168C566.12 166.06 567 163.77 567 161.5C567 159.57 566.32 156.65 565.5 155C564.67 153.35 562.76 151.08 561.25 149.97C559.74 148.85 557.15 147.95 555.5 147.97C553.85 147.99 551.04 148.91 549.25 150Z" />
		<path id="Path 16" class="shp0" d="M388.5 151.02C385.75 152.14 382.15 154.1 380.5 155.38C378.85 156.65 375.08 160.13 372.13 163.1C369.18 166.07 364.23 172.32 361.13 176.99C358.03 181.66 352.46 191.56 348.74 198.99C345.02 206.42 341.98 213.06 341.99 213.75C342 214.64 342.51 214.72 343.75 214.05C344.71 213.52 351.8 207.62 359.5 200.93C367.2 194.24 374.51 188.15 375.75 187.39C376.99 186.62 378.67 186.22 379.5 186.5C380.32 186.77 381.02 187.79 381.04 188.75C381.06 189.76 376.22 194.74 369.63 200.5C363.34 206 358.26 210.57 358.34 210.65C358.43 210.73 363 210.37 368.5 209.85C376.61 209.09 379.73 208.3 385 205.66C388.57 203.87 394.2 200.64 397.5 198.47C400.8 196.3 407.39 190.7 412.15 186.02C419.09 179.19 421.04 176.61 422 173C422.66 170.52 422.95 166.7 422.64 164.5C422.25 161.78 421.02 159.46 418.79 157.26C416.98 155.48 412.91 153.12 409.75 152.01C406.59 150.91 401.64 149.77 398.75 149.49C394.86 149.11 392.21 149.51 388.5 151.02Z" />
		<path id="Path 17" class="shp1" d="M28.58 173.75L27.1 176.5C54.15 189.29 62.34 193.01 62.75 193.03C63.16 193.04 64.07 191.81 64.78 190.28C65.48 188.75 65.93 187.44 65.78 187.37C65.62 187.3 58.97 184.21 51 180.51C43.02 176.8 35.05 173.14 33.28 172.38C30.18 171.05 30 171.1 28.58 173.75ZM560.5 187C557.2 188.04 552.79 190.38 550.7 192.2C548.53 194.08 546.33 197.22 545.58 199.5C544.7 202.16 544.54 204.67 545.1 207C545.56 208.92 546.77 211.62 547.79 213C548.81 214.37 551.19 216.29 553.07 217.25C554.96 218.21 558.19 219 560.25 219C562.31 219 566.59 218.08 569.75 216.96C572.91 215.84 577.05 213.71 578.94 212.21C580.83 210.72 582.97 208.04 583.69 206.25C584.41 204.46 585 201.54 585 199.75C585.01 197.96 584.18 194.92 583.18 193C582.03 190.8 579.71 188.66 576.93 187.24C574.49 186 571.15 185.01 569.5 185.05C567.85 185.08 563.8 185.96 560.5 187Z" />
		<path id="Path 18" class="shp0" d="M192 187C189.52 187.43 185.47 188.59 183 189.58C180.52 190.56 175.57 193.11 172 195.24C168.42 197.36 161.79 202.57 157.26 206.8C150.82 212.82 149.01 215.1 149.01 217.25C149 219.01 149.72 220.36 151 221C152.1 221.55 154.35 222 156 222C157.65 222 162.71 220.76 167.25 219.25C174.77 216.74 176.74 216.51 189.5 216.6C197.2 216.66 208.45 217.44 214.5 218.34C220.55 219.25 228.09 220.89 231.25 221.99C234.41 223.1 237.67 224 238.5 224C239.32 224 241.91 222.52 244.25 220.7C246.59 218.89 249.17 217.14 250 216.83C251.15 216.38 250.58 215.28 247.5 212.05C245.3 209.74 240.57 205.93 237 203.57C233.42 201.21 227.57 197.7 224 195.76C220.42 193.82 214.8 191.11 211.5 189.74C208.2 188.37 203.47 187.02 201 186.73C198.52 186.45 194.47 186.57 192 187Z" />
		<path id="Path 19" class="shp1" d="M17.2 201L13 213C16.87 214.55 18.34 215.01 18.75 215.02C19.16 215.04 20.06 213.24 20.75 211.02C21.44 208.81 22.56 207 23.25 207C23.94 207 31.02 209.26 39 212.01C46.97 214.77 53.55 216.91 53.61 216.76C53.68 216.62 54.24 215.49 54.86 214.25C55.49 213.01 55.89 211.78 55.75 211.52C55.61 211.26 48.97 208.74 41 205.92C33.02 203.11 26.16 200.51 25.74 200.15C25.32 199.79 25.62 197.7 26.41 195.5C27.8 191.62 27.77 191.46 25.42 190.25C24.09 189.56 22.64 189 22.2 189C21.76 189 19.51 194.4 17.2 201Z" />
		<path id="Path 20" class="shp0" d="M563.81 192.93C562.32 193.35 559.78 194.44 558.15 195.34C556.53 196.25 554.47 198 553.59 199.24C552.71 200.48 551.99 202.96 551.99 204.75C552 207.11 552.75 208.57 554.75 210.1C556.92 211.76 558.46 212.1 562 211.71C564.47 211.44 568.32 210.27 570.53 209.12C572.75 207.97 575.34 206.01 576.29 204.76C577.24 203.52 578.01 201.49 578.01 200.25C578 199.01 577.66 197.26 577.25 196.36C576.84 195.46 575.26 194.11 573.75 193.36C572.24 192.61 569.99 192.04 568.75 192.09C567.51 192.13 565.29 192.51 563.81 192.93ZM405.5 198.68C404.4 198.99 401.02 200.88 398 202.87L392.5 206.5C418.52 206.93 426.28 206.81 426.54 206.52C426.79 206.24 426.55 205.1 426 204C425.45 202.9 423.54 201.26 421.75 200.37C419.96 199.47 416.02 198.59 413 198.42C409.97 198.25 406.6 198.37 405.5 198.68Z" />
		<path id="Path 21" class="shp1" d="M376 211.57C368.57 212.3 359.35 213.44 355.5 214.09C351.65 214.74 344 216.82 338.5 218.71C331.38 221.16 327.64 221.95 325.5 221.48C323.85 221.12 319.57 219.07 316 216.93C312.42 214.79 308.15 212.62 306.5 212.11C304.85 211.6 301.92 211.55 300 211.99C298.07 212.43 293.8 213.51 290.5 214.39C284.78 215.92 284.16 215.9 277 213.9C272.73 212.71 268.32 212.06 266.75 212.4C265.24 212.73 259.39 215.5 253.75 218.57C248.11 221.63 243.17 224.66 242.77 225.32C242.36 225.97 242.04 228.07 242.05 230C242.07 232.85 242.9 234.24 246.48 237.5C248.9 239.7 252.51 242.85 254.51 244.5C257.77 247.2 258.2 248.14 258.82 253.86C259.19 257.36 259.84 260.39 260.25 260.61C260.66 260.82 261.34 259.15 261.75 256.88C262.16 254.62 262.84 252.59 263.25 252.38C263.66 252.17 265.76 253.01 267.92 254.25L271.84 256.5C267.93 261.6 267.45 263.75 267.25 270.08C267.1 274.86 267.4 278 268 278C268.55 278 269.24 277.44 269.53 276.75C269.82 276.06 270.38 273.3 270.78 270.61C271.29 267.11 272.21 265.16 274 263.77C275.47 262.62 277.32 262.05 278.5 262.37C279.6 262.68 284.32 265.68 289 269.05C293.67 272.42 298.85 275.89 300.5 276.77C302.15 277.65 308 280.02 313.5 282.05C321.77 285.09 323.75 286.23 324.92 288.61C325.84 290.49 326.54 296.61 326.92 306.17C327.24 314.24 327.84 321.21 328.25 321.67C328.66 322.13 329.24 322.27 329.53 322C329.82 321.72 330.61 314.69 331.28 306.37C332.3 293.68 332.82 290.89 334.5 289.09C335.6 287.9 337.06 286.95 337.75 286.97C338.44 286.99 339.58 287.56 340.28 288.25C340.98 288.94 342.39 292.87 343.42 297C344.44 301.12 346.17 306.3 347.26 308.5C348.35 310.7 350.08 317.45 351.11 323.5C352.14 329.55 352.99 334.84 352.99 335.25C353 335.66 353.9 336 355 336C356.56 336 357.1 335.18 357.47 332.25C357.73 330.19 358.24 326.25 358.6 323.5C358.96 320.75 359.76 317.92 360.38 317.21C360.99 316.49 362.06 315.93 362.75 315.96C363.44 315.98 367.94 319.01 372.75 322.7C377.56 326.38 385.32 332.69 390 336.72C394.67 340.75 400.75 345.17 403.5 346.54C406.25 347.9 410.19 349.02 412.25 349.01C415.04 349 416.65 348.3 418.56 346.25C419.97 344.74 422.22 341.25 423.57 338.5C425.77 334.01 426.02 332.24 426.01 321.25L426 309C431.95 310.93 439.28 311.44 447.5 311.46C455.65 311.47 462.96 310.99 465 310.3C466.92 309.66 469.74 307.75 471.25 306.06C472.76 304.38 474.27 301.54 474.61 299.75C474.95 297.96 474.65 294.7 473.94 292.5C473.18 290.13 470.59 286.44 467.58 283.45C464.79 280.67 458.9 276.13 454.5 273.37L446.5 268.35C455.18 265.85 458.87 263.88 460.75 262.09C463.3 259.67 464 258.19 463.99 255.25C463.97 252.05 463.26 250.84 459.08 247L454.18 242.5C465.13 232.44 466.25 230.81 466.68 227.5C467.07 224.43 466.7 222.86 465.1 220.75C463.94 219.24 460.64 216.91 457.75 215.59C454.86 214.26 448.67 212.45 444 211.57C437.6 210.37 429.83 210.01 412.5 210.1C399.85 210.17 383.42 210.83 376 211.57Z" />
		<path id="Path 22" class="shp0" d="M389.5 215.62C387.3 215.83 378.97 216.68 371 217.5C363.02 218.32 353.8 219.69 350.5 220.54C347.2 221.39 342.81 223.19 340.75 224.54C338.69 225.89 336.99 227.56 336.97 228.25C336.96 228.94 337.17 229.72 337.45 230C337.73 230.27 341.01 229.66 344.73 228.62C349.62 227.27 356.22 226.61 368.5 226.25C378.53 225.96 389.81 226.24 396 226.94C401.77 227.59 411 229.02 416.5 230.12C422 231.21 431.22 233.69 437 235.61C445.85 238.55 447.89 238.92 450 237.95C451.37 237.32 454.25 235.38 456.39 233.65C458.52 231.92 460.66 229.71 461.14 228.75C461.61 227.79 461.79 226.21 461.53 225.25C461.28 224.29 459.37 222.53 457.28 221.34C455.2 220.15 450.8 218.4 447.5 217.46C442.73 216.1 436.56 215.7 417.5 215.49C404.3 215.35 391.7 215.41 389.5 215.62ZM300.11 220.5C299.5 221.32 299.22 222.45 299.5 223C299.77 223.55 301.57 224.67 303.5 225.5C305.42 226.32 308.8 227 311 227C313.67 227 315.17 226.5 315.5 225.5C315.77 224.67 314.87 222.87 313.5 221.5C311.52 219.52 309.99 219 306.11 219C302.93 219 300.84 219.52 300.11 220.5Z" />
		<path id="Path 23" class="shp1" d="M9.56 227.43C9.25 228.29 8.77 229.67 8.5 230.5C8.14 231.57 9.09 232.27 11.75 232.95C13.81 233.47 22.55 235.61 31.17 237.7C46.44 241.4 46.85 241.45 47.41 239.5C47.72 238.4 47.97 236.98 47.96 236.33C47.95 235.65 40.77 233.45 30.72 231.05C21.25 228.78 12.74 226.69 11.81 226.4C10.81 226.08 9.89 226.5 9.56 227.43Z" />
		<path id="Path 24" class="shp0" d="M260.04 229.79C259.23 230.73 258.56 233.25 258.54 235.4C258.51 237.69 259.02 239.44 259.75 239.65C260.44 239.84 261.67 238.65 262.5 237C263.32 235.35 263.89 232.8 263.75 231.33C263.61 229.86 263.05 228.53 262.5 228.37C261.95 228.21 260.84 228.85 260.04 229.79Z" />
		<path id="Path 25" class="shp1" d="M571.5 229.34C569.3 230.07 566.04 231.41 564.25 232.32C562.46 233.23 560.16 235.21 559.13 236.73C558.09 238.26 556.97 240.96 556.62 242.75C556.22 244.88 556.62 247.47 557.81 250.25C559.12 253.31 560.65 254.99 563.31 256.25C565.34 257.21 568.12 258 569.5 258C570.87 258 572.22 257.32 572.5 256.5C572.77 255.67 573 254.1 573 253C573 251.48 572.25 250.94 569.85 250.75C567.75 250.58 566 249.57 564.6 247.7C562.67 245.13 562.62 244.69 564 242.26C564.82 240.81 567.07 238.72 569 237.63C570.96 236.51 575.13 235.44 578.5 235.18C581.96 234.92 585.45 235.2 586.75 235.86C587.99 236.49 589.45 238.12 590 239.5C590.7 241.25 590.65 242.68 589.84 244.25C589.2 245.49 587.96 247.02 587.09 247.66C585.64 248.71 585.64 249.1 587.11 252.16L588.72 255.5C596.45 247.95 596.92 246.97 596.96 242.75C596.98 239.95 596.28 236.78 595.25 235.04C594.29 233.4 592.15 231.31 590.5 230.37C588.85 229.44 584.8 228.52 581.5 228.34C578.2 228.16 573.7 228.61 571.5 229.34Z" />
		<path id="Path 26" class="shp0" d="M182.5 230.46C173.15 231.19 161.9 232.28 157.5 232.89C153.1 233.49 146.35 234.44 142.5 235.01C138.65 235.58 132.8 236.71 129.5 237.54C126.2 238.36 120.69 240.38 117.25 242.02C112.96 244.06 110.21 246.18 108.5 248.75C107.1 250.84 105.99 253.94 106 255.75C106 257.54 106.62 260.24 107.38 261.75C108.14 263.26 110.61 266.19 112.88 268.25C115.15 270.31 118.91 272.96 121.25 274.14C123.59 275.32 127.97 277.14 131 278.18C134.02 279.22 139.65 280.74 143.5 281.56C147.35 282.38 156.12 283.32 163 283.66C169.87 284 180.45 283.91 186.5 283.47L197.5 282.66C209.12 274.87 216.32 270.67 221 268.29C225.67 265.92 231.88 263.2 234.78 262.24C237.68 261.28 240.05 260.16 240.03 259.75C240.01 259.34 239.21 258.73 238.25 258.41C237.29 258.08 234.02 257.15 231 256.33C227.39 255.36 222.23 254.96 216 255.17C206.78 255.49 206.49 255.43 206.25 253.25C206.07 251.65 206.73 250.71 208.5 250C209.87 249.45 214.94 249 219.75 248.99C224.86 248.98 230.79 249.65 234 250.58C237.02 251.47 242.54 253.5 246.25 255.09C250.36 256.87 253.62 257.71 254.58 257.25C255.76 256.69 256.08 255.36 255.83 252.06C255.52 247.94 255.11 247.35 250 243.83C246.97 241.74 243.37 238.68 242 237.02C240.05 234.68 237.74 233.55 231.5 231.91C226.15 230.51 219.52 229.7 211.5 229.47C204.9 229.28 191.85 229.73 182.5 230.46ZM360 232.08C356.42 232.63 351.47 234.07 349 235.28C345.46 237.03 344.5 238.03 344.5 240C344.5 242.25 344.85 242.47 348 242.19C349.92 242.02 356.9 242.62 363.5 243.51C370.1 244.41 380.22 246.05 386 247.14C391.77 248.24 400.32 250.21 405 251.52C409.67 252.83 416.42 255.01 420 256.37C423.57 257.73 429.2 260.05 432.5 261.53C438.23 264.11 438.79 264.17 445 263.03C448.57 262.37 453.19 260.96 455.25 259.91C457.38 258.82 459.01 257.25 459.03 256.25C459.05 255.29 458.15 253.26 457.03 251.75C455.89 250.2 451.39 247.28 446.75 245.06C442.21 242.9 434.45 239.98 429.5 238.58C424.55 237.17 415.1 235.1 408.5 233.97C401.58 232.78 390.15 231.74 381.5 231.51C373.25 231.28 363.57 231.54 360 232.08ZM347.5 247.93C344.98 248.42 344.46 249.02 344.25 251.75C344.05 254.41 344.77 255.77 348.26 259.25C350.6 261.59 357.01 265.93 362.51 268.9C368 271.87 378.12 277.67 385 281.78C391.87 285.9 402 291.9 407.5 295.12C413 298.34 421.32 302.21 426 303.73C433.6 306.21 435.93 306.5 448 306.47C457.83 306.45 462.31 306.05 464.48 304.97C466.12 304.16 468.04 302.26 468.73 300.75C469.73 298.59 469.75 297.19 468.82 294.25C468.16 292.14 465.64 288.59 463.07 286.14C460.56 283.74 454.67 279.48 450 276.69C445.32 273.89 437 269.49 431.5 266.91C426 264.34 416.55 260.64 410.5 258.71C404.45 256.77 395.22 254.27 390 253.15C384.77 252.03 375.1 250.42 368.5 249.56C361.9 248.7 355.15 247.85 353.5 247.67C351.85 247.49 349.15 247.61 347.5 247.93Z" />
		<path id="Path 27" class="shp1" d="M10.03 249.16C8.21 249.6 6.13 250.76 5.41 251.73C4.69 252.71 3.43 258 2.6 263.5C1.78 269 1.19 273.55 1.3 273.61C1.41 273.66 9.37 274.71 19 275.94C28.62 277.16 37.51 278.35 38.75 278.58C40.73 278.95 41 278.59 41 275.5L41 272C30.54 271.11 26.9 270.54 26.16 270.17C25.33 269.76 25.05 268.64 25.41 267.25C25.81 265.71 27.82 264.19 31.75 262.44C34.91 261.03 38.96 259.23 40.75 258.44C43.42 257.26 44.04 256.38 44.25 253.51C44.39 251.58 44.5 250 44.5 249.99C44.5 249.98 41.8 250.89 38.5 252.02C35.2 253.15 31.04 254.96 29.25 256.04C27.46 257.12 25.89 258.01 25.75 258.02C25.61 258.04 25.16 256.69 24.75 255.02C24.34 253.36 22.99 251.48 21.75 250.84C20.51 250.19 18.11 249.37 16.42 249.01C14.72 248.64 11.85 248.71 10.03 249.16Z" />
		<path id="Path 28" class="shp0" d="M12.75 255.76C11.96 255.95 11.06 256.65 10.77 257.31C10.47 257.96 9.91 260.52 9.52 263L8.81 267.5C16.32 268.72 18.55 268.95 18.61 268.79C18.68 268.63 19.12 266.2 19.61 263.39C20.31 259.26 20.19 258.08 18.99 257.29C18.17 256.75 16.76 256.11 15.85 255.86C14.94 255.6 13.55 255.56 12.75 255.76ZM332.5 260.67C332.04 261.03 331.74 262.16 331.83 263.17C331.92 264.17 334.14 266.82 336.75 269.05C339.36 271.28 344.87 274.83 349 276.95C353.12 279.07 359.2 281.93 362.5 283.31C365.8 284.7 373.9 287.45 380.5 289.42C387.1 291.4 392.63 292.9 392.78 292.76C392.94 292.62 388.89 289.98 383.78 286.91C378.68 283.83 369.16 278.43 362.62 274.91C356.09 271.38 348.55 266.59 345.87 264.25C341.96 260.84 340.25 260 337.17 260C335.06 260 332.96 260.3 332.5 260.67Z" />
		<path id="Path 29" class="shp1" d="M378.65 262.93C378.29 263.52 379.46 265.07 381.25 266.37C383.04 267.68 385.51 269.26 386.75 269.87C388.65 270.83 389.16 270.69 390 269C390.71 267.58 390.64 266.56 389.75 265.5C389.06 264.67 386.92 263.73 385 263.39C383.07 263.06 381.01 262.58 380.4 262.32C379.8 262.07 379.01 262.34 378.65 262.93Z" />
		<path id="Path 30" fill-rule="evenodd" class="shp0" d="M259.25 263.05C264.7 263 264.97 263.12 264.51 265.25C264.25 266.49 264.02 269.52 264.02 272C264.01 276.39 263.88 276.58 258.51 279.75C255.48 281.54 252.1 284.35 251 286C249.9 287.65 249.22 289.67 249.5 290.5C249.77 291.32 250.79 292.02 251.75 292.04C252.71 292.07 254.17 291.33 255 290.41C255.82 289.49 258.3 287.48 260.5 285.96C262.7 284.44 267.87 282.06 272 280.66C276.12 279.27 282.42 277.61 286 276.96C291.41 275.99 293 276.04 295.5 277.26C297.22 278.1 299.1 280.17 299.9 282.11C300.75 284.18 301.02 286.67 300.6 288.5C300.22 290.15 298.92 293.06 297.7 294.96C296.49 296.86 293.18 300.24 290.34 302.46C287.5 304.68 278.1 314.6 269.46 324.5C260.81 334.4 250.99 344.71 247.62 347.41C244.25 350.11 239.25 353.76 236.5 355.53C233.75 357.29 227.79 360.59 223.25 362.87C218.71 365.14 211.74 367.9 207.75 369C202.8 370.37 197.49 371 191 370.98C183.72 370.96 179.98 370.42 175 368.68C171.42 367.42 166.02 364.56 163 362.32C159.97 360.08 156.51 357.18 155.3 355.87C154.09 354.57 152.39 351.47 151.53 349C150.67 346.52 149.97 343.49 149.98 342.25C149.99 341.01 150.9 339.1 152 338C153.37 336.63 155.33 336 158.25 336C161.62 336.01 163.89 335.08 169.25 331.5C172.96 329.03 179.29 323.74 183.31 319.75C187.32 315.76 192.89 309.12 195.67 305C198.45 300.87 204.07 294.35 208.15 290.5C212.23 286.65 218.02 281.63 221.03 279.33C224.04 277.04 230.1 273.24 234.5 270.88C238.9 268.52 244.97 265.81 248 264.85C251.02 263.89 256.09 263.08 259.25 263.05ZM276.73 264.97C277.7 264.95 279.74 265.85 281.25 266.97C282.76 268.08 284 269.45 284 270C284 270.55 282.31 271.27 280.25 271.61C278.19 271.94 275.94 272.39 275.25 272.61C274.56 272.82 273.76 272.44 273.46 271.75C273.16 271.06 273.38 269.26 273.94 267.75C274.52 266.2 275.73 264.98 276.73 264.97Z" />
		<path id="Path 31" class="shp1" d="M579.5 269.17C569.6 270.23 561.39 271.19 561.26 271.3C561.13 271.41 561.28 272.85 561.59 274.5L562.16 277.5C588 274.88 596.74 274.09 598.25 274.06C600.71 274.01 601 273.64 601 270.5C601 267.79 600.61 267.03 599.25 267.12C598.29 267.19 589.4 268.11 579.5 269.17ZM398 272.2C397.23 272.86 396.68 274.1 396.79 274.95C396.89 275.8 399.34 277.96 402.24 279.75C405.13 281.54 409.07 283.26 411 283.59C413.91 284.08 414.92 283.73 417 281.54C418.99 279.44 419.28 278.56 418.4 277.2C417.8 276.27 414.65 274.51 411.4 273.31C408.16 272.1 404.13 271.09 402.45 271.06C400.77 271.03 398.77 271.54 398 272.2ZM422.85 281.97C421.71 283.53 420.82 285.3 420.89 285.9C420.95 286.51 422.46 287.73 424.25 288.63C426.04 289.52 430.54 290.87 434.25 291.63C437.96 292.38 441.71 292.66 442.58 292.25C443.54 291.79 444.03 290.56 443.83 289.1C443.65 287.78 442.37 285.85 441 284.81C439.62 283.77 435.45 282.07 431.72 281.03L424.93 279.14L422.85 281.97Z" />
		<path id="Path 32" class="shp0" d="M312.35 288.25C312.71 290.04 315.34 296.22 318.19 302C322.38 310.49 323.45 312.02 323.79 310C324.01 308.62 324.04 304.06 323.85 299.86C323.58 293.94 323.05 291.71 321.5 290.01C320.4 288.8 317.92 287.17 316 286.38C314.07 285.59 312.32 284.96 312.1 284.98C311.87 284.99 311.99 286.46 312.35 288.25Z" />
		<path id="Path 33" class="shp1" d="M563.16 289.39C563.01 292.86 563.18 293.05 567.51 294.25L572.02 295.5L572 309C563.21 310.95 563 311.17 563 314.5C563 316.42 563.34 318.01 563.75 318.01C564.16 318.02 566.52 317.37 569 316.57C571.47 315.78 580.14 313.07 588.25 310.56L603 306L603.23 299.17C573.99 289.51 565.01 286.5 564.41 286.25C563.75 285.97 563.25 287.22 563.16 289.39ZM23.46 291.01C22.33 291.49 20.87 292.81 20.21 293.94L19 296C14.72 292.83 11.95 291.93 10 291.93C8.05 291.93 5.28 292.83 3.75 293.97C1.57 295.58 0.89 297.04 0.48 301.02C0.19 303.78 0.19 308.73 0.48 312.02L1 318C10.69 317.3 19.46 317.08 26.75 317.05L40 317C40 302.27 39.55 296.87 39 295.5C38.45 294.12 36.65 292.32 35 291.5C33.35 290.67 30.54 290.03 28.75 290.06C26.96 290.1 24.58 290.52 23.46 291.01Z" />
		<path id="Path 34" fill-rule="evenodd" class="shp0" d="M384.75 293.53C385.44 293.79 386.9 294 388 294C389.94 294 389.94 294.08 388.25 296.61C387.29 298.05 384.7 300.42 382.5 301.88C380.3 303.34 376.35 305.2 373.73 306.02C369.33 307.38 368.82 307.36 367.23 305.75C365.7 304.2 365.67 303.85 367 302.66C367.82 301.92 370.75 300.48 373.5 299.45C376.25 298.42 379.62 296.56 381 295.32C382.37 294.07 384.06 293.27 384.75 293.53ZM336.55 294C336.8 294 339.25 298.61 342 304.25C346.25 312.96 347.24 316.15 348.62 325.5C349.51 331.55 350.74 337.08 351.37 337.79C351.99 338.51 353.74 339.07 355.25 339.04C356.95 339.02 358.57 338.14 359.51 336.75C360.34 335.51 361.01 333.04 361.01 331.25C361 329.46 361.56 327.72 362.25 327.37C363.01 326.99 366.37 329.84 370.77 334.62C374.76 338.95 380.54 345.65 383.61 349.5C386.68 353.35 390.45 358.75 391.99 361.5C393.79 364.72 395.54 366.59 396.9 366.75C398.05 366.89 399.26 366.44 399.58 365.75C399.89 365.06 399.16 362.47 397.96 360C396.75 357.52 394.17 353.25 392.22 350.5C390.28 347.75 386.17 342.67 383.09 339.21C380.02 335.74 377.84 332.93 378.25 332.96C378.66 332.98 382.94 336.16 387.75 340.03C392.56 343.9 399.2 348.41 402.5 350.05C406.09 351.84 410.05 353.03 412.35 353.02C415.4 353 416.93 352.27 419.7 349.5C421.62 347.57 423.49 345.99 423.85 345.97C424.21 345.96 427.02 349.45 430.11 353.72C433.2 358 437.56 365.32 439.81 370C442.06 374.67 444.91 382.1 446.14 386.5C447.89 392.72 448.4 397.21 448.45 406.7C448.48 415.45 448.13 419.26 447.2 420.2C446.48 420.91 442.88 421.67 439.2 421.88C434.37 422.16 430.54 421.68 425.5 420.17C421.65 419.01 415.8 416.46 412.5 414.5C409.2 412.54 403.97 409.04 400.87 406.72C397.78 404.4 392.34 399.8 388.78 396.5C385.22 393.2 378.37 386.22 373.56 381C368.74 375.77 360.69 366.1 355.67 359.5C350.64 352.9 343.02 342.32 330.92 324.5L332.39 320.5C333.2 318.3 334.13 311.84 334.45 306.13C334.78 300.43 335.28 295.37 335.57 294.88C335.86 294.4 336.3 294 336.55 294ZM27.95 296.98C29.35 296.97 31.07 297.54 31.77 298.23C32.49 298.95 33.03 301.87 33 310.5L23 311L22.8 305.2C22.66 301.26 23.05 299.02 24 298.2C24.77 297.54 26.55 296.99 27.95 296.98ZM402.06 297.99C403.13 298.55 404.22 299.45 404.5 300C404.77 300.55 404.38 302.24 403.62 303.75C402.86 305.26 400.5 308.1 398.37 310.06C396.24 312.02 391.91 314.61 388.75 315.81C385.59 317.01 382.66 318.02 382.25 318.04C381.84 318.07 380.94 317.51 380.25 316.79C379.56 316.08 379.21 314.82 379.47 314C379.74 313.17 382.1 311.83 384.73 311.01C387.35 310.19 391.07 308.37 393 306.96C394.92 305.55 397.31 302.73 398.31 300.69C399.86 297.52 400.4 297.13 402.06 297.99ZM11.75 298.03C12.44 298.01 13.67 298.67 14.5 299.5C15.43 300.43 16 302.89 16 311L7 311L6.83 305.55C6.69 301.09 7.01 299.91 8.58 299.08C9.64 298.52 11.06 298.05 11.75 298.03ZM580.41 298.25C581.01 298.5 583.97 299.53 592.5 302.35L586.5 304.16C583.2 305.16 580.16 305.98 579.75 305.99C579.34 305.99 579.07 304.15 579.16 301.89C579.25 299.35 579.73 297.96 580.41 298.25ZM311.22 299C311.79 299 314.51 304.06 317.28 310.25C321.83 320.43 322.25 321.98 321.69 326.5C321.35 329.25 320.78 342.3 320.43 355.5C319.91 374.92 320.04 379.86 321.14 381.36C322.08 382.64 323.2 383.03 324.75 382.61C326.98 382.01 327 381.83 327 363.75C326.99 353.71 327.28 341.9 327.63 337.5C328.21 330.19 328.39 329.67 329.71 331.5C330.51 332.6 332.42 335.97 333.95 339C335.49 342.02 340.7 350.35 354.33 370.5L353.7 387.5C353.31 398.05 352.33 408.11 351.12 414C350.05 419.22 347.96 426.87 346.47 431C344.99 435.12 342.28 441.2 340.46 444.5C338.63 447.8 334.3 453.59 330.82 457.36C327.34 461.14 323.15 465.06 321.5 466.08C319.85 467.1 317.37 467.97 316 468C314.62 468.04 312.37 467.22 311 466.18C309.62 465.14 307.09 461.64 305.36 458.4C303.64 455.15 301.49 449.57 300.6 446C299.28 440.72 298.96 433.78 298.94 409C298.92 392.22 299.39 370.85 299.97 361.5C300.55 352.15 301.73 339.77 302.57 334C303.42 328.22 305.17 320.12 306.46 316C307.75 311.87 309.12 306.36 309.5 303.75C309.89 301.14 310.66 299 311.22 299ZM412.61 304C412.82 304 414.16 304.56 415.57 305.25C417.64 306.26 418.02 306.98 417.51 309C417.16 310.37 415.78 313.19 414.44 315.25C413.1 317.31 410.54 320.11 408.75 321.46C406.96 322.82 402.91 324.84 399.75 325.96C395.08 327.62 393.71 327.77 392.44 326.75C391.58 326.06 391.01 324.91 391.19 324.19C391.36 323.47 394.2 321.8 397.5 320.47C401.21 318.98 404.93 316.52 407.25 314.03C409.31 311.81 411.27 308.65 411.61 307C411.94 305.35 412.39 304 412.61 304ZM303.5 305.38C303.56 305.57 300.38 315.8 296.42 328.11C289.37 350.06 289.2 350.85 287.6 368.5C286.7 378.4 285.96 394.37 285.94 404C285.92 417.3 285.53 422.7 284.3 426.5C283.41 429.25 281.71 433.07 280.52 435C279.32 436.92 277.03 439.1 275.42 439.84C273.17 440.88 271.64 440.93 268.75 440.09C266.28 439.37 263.62 437.37 260.98 434.25C258.19 430.95 256.74 428.13 256.23 425C255.83 422.52 255.52 411.5 255.55 400.5C255.58 386.3 256.07 377.89 257.26 371.5C258.17 366.55 259.79 359.8 260.86 356.5C261.94 353.2 264.29 347.35 266.1 343.5C267.9 339.65 271.61 332.67 274.33 328C277.05 323.32 280.91 317.51 282.89 315.07C284.88 312.64 288.19 309.49 290.27 308.07C292.34 306.66 294.21 305.72 294.43 306C294.65 306.27 290.7 314.7 285.66 324.73C277.48 341 276.66 343.12 278 344.5C278.82 345.36 280.17 345.84 281 345.57C281.82 345.3 286.32 337.75 290.98 328.79C295.65 319.83 300.35 310.82 301.42 308.77C302.5 306.71 303.44 305.19 303.5 305.38ZM471.39 313.93C472.52 314.8 473.93 315.95 474.54 316.5C475.14 317.05 477.34 319.75 479.43 322.5C481.51 325.25 484.12 329.52 485.23 332C486.34 334.47 487.85 339.42 488.6 343C489.35 346.57 489.97 352.09 489.98 355.25C490 359.93 489.54 361.56 487.5 364C485.97 365.84 483.35 367.42 480.75 368.09C477.6 368.9 474.94 368.88 470.5 367.99C467.2 367.33 462.92 365.98 461 365C459.07 364.01 452.55 359.73 446.5 355.5C440.45 351.27 433.59 346.27 431.25 344.4C427.27 341.21 427.07 340.83 428.15 338.25C428.78 336.74 429.56 330.77 430.5 314.5L444 314.75C452.46 314.91 459.71 314.52 463.42 313.69C468.61 312.53 469.6 312.56 471.39 313.93Z" />
		<path id="Path 35" class="shp1" d="M594.63 330.25C594.3 332.59 593.91 334.64 593.76 334.81C593.62 334.98 586.3 334.21 577.5 333.1C568.7 331.99 561.43 331.18 561.35 331.29C561.26 331.41 561.04 332.85 560.85 334.5L560.5 337.5C585.3 340.85 592.61 341.86 592.75 341.91C592.89 341.96 592.89 344.14 592.75 346.75C592.51 351.36 592.59 351.51 595.5 351.8L598.5 352.11C600.52 336.91 601.31 331.04 601.55 329.25C601.98 326.14 601.86 326 598.62 326C595.4 326 595.2 326.21 594.63 330.25ZM38.33 346.77C37.44 347.32 37.63 349.63 39.08 356C40.14 360.67 40.89 364.55 40.75 364.6C40.61 364.66 38.25 365.23 35.5 365.87C32.75 366.52 30.45 366.92 30.38 366.77C30.32 366.62 29.53 363.01 28.63 358.75C27.36 352.73 26.67 351.11 25.5 351.5C24.67 351.77 23.32 352 22.5 352C21.61 352 21.01 352.91 21.02 354.25C21.03 355.49 21.72 359.2 22.55 362.5C23.38 365.8 23.94 368.58 23.78 368.69C23.63 368.79 21.64 369.24 19.36 369.69L15.22 370.5C11.43 353.52 11.42 353.5 8.46 353.85C6.83 354.04 5.35 354.26 5.18 354.35C5 354.43 6.01 359.79 7.43 366.25C8.84 372.71 10.34 378 10.75 378.01C11.16 378.01 19.82 376.14 30 373.86C40.17 371.57 48.61 369.66 48.74 369.6C48.87 369.55 47.86 364.44 46.49 358.25C45.12 352.06 44 346.77 44 346.5C44 346.22 42.99 346.01 41.75 346.02C40.51 346.02 38.97 346.36 38.33 346.77ZM556.64 357.47C556.29 358.31 555.99 359.79 555.99 360.75C555.97 362.21 559.13 363.22 574.74 366.77C585.06 369.12 593.84 371.03 594.25 371.02C594.66 371.01 595.11 369.65 595.25 368C595.41 366.03 594.98 364.85 594 364.57C593.17 364.34 585.3 362.52 576.5 360.52C567.7 358.53 559.78 356.69 558.89 356.42C558.01 356.16 556.99 356.63 556.64 357.47ZM555.2 378.42C553.38 379.16 550.99 381.06 549.89 382.63C548.79 384.21 547.47 387.19 546.95 389.25C546.2 392.2 546.39 393.91 547.8 397.25C548.8 399.59 551.16 402.73 553.05 404.24C554.95 405.74 559.42 407.91 563 409.05C567.36 410.44 570.81 410.94 573.5 410.55C575.7 410.23 578.85 409.16 580.5 408.17C582.15 407.19 584.29 404.72 585.25 402.69C586.21 400.66 587 397.42 587 395.5C587 393.57 586.32 390.65 585.5 389C584.67 387.35 582.09 384.63 579.75 382.95C577.41 381.27 573.25 379.24 570.5 378.44C567.75 377.64 563.92 377 562 377.03C560.07 377.06 557.01 377.68 555.2 378.42ZM33.25 388.12L15 395C16.55 399.65 17.34 401 17.75 401C18.16 400.99 21.54 399.87 25.25 398.5C28.96 397.12 32.14 396.11 32.32 396.25C32.5 396.39 33.62 399.09 34.82 402.25L37 408C22.37 413.45 22.25 413.55 23.11 416.25C23.6 417.76 24.45 419 25 419C25.55 419 33.76 416.04 43.25 412.43C52.74 408.82 60.65 405.78 60.83 405.68C61.02 405.58 60.9 404.26 60.58 402.75C60.26 401.24 59.44 399.99 58.75 399.99C58.06 399.98 54.69 401.1 51.25 402.49C47.81 403.87 44.55 405 44 405C43.45 405 42.3 403.31 41.45 401.25C40.6 399.19 39.67 396.6 39.38 395.5C38.94 393.86 39.72 393.15 43.67 391.58C46.33 390.53 49.96 389.07 51.75 388.33C54.75 387.1 54.93 386.77 54.14 384C53.66 382.35 52.87 381.05 52.39 381.12C51.9 381.18 43.29 384.33 33.25 388.12Z" />
		<path id="Path 36" class="shp0" d="M556.65 385.97C554.4 387.69 553.82 388.91 553.88 391.82C553.93 394.29 554.7 396.2 556.22 397.63C557.48 398.81 559.85 400.45 561.5 401.29C563.15 402.12 566.3 403.12 568.5 403.49C571.1 403.94 573.51 403.72 575.38 402.84C576.97 402.1 578.65 400.71 579.13 399.75C579.61 398.79 580 396.99 580.01 395.75C580.01 394.51 579.34 392.49 578.51 391.25C577.68 390.01 575.09 388.05 572.75 386.89C570.41 385.73 566.47 384.56 564 384.29C560.42 383.9 558.92 384.24 556.65 385.97Z" />
		<path id="Path 37" class="shp1" d="M536.73 414.67C535.95 416.37 535.87 417.47 536.5 417.69C537.05 417.88 542 420.49 547.5 423.49L557.5 428.94L529 429L526.2 434.5C553.17 448.84 561.16 452.89 561.36 452.75C561.57 452.61 562.24 451.49 562.86 450.25C563.49 449.01 563.89 447.83 563.75 447.62C563.61 447.41 560.35 445.65 556.5 443.72C552.65 441.78 547.47 439.02 545 437.58L540.5 434.95L570.5 436.29C572.5 431.8 572.72 430.22 572.29 429.87C571.85 429.52 564.3 425.37 555.5 420.65C546.7 415.93 539.15 412.05 538.73 412.03C538.31 412.01 537.41 413.2 536.73 414.67ZM55.75 430.51C48.19 434.63 41.77 438 41.5 438C41.22 438 40.1 436.2 39 434C37.9 431.8 36.66 430.01 36.25 430.02C35.84 430.03 34.5 430.82 33.27 431.77L31.04 433.5L43.5 455.92C47.76 453.66 49 452.77 49 452.5C49 452.22 48.1 450.42 47 448.5C45.9 446.57 45.13 444.58 45.29 444.06C45.45 443.55 51.77 439.83 59.33 435.81C66.89 431.79 73.05 428.16 73.04 427.75C73.02 427.34 72.55 426.1 72 425C71.45 423.9 70.66 423 70.25 423.01C69.84 423.01 63.31 426.39 55.75 430.51ZM522 467.2C521.23 467.86 520.69 469.88 520.8 471.7C520.94 474.08 521.9 475.72 524.25 477.6C526.76 479.61 528.18 480.06 530.5 479.59C532.15 479.25 534.07 478.19 534.77 477.24C535.46 476.28 536.03 474.71 536.02 473.75C536.01 472.79 534.65 470.65 533 469C530.88 466.88 529.03 466 526.7 466C524.88 466 522.77 466.54 522 467.2ZM74.34 467.93C73.15 468.37 71.45 469.58 70.56 470.62C69.58 471.76 69.05 473.87 69.22 475.99C69.44 478.69 70.12 479.77 72.25 480.74C74.51 481.78 75.58 481.74 78.25 480.54C80.04 479.73 82.06 477.93 82.75 476.54C83.44 475.14 84.01 473.44 84.02 472.75C84.03 472.06 83.13 470.49 82.02 469.25C80.91 468.01 79.21 467.03 78.25 467.06C77.29 467.1 75.53 467.49 74.34 467.93ZM103.36 501.75C96.87 508.76 90.96 515.17 90.22 516C89.1 517.27 89.21 517.85 90.94 519.75L93 522L104.79 509.5L115 518L119.91 513.5L108.98 504.5L115.86 497.5L127.5 507.94L132 503C124.64 496.21 121.04 493.06 119.25 491.62C117.46 490.18 115.81 489 115.59 489C115.36 489 109.86 494.74 103.36 501.75ZM483 491.2C482.23 491.86 481.7 493.1 481.81 493.95C481.93 494.8 483.4 501.35 485.08 508.5C487.36 518.23 488.74 522.13 490.56 524L492.98 526.5C499.58 519.93 501.95 518.03 502.5 518.03C503.05 518.03 504.62 519.16 506 520.54L508.5 523.04L512.5 518.97C507.19 513.76 507.07 513.36 508.49 512C509.92 510.64 509.85 510.29 507.78 508.26C505.94 506.45 505.23 506.26 504.11 507.26C502.97 508.28 501.2 506.85 494.11 499.23C489.38 494.13 485.25 489.97 484.95 489.98C484.65 489.99 483.77 490.54 483 491.2Z" />
		<path id="Path 38" class="shp0" d="M491.51 510C491.89 512.47 492.5 514.85 492.85 515.27C493.21 515.7 494.4 515.12 495.5 513.98L497.5 511.92L490.82 505.5L491.51 510Z" />
		<path id="Path 39" class="shp1" d="M454.25 516.04L446 522L450.5 527.86C458.64 521.77 461.11 519.99 461.25 519.98C461.39 519.98 461.88 522.34 462.34 525.23C462.8 528.13 464.33 533.65 465.75 537.5C467.16 541.35 469.14 545.96 470.16 547.75C471.17 549.54 472.34 550.99 472.75 550.97C473.16 550.95 474.28 550.39 475.24 549.72C476.86 548.59 476.71 547.89 473.1 540C470.96 535.32 468.71 529.14 468.11 526.25C467.5 523.36 467 519.54 467.01 517.75C467.01 515.96 466.34 513.49 465.51 512.25C464.68 511.01 463.66 510.02 463.25 510.04C462.84 510.06 458.79 512.76 454.25 516.04ZM138 518.82C135.52 520.38 132.28 523.42 130.8 525.57C129.31 527.73 127.4 531.19 126.55 533.25C125.7 535.31 125 538.69 125 540.75C125.01 542.81 125.91 545.96 127 547.75C128.1 549.54 130.46 551.9 132.25 553C134.15 554.17 137.26 554.99 139.75 555C142.09 555 145.24 554.38 146.75 553.62C148.26 552.86 151.27 550.27 153.44 547.87C155.6 545.47 158.18 541.7 159.16 539.5C160.15 537.3 160.98 533.47 161.01 531C161.04 527.92 160.34 525.43 158.78 523.1C157.53 521.23 154.92 518.87 153 517.85C151.07 516.83 147.92 515.99 146 516C143.89 516 140.71 517.12 138 518.82Z" />
		<path id="Path 40" class="shp0" d="M141.25 525C139.46 526.1 136.65 529.36 135.01 532.25C133.36 535.14 132 538.62 131.97 540C131.95 541.37 132.85 543.74 133.97 545.25C135.51 547.34 136.84 548 139.5 548C142.04 548 144 547.11 146.63 544.75C148.62 542.96 151.1 539.81 152.13 537.75C153.16 535.69 154 532.65 154 531C154 529.13 153.06 527.06 151.5 525.5C150.12 524.12 147.99 523 146.75 523C145.51 523.01 143.04 523.91 141.25 525Z" />
		<path id="Path 41" class="shp1" d="M425 533.92C423.19 535.78 422.13 537.97 422.08 539.92C422.03 541.62 422.67 544.35 423.5 546C424.32 547.65 426.24 549.45 427.75 550.01C430.3 550.95 430.48 551.38 430.25 556.01C430.02 560.56 430.33 561.35 433.75 564.96C436.82 568.2 438.19 568.92 441.35 568.96C444.47 568.99 445.85 568.33 448.6 565.5C450.93 563.1 452 561.06 452 559C452 557.35 451.28 554.54 450.39 552.75C449.51 550.96 447.82 548.72 446.64 547.77C445.46 546.82 443.82 546.03 443 546.02C441.89 546.01 441.5 544.81 441.5 541.42C441.5 537.51 441.02 536.4 438.25 533.92C435.94 531.84 433.97 531 431.42 531C428.79 531 427.1 531.77 425 533.92ZM173.31 543.78C170.83 549.12 167.95 555.64 166.9 558.25C165.86 560.86 165 564.35 165 566C165 567.86 166.04 570.16 167.75 572.07C169.26 573.76 172.3 575.83 174.5 576.67C177.68 577.89 179.27 577.98 182.25 577.1C185.14 576.25 186.65 574.91 188.83 571.25C190.38 568.64 193.76 561.89 196.33 556.25C198.9 550.61 201.06 545.62 201.12 545.16C201.19 544.7 199.95 543.79 198.37 543.13C196.79 542.48 195.48 542.07 195.45 542.22C195.42 542.38 192.72 548.3 189.45 555.4C186.18 562.49 182.6 568.91 181.5 569.66C180.38 570.43 178.62 570.74 177.5 570.36C176.4 570 174.7 568.98 173.72 568.1C172.74 567.22 171.95 565.6 171.97 564.5C171.99 563.4 174.71 556.65 178.02 549.5C181.32 542.35 183.99 536.43 183.94 536.35C183.89 536.26 182.49 535.71 180.83 535.13L177.82 534.05L173.31 543.78Z" />
		<path id="Path 42" class="shp0" d="M429.11 538.5C428.5 539.32 428.22 541.12 428.5 542.5C428.8 543.99 429.91 545.25 431.25 545.62C432.49 545.96 434.06 545.96 434.75 545.62C435.44 545.28 436 543.87 436 542.5C436 541.12 435.32 539.32 434.5 538.5C433.67 537.67 432.38 537 431.61 537C430.85 537 429.72 537.67 429.11 538.5Z" />
		<path id="Path 43" class="shp1" d="M399.51 544.69C398.05 545.02 397.58 545.86 397.75 547.82C397.87 549.3 396.86 552.41 395.49 554.75C393.21 558.64 393.11 559.27 394.34 562.25L395.69 565.5C399.03 560.46 399.99 558.44 399.98 557.75C399.97 556.93 400.28 556.84 400.89 557.5C401.4 558.05 403.99 564.02 406.66 570.77C410.95 581.67 411.73 582.98 413.5 582.41C414.6 582.06 415.85 581.49 416.28 581.14C416.7 580.79 413.78 572.27 409.78 562.22C405.77 552.16 402.27 544 402 544.08C401.72 544.16 400.6 544.44 399.51 544.69ZM214.67 550.75C214.43 551.16 211.9 559.6 209.06 569.5C205.01 583.59 204.17 587.66 205.19 588.23C205.91 588.64 207.17 588.99 208 589.01C209.05 589.03 210.48 585.81 212.75 578.27C214.54 572.35 215.99 566.82 215.97 566C215.96 565.17 216.17 564.72 216.44 565C216.71 565.27 218.11 571.57 219.54 579C220.97 586.42 222.45 592.78 222.82 593.12C223.19 593.46 224.62 594.02 226 594.35C228.47 594.96 228.57 594.72 234 576.01L239.5 557.06C234.69 555.26 233.89 555.31 233.55 556.25C233.31 556.94 231.67 562.45 229.92 568.5C228.17 574.55 226.68 579.6 226.62 579.72C226.55 579.83 225.25 573.53 223.73 565.72C221.28 553.14 220.7 551.42 218.73 550.76C217.5 550.36 216.18 550.02 215.8 550.01C215.41 550.01 214.9 550.34 214.67 550.75Z" />
		<path id="Path 44" class="shp0" d="M436.1 552.94C435.34 554.35 435.31 555.78 436 557.5C436.55 558.87 438.01 560.68 439.25 561.51C440.63 562.44 442.19 562.73 443.29 562.26C444.27 561.84 445.29 560.82 445.55 560C445.82 559.17 445.24 556.92 444.27 555C443.02 552.53 441.72 551.41 439.85 551.19C437.98 550.97 436.86 551.49 436.1 552.94Z" />
		<path id="Path 45" class="shp1" d="M487.13 553.17C484.57 554.53 481.95 556.96 480.81 559C479.43 561.51 478.97 563.97 479.19 567.68C479.45 572.03 480.06 573.44 483 576.47C485.05 578.58 488.15 580.5 490.5 581.1C492.7 581.67 495.85 581.82 497.5 581.44C499.15 581.06 501.74 579.91 503.25 578.88C504.76 577.84 506.73 575.54 507.61 573.75C508.5 571.96 509.19 568.47 509.14 566C509.09 563.52 508.25 560.2 507.27 558.6C506.3 557.01 504.37 554.85 503 553.79C501.62 552.74 498.47 551.65 496 551.36C492.52 550.96 490.51 551.37 487.13 553.17Z" />
		<path id="Path 46" class="shp0" d="M488.45 554.48C486.77 555.25 484.41 557.37 483.2 559.19C481.86 561.22 481.01 564.05 481.01 566.5C481.01 568.7 481.82 571.85 482.81 573.5C483.81 575.15 486.28 577.29 488.31 578.25C490.34 579.21 493.24 579.99 494.75 579.97C496.26 579.95 499.07 579.04 501 577.95C502.92 576.86 505.29 574.62 506.25 572.98C507.21 571.34 508 568.31 508 566.25C507.99 564.19 507.18 561.15 506.19 559.5C505.19 557.85 502.72 555.71 500.69 554.75C498.66 553.79 495.76 553.02 494.25 553.04C492.74 553.06 490.13 553.71 488.45 554.48Z" />
		<path id="Path 47" class="shp1" d="M488.25 558.92C487.93 559.15 487.74 562.63 487.83 566.67C487.92 570.7 488.45 574.22 489 574.5C489.56 574.78 490.11 573.35 490.25 571.25C490.46 568.13 490.84 567.55 492.5 567.81C493.6 567.98 495.17 568.93 496 569.94C496.82 570.94 498.01 572.6 498.63 573.63C499.26 574.66 500.05 575.27 500.39 575C500.73 574.72 499.97 572.92 498.71 571C496.45 567.56 496.45 567.47 498.34 566C499.77 564.89 500.11 563.79 499.64 561.75C499.06 559.24 498.56 558.98 493.92 558.75C491.12 558.61 488.57 558.69 488.25 558.92ZM250.87 579.25C248.54 597.61 248.51 598.53 250.21 599.25C251.2 599.66 255.57 600.34 259.93 600.75L267.87 601.5C274.21 594.91 276 591.82 276.78 588.75C277.45 586.14 278 581.3 278 578C278 574.35 277.31 570.56 276.25 568.33C275.29 566.31 273.6 564.1 272.5 563.42C271.4 562.73 267.24 561.69 263.25 561.09C259.26 560.49 255.39 560 254.65 560C253.66 560 252.67 565 250.87 579.25ZM338 561.31C333.24 562.18 331.55 562.9 331.69 564C331.8 564.82 333.07 573.15 334.51 582.5C335.96 591.85 337.29 599.95 337.47 600.5C337.68 601.16 340.31 601.1 345.15 600.34C349.19 599.71 353.77 598.58 355.33 597.84C356.88 597.1 358.87 595.37 359.73 594C360.6 592.62 361.53 588.8 361.79 585.5C362.09 581.63 361.68 577.46 360.63 573.75C359.65 570.31 357.7 566.57 355.75 564.44C353.28 561.73 351.54 560.79 348.5 560.5C346.3 560.29 341.57 560.66 338 561.31Z" />
		<path id="Path 48" class="shp0" d="M491 563C491 565.43 491.43 566.01 493.25 566.04C494.49 566.07 496.06 565.39 496.75 564.54C497.75 563.31 497.75 562.69 496.75 561.46C496.06 560.61 494.49 559.93 493.25 559.96C491.43 559.99 491 560.57 491 563Z" />
		<path id="Path 49" class="shp2" d="M293.38 575.5C293.38 582.1 293.55 584.57 293.74 581C293.94 577.42 293.93 572.02 293.74 569C293.54 565.97 293.38 568.9 293.38 575.5Z" />
		<path id="Path 50" class="shp1" d="M293.96 583.5C293.98 594.22 294.34 603.16 294.75 603.36C295.16 603.55 300.79 603.44 307.25 603.11L319.01 602.5L319 597L300.5 596.5L300 586L317 586L317 579L300 579L300.5 570.5L318 570L318 564L293.93 564L293.96 583.5Z" />
		<path id="Path 51" class="shp0" d="M341.25 567.64C339.53 567.91 339.1 568.53 339.42 570.25C339.65 571.49 340.66 577.34 341.67 583.26C343.13 591.81 343.81 593.92 345 593.58C345.82 593.34 347.96 592.89 349.75 592.57C351.59 592.25 353.43 591.13 354 590C354.55 588.9 355 586.2 355 584C355 581.8 354.44 577.9 353.75 575.34C353 572.56 351.49 569.92 350 568.81C348.62 567.77 346.6 567.01 345.5 567.1C344.4 567.2 342.49 567.44 341.25 567.64ZM259.57 569.25C259.36 569.94 258.66 574.32 258.01 579C257.36 583.67 256.67 588.62 256.48 590C256.29 591.37 256.67 592.83 257.32 593.23C257.97 593.64 260.07 593.97 262 593.97C263.92 593.97 266.03 593.64 266.69 593.23C267.34 592.83 268.58 590.81 269.44 588.75C270.3 586.69 270.99 582.19 270.98 578.75C270.98 575.31 270.64 572 270.23 571.4C269.83 570.79 268.49 569.78 267.25 569.15C266.01 568.52 263.86 568 262.48 568C261.09 568 259.78 568.56 259.57 569.25Z" />
		<path id="Path 52" class="shp2" d="M304.5 603.73C306.7 603.94 310.52 603.94 313 603.73C315.47 603.52 313.67 603.35 309 603.35C304.32 603.35 302.3 603.52 304.5 603.73Z" />
	</g>
</svg>
