<svg version="1.2" baseProfile="tiny-ps" xmlns="http://www.w3.org/2000/svg" viewBox="0 0 400 400">
	<title>Background</title>
	<style>
		tspan { white-space:pre }
		.shp0 { fill: #ffffff } 
		.shp1 { fill: #2f3138 } 
		.shp2 { fill: #ffd159 } 
	</style>
	<g id="Background">
		<path id="Path 0" class="shp0" d="M0 1021L0 2042L2029 2042L2029 0L0 0L0 1021Z" />
		<path id="Path 1" class="shp1" d="M999.1 1.09C998.98 1.31 998.25 25.12 997.49 54C996.72 82.87 996.07 112.91 996.05 120.75L996 135C1006.46 135.74 1025.36 136.19 1044.75 136.48L1080 137L1079.5 114.5C1032.22 113.3 1018.47 112.85 1018.43 112.73C1018.39 112.6 1018.55 104.4 1018.8 94.5L1019.23 76.5L1075 78L1075.01 55.5C1046.71 54.33 1034.34 54 1029.25 54L1020 54L1020 24L1079.5 25.3C1080.86 6 1080.74 3.33 1079.77 2.77C1079.07 2.36 1073.77 2.02 1068 2.01C1062.22 2 1044.41 1.7 1028.41 1.34C1012.42 0.97 999.23 0.86 999.1 1.09ZM899.5 7.62C878.6 10.04 861.36 12.13 861.19 12.26C861.02 12.39 864.13 42.2 868.11 78.5C872.08 114.8 875.6 144.82 875.92 145.2C876.24 145.59 894.95 143.85 917.5 141.35C940.05 138.84 958.63 136.72 958.8 136.64C958.96 136.56 958.51 131.43 957.8 125.24C957.08 119.04 956.27 113.99 956 114.01C955.72 114.03 942 115.57 925.5 117.43C909 119.29 895.43 120.74 895.36 120.66C895.28 120.57 894.32 112.62 893.23 103C892.15 93.37 891.54 85.22 891.88 84.89C892.22 84.55 904.2 83.02 918.5 81.48C932.8 79.94 944.87 78.42 945.32 78.09C945.77 77.77 945.62 72.77 944.99 67C944.35 61.22 943.76 56.36 943.66 56.2C943.57 56.03 931.35 57.23 916.5 58.85C901.65 60.48 889.27 61.59 889 61.32C888.72 61.05 887.82 54.53 887 46.83C886.17 39.13 885.72 32.68 886 32.5C886.27 32.31 899.1 30.76 914.5 29.05C929.9 27.34 942.95 25.78 943.5 25.59C944.16 25.36 944.09 21.53 943.3 14.37C942.64 8.39 942.07 3.39 942.05 3.25C942.02 3.11 940.99 3.05 939.75 3.11C938.51 3.17 920.4 5.2 899.5 7.62ZM1126.78 74.25C1120.92 110.69 1116.21 140.61 1116.31 140.74C1116.42 140.87 1121.09 141.77 1126.71 142.74C1132.34 143.71 1137.27 144.12 1137.71 143.64C1138.14 143.17 1140.2 132.15 1142.27 119.14C1144.34 106.14 1146.29 95.27 1146.58 95C1146.88 94.72 1152.84 95.34 1159.81 96.38C1167.83 97.56 1175.81 98.1 1181.5 97.85C1188.88 97.51 1191.31 96.97 1195 94.86C1197.47 93.44 1201.24 90.3 1203.37 87.89C1205.51 85.48 1208.3 81.25 1209.58 78.5C1210.87 75.75 1212.66 70.57 1213.57 67C1214.77 62.28 1215.11 57.62 1214.82 50C1214.52 42.31 1213.87 38.29 1212.39 35C1211.28 32.52 1208.61 28.53 1206.44 26.13C1204.27 23.72 1200.81 20.91 1198.75 19.88C1196.69 18.85 1192.19 17.34 1188.75 16.54C1185.31 15.73 1172.71 13.48 1160.75 11.54C1148.79 9.59 1138.65 8 1138.22 8C1137.79 8 1132.65 37.81 1126.78 74.25ZM796.71 23.89C789.22 25.88 782.66 27.95 782.14 28.5C781.62 29.05 775.26 43.9 767.99 61.5C760.73 79.1 754.54 94.17 754.23 95C753.78 96.19 753.52 96.09 752.96 94.5C752.58 93.4 749.2 80.57 745.46 66C741.72 51.42 738.62 39.42 738.58 39.31C738.54 39.21 733.77 40.29 728 41.71C722.22 43.14 717.37 44.35 717.2 44.4C717.04 44.46 724.43 73.75 733.62 109.5C742.81 145.25 750.36 174.62 750.41 174.77C750.46 174.92 755.22 173.88 761 172.44C766.77 171.01 771.63 169.76 771.8 169.67C771.96 169.58 769.82 160.61 767.05 149.75L762 130C770.91 110.59 773.72 104.94 774 104.93C774.27 104.92 784.35 116.52 796.38 130.71C808.42 144.89 818.99 156.61 819.88 156.74C820.77 156.86 826.95 155.51 833.61 153.74C840.27 151.96 845.78 150.16 845.86 149.75C845.94 149.34 832.16 133.86 815.25 115.36C798.34 96.86 784.61 81.22 784.74 80.61C784.87 80 790.85 66.22 798.03 50C805.21 33.77 810.91 20.45 810.71 20.39C810.51 20.33 804.21 21.9 796.71 23.89Z" />
		<path id="Path 2" class="shp0" d="M1155.95 34.77C1155.95 35.17 1154.64 43.6 1153.04 53.5C1151.43 63.4 1150.2 71.56 1150.31 71.64C1150.41 71.72 1155.9 72.57 1162.5 73.52C1169.74 74.56 1176.09 74.96 1178.5 74.53C1181.28 74.03 1183.64 72.62 1186.25 69.91C1188.95 67.09 1190.32 64.53 1191.13 60.75C1191.75 57.86 1191.99 53.92 1191.66 52C1191.33 50.07 1190.02 46.92 1188.74 45C1187.47 43.07 1185.09 40.87 1183.46 40.1C1181.83 39.33 1176.45 37.91 1171.5 36.95C1166.55 35.99 1161.02 34.95 1159.22 34.63C1157.41 34.31 1155.94 34.38 1155.95 34.77Z" />
		<path id="Path 3" class="shp1" d="M1253.86 98.25C1240.55 141.78 1234.59 162.69 1235.36 163.09C1235.99 163.41 1253.93 169.03 1275.22 175.59C1296.52 182.14 1314.17 187.27 1314.43 187C1314.7 186.72 1316.3 181.77 1318 176C1319.7 170.22 1320.96 165.44 1320.8 165.37C1320.63 165.29 1307.55 161.24 1291.73 156.37C1273.97 150.89 1262.96 147.02 1262.98 146.25C1262.99 145.56 1265.09 138.14 1267.64 129.75C1270.2 121.36 1272.56 114.14 1272.89 113.69C1273.23 113.25 1284.07 116.09 1297 120C1309.92 123.91 1321.74 127.53 1323.25 128.05L1326 129C1331.19 112.34 1332.66 107.4 1332.6 107.28C1332.55 107.15 1320.8 103.43 1306.5 99C1292.2 94.57 1280.36 90.85 1280.18 90.72C1280 90.6 1281.27 85.77 1282.99 80C1284.71 74.22 1286.54 68.04 1287.06 66.25C1287.58 64.46 1288.56 63 1289.25 63C1289.94 63.01 1302.42 66.66 1317 71.12C1331.57 75.58 1343.91 79.29 1344.42 79.36C1344.92 79.44 1346.83 74.77 1348.66 69C1350.49 63.22 1351.66 58.23 1351.25 57.9C1350.84 57.58 1333.29 52.06 1312.25 45.65C1291.21 39.24 1273.89 34 1273.75 34C1273.61 34 1264.66 62.91 1253.86 98.25ZM623.92 79.11C603.34 87.77 586.61 95.34 586.75 95.93C586.89 96.52 598.33 124.11 612.17 157.25C626.01 190.39 637.6 217.88 637.92 218.35C638.24 218.81 655.6 212.1 676.5 203.43C697.4 194.75 714.81 187.4 715.18 187.08C715.55 186.76 714.05 182.22 711.83 177C709.61 171.77 707.51 167.16 707.15 166.74C706.79 166.33 693.99 171.28 678.71 177.74C660.82 185.31 650.61 189.14 650.04 188.5C649.56 187.95 646.46 180.97 643.16 173C639.86 165.02 637.01 157.91 636.83 157.2C636.61 156.34 645.04 152.3 661.5 145.38C675.25 139.59 686.63 134.78 686.78 134.68C686.93 134.58 685.13 129.87 682.78 124.22C680.43 118.56 678.27 113.93 678 113.94C677.72 113.94 670.52 116.84 662 120.37C653.47 123.9 642.11 128.64 636.75 130.9L627 135C618.41 113.69 616.05 107.43 616.21 107.34C616.37 107.25 627.97 102.37 642 96.49C656.02 90.61 668.06 85.62 668.75 85.4C669.44 85.18 670.01 84.44 670.02 83.75C670.03 83.06 668.34 78.39 666.27 73.36C664.2 68.33 662.24 64.02 661.92 63.78C661.6 63.54 644.5 70.44 623.92 79.11ZM1403.07 83.25C1402.05 85.59 1389.24 112.92 1374.61 144C1359.99 175.07 1348.13 200.55 1348.26 200.61C1348.39 200.66 1353 202.8 1358.5 205.36C1364 207.91 1368.53 209.89 1368.56 209.75C1368.59 209.61 1373.99 198.16 1380.56 184.31L1392.5 159.11C1401.02 163.51 1404.26 165.62 1405.19 166.64C1406.12 167.66 1407.53 170.07 1408.33 172C1409.13 173.92 1410.07 178.2 1410.43 181.5C1410.78 184.8 1411.73 197.4 1412.54 209.5C1413.34 221.6 1414.11 231.55 1414.25 231.62C1414.39 231.69 1419.79 234.28 1426.25 237.37L1438 243C1437.96 237.19 1437.53 226.27 1437.01 215C1436.49 203.72 1435.59 192.02 1435.01 189C1434.42 185.97 1432.9 181.25 1431.64 178.5L1429.34 173.5C1447.31 173.5 1449.12 173.18 1453.5 170.88C1456.25 169.44 1460.68 165.84 1463.34 162.88C1466.01 159.92 1469.44 154.8 1470.97 151.5C1472.51 148.2 1474.33 143.02 1475.02 140C1475.79 136.65 1476.03 132.05 1475.64 128.25C1475.29 124.81 1473.94 119.86 1472.64 117.25C1471.34 114.64 1468.75 111.21 1466.89 109.63C1465.02 108.05 1461.02 105.33 1458 103.57C1454.97 101.82 1442.26 95.57 1429.75 89.69C1417.24 83.81 1406.54 79 1405.97 79C1405.41 79 1404.1 80.91 1403.07 83.25Z" />
		<path id="Path 4" class="shp0" d="M1413.02 115.28C1411.48 118.7 1408.37 125.55 1406.1 130.5C1403.83 135.45 1402.09 139.56 1402.24 139.63C1402.38 139.7 1406.1 141.43 1410.5 143.48C1414.9 145.53 1421.65 148.52 1425.5 150.13C1429.35 151.73 1434.07 153.03 1436 153.02C1437.92 153 1440.96 152.09 1442.75 151C1444.66 149.82 1447.1 146.84 1448.66 143.75C1450.16 140.77 1451.35 136.69 1451.41 134.32C1451.47 131.57 1450.8 129.18 1449.44 127.32C1448.31 125.77 1443.36 122.39 1438.44 119.81C1433.52 117.23 1426.42 113.76 1422.66 112.09L1415.82 109.06L1413.02 115.28Z" />
		<path id="Path 5" class="shp1" d="M503.5 139.09C485.9 149.54 470.04 158.96 468.25 160.04L465 162C517.93 251.51 533.34 277.61 533.4 277.75C533.45 277.89 549.7 268.49 569.5 256.86C589.3 245.22 605.61 235.55 605.75 235.35C605.89 235.16 603.41 230.7 600.25 225.44C596.02 218.41 594.1 216.05 593 216.53C592.17 216.88 581.15 223.28 568.5 230.75C555.85 238.22 544.6 244.93 543.5 245.65C541.62 246.9 540.97 246.08 532.5 231.79C527.55 223.43 523.5 216.25 523.5 215.82C523.5 215.39 533.85 208.94 546.5 201.49C559.15 194.04 569.5 187.39 569.5 186.72C569.5 186.05 567.25 181.57 564.5 176.78C561.75 171.98 559.27 168.03 559 167.99C558.72 167.96 547.81 174.25 534.75 181.97L511 196C501.46 179.34 498.08 173.6 497.32 172.5C496.01 170.6 497.2 169.75 521.1 155.5C534.94 147.25 546.43 140.16 546.63 139.75C546.83 139.34 544.59 134.72 541.64 129.5C538.69 124.27 536.11 120.02 535.89 120.05C535.68 120.08 521.1 128.65 503.5 139.09ZM1537 158.32C1535.07 159 1531.47 160.73 1529 162.15C1526.52 163.58 1523.13 166.27 1521.47 168.12C1519.8 169.98 1517.24 173.52 1515.79 176C1514.34 178.47 1512.39 183.2 1511.45 186.5C1510.22 190.8 1509.9 194.48 1510.3 199.5C1510.7 204.48 1511.73 208.23 1513.88 212.5C1515.54 215.8 1521.24 223.9 1526.55 230.5C1531.86 237.1 1536.83 243.74 1537.6 245.25C1538.37 246.76 1539.01 249.69 1539.03 251.75C1539.04 254.03 1538.16 256.84 1536.78 258.91C1535.53 260.78 1533.37 263.16 1532 264.19C1530.62 265.22 1527.7 266.46 1525.5 266.95C1522.88 267.53 1519.93 267.43 1516.95 266.67C1514.45 266.02 1510.46 264.15 1508.08 262.5C1505.7 260.85 1502.57 257.47 1501.13 255C1498.99 251.34 1498.51 249.29 1498.57 244C1498.62 239.65 1499.33 236.01 1500.72 233L1502.8 228.5L1483 218C1480.06 223.81 1478.2 228.87 1476.97 233C1475.13 239.13 1474.8 242.14 1475.18 249.5C1475.54 256.7 1476.17 259.55 1478.32 263.75C1479.79 266.64 1482.69 270.86 1484.75 273.12C1486.81 275.39 1491.87 279.45 1496 282.14C1500.12 284.83 1506.42 287.98 1510 289.14C1514.95 290.75 1518.3 291.17 1524.02 290.88C1529.92 290.58 1532.94 289.82 1538.02 287.34C1542.28 285.27 1546.39 282.17 1550 278.31C1553.02 275.08 1556.94 269.52 1558.69 265.97C1560.44 262.41 1562.34 257.47 1562.91 255C1563.48 252.52 1563.96 248.92 1563.98 247C1564 245.07 1563.44 241.25 1562.74 238.5C1562.05 235.75 1559.91 230.88 1557.99 227.68C1556.07 224.47 1550.96 217.5 1546.64 212.18C1542.31 206.85 1537.71 200.7 1536.41 198.5C1535.11 196.3 1534.04 192.92 1534.03 191C1534.02 189.07 1534.91 186.04 1536 184.25C1537.43 181.93 1539.22 180.67 1542.25 179.83C1545.76 178.87 1547.37 178.95 1551.5 180.29C1554.25 181.19 1558.47 183.63 1560.89 185.71C1563.3 187.79 1565.89 190.74 1566.64 192.25C1567.39 193.76 1568 196.8 1568 199C1568 201.2 1567.21 204.8 1566.25 207.01C1565.29 209.22 1564.72 211.17 1565 211.35C1565.27 211.53 1569.67 214.11 1574.77 217.09C1579.86 220.06 1584.2 222.27 1584.4 222C1584.6 221.72 1585.88 219.25 1587.24 216.5C1588.61 213.75 1590.3 209.02 1591 206C1591.78 202.64 1592.02 198.17 1591.63 194.5C1591.27 191.2 1589.89 186.25 1588.55 183.5C1587.2 180.75 1584.59 176.7 1582.73 174.5C1580.88 172.3 1576.24 168.42 1572.43 165.88C1568.62 163.34 1562.91 160.3 1559.75 159.13C1555.9 157.71 1551.77 157.01 1547.25 157.04C1543.54 157.07 1538.92 157.64 1537 158.32Z" />
		<path id="Path 6" class="shp2" d="M656.27 401.24L299.03 607.5L299.5 1434.32C547.5 1577.58 619.95 1619.37 620.5 1619.61C621.05 1619.84 624.05 1611.82 627.16 1601.77C630.27 1591.72 635.77 1573.6 639.36 1561.5C642.96 1549.4 650.03 1527.35 655.06 1512.5C660.1 1497.65 667.5 1476.95 671.51 1466.5C675.52 1456.05 681.51 1440.97 684.83 1433C688.14 1425.02 694.08 1411.3 698.02 1402.5C701.96 1393.7 710.47 1375.92 716.95 1363C723.42 1350.07 733.11 1331.85 738.48 1322.5C743.85 1313.15 751.62 1300.1 755.74 1293.5C759.87 1286.9 767.64 1275.2 773 1267.5C778.37 1259.8 786.31 1248.93 790.63 1243.34C794.96 1237.75 800.15 1231.9 802.16 1230.34C804.18 1228.78 811.6 1220.98 818.66 1213C825.72 1205.03 840.72 1189.16 852 1177.74C863.27 1166.32 872.62 1157.1 872.77 1157.24C872.92 1157.38 871.48 1162.9 869.58 1169.5C867.67 1176.1 864.92 1186.22 863.47 1192C862.03 1197.77 859.79 1207.67 858.51 1214C857.22 1220.32 855.41 1230.67 854.49 1237C853.45 1244.05 851.92 1250.24 850.53 1253C849.28 1255.47 844.69 1262 840.32 1267.5C835.95 1273 828.43 1282.22 823.61 1288C818.78 1293.77 811.78 1303 808.05 1308.5C804.32 1314 797.08 1325.47 791.95 1334C786.83 1342.52 778.03 1358.5 772.39 1369.5C766.76 1380.5 756.44 1402.1 749.46 1417.5C742.48 1432.9 735.2 1449.1 733.28 1453.5C731.37 1457.9 727.1 1468.25 723.79 1476.5C720.49 1484.75 715.19 1498.7 712.01 1507.5C708.84 1516.3 703 1533.4 699.04 1545.5C695.07 1557.6 688.98 1577.4 685.49 1589.5C682 1601.6 677.08 1619.82 674.56 1630C672.03 1640.17 670.08 1648.53 670.23 1648.57C670.38 1648.61 747.9 1693.3 842.5 1747.87C991.21 1833.66 1014.77 1846.95 1016.5 1846C1017.6 1845.4 1178.47 1752.54 1374 1639.65L1729.5 1434.39L1729.99 607.5C1177.04 288.3 1015.82 195.48 1015 195.3C1014.17 195.12 852.74 287.79 656.27 401.24Z" />
		<path id="Path 7" class="shp1" d="M402 210.26C400.07 210.97 396.25 212.88 393.5 214.49C390.75 216.1 379.27 224.8 368 233.82C356.72 242.84 347.53 250.73 347.57 251.36C347.62 251.99 365.79 275.22 387.96 303C410.13 330.77 428.86 354.17 429.58 355C430.72 356.3 433.83 354.13 452.7 338.88C464.69 329.19 477.01 318.61 480.09 315.38C483.16 312.15 486.31 307.7 487.08 305.5C487.85 303.3 488.48 297.9 488.47 293.5C488.45 286.24 488.08 284.76 484.52 277.5C481.96 272.28 478.66 267.57 475.04 263.95C471.13 260.03 467.74 257.72 463.5 256.1C458.68 254.26 456 253.87 449.89 254.15L442.29 254.5C443.85 249.85 444.08 245.8 443.81 242.5C443.54 239.17 442.2 234.05 440.8 231C439.41 227.97 436.3 223.32 433.89 220.64C431.27 217.75 427.08 214.62 423.5 212.89C419.82 211.12 415.18 209.8 411.5 209.48C407.79 209.16 404.16 209.46 402 210.26Z" />
		<path id="Path 8" class="shp0" d="M404.26 235.2C401.93 236.46 395.3 241.21 389.51 245.75C383.73 250.29 379 254.34 379 254.75C379 255.16 383.05 260.56 388 266.75C392.95 272.94 397.34 277.99 397.75 277.98C398.16 277.97 403.67 273.7 410 268.49C416.32 263.28 422.29 257.55 423.25 255.76C424.22 253.97 425.01 251.26 425 249.75C425 248.24 424.16 245.31 423.14 243.25C422.11 241.19 419.86 238.26 418.14 236.75C416.41 235.24 414.44 233.99 413.75 233.99C413.06 233.98 411.6 233.73 410.5 233.44C409.39 233.14 406.63 233.92 404.26 235.2ZM440.5 275.32C438.85 276.06 435.68 277.98 433.46 279.58C431.24 281.19 425.5 285.65 420.72 289.5C415.46 293.72 412.34 296.9 412.84 297.5C413.3 298.05 418.25 304.24 423.84 311.25L434 324C452.99 308.7 459.62 303.03 461 301.53C462.86 299.51 463.57 297.5 463.79 293.66C464.01 289.72 463.54 287.58 461.79 284.6C460.53 282.45 457.92 279.39 456 277.8C453.66 275.86 451.01 274.75 448 274.44C445.37 274.16 442.25 274.53 440.5 275.32Z" />
		<path id="Path 9" class="shp1" d="M1658.28 321.29L1596.06 353.5L1613.01 370.5C1625.79 363.55 1632.08 360.18 1635.23 358.52L1640.97 355.5L1672.05 386.5L1657.5 414.93L1674.81 432.5C1723.39 335.62 1737.64 306.82 1737.82 306C1738 305.17 1734.62 301.01 1730.32 296.74C1726.02 292.48 1722.05 289.01 1721.5 289.04C1720.95 289.06 1692.5 303.58 1658.28 321.29Z" />
		<path id="Path 10" class="shp0" d="M1684.5 332.03C1673.5 338.03 1664.05 343.13 1663.5 343.36C1662.95 343.59 1667 348.33 1672.5 353.89C1678 359.46 1682.72 364.02 1683 364.02C1683.27 364.03 1688.45 354.76 1694.5 343.43C1700.55 332.1 1705.55 322.42 1705.62 321.91C1705.68 321.41 1705.46 321.03 1705.12 321.06C1704.78 321.09 1695.5 326.03 1684.5 332.03Z" />
		<path id="Path 11" class="shp1" d="M248 350.31C244.42 354.81 241.5 358.78 241.5 359.11C241.5 359.45 250.5 367.05 261.5 375.99C272.5 384.94 281.39 392.66 281.25 393.13C281.11 393.61 275.15 401.2 268 410C260.85 418.8 254.77 426 254.5 426C254.22 426 246.69 420.06 237.75 412.81C228.81 405.55 219.7 398.13 217.5 396.32L213.5 393.03C203.42 405.4 200.41 409.56 200.3 410.25C200.19 410.94 222.58 429.72 250.07 452C277.55 474.27 300.99 493.17 302.15 494C304.11 495.39 304.42 495.29 306.65 492.5C307.96 490.85 311.05 486.91 313.52 483.75L318 478C282.06 448.87 273.18 441 273.49 440.25C273.77 439.56 279.74 432.01 286.75 423.46C293.76 414.91 299.84 407.94 300.25 407.96C300.66 407.98 310.56 415.79 322.25 425.31C333.94 434.83 344.06 442.93 344.75 443.31C345.55 443.75 348.34 441.12 352.5 436C356.07 431.6 359 427.55 359 427C359 426.45 335.82 407.21 307.49 384.25C279.16 361.29 255.65 342.41 255.24 342.31C254.83 342.2 251.57 345.8 248 350.31ZM1782.5 387.75C1779.75 388.74 1775.47 390.92 1773 392.61C1770.52 394.3 1766.87 397.66 1764.87 400.09C1762.87 402.52 1760.29 406.41 1759.12 408.75C1757.95 411.09 1756.6 415.59 1756.1 418.75C1755.59 422.03 1755.58 426.87 1756.07 430C1756.54 433.02 1759.19 442.25 1761.97 450.5C1764.75 458.75 1767.03 467.3 1767.04 469.5C1767.05 472.03 1766.22 474.75 1764.78 476.9C1763.53 478.77 1760.92 481.13 1759 482.15C1757.07 483.17 1753.59 484.01 1751.25 484C1748.91 484 1745.54 483.39 1743.75 482.64C1741.96 481.9 1738.44 479.08 1735.92 476.39C1733.4 473.7 1730.76 469.7 1730.04 467.5C1729.31 465.27 1728.96 461.5 1729.25 459C1729.54 456.52 1730.5 453.04 1731.39 451.25C1732.27 449.46 1734.69 446.19 1736.75 443.97L1740.5 439.94C1728.87 427.97 1725.27 424.36 1725 424.19C1724.72 424.02 1721.88 426.72 1718.68 430.19C1715.48 433.66 1711.28 439.65 1709.34 443.5C1706.58 449 1705.71 452.11 1705.28 458C1704.9 463.3 1705.21 467.11 1706.34 471C1707.22 474.02 1709.64 479.38 1711.72 482.9C1713.8 486.42 1717.97 491.83 1721 494.94C1724.29 498.32 1729.11 501.88 1733 503.81C1736.57 505.58 1741.75 507.31 1744.5 507.66C1747.25 508.01 1752.42 507.73 1756 507.06C1759.57 506.38 1765.18 504.4 1768.46 502.66C1771.74 500.92 1776.91 497.2 1779.96 494.4C1783.03 491.57 1787.06 486.45 1789 482.9C1792.37 476.73 1792.5 476.11 1792.5 466C1792.5 455.86 1792.32 454.97 1787.07 440C1783.74 430.5 1781.61 422.74 1781.57 419.96C1781.53 417.23 1782.2 414.34 1783.25 412.71C1784.21 411.22 1786.57 409.32 1788.5 408.5C1791.34 407.28 1792.81 407.22 1796.25 408.13C1799.07 408.89 1802.02 410.82 1805.03 413.88C1807.76 416.66 1810.27 420.49 1811.34 423.5C1812.75 427.49 1812.9 429.31 1812.09 432.5C1811.54 434.7 1809.52 438.3 1807.61 440.5L1804.14 444.5C1814.88 457.29 1818.56 460.99 1819.25 460.98C1819.94 460.97 1822.67 458.61 1825.33 455.73C1827.99 452.85 1831.36 448.02 1832.83 445C1835.16 440.21 1835.5 438.26 1835.5 429.91C1835.5 420.7 1835.34 420 1831.5 412.41C1828.82 407.11 1825.35 402.33 1821 397.93C1817.42 394.31 1812.25 390.26 1809.5 388.93C1805.64 387.06 1802.56 386.45 1796 386.24C1789.82 386.04 1786.14 386.46 1782.5 387.75Z" />
		<path id="Path 12" class="shp0" d="M1108 398.72C1106.07 398.93 1099.32 400.26 1093 401.66C1086.67 403.07 1077.9 405.51 1073.5 407.08C1069.1 408.66 1062.8 411.68 1059.5 413.79C1056.2 415.9 1051.13 420.3 1048.23 423.56C1045.33 426.83 1041.42 432.65 1039.53 436.5C1037.65 440.35 1034.93 447.55 1033.49 452.5C1032.05 457.45 1029.58 469.15 1028 478.5C1026.42 487.85 1024.43 501.8 1023.59 509.5C1022.75 517.2 1021.54 532.05 1020.9 542.5C1020.19 554.2 1019.96 574.37 1020.3 595C1020.6 613.42 1021.81 642 1022.98 658.5C1024.14 675 1025.41 691.57 1025.8 695.31L1026.5 702.13C1046.65 710.2 1055.2 714.04 1058.5 715.88C1061.8 717.72 1066.86 720.97 1069.75 723.11L1075 727L1073.7 557.5C1077.81 552.46 1080.24 550.74 1081.75 550.43C1083.28 550.11 1086.16 550.56 1088.25 551.43C1090.77 552.48 1092.45 554.07 1093.38 556.25C1094.49 558.86 1094.89 573.57 1095.39 631.5C1095.74 671.1 1096.36 710.87 1096.76 719.88L1097.5 736.27C1113.77 735.45 1120.52 734.71 1123 734.09L1127.5 732.97C1134.32 714.78 1138.73 702.3 1141.69 693.5C1144.66 684.7 1149.58 668.95 1152.62 658.5C1155.65 648.05 1159.92 632.3 1162.09 623.5C1164.27 614.7 1167.82 598.72 1169.98 588C1172.14 577.27 1175.09 560.85 1176.53 551.5C1177.96 542.15 1180.04 526.17 1181.14 516C1182.44 503.99 1183.35 486.8 1183.73 467L1184.32 436.5C1179.03 426.41 1174.29 420.14 1170.34 416C1166.4 411.87 1160.78 407.05 1157.84 405.28C1154.9 403.5 1148.9 401.13 1144.5 400.01C1138.28 398.43 1133.72 398.02 1124 398.15C1117.12 398.24 1109.92 398.5 1108 398.72ZM941 456.48C936.32 457.26 927.55 459.31 921.5 461.03C915.45 462.75 905.32 466.18 899 468.67C892.67 471.15 880.52 476.56 872 480.7L856.5 488.22C869.67 491.81 877.55 494.27 882.5 496C887.45 497.74 898.25 502.41 906.5 506.39C914.75 510.36 926 516.24 931.5 519.46C937 522.68 945.77 528.02 951 531.31C956.22 534.61 966.46 541.51 973.75 546.65C981.04 551.79 987.22 556 987.5 556C987.77 556 989.31 551.84 990.9 546.75C992.5 541.66 995.01 532.1 996.48 525.5C997.95 518.9 999.41 509 999.72 503.5C1000.06 497.45 999.8 490.73 999.06 486.5C998.39 482.65 996.79 477.25 995.51 474.5C994.16 471.59 990.95 467.49 987.84 464.69C984.78 461.93 980.15 459 977 457.82C973.03 456.34 968.44 455.67 960.5 455.42C953.94 455.21 946.07 455.64 941 456.48ZM637.04 464.33C635.13 465.03 632.77 466.7 631.79 468.05C630.81 469.4 628.82 473.65 627.38 477.5C625.5 482.51 624.61 487.2 624.23 494C623.91 499.7 624.2 506.1 624.94 510C625.62 513.57 627.58 519.87 629.29 524C631 528.12 635.56 536.22 639.42 542C644.12 549.03 650.42 556.48 658.47 564.54C665.09 571.17 675.22 580.11 681 584.42C686.77 588.74 694.2 593.62 697.5 595.28C700.8 596.93 712.39 603.4 723.25 609.64C734.11 615.89 754.81 628.26 769.25 637.14C783.69 646.02 806.3 660.12 819.5 668.49C832.7 676.86 852.05 689.24 862.5 696L881.5 708.31C897 706.37 903.52 706.1 906 706.47C908.47 706.83 916.57 708.66 924 710.52C931.42 712.39 941.55 714.62 946.5 715.47C951.45 716.32 958.31 717.02 961.75 717.01C966.45 717 970.02 716.19 976.14 713.75L984.29 710.5C968.18 695.13 956.3 684.3 947.5 676.52C938.7 668.73 925.65 657.5 918.5 651.56C911.35 645.62 897.62 634.85 888 627.62C878.37 620.4 864.65 610.61 857.5 605.87C850.35 601.14 838.65 593.96 831.5 589.92C824.35 585.88 813.55 580.48 807.5 577.92C801.45 575.36 793.91 572.54 790.75 571.64C786.82 570.52 784.36 569.13 782.97 567.25C781.75 565.6 780.94 563 780.97 560.75C780.99 558.25 781.84 556 783.5 554C784.87 552.35 787.24 550.74 788.75 550.43C790.53 550.06 795.39 551.14 802.5 553.5C808.55 555.5 818.67 559.6 825 562.62C831.32 565.63 843.25 572.14 851.5 577.09C859.75 582.03 872.57 590.33 880 595.54C887.42 600.74 900.7 610.59 909.5 617.41C918.3 624.23 932.25 635.52 940.5 642.49C948.75 649.46 963.6 662.5 973.5 671.47C983.4 680.44 994.31 690.75 997.75 694.39C1001.19 698.02 1004 701.67 1004 702.5C1004 703.53 1004.71 703.85 1006.25 703.53C1007.49 703.27 1011.2 702.76 1014.5 702.41L1020.5 701.76C1015.31 636.81 1014.78 632.77 1012.31 626C1010.81 621.87 1006.86 613.99 1003.54 608.48C1000.22 602.97 995.27 595.32 992.54 591.48C989.81 587.64 983.06 579.84 977.54 574.13C972.02 568.43 963 560.14 957.5 555.7C952 551.26 942.77 544.53 937 540.75C931.22 536.97 918.85 530.11 909.5 525.51C900.15 520.9 887.1 515.13 880.5 512.69C873.9 510.24 862.2 506.43 854.5 504.23C846.8 502.02 834.65 499.04 827.5 497.61C820.35 496.19 805.72 493.63 795 491.94C780.81 489.71 771.55 488.82 761 488.68C753.02 488.58 731.42 488.9 713 489.38C689.88 489.99 678.26 489.94 675.5 489.2C672.99 488.54 670.78 487.09 669.58 485.32C668.52 483.77 664.7 479.42 661.08 475.65C657.46 471.89 652.7 467.77 650.5 466.5C648.3 465.23 645.15 463.94 643.5 463.63C641.85 463.31 638.94 463.63 637.04 464.33Z" />
		<path id="Path 13" class="shp1" d="M165.5 473.36C163.3 474.04 159.92 475.54 158 476.71C156.07 477.87 152.23 481.23 149.45 484.16C146.67 487.1 143.02 491.97 141.32 495C139.63 498.02 137.45 502.97 136.48 506C135.19 510.03 134.85 513.5 135.21 519C135.53 523.99 136.48 528.17 138.06 531.5C139.36 534.25 142.69 538.78 145.46 541.56C148.23 544.34 152.97 547.83 156 549.31C159.02 550.8 164.42 552.54 168 553.2C173 554.11 176 554.11 181 553.21C184.96 552.49 189.57 550.75 192.81 548.76C195.73 546.97 202.48 541.72 207.81 537.09C213.14 532.47 219.3 527.39 221.5 525.81C223.7 524.23 226.85 522.67 228.5 522.34C230.58 521.92 232.99 522.47 236.38 524.12C239.45 525.62 242.02 527.8 243.32 530C244.46 531.92 245.7 534.85 246.09 536.5C246.47 538.15 246.36 541.52 245.84 544C245.31 546.47 243.45 550.7 241.69 553.39C239.91 556.11 236.73 559.28 234.5 560.54C232.3 561.79 228.7 563.08 226.5 563.41C224.14 563.77 220.04 563.38 216.5 562.47C213.2 561.61 209.86 560.82 209.08 560.71C208.18 560.58 206.1 563.95 203.35 570C199.37 578.79 199.18 579.59 200.77 580.74C201.72 581.42 205.65 583 209.5 584.24C214.85 585.97 218.85 586.5 226.5 586.5C235.11 586.5 237.26 586.15 242 583.95C245.02 582.55 249.68 579.4 252.35 576.95C255.02 574.5 259.15 569.35 261.53 565.5C263.9 561.65 266.82 555.57 268.02 552C269.7 546.94 270.11 543.72 269.84 537.5C269.57 531.14 268.9 528.27 266.56 523.5C264.95 520.2 261.24 515.14 258.31 512.25C254.93 508.91 250 505.53 244.75 502.96C238.45 499.88 234.85 498.78 229.5 498.32C225.04 497.94 220.51 498.2 217 499.06C213.81 499.83 208.56 502.36 204.5 505.08C200.65 507.65 193.9 513.03 189.5 517.03C185.1 521.02 179.47 525.58 177 527.16C174.39 528.82 171.14 530.02 169.25 530.01C167.46 530.01 164.76 529.39 163.25 528.64C161.74 527.89 159.66 525.53 158.63 523.39C157.3 520.64 156.94 518.4 157.38 515.75C157.72 513.69 158.9 510.2 160 508C161.1 505.8 163.57 502.42 165.5 500.5C167.42 498.57 170.46 496.6 172.25 496.12C174.04 495.63 177.3 495.57 179.5 495.99C181.7 496.4 184.62 497.06 186 497.46C188.35 498.14 188.81 497.58 193.75 488.09L199 478C191.64 475.05 187.7 473.71 185.5 473.1C183.3 472.5 178.8 472.04 175.5 472.07C172.2 472.11 167.7 472.69 165.5 473.36Z" />
		<path id="Path 14" class="shp0" d="M1200 495.6C1198.62 495.85 1196.53 496.28 1195.34 496.55C1193.52 496.96 1193.17 497.78 1193.09 501.77C1193.04 504.37 1192.3 511.9 1191.44 518.5C1190.58 525.1 1188.11 541.07 1185.94 554C1183.78 566.92 1181.44 580.72 1180.75 584.65L1179.5 591.81L1205.5 599.13C1207.82 595.58 1212.27 589.36 1216.88 583.02C1221.48 576.69 1232.4 562.16 1241.13 550.75L1257 530C1255.45 523.02 1254.05 519.09 1252.89 516.75C1251.72 514.41 1249.7 511.04 1248.39 509.25C1247.07 507.46 1243.86 504.57 1241.25 502.83C1238.64 501.08 1234.02 498.8 1231 497.75C1227.23 496.45 1221.89 495.74 1214 495.5C1207.67 495.3 1201.37 495.34 1200 495.6Z" />
		<path id="Path 15" class="shp1" d="M1856.41 499.74C1853.61 500.71 1848.72 503.3 1845.53 505.5C1842.35 507.7 1838.28 511.52 1836.48 514C1834.69 516.47 1832.46 520.3 1831.53 522.5C1830.61 524.7 1829.62 529.65 1829.34 533.5C1828.96 538.82 1829.58 544.27 1831.92 556.25C1833.61 564.91 1835 573.46 1835 575.25C1835 577.04 1834.21 580.05 1833.25 581.95C1832.14 584.13 1829.85 586.25 1827 587.72C1824.52 589 1820.92 590.02 1819 590C1817.07 589.98 1813.7 589.14 1811.5 588.15C1809.3 587.16 1806.19 584.8 1804.6 582.92C1803 581.04 1800.87 577.7 1799.87 575.5C1798.86 573.3 1798.03 569.47 1798.01 567C1797.99 564.2 1798.9 560.61 1800.42 557.5C1801.76 554.75 1804.92 550.59 1807.43 548.25L1812 544C1802.61 531.21 1799.24 527.39 1798.44 527.25C1797.65 527.11 1793.24 530.71 1788.65 535.25C1782.96 540.88 1779.39 545.41 1777.4 549.5C1774.77 554.94 1774.51 556.44 1774.56 565.5C1774.61 573.42 1775.08 576.59 1776.81 580.75C1778.02 583.64 1780.76 588.81 1782.91 592.25C1785.06 595.69 1789.11 600.64 1791.91 603.25C1794.71 605.86 1799.14 609.01 1801.75 610.25C1805.74 612.14 1808.18 612.5 1817.08 612.5C1827.47 612.5 1827.79 612.43 1836.08 608.33C1840.83 605.98 1846.72 602.06 1849.58 599.33C1852.38 596.67 1855.95 592.02 1857.52 589C1859.86 584.48 1860.45 581.9 1860.81 574.5C1861.17 567.32 1860.7 562.77 1858.49 552C1856.97 544.57 1855.67 536 1855.61 532.96C1855.54 529.21 1856.07 526.53 1857.25 524.71C1858.21 523.22 1860.69 521.28 1862.75 520.4C1865.77 519.11 1867.23 519.01 1870.25 519.9C1872.31 520.5 1875.41 522.46 1877.13 524.25C1878.86 526.04 1881.33 529.64 1882.63 532.25C1884.15 535.29 1884.99 538.71 1884.97 541.75C1884.95 544.92 1884.2 547.64 1882.72 549.92C1881.5 551.8 1879.22 554.27 1877.66 555.42L1874.83 557.5C1883.49 571.84 1886.56 575.99 1887.25 575.98C1887.94 575.96 1890.64 574.39 1893.25 572.48C1895.86 570.56 1899.41 567.09 1901.13 564.75C1902.84 562.41 1905.08 558.7 1906.09 556.5C1907.1 554.3 1908.22 549.8 1908.58 546.5C1909.04 542.28 1908.74 538.57 1907.56 534C1906.64 530.42 1904.22 524.36 1902.19 520.53C1900.16 516.7 1896.25 511.27 1893.5 508.47C1890.75 505.68 1886.25 502.29 1883.5 500.95C1879.62 499.06 1876.59 498.45 1870 498.24C1863.89 498.05 1860.07 498.47 1856.41 499.74Z" />
		<path id="Path 16" class="shp0" d="M1324 503.09C1320.97 503.64 1315.12 505.22 1311 506.61C1306.87 508 1299.97 511.02 1295.65 513.32C1291.33 515.62 1283.23 520.94 1277.65 525.14C1272.07 529.34 1262.09 538.34 1255.47 545.14C1248.85 551.94 1240.4 561.32 1236.69 566C1232.97 570.67 1226.41 579.45 1222.1 585.5C1217.79 591.55 1210.75 602.12 1206.45 609C1202.14 615.87 1194.85 628.25 1190.24 636.5C1185.64 644.75 1177.64 660.05 1172.48 670.5C1167.31 680.95 1159.71 697.37 1155.58 707C1151.46 716.62 1148.17 724.6 1148.29 724.73C1148.41 724.85 1151.06 723.95 1154.2 722.73C1158.98 720.86 1168.35 713.14 1212.7 674.53C1241.74 649.25 1266.85 627.92 1268.5 627.14C1270.89 626.02 1272.26 625.96 1275.25 626.86C1277.38 627.51 1279.75 629.16 1280.75 630.7C1281.71 632.19 1282.5 635.04 1282.5 637.04C1282.5 639.04 1281.82 641.5 1281 642.51C1280.17 643.51 1262.29 659.33 1241.25 677.67C1220.21 696 1203.79 710.99 1204.75 710.98C1205.71 710.97 1209.42 710.53 1213 710C1216.57 709.48 1228.5 708.35 1239.5 707.51C1250.5 706.66 1262.2 705.57 1265.5 705.1C1268.8 704.62 1274.42 703.01 1278 701.52C1281.57 700.02 1291.7 695.14 1300.5 690.66C1309.3 686.18 1323.02 678.2 1331 672.91C1338.97 667.63 1351.35 658.67 1358.5 653.01C1365.65 647.35 1379.39 634.79 1389.04 625.11C1398.69 615.42 1408.73 604.57 1411.35 601C1413.97 597.42 1417.03 592.02 1418.14 589C1419.25 585.97 1420.88 580.8 1421.75 577.5C1422.63 574.2 1423.36 567.45 1423.39 562.5C1423.41 556.9 1422.81 551.42 1421.78 548C1420.87 544.97 1418.19 539.6 1415.81 536.06C1413.44 532.52 1408.8 527.45 1405.5 524.79C1402.2 522.13 1395.45 517.97 1390.5 515.54C1385.55 513.11 1377.67 510.02 1373 508.66C1368.32 507.3 1360.67 505.47 1356 504.58C1351.32 503.7 1343.45 502.78 1338.5 502.54C1333.55 502.3 1327.02 502.55 1324 503.09Z" />
		<path id="Path 17" class="shp1" d="M96.6 584.15C94.18 589.21 92.15 593.84 92.11 594.43C92.06 595.02 119.24 608.21 152.51 623.75C185.78 639.29 213.19 651.89 213.43 651.75C213.67 651.61 215.9 647.22 218.38 642C220.87 636.77 222.59 632.22 222.2 631.87C221.82 631.52 195.85 619.21 164.5 604.51C133.15 589.82 106.04 577.15 104.25 576.37L101 574.95L96.6 584.15ZM1899 625.51C1895.42 626.32 1889.57 627.96 1886 629.15C1882.42 630.33 1876.12 632.85 1872 634.73C1867.87 636.62 1861.17 640.49 1857.09 643.33C1853.02 646.17 1847.48 650.97 1844.78 654C1842.09 657.02 1838.33 662.65 1836.43 666.5C1834.54 670.35 1832.5 676.2 1831.9 679.5C1831.31 682.8 1831.12 687.97 1831.49 691C1831.86 694.02 1833.25 699.76 1834.58 703.75C1835.91 707.74 1838.5 713.36 1840.34 716.25C1842.18 719.14 1845.78 723.41 1848.34 725.75C1850.9 728.09 1855.25 731.12 1858 732.5C1860.75 733.87 1865.81 735.67 1869.25 736.49C1872.69 737.3 1879.66 737.98 1884.75 737.99C1889.84 737.99 1897.26 737.3 1901.25 736.45C1905.24 735.6 1911.76 733.8 1915.75 732.45C1919.74 731.1 1926.26 728.36 1930.25 726.36C1934.24 724.36 1939.97 721.05 1943 719C1946.02 716.94 1950.48 713.29 1952.9 710.88C1955.31 708.47 1958.79 704.25 1960.63 701.5C1962.46 698.75 1964.92 693.8 1966.08 690.5C1967.24 687.2 1968.42 681.35 1968.7 677.5C1969.04 672.83 1968.65 668.17 1967.54 663.5C1966.63 659.65 1964.35 653.57 1962.47 650C1960.59 646.42 1957.55 641.7 1955.7 639.5C1953.85 637.3 1950.12 634.06 1947.42 632.29C1944.71 630.53 1939.8 628.12 1936.5 626.94C1931.92 625.3 1927.54 624.7 1918 624.41C1909.34 624.15 1903.51 624.49 1899 625.51Z" />
		<path id="Path 18" class="shp0" d="M641.5 630.4C635.45 631.71 626.45 634.22 621.5 635.98C616.55 637.73 607.32 641.74 601 644.89C594.67 648.04 585 653.43 579.5 656.86C574 660.3 565.45 666.01 560.5 669.54C555.55 673.08 544.99 681.94 537.03 689.24C529.07 696.53 518.82 706.1 514.25 710.5C509.37 715.2 504.74 720.77 503.01 724C501.07 727.63 500.04 731.03 500 734C499.95 737.04 500.59 739.39 501.97 741.25C503.08 742.76 505.91 744.97 508.25 746.17C511.19 747.66 514.97 748.47 520.5 748.78C524.9 749.02 531.2 748.68 534.5 748.01C537.8 747.34 548.6 744.17 558.5 740.98C568.4 737.78 579.87 734.27 584 733.18C588.12 732.09 596.22 730.65 602 729.97C609.22 729.12 621.23 728.91 640.5 729.3C659.76 729.69 676.14 730.66 693 732.41C706.47 733.81 722.45 735.68 728.5 736.57C734.55 737.45 743.77 739.04 749 740.11C754.22 741.18 766.82 744.79 777 748.13C787.17 751.48 798.65 754.81 802.5 755.55L809.5 756.88C818.12 747.29 823.75 742.39 827.56 739.81C831.38 737.23 837.2 733.99 840.5 732.61C844.12 731.1 846.37 729.59 846.17 728.81C845.99 728.09 843.97 725.07 841.67 722.1C839.38 719.13 834.8 714.24 831.5 711.24C828.2 708.23 820.1 701.73 813.5 696.79C806.9 691.84 795.87 684.31 789 680.05C782.12 675.8 770.42 668.92 763 664.78C755.57 660.64 741.4 653.21 731.5 648.27C721.6 643.33 710.35 638.03 706.5 636.5C702.65 634.96 695.67 632.61 691 631.26C684.17 629.3 679.55 628.74 667.5 628.41C654.43 628.05 651.09 628.31 641.5 630.4Z" />
		<path id="Path 19" class="shp1" d="M72.2 638.17C71.67 639.45 65.08 658.05 57.54 679.5C50.01 700.95 44.21 718.77 44.67 719.11C45.13 719.44 49.88 721.24 55.23 723.11C60.57 724.97 65.12 726.27 65.32 726C65.52 725.72 67.85 719.2 70.5 711.5C73.15 703.8 75.58 697.12 75.91 696.65C76.23 696.18 94.5 702.12 116.5 709.85C138.5 717.58 162.24 725.95 169.25 728.45L182 733C187.47 716.34 188.93 711.46 188.78 711.41C188.63 711.37 165.1 703.1 136.5 693.04C107.9 682.98 84.27 674.58 84 674.38C83.72 674.17 85.86 667.48 88.75 659.5C91.64 651.53 93.95 644.59 93.88 644.08C93.82 643.58 89.65 641.74 84.63 640C79.61 638.26 74.98 636.61 74.33 636.34C73.69 636.06 72.74 636.89 72.2 638.17Z" />
		<path id="Path 20" class="shp0" d="M1905 648.05C1902.52 648.57 1897.57 649.96 1894 651.14C1890.42 652.32 1884.12 654.96 1880 657.01C1875.87 659.06 1869.87 663.16 1866.66 666.12C1863.05 669.44 1859.82 673.6 1858.2 677C1856.25 681.1 1855.59 684.03 1855.62 688.5C1855.65 692.92 1856.34 695.81 1858.24 699.5C1859.65 702.25 1862.09 705.71 1863.66 707.2C1865.22 708.68 1868.75 710.89 1871.5 712.11C1874.54 713.46 1879.24 714.49 1883.5 714.74C1888.83 715.05 1892.89 714.53 1900.5 712.55C1906 711.11 1914.55 708.03 1919.5 705.7C1925.41 702.91 1930.52 699.57 1934.39 695.98C1937.83 692.79 1941.27 688.41 1942.63 685.5C1944.28 681.99 1944.98 678.71 1944.98 674.5C1944.98 670.32 1944.27 666.98 1942.66 663.5C1941.38 660.75 1938.79 656.96 1936.92 655.08C1935.04 653.2 1931.47 650.76 1929 649.66C1926.12 648.38 1921.81 647.56 1917 647.38C1912.87 647.23 1907.47 647.53 1905 648.05ZM1372.5 667.39C1369.2 668.13 1363.8 669.83 1360.5 671.15C1357.2 672.47 1351.35 675.32 1347.5 677.48C1343.65 679.64 1336.22 684.64 1331 688.59C1325.77 692.54 1320.67 696.8 1319.65 698.06L1317.8 700.34C1331.52 699.34 1347.42 698.54 1362 697.9C1377.13 697.24 1399.33 697.02 1413.75 697.37L1439 698C1437.4 692.96 1436.09 690.15 1435.07 688.5C1434.04 686.85 1431.25 683.72 1428.85 681.55C1426.46 679.38 1420.9 675.95 1416.5 673.93C1412.1 671.91 1405.35 669.5 1401.5 668.56C1397.65 667.63 1390.9 666.67 1386.5 666.44C1381.79 666.2 1376.03 666.59 1372.5 667.39Z" />
		<path id="Path 21" class="shp1" d="M1360.5 707.06C1345.65 707.47 1326.3 708.31 1317.5 708.92C1308.7 709.54 1294.52 710.7 1286 711.51C1277.47 712.32 1259.02 714.11 1245 715.49C1230.97 716.86 1214.32 718.64 1208 719.44C1201.67 720.23 1192 721.84 1186.5 723.01C1181 724.18 1171.1 726.72 1164.5 728.65C1157.9 730.58 1145.52 734.87 1137 738.19C1128.47 741.51 1118.57 744.84 1115 745.6C1111.42 746.35 1106.47 746.97 1104 746.97C1101.52 746.97 1096.57 746.35 1093 745.59C1089.42 744.84 1083.8 743.1 1080.5 741.72C1077.2 740.34 1068.65 735.3 1061.5 730.51C1054.35 725.73 1045.35 720.33 1041.5 718.51C1037.65 716.7 1032.02 714.65 1029 713.96C1025.59 713.19 1020.27 712.92 1015 713.27C1009 713.66 1002.82 715.01 994 717.84C987.12 720.05 979.02 722.58 976 723.47C972.97 724.35 967.35 725.49 963.5 726C958.97 726.6 954.21 726.57 950 725.9C946.42 725.33 938.1 723.13 931.5 721C924.9 718.86 916.57 716.6 913 715.97C909.42 715.33 904.25 715.1 901.5 715.44C898.75 715.79 893.8 716.95 890.5 718.02C887.2 719.09 879.1 723.12 872.5 726.98C865.9 730.85 855.77 736.29 850 739.07C844.22 741.86 836.8 745.44 833.5 747.03C830.2 748.62 825.52 751.63 823.11 753.71C820.7 755.8 817.56 759.52 816.14 762C813.98 765.76 813.58 767.66 813.69 773.5C813.8 779.47 814.37 781.6 817.61 788C820.03 792.77 823.46 797.5 827.05 801C830.16 804.02 837.38 809.42 843.1 813C849.77 817.17 856.12 822.19 860.8 827C864.82 831.12 868.52 835.85 869.03 837.5C869.54 839.15 870.35 845.67 870.85 852C871.34 858.32 871.52 864.85 871.25 866.5C870.98 868.15 871.47 871.75 872.33 874.5C873.19 877.25 874.62 880.17 875.49 881C876.55 881.99 877.41 882.16 878.05 881.5C878.59 880.95 879.73 874.65 880.58 867.5C881.44 860.35 882.56 853.71 883.07 852.75C883.58 851.79 884.79 850.95 885.75 850.89C886.71 850.83 888.62 850.86 890 850.97C891.37 851.07 894.97 852.54 898 854.22C901.02 855.9 906.2 859.09 909.5 861.3C912.8 863.5 915.6 865.35 915.73 865.4C915.86 865.46 913.61 868.08 910.73 871.24C907.73 874.53 904.5 879.43 903.16 882.74C901.4 887.09 900.48 892.42 899.43 904.5C898.66 913.3 897.96 922.97 897.87 926C897.77 929.42 898.33 932.73 899.35 934.75C900.26 936.54 901.56 937.99 902.25 937.98C902.94 937.98 904 937.64 904.61 937.23C905.22 936.83 906.46 935.04 907.36 933.25C908.26 931.46 909.68 926.06 910.51 921.25C911.34 916.44 912.03 910.25 912.03 907.5C912.04 904.75 912.86 900.7 913.85 898.5C914.84 896.3 917.2 893.19 919.08 891.6C920.96 890 924.3 887.87 926.5 886.87C928.7 885.86 932.19 885.03 934.25 885.02C936.31 885.01 939.91 885.75 942.25 886.66C944.59 887.57 955.72 895.16 967 903.53C978.27 911.89 992.45 921.99 998.5 925.98C1004.55 929.96 1012.42 934.69 1016 936.48C1019.57 938.28 1027.67 941.79 1034 944.28C1040.32 946.77 1053.6 951.58 1063.5 954.96C1073.4 958.35 1083.03 962.11 1084.91 963.31C1086.78 964.51 1089.24 966.85 1090.37 968.5C1091.5 970.15 1093.24 974.2 1094.25 977.5C1095.25 980.8 1096.95 990.7 1098.02 999.5C1099.36 1010.52 1100.2 1026.34 1100.73 1050.33C1101.46 1083.54 1101.59 1085.22 1103.5 1086.6C1104.6 1087.39 1105.95 1087.88 1106.5 1087.69C1107.05 1087.51 1108.04 1086.26 1108.7 1084.93C1109.36 1083.59 1110.57 1078.22 1111.4 1073C1112.22 1067.77 1113.39 1055.4 1113.99 1045.5C1114.6 1035.6 1115.49 1019.85 1115.98 1010.5C1116.46 1001.15 1117.41 991.25 1118.08 988.5C1118.75 985.75 1120.07 981.92 1121.01 980C1121.96 978.07 1124.03 975.35 1125.61 973.96C1127.2 972.56 1130.3 970.82 1132.5 970.09C1134.7 969.37 1137.96 969.05 1139.75 969.39C1141.73 969.76 1144.17 971.37 1146 973.5C1147.65 975.42 1149.44 978.69 1149.97 980.75C1150.5 982.81 1152.98 992.94 1155.47 1003.25C1157.96 1013.56 1160 1022.79 1160 1023.75C1160 1024.71 1163.14 1032.02 1166.98 1040C1171.01 1048.39 1174.76 1057.87 1175.88 1062.5C1176.94 1066.9 1179.04 1078.82 1180.54 1089C1182.03 1099.17 1184.44 1113.35 1185.88 1120.5L1188.51 1133.5C1198.11 1133.92 1200.17 1133.59 1200.51 1132.75C1200.78 1132.06 1202.79 1118.22 1204.96 1102C1208.68 1074.14 1209.04 1072.36 1211.47 1070C1213.4 1068.13 1215.11 1067.5 1218.3 1067.5C1220.9 1067.5 1224.4 1068.47 1227.31 1070C1229.93 1071.37 1245.19 1082.62 1261.23 1095C1277.26 1107.37 1295.09 1121.77 1300.86 1127C1306.62 1132.22 1314.07 1138.92 1317.42 1141.87C1320.76 1144.83 1328.45 1150.96 1334.5 1155.51C1340.55 1160.05 1349.1 1165.85 1353.5 1168.39C1357.9 1170.93 1364.87 1174.17 1369 1175.6C1373.12 1177.03 1379.42 1178.43 1383 1178.72C1387.41 1179.08 1391.59 1178.7 1396 1177.55C1399.57 1176.62 1403.81 1174.88 1405.41 1173.68C1407.01 1172.48 1411.13 1167.22 1414.57 1162C1418 1156.77 1422.4 1149.57 1424.35 1146C1426.29 1142.42 1429.12 1135.9 1430.64 1131.5L1433.41 1123.5C1433.63 1065.37 1433.99 1047.49 1434.35 1046.25C1434.99 1044.03 1435.06 1044.02 1440.25 1045.52C1443.14 1046.35 1450.45 1047.97 1456.5 1049.11C1465.57 1050.82 1472.93 1051.27 1498.5 1051.7C1518.92 1052.04 1533.77 1051.81 1542 1051.02C1548.87 1050.36 1557.65 1049.02 1561.5 1048.03C1565.35 1047.05 1570.86 1045.06 1573.75 1043.62C1576.64 1042.18 1580.88 1039.31 1583.17 1037.25C1585.46 1035.19 1588.97 1031.02 1590.95 1028C1592.94 1024.97 1595.39 1019.57 1596.39 1016C1597.76 1011.12 1598.11 1007.26 1597.77 1000.5C1597.43 993.7 1596.66 989.91 1594.6 985C1593.11 981.42 1589.77 975.36 1587.19 971.51C1584.61 967.67 1578.67 960.69 1573.98 956.01C1569.29 951.33 1561.19 944.3 1555.98 940.38C1550.77 936.46 1542.45 930.65 1537.5 927.47C1532.55 924.28 1521.97 917.94 1514 913.37C1506.02 908.8 1500.17 904.88 1501 904.66C1501.82 904.44 1508.35 902.84 1515.5 901.11C1524.13 899.01 1531.69 896.4 1538 893.33C1545.03 889.9 1549.09 887.12 1553.63 882.6C1558.68 877.58 1560.07 875.44 1561.51 870.5C1562.71 866.36 1563.05 862.95 1562.62 859.5C1562.27 856.75 1560.94 852.25 1559.67 849.5C1558.4 846.75 1554.47 841.41 1550.93 837.64C1547.39 833.87 1540.07 827.79 1534.66 824.14C1526.41 818.57 1525.1 817.34 1526.54 816.5C1527.48 815.95 1531.91 812.94 1536.37 809.8C1540.84 806.67 1547.76 801.27 1551.76 797.8C1555.75 794.34 1561.03 788.8 1563.51 785.5C1565.98 782.2 1568.9 777.14 1570 774.25C1571.23 771.01 1572 766.6 1571.99 762.75C1571.98 758.35 1571.3 755.02 1569.68 751.5C1568.41 748.75 1565.6 744.53 1563.44 742.11C1561.27 739.7 1556.8 735.9 1553.5 733.67C1550.2 731.45 1544.35 728.19 1540.5 726.45C1536.65 724.7 1529 721.82 1523.5 720.06C1518 718.3 1509.67 715.97 1505 714.88C1500.32 713.8 1491.1 712.03 1484.5 710.96C1477.9 709.89 1464.85 708.59 1455.5 708.06C1446.15 707.53 1427.02 706.92 1413 706.71C1398.97 706.49 1375.35 706.65 1360.5 707.06Z" />
		<path id="Path 22" class="shp0" d="M1348 724.6C1344.97 724.79 1333.95 725.43 1323.5 726.03C1313.05 726.62 1297.97 727.73 1290 728.5C1282.02 729.27 1263.57 731.06 1249 732.47C1234.42 733.88 1216.42 735.92 1209 737C1201.57 738.07 1189.87 740.36 1183 742.09C1176.12 743.81 1167.12 746.56 1163 748.18C1158.87 749.81 1152.8 752.64 1149.5 754.47C1146.2 756.29 1141.14 759.86 1138.25 762.39C1134.33 765.83 1132.99 767.7 1132.98 769.75C1132.97 771.43 1134.03 773.59 1135.73 775.31L1138.5 778.12C1153.22 773.52 1161.77 771.03 1167 769.62C1172.22 768.21 1180.55 766.38 1185.5 765.55C1190.45 764.72 1201.92 763.58 1211 763.03C1220.07 762.47 1241.79 762.01 1259.25 762C1276.71 762 1297.86 762.47 1306.25 763.04C1314.64 763.61 1329.6 764.98 1339.5 766.09C1349.4 767.19 1366.5 769.62 1377.5 771.49C1388.5 773.36 1403.8 776.28 1411.5 777.98C1419.2 779.67 1432.25 782.9 1440.5 785.13C1448.75 787.37 1461.57 791.24 1469 793.72C1476.42 796.21 1487.67 800.38 1494 803L1505.5 807.75C1517.12 801.59 1523.42 797.72 1527 795.16C1530.57 792.6 1536.39 788.03 1539.93 785.01C1543.46 781.98 1547.87 777.47 1549.73 775C1551.59 772.52 1553.59 768.92 1554.18 767C1554.77 765.07 1554.97 762.26 1554.63 760.75C1554.28 759.24 1551.86 755.72 1549.25 752.93C1545.87 749.33 1541.91 746.61 1535.5 743.5C1530.55 741.1 1521.1 737.51 1514.5 735.52C1507.9 733.53 1496.65 730.83 1489.5 729.52C1482.35 728.21 1472.22 726.62 1467 725.98C1461.25 725.28 1436.95 724.71 1405.5 724.53C1376.9 724.37 1351.02 724.4 1348 724.6ZM1021 737.31C1017.97 737.98 1013.92 739.5 1012 740.67C1010.07 741.85 1007.94 743.98 1007.25 745.4C1006.56 746.83 1006 748.79 1005.99 749.75C1005.99 750.71 1006.78 752.61 1007.74 753.96C1008.71 755.31 1012.65 757.87 1016.5 759.64C1020.35 761.42 1027.44 763.8 1032.25 764.93C1037.06 766.07 1043.02 767 1045.5 767C1047.97 767 1052.1 766.44 1054.66 765.75C1057.39 765.02 1060.12 763.46 1061.25 762C1062.74 760.09 1063.05 758.56 1062.6 755.5C1062.28 753.3 1060.89 750.04 1059.51 748.25C1058.13 746.46 1055.09 743.92 1052.75 742.59C1050.41 741.27 1046.47 739.51 1044 738.69C1041.52 737.87 1036.57 736.95 1033 736.64C1029.29 736.32 1024.14 736.6 1021 737.31Z" />
		<path id="Path 23" class="shp1" d="M29.93 772.48C27.83 781.54 27.7 783.03 29 783.45C29.82 783.72 58.96 790.92 93.75 799.47C128.54 808.01 157.34 814.82 157.75 814.61C158.16 814.39 159.62 809.69 161 804.16C162.37 798.62 163.27 793.9 163 793.67C162.72 793.44 133.92 786.23 99 777.64C64.07 769.06 34.79 762.03 33.93 762.02C32.74 762 31.75 764.62 29.93 772.48Z" />
		<path id="Path 24" class="shp0" d="M877.3 772.25C875.61 774.04 873.43 777.07 872.46 779C871.48 780.92 870.09 784.75 869.36 787.5C868.62 790.25 868.02 794.97 868.03 798C868.03 801.02 868.6 804.62 869.29 806C870.13 807.66 871.54 808.61 873.52 808.82C875.71 809.05 877.26 808.39 879.36 806.32C880.93 804.77 883.02 801.92 884 800C884.98 798.07 886.51 794.02 887.4 791C888.29 787.97 889.02 783.14 889.01 780.25C889 777.36 888.32 773.65 887.5 772C886.37 769.74 885.31 769 883.19 769C881.33 769 879.36 770.09 877.3 772.25Z" />
		<path id="Path 25" class="shp1" d="M1934 770.58C1929.87 771.32 1922.67 773.12 1918 774.58C1913.32 776.03 1907.25 778.35 1904.5 779.73C1901.75 781.11 1896.8 784.14 1893.5 786.47C1890.2 788.79 1885.55 792.9 1883.17 795.6C1880.8 798.29 1877.43 803.42 1875.7 807C1873.1 812.35 1872.47 815 1872.15 822C1871.93 826.67 1872.26 832.86 1872.88 835.75C1873.49 838.64 1875.23 843.59 1876.74 846.75C1878.24 849.91 1881.5 854.55 1883.99 857.06C1886.47 859.57 1891.42 863.07 1895 864.84C1898.6 866.62 1905.07 868.7 1909.5 869.49C1913.9 870.28 1919.07 870.95 1921 870.98L1924.5 871.03C1927.21 855.51 1928 850.44 1928.01 849.75C1928.01 848.94 1925.64 848.26 1921.26 847.81C1917.54 847.43 1912.47 846.4 1910 845.52C1907.52 844.63 1903.98 842.47 1902.13 840.71C1900.27 838.94 1897.92 835.7 1896.9 833.5C1895.88 831.3 1895.03 827.47 1895.01 825C1894.99 822.21 1895.9 818.6 1897.41 815.5C1898.74 812.75 1901.45 809.04 1903.42 807.25C1905.39 805.46 1909.14 802.94 1911.75 801.64C1914.36 800.34 1919.42 798.32 1923 797.16C1926.57 795.99 1932.65 794.38 1936.5 793.58C1940.35 792.77 1947.1 791.81 1951.5 791.43C1957.46 790.93 1961.15 791.17 1966 792.4C1969.57 793.3 1974.3 795.29 1976.5 796.82C1978.7 798.35 1981.74 801.61 1983.26 804.05C1984.8 806.54 1986.28 810.7 1986.63 813.5C1987.12 817.5 1986.77 819.59 1984.87 823.92C1983.4 827.29 1980.8 830.81 1978 833.23C1975.52 835.37 1972.49 837.32 1971.25 837.56C1970.01 837.8 1969 838.22 1969 838.5C1969 838.77 1971.33 843.39 1974.17 848.75C1977.01 854.11 1979.49 858.61 1979.67 858.75C1979.85 858.89 1982.79 857.54 1986.21 855.75C1989.63 853.96 1994.75 850.25 1997.61 847.5C2000.89 844.34 2004.03 839.93 2006.15 835.5C2009.1 829.34 2009.54 827.36 2009.81 819C2010.06 811.63 2009.68 808.04 2008.12 803C2007.01 799.42 2004.37 793.8 2002.25 790.5C2000.13 787.2 1996.17 782.85 1993.45 780.83C1990.73 778.81 1986.02 776 1983 774.6C1979.97 773.19 1974.35 771.36 1970.5 770.54C1966.45 769.67 1958.87 769.07 1952.5 769.13C1946.45 769.18 1938.12 769.83 1934 770.58Z" />
		<path id="Path 26" class="shp0" d="M657 774.49C645.17 775.23 626.27 776.34 615 776.97C603.72 777.6 587.3 778.79 578.5 779.61C569.7 780.43 547.42 783.11 529 785.57C510.57 788.03 486.72 791.4 476 793.06C465.27 794.73 451.32 797.24 445 798.65C438.67 800.05 426.97 803.34 419 805.95C411.02 808.56 400.45 812.7 395.5 815.14C390.55 817.59 383.8 821.37 380.51 823.55C377.21 825.72 371.88 830.2 368.66 833.5C365.17 837.07 361.54 842.13 359.69 846C357.4 850.79 356.47 854.34 356.17 859.5C355.94 863.35 356.28 868.97 356.93 872C357.58 875.02 359.4 880.2 360.97 883.5C362.55 886.8 365.78 892.04 368.17 895.15C370.55 898.26 375.2 902.98 378.51 905.65C381.81 908.32 387.66 912.58 391.51 915.12C395.35 917.66 402.77 922.02 408 924.82C413.22 927.61 422.67 931.97 429 934.52C435.32 937.06 446.35 940.86 453.5 942.95C460.65 945.05 472.12 947.92 479 949.33C485.87 950.74 497.8 952.79 505.5 953.89C513.2 954.99 525.57 956.46 533 957.16C541.1 957.93 560.51 958.42 581.5 958.4C606.48 958.37 621.8 957.86 635 956.64C645.17 955.69 656.2 954.55 659.5 954.11C664.86 953.39 666.77 952.4 677.5 944.78C684.1 940.09 694.45 933.11 700.5 929.26C706.55 925.42 716.9 919.21 723.5 915.46C730.1 911.71 741.35 905.84 748.5 902.42C755.65 898.99 766.22 894.28 772 891.95C777.77 889.62 789.7 885.34 798.5 882.44L814.5 877.17C806.75 873.82 799.21 871.08 792.75 868.93C786.29 866.77 775.26 863.79 768.25 862.31C757.16 859.97 753.22 859.63 738 859.65C723.2 859.67 719.26 860.01 712.5 861.85C708.1 863.04 703.26 864.02 701.75 864.01C700.24 864 698.1 863.55 697 863C695.9 862.45 694.32 860.65 693.5 859C692.67 857.35 692 854.65 692 853C692 851.12 693.03 848.87 694.75 846.98C696.94 844.59 699.55 843.42 707.5 841.3C716.77 838.83 719 838.64 738 838.62C756.57 838.6 759.72 838.85 771.5 841.34C778.65 842.85 791.92 846.56 801 849.58C810.14 852.63 824.41 858.42 833 862.58L848.5 870.07L863.2 868.5C862.48 843.09 862.05 839.8 860.46 836.71C858.94 833.78 856.57 831.81 850 828.05C845.32 825.38 837.45 820.07 832.5 816.27C827.55 812.46 821.1 806.68 818.17 803.42C815.23 800.17 811.86 795.83 810.67 793.8C809.47 791.76 807.82 789.9 807 789.65C806.17 789.41 799.87 787.58 793 785.59C786.12 783.6 775.21 780.85 768.75 779.49C762.29 778.12 752.61 776.28 747.25 775.4C740.34 774.27 728.91 773.71 708 773.48C690.62 773.28 669.66 773.7 657 774.49ZM1231 780.04C1225.77 780.53 1216.77 781.66 1211 782.54C1205.22 783.42 1196.67 785.07 1192 786.2C1187.32 787.32 1180.24 789.54 1176.25 791.12C1172.26 792.71 1167.31 795.05 1165.25 796.34C1163.19 797.62 1160.26 800.1 1158.75 801.84C1157.24 803.58 1155.72 806.01 1155.37 807.25C1154.98 808.66 1155.63 811.36 1157.12 814.5C1158.91 818.26 1160 819.45 1161.5 819.29C1162.6 819.17 1167.32 818.55 1172 817.91C1177.02 817.22 1184.19 817.02 1189.5 817.42C1194.45 817.78 1208.17 819.43 1220 821.07C1231.82 822.72 1250.72 825.43 1262 827.09C1273.27 828.75 1291.5 831.92 1302.5 834.11C1313.5 836.31 1330.37 840.09 1340 842.5C1349.62 844.91 1365.15 849.19 1374.5 852.01C1383.85 854.83 1399.6 860.08 1409.5 863.68C1419.4 867.28 1433.8 872.92 1441.5 876.22C1449.2 879.52 1459.55 884.26 1464.5 886.76L1473.5 891.3C1492.87 888.79 1503.9 886.7 1510.5 885.03C1517.1 883.35 1526.04 880.3 1530.38 878.24C1535.42 875.85 1539.65 872.97 1542.13 870.25C1544.94 867.16 1546 865.11 1546.01 862.75C1546.02 860.87 1544.82 857.6 1543.18 855C1541.61 852.52 1538.34 848.68 1535.91 846.46C1533.49 844.24 1528.8 840.58 1525.5 838.33C1522.2 836.09 1515.22 831.98 1510 829.19C1504.77 826.41 1494.87 821.84 1488 819.02C1481.12 816.21 1468.07 811.51 1459 808.57C1449.92 805.63 1435.3 801.4 1426.5 799.17C1417.7 796.94 1403.75 793.77 1395.5 792.12C1387.25 790.48 1373.07 787.99 1364 786.59C1354.92 785.19 1338.72 783.1 1328 781.94C1313.29 780.36 1300.16 779.76 1274.5 779.49C1255.8 779.3 1236.22 779.55 1231 780.04ZM1174.5 834.56C1173.4 834.81 1170.25 835.46 1167.5 836.01C1164.58 836.58 1161.04 838.2 1159 839.89C1155.85 842.5 1155.51 843.27 1155.57 847.64C1155.62 850.9 1156.67 854.63 1158.76 859C1160.47 862.57 1164.53 868.65 1167.77 872.5C1171.06 876.41 1176.93 881.75 1181.08 884.6C1185.16 887.4 1194.57 893.29 1202 897.69C1209.42 902.08 1227.87 912.35 1243 920.51C1258.12 928.66 1276.35 938.69 1283.5 942.79C1290.65 946.89 1307.52 957.24 1321 965.79C1334.47 974.34 1352.92 985.85 1362 991.36C1371.07 996.86 1384.8 1004.59 1392.5 1008.52C1400.2 1012.45 1412.35 1017.96 1419.5 1020.76C1426.65 1023.57 1437.67 1027.21 1444 1028.86C1450.32 1030.51 1458.87 1032.45 1463 1033.18C1468.31 1034.11 1481.17 1034.5 1507 1034.5C1533.35 1034.5 1545.45 1034.13 1550.5 1033.16C1554.35 1032.42 1559.97 1030.88 1563 1029.72C1566.02 1028.57 1570.23 1026.02 1572.33 1024.06C1574.44 1022.1 1577.33 1018.02 1578.76 1015C1580.7 1010.89 1581.33 1007.98 1581.28 1003.5C1581.24 1000.08 1580.33 995.13 1579.16 992C1578.03 988.97 1574.98 983.57 1572.36 980C1569.75 976.42 1564.44 970.41 1560.56 966.63C1556.68 962.85 1549.45 956.72 1544.5 953.01C1539.55 949.3 1532.35 944.23 1528.5 941.74C1524.65 939.25 1512.72 932.19 1502 926.05C1491.27 919.91 1475.52 911.36 1467 907.05C1458.47 902.74 1445.2 896.5 1437.5 893.17C1429.8 889.84 1416.3 884.43 1407.5 881.15C1398.7 877.87 1384.97 873.16 1377 870.69C1369.02 868.22 1356.65 864.59 1349.5 862.63C1342.35 860.67 1329.52 857.46 1321 855.49C1312.47 853.51 1297.17 850.38 1287 848.51C1276.82 846.65 1259.95 843.95 1249.5 842.52C1239.05 841.09 1222.96 838.81 1213.75 837.46C1204.54 836.11 1192.39 834.8 1186.75 834.55C1181.11 834.3 1175.6 834.3 1174.5 834.56Z" />
		<path id="Path 27" class="shp1" d="M33.45 839.78C30.68 840.73 26.52 842.74 24.2 844.25C21.89 845.76 18.66 849.14 17.02 851.75C15.38 854.36 13.38 859.2 12.57 862.5C11.76 865.8 9.49 880.65 7.53 895.5C5.56 910.35 4.08 922.62 4.23 922.76C4.38 922.9 34.2 927.03 70.5 931.94C106.8 936.86 136.78 940.56 137.13 940.19C137.48 939.81 138.28 935 138.92 929.5C139.56 924 139.79 919.27 139.44 919C139.09 918.72 126.8 916.92 112.15 914.99L85.5 911.48C85.89 903.36 86.9 899.2 88 897C89.34 894.33 91.58 892.09 94.75 890.26C97.36 888.75 110.07 883.4 123 878.36C139.82 871.8 146.67 868.66 147.1 867.34C147.43 866.33 148.33 860.69 149.1 854.81C149.87 848.93 150.27 843.85 150 843.54C149.72 843.22 141.62 845.71 132 849.07C122.37 852.43 111.12 856.59 107 858.3C102.87 860.02 96.69 863.58 93.25 866.21C89.81 868.84 86.77 871 86.5 871C86.22 871 86 869.65 86 868C86 866.35 85.13 862.64 84.07 859.75C82.93 856.64 80.27 852.56 77.57 849.75C75.06 847.14 71.2 844.1 69 843C66.8 841.9 62.19 840.33 58.75 839.51C55.31 838.7 49.35 838.04 45.5 838.05C41.56 838.06 36.3 838.82 33.45 839.78Z" />
		<path id="Path 28" class="shp0" d="M43.53 862.22C41.27 862.77 38.67 864.34 37.47 865.85C36.32 867.31 34.87 870.75 34.25 873.5C33.63 876.25 32.39 884.12 31.5 891C30.6 897.87 30.01 903.58 30.18 903.67C30.36 903.77 37.7 904.79 46.5 905.94C55.3 907.1 62.61 907.92 62.75 907.77C62.88 907.62 63.63 903 64.4 897.5C65.18 892 66.1 884.35 66.45 880.5C66.96 874.85 66.73 872.82 65.29 870.01C64.24 867.96 61.84 865.62 59.5 864.38C57.3 863.2 53.7 862.02 51.5 861.74C49.3 861.46 45.72 861.68 43.53 862.22ZM1125.98 877.32C1123.5 877.97 1120.24 879.29 1118.73 880.25C1117.23 881.21 1115.72 883.01 1115.38 884.25C1115.01 885.6 1115.58 888.31 1116.81 891C1118.04 893.68 1122.03 898.54 1126.68 903C1130.98 907.12 1139.22 913.68 1145 917.57C1150.77 921.46 1159.1 926.69 1163.5 929.2C1167.9 931.7 1176.9 936.45 1183.5 939.75C1190.1 943.05 1200.9 948.11 1207.5 950.99C1214.1 953.87 1224.67 958.24 1231 960.7C1237.32 963.17 1249.7 967.63 1258.5 970.62C1267.3 973.62 1281.7 978.06 1290.5 980.49C1299.3 982.92 1309.87 985.64 1314 986.53C1318.12 987.41 1321.95 987.97 1322.5 987.77C1323.05 987.57 1316.3 982.88 1307.5 977.36C1298.7 971.84 1286.55 964.39 1280.5 960.82C1274.45 957.25 1257.57 947.89 1243 940.02C1228.42 932.15 1211.32 922.79 1205 919.22C1198.67 915.64 1187.67 909.07 1180.54 904.61C1173.41 900.15 1165.31 894.43 1162.54 891.89C1159.77 889.36 1155.47 884.73 1153 881.6L1148.5 875.91C1134.55 876.08 1128.47 876.67 1125.98 877.32Z" />
		<path id="Path 29" class="shp1" d="M1274 885.2C1273.23 885.86 1272.7 887.55 1272.82 888.95C1272.93 890.35 1273.36 892.01 1273.77 892.64C1274.17 893.26 1281.25 898.11 1289.5 903.42C1297.75 908.72 1305.29 913.04 1306.25 913.03C1307.21 913.01 1309.37 911.54 1311.05 909.75C1312.74 907.95 1314.35 904.94 1314.66 903C1314.96 901.07 1314.72 898.49 1314.11 897.25C1313.5 896.01 1311.99 894.32 1310.75 893.49C1309.51 892.66 1301.52 890.2 1293 888.02C1284.47 885.83 1277.03 884.04 1276.45 884.02C1275.87 884.01 1274.77 884.54 1274 885.2Z" />
		<path id="Path 30" fill-rule="evenodd" class="shp0" d="M892.5 885.04L891.71 889.77C891.28 892.37 890.31 900.8 889.56 908.5C888.8 916.2 888.48 924.91 889.5 933.2L882.5 936.72C878.65 938.66 871.9 942.58 867.5 945.43C863.1 948.28 856.41 953.52 852.63 957.06C848.85 960.6 844.29 965.52 842.48 968C840.68 970.47 839.11 973.4 838.99 974.5C838.87 975.6 838.82 977.51 838.88 978.75C838.95 979.99 840.35 982.35 842 984C844.41 986.41 845.83 986.99 849.25 986.96C853.3 986.93 853.91 986.49 862 977.85C866.67 972.86 873.87 966.53 878 963.78C882.12 961.04 889.55 956.85 894.5 954.48C899.45 952.12 908.22 948.54 914 946.54C919.77 944.54 929.67 941.59 936 939.99C942.32 938.39 954.02 935.97 962 934.61C969.97 933.24 978.75 931.83 981.5 931.47C986.16 930.85 987.1 931.14 995.42 935.65C1001.44 938.92 1005.11 941.64 1006.7 944C1007.99 945.92 1009.95 950.42 1011.05 954C1012.14 957.57 1013.02 963.2 1013 966.5C1012.97 969.96 1012.01 975.27 1010.72 979.03C1009.5 982.63 1006.92 988.21 1005 991.44C1003.07 994.67 997.67 1001.35 993 1006.29C988.32 1011.23 980 1018.64 974.5 1022.76C967.42 1028.07 960.84 1034.37 951.95 1044.38C945.04 1052.14 926.19 1073.57 910.06 1092C893.93 1110.42 875.66 1131.57 869.45 1139C863.24 1146.42 854.19 1155.91 849.33 1160.07C844.47 1164.24 836.22 1171 831 1175.1C825.77 1179.21 818.35 1184.85 814.5 1187.64C810.65 1190.43 803.45 1195.4 798.5 1198.69C793.55 1201.98 784.44 1207.67 778.25 1211.34C772.06 1215 760.81 1221.09 753.25 1224.87C745.69 1228.65 733.2 1234.26 725.5 1237.34C717.8 1240.41 705.87 1244.47 699 1246.36C692.12 1248.24 680.87 1250.72 674 1251.85C667.12 1252.98 656.55 1254.2 650.5 1254.55C644.37 1254.91 634.19 1254.69 627.5 1254.05C620.9 1253.43 611.67 1252.08 607 1251.06C602.32 1250.05 594.9 1247.99 590.5 1246.49C586.1 1244.99 577.32 1241.14 571 1237.95C564.67 1234.75 555.45 1229.29 550.5 1225.82C545.55 1222.34 535.56 1213.65 528.3 1206.5C516.91 1195.3 514.65 1192.53 511.93 1186.5C510.19 1182.65 507.92 1176.12 506.88 1172C505.83 1167.87 504.99 1161.8 504.99 1158.5C505 1155.2 505.46 1150.81 506.01 1148.75C506.55 1146.69 508.24 1143.57 509.75 1141.83C511.26 1140.08 514.75 1137.61 517.5 1136.34C521.89 1134.3 524.03 1134.02 547.5 1134.03L558 1127.23C563.77 1123.48 573.22 1116.85 579 1112.48C584.77 1108.12 594 1100.65 599.5 1095.89C605 1091.12 614.7 1081.89 621.05 1075.36C627.4 1068.84 635.96 1059.45 640.07 1054.5C644.17 1049.55 650.25 1041.67 653.57 1037C656.9 1032.32 662.5 1023.77 666.03 1018C671.54 1008.99 675.08 1004.87 690.97 988.98C701.16 978.79 715.12 965.76 722 960.03C728.87 954.29 739.9 945.6 746.5 940.71C753.1 935.83 763.67 928.55 770 924.54C776.32 920.53 787.12 914.3 794 910.69C800.87 907.08 811.45 902.11 817.5 899.64C823.55 897.17 832.55 893.97 837.5 892.54C842.45 891.1 851 889.01 856.5 887.88C864.99 886.14 867.25 886.01 871.5 886.99C875.58 887.94 877.24 887.89 880.5 886.69C882.7 885.89 886.3 885.19 892.5 885.04ZM931.08 893.38C932.68 893.72 937.26 895.53 941.25 897.4C946.35 899.79 950.05 902.45 953.75 906.4C956.64 909.48 958.89 912.32 958.75 912.72C958.61 913.12 952.65 914.64 945.5 916.1C938.35 917.57 929.46 919.72 919 923L919 916.5C919 912.92 919.51 907.64 920.14 904.75C920.96 901 922.27 898.53 924.72 896.13C927.56 893.34 928.66 892.87 931.08 893.38Z" />
		<path id="Path 31" class="shp1" d="M1953.84 907.87C1918.27 911.52 1888.9 914.72 1888.56 915C1888.23 915.27 1888.45 920.22 1889.06 926C1889.66 931.77 1890.24 936.58 1890.33 936.67C1890.42 936.76 1919.52 933.93 1955 930.38C1990.47 926.83 2020.51 923.71 2021.75 923.46C2023.88 923.02 2023.97 922.65 2023.46 916.25C2023.16 912.54 2022.8 907.59 2022.66 905.25C2022.45 901.74 2022.07 901.02 2020.45 901.12C2019.38 901.18 1989.4 904.22 1953.84 907.87ZM1344 915.5C1341.52 916.94 1338.72 919.1 1337.77 920.31C1336.64 921.74 1336.04 924.32 1336.02 927.75L1336 933C1352.66 943.67 1361.1 948.56 1365.5 950.77C1369.9 952.97 1375.97 955.5 1379 956.4C1382.02 957.29 1386.41 958.02 1388.75 958.01C1391.09 958 1394.24 957.38 1395.75 956.62C1397.26 955.86 1401.09 952.49 1404.25 949.12C1407.41 945.75 1410 942.1 1410 941C1410 939.9 1409.37 937.76 1408.59 936.25C1407.81 934.74 1405.9 932.31 1404.34 930.86C1402.76 929.4 1396.17 926.22 1389.5 923.72C1382.9 921.24 1373.67 918.01 1369 916.54C1364.32 915.08 1357.8 913.65 1354.5 913.38C1349.32 912.95 1347.89 913.24 1344 915.5ZM1428.89 944.25C1428.03 944.94 1425.01 949.21 1422.17 953.75C1418.5 959.6 1417 963.02 1417 965.5C1417 968.56 1417.53 969.31 1421.25 971.46C1423.59 972.82 1428.42 975.08 1432 976.48C1435.57 977.89 1443.9 980.38 1450.5 982.01C1457.1 983.64 1467 985.69 1472.5 986.56C1478 987.43 1484.3 987.89 1486.5 987.58C1488.7 987.27 1491.55 986 1492.83 984.76C1494.79 982.85 1495.09 981.72 1494.76 977.5C1494.55 974.75 1493.5 970.7 1492.43 968.5C1491.12 965.79 1488.57 963.2 1484.5 960.48C1480.79 958 1473.73 954.85 1466 952.24C1459.12 949.92 1448.77 946.89 1443 945.51C1437.22 944.13 1432.04 943 1431.47 943C1430.91 943 1429.75 943.56 1428.89 944.25Z" />
		<path id="Path 32" class="shp0" d="M1048.71 968.25C1050.07 972.79 1052.78 980.77 1054.71 986C1056.65 991.22 1060.75 1001.12 1063.84 1008C1066.92 1014.87 1071.62 1024.77 1074.29 1030C1076.95 1035.22 1081.92 1044.54 1085.32 1050.71C1088.72 1056.87 1091.6 1061.82 1091.73 1061.71C1091.86 1061.59 1091.52 1048.9 1090.98 1033.5C1090.44 1018.1 1089.51 1001.45 1088.93 996.5C1088.3 991.24 1086.95 985.66 1085.68 983.07C1084.48 980.63 1081.47 976.87 1079 974.71C1076.52 972.56 1072.36 969.71 1069.75 968.4C1067.14 967.08 1061.96 965.17 1058.25 964.15C1054.54 963.13 1050.49 961.78 1049.25 961.15C1048.01 960.52 1046.82 960 1046.61 960C1046.4 960 1047.34 963.71 1048.71 968.25Z" />
		<path id="Path 33" class="shp1" d="M1894.22 976.64L1894.5 988.29L1923.97 997.5L1924.04 1041.5C1915.87 1044.1 1908.89 1046.24 1903.25 1047.93L1893 1051C1893 1074.95 1893.01 1075 1895.25 1074.44C1896.49 1074.13 1926.75 1064.77 1962.5 1053.64L2027.5 1033.41L2027.64 1009.29C1926.01 974.95 1895.92 964.98 1895.22 964.99C1894.23 965 1894 967.7 1894.22 976.64ZM87.5 978.99C85.3 979.42 81.25 980.89 78.5 982.26C75.75 983.63 71.91 986.5 69.98 988.63C68.04 990.76 65.9 993.96 65.23 995.75L64 999C57.41 992.37 53.25 989.37 50.5 988.06C46.87 986.32 43.17 985.54 37 985.19C30.77 984.85 27.03 985.17 23 986.4C19.97 987.32 15.25 989.75 12.5 991.79C8.96 994.42 6.62 997.25 4.5 1001.5L1.5 1007.5L0.87 1072.5C80.41 1071.32 110.81 1070.64 119.76 1070.24L136.01 1069.5C135.96 1040.82 135.51 1025.64 134.97 1017.25C134.38 1008 133.41 1000.62 132.5 998.5C131.67 996.57 129.03 992.86 126.62 990.25C124.21 987.64 119.82 984.3 116.87 982.84C113.92 981.38 108.8 979.69 105.5 979.09C102.2 978.48 97.7 978.04 95.5 978.1C93.3 978.17 89.7 978.57 87.5 978.99Z" />
		<path id="Path 34" fill-rule="evenodd" class="shp0" d="M1133.48 986.66L1134.84 991.08C1135.59 993.51 1138.8 1001.12 1141.98 1008C1145.16 1014.87 1151.36 1028.15 1155.75 1037.5C1160.14 1046.85 1164.87 1057.65 1166.27 1061.5C1167.67 1065.35 1169.31 1071.42 1169.92 1075C1170.53 1078.57 1171.68 1087.8 1172.47 1095.5C1173.27 1103.2 1175.07 1115.12 1176.49 1122C1177.9 1128.87 1179.49 1136.19 1180.03 1138.25C1180.58 1140.4 1182.18 1142.87 1183.75 1144.03C1185.6 1145.4 1187.98 1146.05 1191 1146.02C1193.47 1145.99 1197.24 1145.41 1199.36 1144.73C1201.49 1144.05 1204.75 1142.26 1206.61 1140.75C1208.85 1138.94 1210.7 1136.04 1212.06 1132.25C1213.45 1128.39 1214.46 1121.9 1215.15 1112.5C1215.72 1104.8 1216.41 1098.27 1216.69 1098C1216.97 1097.72 1220.38 1100.87 1224.26 1105C1228.14 1109.12 1237.68 1119.47 1245.46 1128C1253.24 1136.52 1265.63 1150.47 1272.99 1159C1280.35 1167.52 1289.77 1178.77 1293.92 1184C1298.07 1189.22 1304.74 1198.34 1308.73 1204.25C1312.73 1210.16 1318.3 1219.61 1321.1 1225.25C1323.91 1230.89 1327.18 1236.52 1328.35 1237.78C1329.53 1239.03 1331.85 1240.31 1333.5 1240.63C1335.33 1240.98 1337.77 1240.58 1339.75 1239.6C1341.54 1238.72 1343.72 1236.54 1344.61 1234.75C1345.65 1232.66 1345.99 1230.43 1345.57 1228.5C1345.21 1226.85 1342.81 1221.22 1340.23 1216C1337.65 1210.77 1331.64 1200.65 1326.88 1193.5C1322.11 1186.35 1314.04 1175.32 1308.96 1169C1303.87 1162.67 1292.68 1149.44 1284.1 1139.58C1275.52 1129.72 1265.35 1118.35 1261.5 1114.3C1257.65 1110.24 1254.72 1106.71 1255 1106.44C1255.27 1106.18 1264.95 1114.15 1276.5 1124.17C1288.05 1134.19 1304.25 1147.78 1312.5 1154.38C1320.75 1160.97 1332.9 1169.9 1339.5 1174.21C1346.1 1178.53 1354.87 1183.45 1359 1185.15C1363.12 1186.85 1369.87 1189.09 1374 1190.13C1378.12 1191.17 1383.75 1192.02 1386.5 1192.02C1389.25 1192.02 1393.97 1191.29 1397 1190.39C1400.02 1189.5 1404.3 1187.52 1406.5 1186.01C1408.7 1184.49 1412.55 1181.05 1415.06 1178.37C1417.57 1175.69 1420.95 1171.54 1425.5 1164.78L1427.79 1167.64C1429.05 1169.21 1434.04 1175.67 1438.88 1182C1443.71 1188.32 1450.38 1197.55 1453.7 1202.5C1457.02 1207.45 1463.24 1217.57 1467.52 1225C1471.81 1232.42 1477.77 1243.67 1480.78 1250C1483.78 1256.32 1488.45 1267.12 1491.15 1274C1493.85 1280.87 1497.6 1291.67 1499.48 1298C1501.35 1304.32 1503.61 1312.65 1504.49 1316.5C1505.37 1320.35 1507.01 1328.9 1508.14 1335.5C1509.59 1343.95 1510.35 1354 1510.73 1369.5C1511.06 1383.36 1510.82 1395.38 1510.08 1402C1509.44 1407.77 1508.59 1414.05 1508.21 1415.94C1507.61 1418.86 1506.74 1419.71 1502.5 1421.59C1499.75 1422.8 1493.67 1424.58 1489 1425.54C1482.35 1426.89 1477.56 1427.15 1467 1426.73C1456.63 1426.31 1450.83 1425.5 1442 1423.23C1435.67 1421.61 1426.22 1418.58 1421 1416.51C1415.77 1414.43 1407.11 1410.54 1401.75 1407.87C1396.39 1405.19 1387.16 1400.03 1381.25 1396.41C1375.34 1392.78 1366.22 1386.83 1361 1383.19C1355.77 1379.54 1346.1 1372.22 1339.5 1366.93C1332.9 1361.63 1322.55 1352.85 1316.5 1347.43C1310.45 1342 1300.39 1332.59 1294.14 1326.53C1287.9 1320.46 1276.13 1308.3 1267.99 1299.5C1259.86 1290.7 1247.41 1276.75 1240.33 1268.5C1233.26 1260.25 1221.35 1245.85 1213.88 1236.5C1206.4 1227.15 1194.53 1211.85 1187.5 1202.5C1180.46 1193.15 1168.79 1177.17 1161.55 1167C1154.32 1156.82 1140.21 1136.46 1130.2 1121.75C1120.19 1107.04 1112 1094.77 1112 1094.5C1112 1094.22 1113.37 1091.86 1115.04 1089.25C1116.71 1086.64 1118.74 1082.25 1119.55 1079.5C1120.36 1076.75 1121.68 1069.55 1122.5 1063.5C1123.31 1057.45 1124.44 1041.02 1125 1027C1125.56 1012.97 1126.23 1000.15 1126.48 998.5C1126.73 996.85 1128.41 993.51 1130.21 991.08L1133.48 986.66ZM1289.69 988.32L1300.6 991.18C1306.59 992.75 1311.61 994.14 1311.76 994.27C1311.9 994.4 1309.42 997.63 1306.26 1001.45C1303.09 1005.27 1297.57 1010.78 1294 1013.7C1290.42 1016.62 1282.77 1021.43 1277 1024.4C1271.22 1027.37 1262.45 1031.14 1257.5 1032.78C1252.55 1034.42 1247.15 1036.07 1245.5 1036.45C1243.6 1036.89 1241.13 1036.56 1238.75 1035.57C1236.14 1034.48 1234.54 1032.93 1233.5 1030.5C1232.67 1028.57 1232.24 1025.76 1232.52 1024.25C1232.81 1022.74 1234.05 1020.51 1235.27 1019.3C1236.54 1018.05 1241.38 1015.96 1246.5 1014.47C1251.45 1013.03 1259.55 1009.92 1264.5 1007.55C1269.45 1005.18 1276.26 1001.05 1279.64 998.37C1283.01 995.69 1286.66 992.33 1287.73 990.91L1289.69 988.32ZM1046.48 997.86L1049.64 1007.68C1051.38 1013.08 1054.92 1022.45 1057.51 1028.5C1060.11 1034.55 1063.92 1042.87 1066 1047C1068.07 1051.12 1072.79 1059.67 1083.17 1077.5L1082.09 1100.5C1081.49 1113.15 1080.54 1134.52 1079.98 1148C1079.42 1161.47 1078.58 1190.05 1078.1 1211.5C1077.63 1232.95 1077.58 1258.15 1077.98 1267.5C1078.49 1279.56 1079.15 1285.37 1080.23 1287.5C1081.07 1289.15 1082.94 1291.06 1084.38 1291.75C1085.82 1292.44 1088.35 1293 1090 1293C1091.87 1293 1094.14 1291.96 1099.07 1287.5L1099.41 1233C1099.6 1203.02 1100.26 1166.8 1100.88 1152.5C1101.5 1138.2 1102.25 1122.67 1103.11 1109.5L1107.71 1117C1110.23 1121.12 1117.01 1132.82 1122.77 1143C1128.53 1153.17 1136.19 1166.45 1139.79 1172.5C1143.4 1178.55 1150.78 1190.02 1156.21 1198C1161.63 1205.97 1170.14 1218.35 1175.12 1225.5C1180.1 1232.65 1185.26 1240.64 1186.59 1243.25C1188.79 1247.6 1189.1 1249.93 1190.14 1270.75C1190.99 1287.72 1190.99 1299.73 1190.14 1318C1189.52 1331.47 1188.11 1350.37 1187 1360C1185.9 1369.62 1183.86 1384.02 1182.47 1392C1181.08 1399.97 1178.4 1412.8 1176.51 1420.5C1174.62 1428.2 1171.28 1440.12 1169.08 1447C1166.89 1453.87 1162.79 1465.12 1159.98 1472C1157.16 1478.87 1151.94 1490.12 1148.36 1497C1144.79 1503.87 1138.57 1514.45 1134.53 1520.5C1130.5 1526.55 1123.44 1535.97 1118.85 1541.44C1114.26 1546.9 1106.9 1554.66 1102.5 1558.68C1098.1 1562.7 1090.9 1568.7 1086.5 1572.01C1082.1 1575.32 1076.25 1579.16 1073.5 1580.53C1070.15 1582.2 1066.85 1583.02 1063.5 1583.01C1060.06 1583 1056.63 1582.1 1052.5 1580.11C1048.94 1578.4 1044.42 1575.04 1041.39 1571.86C1038.58 1568.91 1034.78 1564.25 1032.94 1561.5C1031.11 1558.75 1027.25 1551.55 1024.38 1545.5C1021.51 1539.45 1017.73 1530.22 1016 1525C1014.26 1519.77 1011.26 1509.42 1005.82 1488.5L1004.82 1446.5C1004.27 1423.4 1004.09 1380.42 1004.42 1351C1004.75 1321.57 1005.46 1285.8 1006.01 1271.5C1006.55 1257.2 1007.47 1237.17 1008.04 1227C1008.61 1216.82 1009.74 1200.17 1010.55 1190C1011.35 1179.82 1012.7 1165.2 1013.54 1157.5C1014.38 1149.8 1015.99 1136.97 1017.11 1129C1018.23 1121.02 1020.04 1109.77 1021.14 1104C1022.23 1098.22 1024.2 1089.22 1025.51 1084C1026.83 1078.77 1029.9 1068.42 1032.35 1061C1034.79 1053.57 1037.73 1042.77 1038.87 1037C1040.01 1031.22 1041.66 1022.22 1042.54 1017C1043.42 1011.77 1044.67 1005.33 1045.31 1002.68L1046.48 997.86ZM95 1001.98C100.13 1001.95 102.24 1002.43 105 1004.24C106.92 1005.5 109.25 1008.1 110.17 1010.01C111.42 1012.62 112.02 1017.79 113.24 1047.5L95.87 1048.15C86.32 1048.51 78.16 1048.62 77.75 1048.4C77.34 1048.18 77.01 1041.36 77.02 1033.25C77.04 1025.14 77.52 1016.47 78.09 1014C78.66 1011.52 79.68 1008.6 80.34 1007.51C81.01 1006.41 83.12 1004.73 85.03 1003.76C87.25 1002.64 90.85 1002 95 1001.98ZM1346.99 1002.55C1347.82 1002.89 1351.87 1005.22 1356 1007.71C1360.12 1010.21 1363.61 1012.31 1363.75 1012.38C1363.89 1012.45 1363.31 1014.3 1362.46 1016.5C1361.61 1018.7 1360.39 1021.62 1359.75 1023C1359.12 1024.37 1356.71 1028.42 1354.41 1032C1352.1 1035.57 1347.02 1041.54 1343.11 1045.25C1339.2 1048.96 1333.64 1053.51 1330.75 1055.37C1327.86 1057.22 1322.12 1060.42 1318 1062.49C1313.87 1064.56 1306 1067.76 1300.5 1069.6C1295 1071.45 1288.81 1072.97 1286.75 1072.98C1284.69 1072.99 1282.1 1072.55 1281 1072C1279.9 1071.45 1278.32 1069.65 1277.5 1068C1276.67 1066.35 1276 1063.99 1276 1062.75C1276.01 1061.51 1276.91 1059.04 1278 1057.25C1279.78 1054.36 1281.31 1053.6 1291.75 1050.37C1298.21 1048.37 1306.87 1044.95 1311 1042.76C1315.12 1040.57 1320.3 1037.37 1322.5 1035.64C1324.7 1033.91 1327.78 1031.37 1329.34 1030C1330.91 1028.62 1334.43 1024.12 1337.16 1020C1339.89 1015.87 1342.88 1010.12 1343.8 1007.22C1345.06 1003.24 1345.85 1002.09 1346.99 1002.55ZM1948.25 1006.01C1948.94 1006.01 1959.72 1009.27 1972.22 1013.26C1984.71 1017.24 1994.84 1020.6 1994.72 1020.72C1994.6 1020.84 1984.26 1023.87 1971.75 1027.47C1959.24 1031.06 1948.55 1034 1948 1034C1947.38 1034 1947 1028.67 1947 1020C1947 1009.46 1947.31 1006 1948.25 1006.01ZM38.75 1007C44.41 1007 45.34 1007.31 48.57 1010.25C50.53 1012.04 52.55 1015.07 53.06 1017C53.57 1018.92 53.99 1026.91 54 1049L24 1049.5L23.79 1040.5C23.68 1035.55 23.73 1027.9 23.91 1023.5C24.09 1019.1 24.63 1014.49 25.12 1013.25C25.6 1012.01 27.46 1010.1 29.25 1009C31.58 1007.57 34.26 1007.01 38.75 1007ZM1033.15 1015.09C1033.5 1015.04 1032.97 1016.46 1031.97 1018.25C1030.96 1020.04 1028.49 1025.32 1026.47 1030C1024.45 1034.67 1020.1 1045.7 1016.79 1054.5C1013.49 1063.3 1006.15 1084.45 1000.48 1101.5C994.81 1118.55 986.55 1144.2 974.11 1184.5L971.58 1209C970.18 1222.47 968.37 1240.92 967.54 1250C966.72 1259.07 965.36 1275.95 964.53 1287.5C963.7 1299.05 962.56 1317.95 962.01 1329.5C961.46 1341.05 961 1358.82 961 1369C961 1379.17 961.55 1393.57 962.22 1401C962.9 1408.42 963.39 1416.52 963.33 1419C963.26 1421.47 962.01 1427.55 960.54 1432.5C959.08 1437.45 956.32 1445.32 954.42 1450C952.51 1454.67 949.05 1461.82 946.73 1465.88C944.4 1469.93 940.25 1475.6 937.5 1478.47C934.75 1481.34 930.14 1484.89 927.25 1486.35C923.03 1488.48 920.58 1489 914.75 1489.03C908.37 1489.05 906.6 1488.61 900 1485.33C894.3 1482.51 890.32 1479.45 883.41 1472.56C878.41 1467.58 872.1 1460.57 869.37 1457C864.81 1451.01 864.36 1449.91 863.63 1443C863.19 1438.87 862.17 1428.52 861.36 1420C860.56 1411.47 859.64 1387.85 859.32 1367.5C858.95 1343.88 859.16 1323.81 859.9 1312C860.54 1301.82 861.74 1287.2 862.57 1279.5C863.4 1271.8 865.2 1258.75 866.57 1250.5C867.93 1242.25 870.18 1230.77 871.55 1225C872.92 1219.22 875.44 1210.22 877.14 1205C878.85 1199.77 882.5 1189.87 885.25 1183C888 1176.12 894.16 1162.4 898.93 1152.5C903.7 1142.6 911.37 1127.75 915.97 1119.5C920.57 1111.25 928.43 1097.75 933.44 1089.5C938.44 1081.25 944.61 1071.8 947.14 1068.5C949.67 1065.2 955.28 1059.03 959.62 1054.78C963.95 1050.53 969.97 1045.21 973 1042.95C976.02 1040.68 982.32 1036.6 987 1033.87C991.67 1031.14 995.61 1029.04 995.75 1029.21C995.89 1029.37 981.92 1057.17 964.7 1091C947.47 1124.82 933.07 1153.74 932.69 1155.25C932.27 1156.93 932.56 1159.27 933.44 1161.25C934.3 1163.18 936.33 1165.21 938.44 1166.25C940.46 1167.24 943.19 1167.79 944.75 1167.51C946.26 1167.23 948.68 1165.77 950.12 1164.26C951.57 1162.74 969.34 1128.95 989.62 1089.17C1023.88 1021.98 1026.71 1016.78 1029.5 1016.01C1031.15 1015.55 1032.79 1015.14 1033.15 1015.09ZM1406.78 1034.5L1405.39 1040.25C1404.63 1043.41 1402.86 1048.81 1401.46 1052.25C1400.07 1055.69 1397.17 1061.2 1395.02 1064.5C1392.88 1067.8 1387.83 1073.7 1383.81 1077.61C1379.79 1081.52 1373.12 1086.9 1369 1089.55C1364.87 1092.21 1357.67 1096.05 1353 1098.07C1348.32 1100.09 1341.12 1102.7 1337 1103.87C1332.87 1105.03 1328.04 1105.99 1326.25 1105.99C1324.46 1106 1322.1 1105.55 1321 1105C1319.9 1104.45 1318.32 1102.65 1317.5 1101C1316.67 1099.35 1316 1097.1 1316 1096C1316 1094.9 1316.62 1092.76 1317.39 1091.25C1318.15 1089.74 1319.84 1087.98 1321.14 1087.35C1322.44 1086.71 1328 1084.76 1333.5 1083C1339 1081.25 1346.87 1078.07 1351 1075.94C1355.12 1073.8 1361.42 1069.66 1365 1066.73C1368.57 1063.8 1373.15 1059.17 1375.17 1056.45C1377.18 1053.73 1379.99 1049.02 1381.4 1046C1382.81 1042.97 1384.46 1038.02 1385.07 1035C1385.67 1031.97 1386.31 1028.52 1386.49 1027.33C1386.8 1025.24 1387.16 1025.33 1406.78 1034.5ZM1581.93 1054.48C1582.79 1055.08 1587.06 1058.71 1591.4 1062.54C1595.75 1066.37 1602.69 1073.55 1606.83 1078.5C1610.98 1083.45 1616.71 1091.1 1619.57 1095.5C1622.42 1099.9 1627.02 1108 1629.77 1113.5C1632.53 1119 1636.43 1128.22 1638.44 1134C1640.45 1139.77 1643.19 1149.9 1644.51 1156.5C1645.84 1163.1 1647.44 1173.67 1648.06 1180C1648.68 1186.32 1649.02 1197.12 1648.82 1204C1648.48 1215.34 1648.17 1217.09 1645.47 1222.88C1643.69 1226.71 1640.7 1230.94 1638 1233.43C1635.52 1235.72 1631.47 1238.58 1629 1239.78C1626.52 1240.99 1621.12 1242.7 1617 1243.59C1611.39 1244.8 1606.73 1245.06 1598.5 1244.61C1592.45 1244.29 1583.45 1243.16 1578.5 1242.1C1573.55 1241.05 1566.12 1239.16 1562 1237.91C1555.89 1236.05 1550.42 1232.92 1532.5 1220.99C1520.4 1212.94 1503.3 1201.24 1494.5 1195C1485.7 1188.75 1470.62 1177.69 1461 1170.42C1451.37 1163.15 1441.76 1155.69 1435.76 1150.5L1438.41 1146.5C1439.87 1144.3 1441.71 1140.25 1442.5 1137.5C1443.28 1134.75 1444.45 1129.35 1445.09 1125.5C1445.77 1121.48 1446.32 1106.7 1446.38 1090.79C1446.48 1067.62 1446.75 1062.82 1448 1061.52C1448.82 1060.66 1450.4 1059.91 1451.5 1059.84C1452.6 1059.77 1459.35 1060.76 1466.5 1062.05C1477.71 1064.08 1482.67 1064.4 1502.5 1064.38C1521.07 1064.37 1528.2 1063.94 1539.5 1062.19C1547.2 1061 1559.54 1058.52 1566.93 1056.69C1577.15 1054.16 1580.73 1053.63 1581.93 1054.48Z" />
		<path id="Path 35" class="shp1" d="M2002.51 1102.28C2002.23 1104.05 2001.22 1111.35 2000.25 1118.5C1998.52 1131.35 1998.47 1131.5 1996 1131.26C1994.62 1131.13 1970.66 1128.09 1942.75 1124.51C1914.84 1120.93 1890.99 1118 1889.75 1117.99C1887.63 1117.98 1887.42 1118.62 1886.23 1128.74C1885.53 1134.66 1885.08 1139.55 1885.23 1139.6C1885.38 1139.66 1910.25 1142.91 1940.5 1146.82C1970.75 1150.73 1995.56 1154.06 1995.62 1154.21C1995.69 1154.37 1994.89 1161.25 1993.84 1169.5C1992.79 1177.75 1992.12 1184.95 1992.33 1185.5C1992.55 1186.05 1997.4 1187.06 2003.12 1187.75C2008.83 1188.43 2013.76 1188.66 2014.08 1188.25C2014.41 1187.84 2017.11 1168.52 2020.08 1145.32C2023.06 1122.12 2025.27 1102.9 2025 1102.61C2024.72 1102.32 2020.9 1101.62 2016.5 1101.04C2012.1 1100.46 2007.27 1099.78 2005.76 1099.53C2003.31 1099.12 2002.96 1099.41 2002.51 1102.28ZM135.5 1168.65C130 1169.99 125.4 1171.19 125.27 1171.3C125.15 1171.41 127.96 1184.44 131.52 1200.25C135.09 1216.06 138 1229.56 138 1230.25C138 1231.05 131.85 1232.86 120.75 1235.31C111.26 1237.41 103.24 1238.76 102.93 1238.31C102.61 1237.87 99.75 1225.8 96.57 1211.5C93.39 1197.2 90.73 1185.43 90.65 1185.34C90.57 1185.25 85.66 1186.26 79.75 1187.59C73.13 1189.07 68.99 1190.48 68.98 1191.25C68.98 1191.94 71.46 1203.52 74.5 1217C77.54 1230.47 80.03 1242.17 80.03 1243C80.03 1244.11 76.45 1245.31 66.26 1247.6C58.69 1249.31 52.21 1250.44 51.85 1250.1C51.49 1249.77 48.34 1236.78 44.85 1221.24C41.36 1205.69 38.05 1192.99 37.5 1193.02C36.95 1193.04 32 1194.07 26.5 1195.32C19.2 1196.98 16.55 1197.98 16.68 1199.05C16.78 1199.85 20.75 1217.82 25.51 1239C30.26 1260.17 34.22 1277.55 34.32 1277.62C34.42 1277.68 63.07 1271.29 98 1263.41C132.92 1255.53 162.4 1248.85 163.5 1248.56C165.42 1248.06 165.14 1246.41 156.5 1207.36C151.55 1184.98 147.05 1166.57 146.5 1166.44C145.95 1166.31 141 1167.3 135.5 1168.65ZM1873.56 1202.83C1873.38 1203.2 1872.17 1207.88 1870.86 1213.22C1869.56 1218.61 1868.89 1223.3 1869.37 1223.72C1869.84 1224.15 1899.32 1231.15 1934.87 1239.27C1970.41 1247.39 1999.72 1253.75 2000 1253.4C2000.27 1253.05 2001.49 1248.21 2002.69 1242.63C2003.9 1237.06 2004.8 1232.45 2004.69 1232.39C2004.59 1232.34 1976.6 1225.89 1942.5 1218.08C1908.4 1210.26 1879.01 1203.48 1877.19 1203.02C1875.37 1202.55 1873.74 1202.47 1873.56 1202.83ZM1881.5 1274.07C1878.2 1274.58 1873.47 1275.66 1871 1276.47C1868.52 1277.28 1863.8 1279.67 1860.5 1281.77C1857.2 1283.88 1852.85 1287.61 1850.83 1290.05C1848.81 1292.5 1845.77 1297.31 1844.08 1300.75C1842.38 1304.19 1840.33 1309.81 1839.51 1313.25C1838.7 1316.69 1838.02 1321.97 1838.01 1325C1838 1328.02 1838.69 1333.2 1839.56 1336.5C1840.42 1339.8 1842.4 1344.75 1843.97 1347.5C1845.53 1350.25 1848.99 1354.93 1851.66 1357.9C1854.32 1360.87 1859.2 1365.2 1862.5 1367.53C1865.8 1369.86 1871.31 1373.17 1874.75 1374.88C1878.19 1376.6 1883.36 1378.92 1886.25 1380.04C1889.14 1381.16 1896 1383.18 1901.5 1384.54C1908.93 1386.37 1914.19 1386.99 1922 1386.99C1928.08 1386.98 1934.82 1386.35 1938 1385.5C1941.02 1384.69 1945.97 1382.79 1949 1381.28C1952.02 1379.77 1957.13 1376.05 1960.35 1373.02C1964.33 1369.26 1967.28 1365.27 1969.59 1360.5C1971.45 1356.65 1973.71 1350.57 1974.61 1347C1975.79 1342.31 1976.09 1338.13 1975.69 1332C1975.22 1324.85 1974.54 1322.31 1971.41 1316C1968.73 1310.6 1965.55 1306.37 1960.09 1300.92C1955.88 1296.71 1949.38 1291.53 1945.5 1289.29C1941.65 1287.07 1934.45 1283.64 1929.5 1281.67C1924.55 1279.7 1916.67 1277.2 1912 1276.1C1907.32 1275.01 1899.9 1273.89 1895.5 1273.63C1891.1 1273.36 1884.8 1273.56 1881.5 1274.07ZM113.5 1310.99C70.27 1327.58 51.59 1335.2 51.79 1336.14C51.95 1336.89 53.64 1341.66 55.54 1346.75C58.82 1355.53 59.11 1355.95 61.25 1355.01C62.49 1354.47 73.62 1350.19 86 1345.51C98.37 1340.83 108.58 1337.12 108.68 1337.25C108.78 1337.39 112.26 1346.5 116.42 1357.5C120.57 1368.5 123.87 1377.6 123.74 1377.72C123.61 1377.84 112.7 1382.06 99.5 1387.09C86.3 1392.13 75.27 1396.42 75 1396.62C74.72 1396.83 76.3 1401.51 78.5 1407.02C80.7 1412.54 82.84 1417.04 83.25 1417.02C83.66 1417.01 110.66 1406.83 143.25 1394.4C175.84 1381.96 203.74 1371.39 205.25 1370.9C206.76 1370.4 208 1369.44 207.99 1368.75C207.99 1368.06 206.3 1363.3 204.24 1358.16C201.49 1351.3 200.1 1348.94 199 1349.27C198.17 1349.53 186.14 1354.07 172.25 1359.37C158.36 1364.66 146.66 1369.01 146.25 1369.01C145.84 1369.02 142.27 1360.58 138.32 1350.26C134.37 1339.94 130.99 1330.86 130.82 1330.09C130.59 1329.08 138.22 1325.71 157.5 1318.31C172.35 1312.6 184.62 1307.84 184.76 1307.72C184.9 1307.6 183.33 1303.04 181.26 1297.59C179.19 1292.15 177.05 1287.58 176.5 1287.45C175.95 1287.31 147.6 1297.91 113.5 1310.99Z" />
		<path id="Path 36" class="shp0" d="M1882.5 1298.33C1880.3 1299.06 1877.15 1300.38 1875.5 1301.25C1873.85 1302.12 1871.09 1304.33 1869.36 1306.16C1867.64 1308 1865.44 1311.07 1864.48 1313C1863.52 1314.92 1862.52 1318.97 1862.27 1322C1861.93 1325.97 1862.36 1329.03 1863.83 1333C1865.01 1336.19 1867.68 1340.42 1870.18 1343.06C1872.56 1345.57 1876.52 1348.91 1879 1350.5C1881.47 1352.08 1887.1 1354.9 1891.5 1356.76C1895.9 1358.62 1903.1 1361.01 1907.5 1362.07C1911.9 1363.12 1918.54 1363.99 1922.25 1363.99C1926.66 1364 1930.82 1363.3 1934.25 1361.97C1937.14 1360.85 1940.85 1358.9 1942.5 1357.62C1944.15 1356.34 1946.81 1352.87 1948.41 1349.9C1950.37 1346.27 1951.48 1342.53 1951.8 1338.5C1952.21 1333.41 1951.84 1331.53 1949.39 1326.09C1947.42 1321.73 1944.9 1318.26 1941.5 1315.22C1938.75 1312.77 1933.12 1309.07 1929 1307C1924.87 1304.93 1917.67 1302.02 1913 1300.54C1907.31 1298.73 1901.52 1297.7 1895.5 1297.42C1889.6 1297.14 1885.12 1297.46 1882.5 1298.33Z" />
		<path id="Path 37" class="shp1" d="M1805.62 1399.75C1803.08 1404.56 1801.34 1408.78 1801.75 1409.12C1802.16 1409.46 1819.24 1418.69 1839.69 1429.62C1860.15 1440.55 1876.8 1449.63 1876.69 1449.79C1876.59 1449.95 1854.9 1449.6 1828.5 1449C1789.53 1448.13 1780.29 1448.17 1779.39 1449.21C1778.79 1449.92 1776.31 1454.38 1773.89 1459.13L1769.5 1467.75C1859.4 1515.91 1886.17 1530.14 1887 1530.45C1888.09 1530.84 1889.81 1528.52 1893.25 1522L1898 1513C1894.51 1510.88 1878.42 1502.25 1860 1492.44C1841.57 1482.64 1825.15 1473.77 1823.5 1472.72C1820.53 1470.84 1820.76 1470.82 1851 1471.42C1867.77 1471.75 1890.05 1472.3 1900.5 1472.64L1919.5 1473.26C1927.25 1458.46 1929.27 1453.96 1929 1453.71C1928.72 1453.46 1902.29 1439.25 1870.25 1422.13C1838.21 1405.01 1811.6 1391 1811.12 1391C1810.64 1391 1808.16 1394.94 1805.62 1399.75ZM190 1453.15C163.87 1467.52 141.71 1479.43 140.75 1479.63C139.4 1479.92 137.3 1476.82 131.5 1466L124 1452C111.87 1458.59 107.35 1461.17 106.12 1462C103.89 1463.5 103.89 1463.5 123.56 1499.5C134.39 1519.3 143.86 1536.51 144.62 1537.75L146 1540C161.11 1532.04 165.61 1529.56 165.75 1529.36C165.89 1529.16 162.61 1522.81 158.48 1515.25C154.34 1507.69 151.08 1501.13 151.23 1500.68C151.38 1500.23 172.87 1488.15 199 1473.84C225.12 1459.52 246.88 1447.52 247.35 1447.16C247.82 1446.8 246.01 1442.11 243.31 1436.75C240.62 1431.39 238.21 1427.01 237.96 1427.02C237.71 1427.03 216.12 1438.79 190 1453.15ZM1763.5 1574.49C1761.3 1575.32 1758.43 1577.02 1757.12 1578.25C1755.81 1579.49 1753.91 1582.3 1752.89 1584.5C1751.87 1586.7 1751.03 1590.3 1751.01 1592.5C1750.99 1594.7 1751.64 1598.52 1752.45 1601C1753.25 1603.47 1755.9 1607.75 1758.32 1610.5C1760.75 1613.25 1764.93 1616.61 1767.61 1617.97C1770.97 1619.67 1774.7 1620.58 1779.5 1620.87C1785.4 1621.23 1787.28 1620.92 1791.44 1618.9C1794.6 1617.36 1797.3 1615.08 1798.94 1612.57C1801.09 1609.27 1801.49 1607.5 1801.46 1601.57C1801.43 1596.28 1800.87 1593.43 1799.21 1590.25C1797.99 1587.91 1795.09 1584.17 1792.75 1581.93C1790.41 1579.69 1786.47 1576.92 1784 1575.76C1781.52 1574.61 1776.81 1573.51 1773.5 1573.31C1769.75 1573.1 1766 1573.54 1763.5 1574.49ZM251.5 1581.08C248.75 1582.17 244.52 1584.74 242.1 1586.78C239.69 1588.83 236.54 1592.52 235.1 1595C232.88 1598.84 232.5 1600.69 232.5 1607.65C232.5 1615.22 232.72 1616.08 235.5 1619.54C237.15 1621.6 240.3 1624.19 242.5 1625.31C245.22 1626.69 248.42 1627.34 252.5 1627.32C256.73 1627.31 260.12 1626.57 264 1624.81C267.02 1623.44 271.02 1621.01 272.89 1619.41C274.75 1617.81 277.32 1614.7 278.6 1612.5C279.89 1610.3 281.37 1606.25 281.89 1603.5C282.54 1600.12 282.5 1596.88 281.75 1593.5C280.97 1589.97 279.6 1587.47 277.07 1584.99C275.11 1583.06 271.7 1580.93 269.5 1580.26C267.3 1579.58 263.47 1579.05 261 1579.06C258.52 1579.08 254.25 1579.99 251.5 1581.08ZM342.99 1699.75L297.72 1749.5C309.95 1760.69 313.84 1763.96 314.25 1763.97C314.66 1763.99 323.44 1754.76 333.75 1743.46C344.06 1732.17 352.72 1722.93 353 1722.94C353.27 1722.94 360.92 1729.69 370 1737.94C379.07 1746.18 386.72 1752.96 387 1753C387.27 1753.04 390.87 1749.41 395 1744.93C400.52 1738.93 402.24 1736.44 401.5 1735.49C400.95 1734.79 393.39 1727.75 384.71 1719.86C376.03 1711.96 368.96 1705.27 369 1705C369.04 1704.72 370.72 1702.7 372.72 1700.5C374.73 1698.3 379.44 1693.24 383.19 1689.25L390 1682C419.84 1709.15 428.95 1716.99 429.5 1716.94C430.05 1716.89 433.42 1713.54 437 1709.5C440.57 1705.46 443.61 1701.66 443.75 1701.07C443.89 1700.48 431.62 1688.75 416.5 1675C401.37 1661.25 388.83 1650 388.63 1650C388.42 1650 367.89 1672.39 342.99 1699.75ZM1627.09 1660.78L1620.69 1666.5L1643.15 1762.5C1652.16 1772.57 1655.61 1776.28 1656.64 1777.22C1658.42 1778.88 1659.17 1778.33 1675 1763.92L1691.5 1748.89L1709.78 1768.5C1714.21 1765.14 1717.64 1761.99 1720.26 1759.33L1725.02 1754.5L1707.13 1734.5L1717.3 1725.5C1705.88 1713.1 1702.1 1709.37 1701.54 1709.22C1700.97 1709.06 1698.7 1710.76 1696.5 1712.98C1694.3 1715.21 1692.05 1716.99 1691.5 1716.94C1690.95 1716.88 1678.1 1702.93 1662.95 1685.92C1647.79 1668.91 1634.97 1655.01 1634.45 1655.03C1633.93 1655.05 1630.62 1657.64 1627.09 1660.78Z" />
		<path id="Path 38" class="shp0" d="M1647.04 1701.75C1647.02 1702.44 1649.27 1712.56 1652.05 1724.25C1654.83 1735.94 1657.3 1746.06 1657.55 1746.75C1657.82 1747.5 1661.6 1744.7 1666.99 1739.75L1675.98 1731.5C1663.21 1717.7 1656.71 1710.72 1653.29 1707.09C1649.88 1703.47 1647.07 1701.06 1647.04 1701.75Z" />
		<path id="Path 39" class="shp1" d="M1531.45 1742.54C1515.53 1753.84 1502.39 1763.52 1502.25 1764.05C1502.11 1764.57 1504.81 1768.88 1508.25 1773.63C1511.69 1778.38 1514.84 1782.43 1515.25 1782.63C1515.66 1782.83 1524.66 1776.89 1535.25 1769.43L1554.5 1755.86C1554.92 1762.55 1555.72 1769.22 1556.55 1775C1557.38 1780.77 1559.19 1790 1560.58 1795.5C1561.96 1801 1564.48 1809.55 1566.17 1814.5C1567.87 1819.45 1571.15 1827.77 1573.48 1833C1575.81 1838.22 1579.94 1846.32 1582.66 1851C1585.38 1855.67 1588.26 1860.48 1589.05 1861.67C1590.5 1863.83 1590.52 1863.82 1597.84 1858.67C1601.87 1855.83 1605.55 1853.05 1606.02 1852.5C1606.5 1851.92 1605.39 1849.19 1603.35 1846C1601.43 1842.97 1597.35 1835.55 1594.29 1829.5C1591.23 1823.45 1586.83 1813.55 1584.5 1807.5C1582.18 1801.45 1579.1 1792 1577.67 1786.5C1576.24 1781 1574.37 1772.45 1573.52 1767.5C1572.67 1762.55 1571.64 1753.37 1571.23 1747.09L1570.5 1735.68C1563.71 1726.24 1561.44 1723.16 1561.07 1722.75C1560.71 1722.33 1547.38 1731.24 1531.45 1742.54ZM476.97 1746.28C473.37 1747.5 467.78 1750.07 464.53 1752C461.29 1753.92 454.98 1759.1 450.52 1763.5C446.05 1767.9 439.89 1775.32 436.81 1780C433.73 1784.67 429.64 1791.65 427.72 1795.5C425.8 1799.35 423.48 1804.97 422.57 1808C421.67 1811.02 420.52 1816.65 420.02 1820.5C419.47 1824.74 419.49 1830.46 420.05 1835C420.64 1839.66 422.1 1844.77 423.91 1848.5C425.51 1851.8 428.82 1856.75 431.26 1859.5C433.69 1862.25 438.57 1866.4 442.09 1868.71C445.62 1871.03 450.97 1873.79 454 1874.84C457.02 1875.9 461.97 1877.08 465 1877.47C468.16 1877.87 473.27 1877.68 477 1877.02C480.57 1876.39 487.1 1874.13 491.5 1871.99C495.9 1869.86 502.41 1865.73 505.97 1862.81C509.52 1859.89 515.15 1854.06 518.47 1849.85C521.79 1845.64 526.59 1838.66 529.15 1834.35C531.71 1830.03 534.99 1823.57 536.42 1820C537.86 1816.42 539.71 1810.24 540.52 1806.25C541.33 1802.26 541.99 1797.09 541.98 1794.75C541.97 1792.41 541.3 1787.35 540.48 1783.5C539.66 1779.65 537.76 1774.04 536.25 1771.04C534.74 1768.03 531.02 1763.05 528 1759.96C524.97 1756.87 519.57 1752.73 516 1750.76C512.42 1748.79 507.02 1746.45 504 1745.58C500.97 1744.7 495.12 1744 491 1744.02C485.95 1744.04 481.36 1744.78 476.97 1746.28Z" />
		<path id="Path 40" class="shp0" d="M483.81 1768.87C482.32 1769.33 479.62 1770.5 477.81 1771.49C475.99 1772.47 472.72 1774.67 470.55 1776.39C468.38 1778.1 463.94 1782.87 460.69 1787C457.43 1791.12 453.26 1797.2 451.43 1800.5C449.59 1803.8 447.13 1809.2 445.97 1812.5C444.63 1816.28 443.82 1821.09 443.77 1825.5C443.72 1830.84 444.27 1833.78 446.1 1837.9C447.42 1840.87 450.19 1844.81 452.25 1846.65C454.31 1848.49 457.69 1850.72 459.75 1851.59C461.91 1852.51 466.26 1853.18 470 1853.17C475.2 1853.15 477.7 1852.55 482.5 1850.15C485.8 1848.5 490.78 1844.97 493.56 1842.32C496.34 1839.67 500.78 1834.57 503.42 1831C506.06 1827.42 510.02 1820.9 512.23 1816.5C514.43 1812.1 516.84 1805.57 517.56 1802C518.46 1797.59 518.61 1794.05 518.02 1791C517.54 1788.52 516.66 1785.26 516.07 1783.75C515.48 1782.24 513.31 1779.15 511.25 1776.88C509.19 1774.61 505.7 1771.84 503.5 1770.73C501.05 1769.49 496.98 1768.57 493 1768.38C489.42 1768.2 485.29 1768.42 483.81 1768.87Z" />
		<path id="Path 41" class="shp1" d="M1443.5 1795.8C1440.75 1796.82 1437.15 1798.49 1435.5 1799.51C1433.85 1800.52 1430.77 1802.96 1428.66 1804.93C1426.55 1806.89 1423.66 1810.75 1422.22 1813.5C1420.12 1817.54 1419.61 1819.94 1419.56 1826C1419.52 1830.93 1420.13 1835.21 1421.34 1838.5C1422.35 1841.25 1424.86 1845.97 1426.91 1849C1429.37 1852.61 1432.52 1855.62 1436.08 1857.76C1439.38 1859.75 1443.35 1861.21 1446.25 1861.51L1451 1862C1446.85 1869.84 1446.5 1872.06 1446.5 1880.5C1446.5 1889.91 1446.71 1890.94 1450.09 1898C1452.15 1902.3 1455.98 1907.99 1459.09 1911.35C1462.69 1915.24 1466.67 1918.25 1470.98 1920.35C1476.71 1923.13 1478.46 1923.5 1486 1923.5C1493.55 1923.5 1495.3 1923.13 1501.02 1920.35C1505.07 1918.38 1509.39 1915.19 1512.52 1911.85C1515.6 1908.57 1518.22 1904.56 1519.29 1901.5C1520.33 1898.49 1521.03 1893.51 1521.03 1889C1521.04 1884.37 1520.29 1879.01 1519.07 1875C1517.98 1871.42 1515.35 1865.8 1513.22 1862.5C1511.1 1859.2 1507.59 1854.96 1505.43 1853.07C1503.27 1851.19 1499.47 1848.78 1497 1847.71C1494.52 1846.64 1490.4 1845.49 1487.84 1845.14L1483.17 1844.5C1485.98 1839.39 1486.47 1835.98 1486.48 1829.99C1486.5 1822.44 1486.14 1820.73 1483.34 1814.99C1481.6 1811.42 1478.33 1806.59 1476.09 1804.25C1473.84 1801.91 1469.64 1798.81 1466.75 1797.35C1463.15 1795.53 1459.46 1794.59 1455 1794.33C1450.37 1794.06 1447.06 1794.48 1443.5 1795.8ZM597.05 1807.81C596.05 1809.84 588.04 1827.02 579.26 1846C570.47 1864.97 561.92 1884.1 560.26 1888.5C558.6 1892.9 556.68 1898.97 555.99 1902C555.29 1905.02 554.92 1910.65 555.16 1914.5C555.46 1919.25 556.44 1923.27 558.21 1927C559.78 1930.33 562.92 1934.41 566.16 1937.35C569.1 1940.02 575.55 1944.19 580.5 1946.61C585.45 1949.04 592.2 1951.52 595.5 1952.12C598.8 1952.72 603.97 1952.92 607 1952.56C610.02 1952.21 614.86 1950.81 617.75 1949.46C620.64 1948.11 624.91 1945.04 627.25 1942.64C629.59 1940.25 633.74 1934.51 636.48 1929.89C639.23 1925.28 649.89 1903.5 660.17 1881.5L678.88 1841.5C663.08 1834.12 658.43 1832.1 658.34 1832.24C658.25 1832.38 650.24 1849.6 640.53 1870.5C630.83 1891.4 621.39 1911.2 619.55 1914.5C617.72 1917.8 614.37 1922.19 612.11 1924.25C609.18 1926.93 606.78 1928.16 603.75 1928.56C601.06 1928.92 597.85 1928.53 595 1927.52C592.52 1926.64 588.92 1924.84 587 1923.52C585.07 1922.2 582.43 1919.18 581.12 1916.81C579.47 1913.82 578.76 1910.97 578.8 1907.5C578.83 1904.75 579.85 1899.8 581.08 1896.5C582.31 1893.2 591.35 1873.17 601.16 1852C610.98 1830.82 618.89 1813.45 618.75 1813.39C618.61 1813.34 614.08 1811.23 608.68 1808.7L598.87 1804.12L597.05 1807.81Z" />
		<path id="Path 42" class="shp0" d="M1448.2 1816.38C1446.38 1817.14 1444 1819.05 1442.91 1820.63C1441.65 1822.46 1440.94 1825.13 1440.94 1828C1440.95 1830.75 1441.87 1834.25 1443.3 1837C1444.59 1839.47 1447.19 1842.53 1449.07 1843.78C1451.32 1845.27 1453.96 1846.05 1456.75 1846.03C1459.95 1846.01 1461.76 1845.32 1464.06 1843.25C1465.75 1841.74 1467.57 1839.15 1468.12 1837.5C1468.77 1835.51 1468.76 1833.15 1468.1 1830.5C1467.54 1828.3 1466.06 1824.97 1464.8 1823.09C1463.53 1821.22 1461.37 1818.86 1460 1817.85C1458.62 1816.85 1456.15 1815.79 1454.5 1815.51C1452.85 1815.23 1450.01 1815.62 1448.2 1816.38Z" />
		<path id="Path 43" class="shp1" d="M1346.02 1841.21L1338.55 1844.23C1338.94 1852.39 1338.18 1857.37 1336.94 1861.5C1335.78 1865.35 1333.46 1870.97 1331.79 1874C1330.12 1877.02 1327.26 1881.3 1325.43 1883.5L1322.11 1887.5C1328.61 1904.15 1330.84 1908.99 1331.25 1908.99C1331.66 1909 1334.03 1906.41 1336.5 1903.25C1338.98 1900.09 1342.87 1893.9 1345.16 1889.5C1349.04 1882.03 1349.37 1881.67 1350.22 1884C1350.71 1885.37 1358.58 1905.62 1367.7 1929C1376.81 1952.37 1384.33 1971.57 1384.39 1971.65C1384.45 1971.73 1388.77 1970.08 1394 1967.98C1401.5 1964.97 1403.45 1963.78 1403.27 1962.33C1403.14 1961.32 1392.28 1933.05 1379.12 1899.5C1365.96 1865.95 1354.82 1838.43 1354.35 1838.34C1353.88 1838.25 1350.14 1839.54 1346.02 1841.21ZM722.58 1859.18C722.28 1859.91 714 1888.17 704.17 1922C694.34 1955.82 686.01 1984.4 685.67 1985.5C685.1 1987.29 686.03 1987.79 694.52 1990.25C699.73 1991.76 704.34 1992.83 704.75 1992.61C705.16 1992.4 710.9 1973.75 717.5 1951.17C724.1 1928.59 729.6 1910.2 729.73 1910.31C729.85 1910.41 733.79 1930.97 738.48 1956C743.17 1981.02 747.2 2002.4 747.44 2003.5C747.77 2005.08 750.12 2006.18 758.68 2008.74C764.63 2010.52 769.55 2011.87 769.6 2011.74C769.66 2011.61 778.11 1982.47 788.38 1947C798.65 1911.52 806.93 1882.44 806.78 1882.37C806.62 1882.3 802.22 1881.04 797 1879.58C791.67 1878.08 787.28 1877.31 787 1877.83C786.72 1878.34 781.1 1897.25 774.5 1919.85C767.9 1942.45 762.22 1960.62 761.89 1960.22C761.55 1959.83 757.35 1938.12 752.55 1912C747.75 1885.87 743.75 1864.41 743.66 1864.29C743.57 1864.18 739.67 1862.93 735 1861.53C730.32 1860.12 725.74 1858.72 724.81 1858.41C723.88 1858.11 722.88 1858.46 722.58 1859.18Z" />
		<path id="Path 44" class="shp0" d="M1472.25 1864C1470.46 1865.1 1468.21 1867.22 1467.25 1868.71C1466.14 1870.42 1465.52 1873.26 1465.56 1876.46C1465.6 1879.45 1466.55 1883.54 1467.89 1886.5C1469.14 1889.25 1471.3 1892.85 1472.7 1894.5C1474.09 1896.15 1476.86 1898.51 1478.86 1899.74C1481.29 1901.24 1484.08 1901.99 1487.25 1901.99C1491.03 1902 1492.63 1901.44 1495.06 1899.25C1496.75 1897.74 1498.6 1894.92 1499.19 1893C1499.77 1891.07 1499.93 1887.7 1499.55 1885.5C1499.17 1883.3 1497.79 1879.25 1496.48 1876.5C1495.17 1873.75 1492.62 1869.97 1490.8 1868.1C1488.99 1866.23 1486.04 1864.1 1484.25 1863.35C1482.46 1862.61 1479.76 1862 1478.25 1862C1476.74 1862.01 1474.04 1862.91 1472.25 1864Z" />
		<path id="Path 45" class="shp1" d="M1650 1864.4C1647.52 1865.07 1643.47 1866.59 1641 1867.78C1638.52 1868.96 1633.84 1872.08 1630.58 1874.71C1627.33 1877.35 1622.95 1881.97 1620.85 1885C1618.75 1888.02 1616.06 1892.97 1614.88 1896C1613.36 1899.88 1612.58 1904.6 1612.22 1912C1611.79 1920.77 1612.06 1923.66 1613.8 1929.5C1614.95 1933.35 1617.64 1939.2 1619.77 1942.5C1621.9 1945.8 1626.08 1950.71 1629.07 1953.4C1632.06 1956.1 1637.65 1959.8 1641.5 1961.63C1646.09 1963.82 1651.26 1965.34 1656.5 1966.05C1662.18 1966.81 1666.46 1966.82 1671.25 1966.06C1674.96 1965.48 1679.91 1964.25 1682.25 1963.33C1684.59 1962.41 1688.75 1960.23 1691.5 1958.5C1694.25 1956.76 1698.94 1952.67 1701.91 1949.42C1705.01 1946.03 1708.84 1940.29 1710.87 1936C1714.12 1929.14 1714.46 1927.56 1714.85 1917.5C1715.21 1908.4 1714.93 1905.29 1713.21 1899.5C1712.07 1895.65 1709.19 1889.61 1706.82 1886.07C1704.44 1882.53 1700.25 1877.7 1697.5 1875.32C1694.75 1872.95 1689.8 1869.68 1686.5 1868.06C1683.2 1866.45 1678.47 1864.66 1676 1864.09C1673.52 1863.52 1667.67 1863.08 1663 1863.11C1658.32 1863.15 1652.47 1863.73 1650 1864.4Z" />
		<path id="Path 46" class="shp0" d="M1654 1870.37C1650.97 1871.03 1646.25 1872.68 1643.5 1874.03C1640.75 1875.38 1635.54 1879.41 1631.92 1882.99C1627.99 1886.88 1624.3 1891.71 1622.74 1895C1621.31 1898.02 1619.59 1903.87 1618.92 1908C1617.99 1913.74 1617.97 1917.02 1618.86 1922C1619.49 1925.57 1621.17 1930.97 1622.6 1934C1624.03 1937.02 1627.8 1942.2 1630.98 1945.5C1634.16 1948.8 1639.4 1952.91 1642.63 1954.63C1645.86 1956.35 1650.97 1958.33 1654 1959.02C1657.47 1959.82 1662.46 1960.06 1667.5 1959.68C1673.69 1959.21 1677.09 1958.32 1682.5 1955.73C1686.89 1953.63 1691.64 1950.26 1695.25 1946.69C1698.41 1943.56 1702.29 1938.41 1703.87 1935.25C1705.46 1932.09 1707.26 1927.14 1707.87 1924.25C1708.49 1921.36 1709 1916.86 1709 1914.25C1709.01 1911.64 1708.3 1906.8 1707.44 1903.5C1706.58 1900.2 1704.67 1895.3 1703.19 1892.62C1701.71 1889.93 1697.8 1885.19 1694.5 1882.09C1691.2 1878.98 1686.02 1875.26 1683 1873.81C1679.97 1872.37 1674.8 1870.69 1671.5 1870.09C1668.2 1869.48 1664.15 1869.03 1662.5 1869.08C1660.85 1869.13 1657.02 1869.71 1654 1870.37Z" />
		<path id="Path 47" class="shp1" d="M1643 1915.5L1643 1943L1649 1943L1649 1919C1656.75 1919 1660.57 1919.67 1662.5 1920.5C1664.49 1921.35 1667.23 1923.83 1668.87 1926.25C1670.44 1928.59 1673.14 1933.31 1674.87 1936.75C1677.93 1942.85 1678.09 1943 1682 1943C1684.2 1943 1686 1942.77 1686 1942.5C1686 1942.22 1684.24 1938.29 1682.09 1933.75C1679.95 1929.21 1676.68 1924.03 1674.84 1922.23C1673.01 1920.43 1671.16 1918.97 1670.75 1918.98C1670.34 1918.99 1669.99 1918.66 1669.98 1918.25C1669.96 1917.84 1671.2 1917.21 1672.73 1916.85C1674.25 1916.5 1676.96 1915.03 1678.75 1913.6C1680.58 1912.14 1682.49 1909.36 1683.12 1907.25C1683.78 1905.05 1683.94 1901.85 1683.5 1899.5C1683.09 1897.27 1681.6 1894.34 1680.13 1892.89C1678.68 1891.45 1675.7 1889.76 1673.5 1889.14C1671.3 1888.52 1663.54 1888.01 1656.25 1888.01L1643 1888L1643 1915.5ZM853.56 1892.9C853.45 1893.25 849.44 1923.23 844.66 1959.52C839.87 1995.81 836.08 2025.6 836.23 2025.72C836.38 2025.83 846.85 2027.34 859.5 2029.07C875.68 2031.27 884.87 2032.06 890.5 2031.74C895.76 2031.44 900.21 2030.52 903.5 2029.06C906.25 2027.84 910.44 2025.41 912.81 2023.67C915.18 2021.93 918.83 2018.02 920.93 2015C923.03 2011.97 925.87 2007.25 927.26 2004.5C928.64 2001.75 930.74 1996.35 931.93 1992.5C933.11 1988.65 934.79 1981.22 935.66 1976C936.53 1970.77 937.24 1960.65 937.26 1953.5C937.27 1944.37 936.75 1938.41 935.52 1933.5C934.56 1929.65 932.13 1923.39 930.14 1919.59C928.04 1915.6 924.38 1910.73 921.5 1908.06C918.09 1904.92 914.43 1902.73 910 1901.2C906.09 1899.85 894.55 1897.77 881 1895.98C868.62 1894.34 857.44 1892.84 856.14 1892.64C854.83 1892.43 853.68 1892.55 853.56 1892.9ZM1135.16 1897.86L1113.81 1901.5C1114.6 1905.37 1119.43 1935.07 1125.05 1970C1130.68 2004.92 1135.47 2033.72 1135.69 2034C1135.91 2034.27 1146.54 2032.77 1159.3 2030.66C1172.06 2028.54 1185.2 2025.94 1188.5 2024.87C1191.8 2023.8 1196.73 2021.25 1199.45 2019.21C1202.18 2017.17 1206.11 2013.25 1208.2 2010.5C1210.28 2007.75 1212.87 2002.8 1213.94 1999.5C1215.02 1996.2 1216.37 1990.8 1216.95 1987.5C1217.54 1984.2 1218.01 1977.9 1218 1973.5C1217.99 1969.1 1217.27 1960.77 1216.4 1955C1215.53 1949.22 1213.7 1940.67 1212.34 1936C1210.97 1931.32 1207.97 1923.9 1205.68 1919.51C1203.3 1914.97 1199.13 1909.08 1196 1905.86C1192.53 1902.29 1188.1 1899.06 1184 1897.1C1177.93 1894.21 1176.8 1894.01 1167 1894.11C1159.96 1894.19 1149.46 1895.43 1135.16 1897.86Z" />
		<path id="Path 48" class="shp0" d="M1649.99 1903.75L1649.99 1913.5C1666.88 1912.34 1670.15 1911.67 1671.91 1910.33C1673.23 1909.32 1674.64 1907.37 1675.04 1906C1675.43 1904.62 1675.47 1902.18 1675.13 1900.56C1674.75 1898.77 1673.32 1896.91 1671.5 1895.81C1669.19 1894.42 1666.39 1894.01 1659.25 1894L1650 1894L1649.99 1903.75Z" />
		<path id="Path 49" class="shp1" d="M1011 1905.75L987.5 1906.03C988.65 1954.44 989.28 1984.92 989.64 2005L990.28 2041.5C1026.1 2040.34 1044.94 2040 1055.25 2040L1074 2040L1074 2016.5L1012 2018C1011.53 1990.49 1011.53 1982.16 1011.7 1981.75C1011.86 1981.34 1021.56 1981 1033.25 1981.01C1044.94 1981.01 1057.32 1980.67 1060.76 1980.26L1067.02 1979.5L1067 1958L1011.5 1958.18L1010.94 1929.5C1025.32 1928.33 1038.61 1927.99 1049.75 1928L1070 1928L1070 1905C1042.49 1905.36 1023.92 1905.59 1011 1905.75Z" />
		<path id="Path 50" class="shp0" d="M1150.5 1918.71C1145 1919.53 1140.39 1920.28 1140.25 1920.36C1140.11 1920.43 1143.17 1940.07 1147.04 1964C1150.91 1987.92 1154.18 2007.6 1154.29 2007.71C1154.41 2007.83 1159.9 2007.01 1166.5 2005.9C1173.1 2004.78 1180.3 2003.07 1182.5 2002.1C1184.7 2001.13 1187.88 1998.8 1189.57 1996.92C1191.48 1994.79 1193.09 1991.51 1193.82 1988.25C1194.47 1985.36 1195 1979.62 1195 1975.5C1195 1971.37 1194.12 1962.94 1193.05 1956.75C1191.98 1950.56 1190.21 1942.57 1189.11 1939C1188.02 1935.42 1185.59 1930.25 1183.71 1927.5C1181.32 1923.99 1178.69 1921.67 1174.9 1919.72C1171.11 1917.77 1168.16 1916.98 1165 1917.07C1162.52 1917.14 1156 1917.88 1150.5 1918.71ZM872.57 1920.21C872.27 1921.47 869.58 1941.17 866.6 1964C863.62 1986.82 861.25 2005.61 861.34 2005.75C861.43 2005.88 867.57 2006.73 875 2007.64C885.65 2008.93 889.4 2009.04 892.75 2008.14C895.09 2007.51 898.41 2005.76 900.14 2004.25C901.86 2002.74 904.17 1999.7 905.28 1997.5C906.38 1995.3 907.92 1991.7 908.7 1989.5C909.47 1987.3 910.74 1982.57 911.5 1979C912.27 1975.42 913.37 1967.44 913.95 1961.25C914.66 1953.63 914.68 1947.9 914 1943.5C913.45 1939.92 912.14 1935.31 911.1 1933.25C910.05 1931.19 908.14 1928.54 906.85 1927.37C905.56 1926.19 903.04 1924.51 901.25 1923.62C899.46 1922.73 893.84 1921.32 888.75 1920.48C883.66 1919.65 878.07 1918.73 876.32 1918.44C873.61 1918 873.05 1918.27 872.57 1920.21Z" />
	</g>
</svg>
