<svg version="1.2" baseProfile="tiny" xmlns="http://www.w3.org/2000/svg" viewBox="0 0 400 400" fill-rule="evenodd" xmlns:v="https://vecta.io/nano" ><title>BBKA</title><path d="M191.4 22.666c-1.1.566-5.6 3.056-10 5.533l-36.2 20.199-7.8 4.4c-3.075 1.81-5.436 3.135-14.6 8.194l-7.8 4.419c-1.98 1.154-7.65 4.345-12.6 7.09l-15.6 8.698-14 7.783-13.4 7.494-11.6 6.523c-11.928 6.613-13.092 7.401-13.862 9.385-.51 1.312-.466 177.228.044 178.568.72 1.897.27 1.622 29.618 18.026l21.8 12.212c13.82 7.773 18.06 10.01 18.975 10.01 2.033 0 3.016-1.825 6.05-11.237 10.508-32.586 23.813-58.64 37.4-73.238 1.907-2.049 4.47-4.985 5.697-6.525 6.2-7.781 8.645-7.664 7.663.365l-.79 6.835-.37 3.273c-.014.04-2.387 2.92-5.274 6.4-13.744 16.565-27.22 44.755-34.943 73.095-2.208 8.102-1.83 9.43 3.478 12.233 1.383.73 5.124 2.803 8.314 4.607l47.6 26.674 9.588 5.36c6.246 3.517 6.636 3.477 15.612-1.607l32.2-18.025 11.8-6.597 36.4-20.406 40.1-22.449 19.23-10.758c10.4-5.809 11.545-6.678 12.22-9.355.62-2.462.645-174.536.026-176.766-.71-2.554-2.13-3.574-14.773-10.599l-33.757-18.85L282.4 69.398l-26.8-15.011-14.6-8.204-29.4-16.499c-16-9.001-16.2-9.07-20.2-7.018m32.906 43.104c6.793 1.808 8.87 5.049 9.2 14.359.26 7.286.525 7.85 3.243 6.889 4.96-1.751 10.172.329 12.4 4.951 1.298 2.68 2.454 2.883 5.302.929 8.807-6.04 19.71-6.33 27.822-.739 8.302 5.72 6.976 13.548-4.142 24.463-8.102 7.953-8.058 7.631-1.042 7.601 6.056-.025 9.24.958 11 3.397 1.747 2.419.908 2.665-10.1 2.962-9.134.245-10.782-.017-11.2-1.782-.353-1.458-2.176-1.263-6.84.729-7.886 3.37-17.55 4.24-17.55 1.579 0-.867 1.958-2.91 7.33-7.651 3.917-3.457 4.538-4.351 3.935-5.673-.93-2.04-2.99-1.253-7.865 3.002-1.54 1.343-4.934 4.191-7.543 6.328l-5.813 4.77c-7.14 5.903-6.3.295 2.206-14.544 3.77-6.583 3.776-7.303.088-9.171-3.72-1.886-4.256-1.242-6.546 7.88-4.552 18.126-6.395 22.079-10.553 22.637-3.847.515-3.953.016-4.29-20.185-.3-17.852-.387-18.501-2.515-18.501-2.182 0-2.233.393-2.233 17.343 0 19.72.308 18.998-6.747 15.802-2.638-1.195-4.45-1.735-6.526-1.944-3.22-.324-2.37.245-10.865-7.287-19.34-17.147-41.03-29.293-40.387-22.614.137 1.421.25 1.499 5.97 4.043 9.2 4.088 34.537 23.06 35.4 26.496.723 2.882-4.235 3.475-11.443 1.369-.77-.224-3.11-.412-5.2-.417-4.102-.009-5.604-.466-8.902-2.707-3.15-2.14-25.764-15.639-32.362-19.318-9.916-5.528-15.22-10.206-18.457-16.28-4.94-9.268-.4-18.092 6.36-12.333 3.385 2.888 3.15 2.844 15.558 2.873 12.228.028 13.46.155 25.35 2.619 17.5 3.625 22.862 6.759 33.728 19.717 5.58 6.651 5.728 6.551 6.098-4.08.74-21.198 3.174-30.591 8.903-34.34 4.844-3.169 13.73-4.635 19.228-3.172m-38.588 12.495c5.234 1.469 7.187 6.185 5.648 13.637-1.608 7.787-2.756 8.053-12.166 2.819-3.63-2.019-8.578-4.672-10.996-5.896-6.887-3.486-6.56-5.556 1.335-8.443 7.036-2.573 12.162-3.244 16.18-2.117m-63.145 38.181c9.2 2.411 30.973 15.162 32.6 19.091.703 1.697.494 2.056-2.646 4.559-4.526 3.606-5.533 3.806-10.558 2.09-13.4-4.579-36.336-5.617-48.17-2.181-8.43 2.449-12.026 2.521-13.6.275-1.614-2.305-.547-4.396 4.728-9.266 13.592-12.548 26.416-17.511 37.644-14.568M301.6 133.959c18.46 2.949 23.787 9.684 14.673 18.549-4.595 4.469-4.628 4.77-.96 8.658 5.07 5.375 4.124 9.171-3.16 12.667-5.54 2.659-5.503 3.554.31 7.156 13.875 8.599 18.038 18.256 10.4 24.101-3.436 2.626-15 3.749-26.027 2.531-6.88-.76-6.906-.726-7.212 9.979-.22 7.674-.244 7.842-1.458 10.4-5.307 11.18-12.045 10.772-26.755-1.619-5.83-4.912-16.465-12.863-18.118-13.548-2.84-1.175-4.23.55-5.094 6.322-.677 4.524-1.16 5.645-2.435 5.645-1.62 0-1.597.07-3.93-12.2-.292-1.54-1.26-4.42-2.15-6.4s-2.106-5.545-2.7-7.922c-1.57-6.279-2.995-7.988-5.708-6.848-2.15.904-2.822 3.079-3.672 11.862-.405 4.188-.913 7.79-1.13 8.006-.8.8-1.197-.191-1.444-3.599-1.272-17.528-1.527-17.989-11.885-21.537-7.375-2.526-10.64-4.287-18.645-10.052-7.62-5.487-11.115-5.063-12.847 1.56-.732 2.799-1.744 3.567-2.217 1.682-.378-1.505.136-5.892 1.016-8.662 1.302-4.101-.904-6.484-4.5-4.862-1.914.862-2.324.56-3.294-2.428-1.01-3.107-1.93-4.188-6.135-7.206-9.934-7.13-9.148-11.028 3.536-17.521 8.368-4.283 9.387-4.468 15.72-2.846 5.622 1.44 8.063 1.404 13.183-.194 5.91-1.845 8.784-1.75 12.91.422 12.302 6.479 12.544 6.515 21.742 3.259 7.2-2.549 10.478-3.233 18.8-3.92 4.07-.336 8.84-.803 10.6-1.039 12.38-1.658 39.325-1.877 48.6-.396m-36.4 2.465c-27.09 1.6-42 4.911-42 9.325 0 2.062 1.622 2.306 6.937 1.044 15.14-3.596 49.114-.38 69.883 6.614 6.062 2.041 8.53 1.522 13.49-2.834 11.722-10.296-9.303-16.454-48.31-14.149m35.823 2.116c12.86 2.265 16.97 5.798 12.083 10.385-4.625 4.343-7.06 4.997-11.982 3.219-18.685-6.747-54.452-10.417-69.924-7.174-4.783 1.003-6.128.794-4.483-.695 2.762-2.499 13.774-4.473 32.683-5.856l7.6-.584c4.806-.432 30.6.102 34.023.705m-104.5.538c-1.307.255-2.933 1.955-2.933 3.067 0 3.408 9.097 5.65 11.516 2.838 2.8-3.266-2.694-7.053-8.583-5.905m5.873 2.066c1.904 1.017 2.206 3.043.547 3.674-1.922.731-6.582-.577-7.382-2.072-1.123-2.099 3.76-3.244 6.835-1.602m-66.606 6.828c8.44 1.247 10.985 2.237 14.37 5.594 1.557 1.543 4.084 3.667 5.617 4.72 3.446 2.367 4.613 3.997 4.613 6.442 0 3.686-1.69 4.069-7.422 1.683-12.32-5.127-26.86-6.37-28.944-2.474-1.152 2.153.826 3.059 5.322 2.438 6.214-.858 15.337.998 16.058 3.268.4 1.293-.674 2.084-5.942 4.332-6.75 2.882-11.97 5.641-17.533 9.265-6.552 4.269-9.32 4.816-24.54 4.848-28.867.061-50.6-8.946-50.6-20.972 0-6.458 5.73-10.806 18.28-13.87 4.374-1.069 6.602-1.449 17.92-3.06 17.984-2.56 43.276-3.621 52.8-2.214m27.713-.072c-3.032 3.476-1.024 8.812 2.075 5.513 1.232-1.311 1.6-4.567.627-5.541-.867-.866-1.93-.856-2.702.028m79.06.519c-15.53 2.028-21.41 8.796-8.348 9.607 4.663.29 7.633.634 17.376 2.014 13.658 1.935 30.648 6.544 41.374 11.223 7.155 3.122 16.278 2.379 20.3-1.653 7.2-7.19-13.184-16.55-45.684-20.988-4.93-.673-20.466-.799-25.028-.203m24.028 1.812c30.802 3.274 56.14 14.893 43.1 19.768-6.91 2.586-9.86 2.494-17.145-.534-15.98-6.644-44.666-13.056-58.44-13.063-3.422-.002-4.926-.479-4.926-1.563 0-4.259 18.844-6.58 37.4-4.608m-102.155 1.084c-.327.327-.445.282-.445-.168 0-.795.538-1.333.737-.737.084.253-.047.66-.292.905m65.287 9.46c-2.655 1.205-3.263 3.424-1.75 6.388 1.832 3.591 4.095 5.347 13.12 10.183l11.4 6.102c5.927 3.169 11.638 6.488 18.553 10.782 15.445 9.59 30.64 13.329 43.877 10.796 12.362-2.365 11.106-11.579-2.828-20.747-17.952-11.812-41.603-19.87-67.702-23.066-1.87-.229-4.48-.595-5.8-.812-3.738-.617-6.987-.48-8.868.374m9.995 1.444c12.1 1.675 16.137 2.313 21.56 3.412 31.322 6.346 62.902 23.812 60.272 33.336-1.032 3.738-3.994 4.633-15.334 4.633-14.88 0-19.524-1.601-39.424-13.596-5.4-3.249-13.13-7.662-17.2-9.807-14.238-7.504-17.94-9.858-19.71-12.531-3.45-5.214-.457-6.872 9.836-5.447m-20.096 8.417c-4.652 3.913 7.787 12.469 28.448 19.567 7.382 2.536 7.92 2.79 7.92 3.733 0 1.506-4.054 4.331-8.094 5.638-4.26 1.379-3.692 6.142.65 5.448 3.666-.587 10.4-4.482 11.876-6.872 3.1-5.018.528-7.518-17.6-17.111-7.94-4.2-11.923-6.636-14.8-9.057-3.2-2.691-6.216-3.175-8.39-1.346m4.54.553c.563.214 2.176 1.339 3.585 2.5 3.01 2.481 6.612 4.668 15.065 9.143 12.443 6.587 13.94 8.75 3.706 5.358-13.527-4.483-26.91-12.344-26.448-15.535.208-1.436 2.25-2.167 4.092-1.466m30.53.443c-1.88 1.096-.365 4.008 3.007 5.773 3.136 1.642 5.493.799 5.493-1.964 0-2.744-5.838-5.36-8.5-3.809m-89.1 1.531c.935.691.998.959.967 4.113-.042 4.203-.572 5.191-4.05 7.55-5.437 3.687-7.19 7.574-3.418 7.574.35 0 2.45-1.222 4.668-2.717 8.046-5.419 22.028-8.809 26.8-6.498 6.355 3.076 5.553 9.057-2.35 17.543-4.673 5.018-4.8 5.272-2.846 5.272 3.71 0 3.515 1.031-2.395 12.577-5.3 10.351-5.833 12.08-4.073 13.182 1.322.828 2.695-.495 5.15-4.959 7.442-13.537 9.877-14.747 6.31-3.135l-2.798 9.135c-2.315 7.596-4.018 25.941-4.157 44.8l-.1 13.4-1.092 3c-4.4 12.112-14.65 13.145-20.385 2.056-1.66-3.209-2.518-23.377-1.458-34.256.235-2.42.428-6.174.43-8.342 0-6.395 3.02-14.005 12.676-31.945 5.306-9.859 3.952-10.124-4.666-.913-2.47 2.64-5.744 6.467-7.274 8.505-3.157 4.204-3.788 4.712-12.336 9.938-22.1 13.517-37.3 16.848-51.63 11.321-12.738-4.912-21.45-17.554-15.53-22.535 1.316-1.107 1.672-1.225 5.417-1.796 6.7-1.021 19.376-11.557 27.228-22.633 5.294-7.467 9.27-11.468 17.972-18.091 12.99-9.885 28.347-15.547 32.945-12.146m94.487.507c2.152.824 1.617 3.544-.588 2.991-1.41-.354-3.1-1.803-3.1-2.657 0-1.239 1.07-1.336 3.687-.334m-81.26 1.544c1.79.957.297 3.586-2.035 3.586-1.267 0-1.99-.673-1.99-1.851 0-1.81 2.153-2.738 4.026-1.735m90.284 2.61c-3.372 1.829-2.44 5.289 2.15 7.979 5.324 3.12 8.364 3.521 11.89 1.567.963-.534 1.795-.97 1.85-.97s.213.868.354 1.929c.435 3.281 2.807 4.771 9.93 6.237 5.316 1.093 7.594.701 8.644-1.489 2.36-4.922-10.54-11.24-16.49-8.077-1.034.55-1.937 1-2.006 1s-.226-.738-.347-1.639c-.38-2.834-2.276-4.247-8.206-6.115-3.714-1.17-6.148-1.302-7.77-.422m7.872 1.79c6.263 2.007 8.285 5.09 4.59 7.001-3.202 1.656-12.363-1.938-12.784-5.015-.448-3.275 2.18-3.912 8.195-1.986m19.612 7.078c8.512 2.67 8.262 8.206-.303 6.713-7.824-1.365-10.972-3.851-8.44-6.665 1.6-1.779 3.197-1.787 8.744-.048m-88.747 4.073c2.865 1.302 4.213 4.517 4.268 10.181.05 5.297-.91 6.163-3.723 3.354-2.47-2.467-2.824-3.152-3.632-7.015-1.44-6.893-.785-8.278 3.087-6.52m51.067 5.755c.903 2.353-9.733 8.433-11.558 6.608-.927-.927-.455-1.412 2.83-2.909 1.596-.727 3.87-1.974 5.053-2.771 2.26-1.521 3.342-1.795 3.675-.928m-35.476 2.024c1.134 1.42 4.475 8.547 5.75 12.265.417 1.215 1.053 4.365 1.412 7 1.183 8.655 2.097 10.591 5.004 10.591 2.15 0 3.67-1.401 4.758-4.386 1.526-4.185 2.557-3.677 10.738 5.293 5.947 6.52 9.646 11.148 12.616 15.781 2.573 4.014 5.093 4.492 5.076.963-.007-1.436-.27-1.987-4.14-8.641-2.99-5.143-2.64-5.373 3.4-2.243 8.965 4.645 12.1 4.817 17.69.972 3.063-2.108 4.32-1.32 8.92 5.584 12.785 19.191 17.15 45.697 7.948 48.273-15.713 4.4-44.268-16.016-69.648-49.796l-6.22-8.217c-8.892-11.692-9.296-12.564-7.99-17.233.532-1.895.97-5.225 1.23-9.312.52-8.199 1.25-9.655 3.452-6.894m45.067 1.537c-3.837 4.287-5.15 5.191-11.233 7.741-4.455 1.868-2.805 6.15 1.92 4.978 8.404-2.084 16.443-10.248 13.4-13.609-1.14-1.26-2.41-.984-4.087.89m2.953.926c1.337 3.485-11.97 12.653-14.578 10.044-.88-.88-.257-1.458 3.068-2.841 3.552-1.478 5.22-2.607 7.973-5.395 2.47-2.5 3.14-2.843 3.537-1.808m-66.418.531c.643.752 1.484 2.636 4.045 9.062l1.434 3.6-.484 12.6c-.96 25.037-.646 32.131 1.45 32.657 2.137.536 2.514-.546 2.52-7.219.025-27.485 1.792-32.269 7.754-20.988.858 1.622 3.8 6.306 6.516 10.408 6.847 10.303 7.42 12.573 6.54 25.905-1.825 27.701-11.464 48.898-25.395 55.85-6.84 3.412-14.16-5.548-16.258-19.901-.575-3.932-.24-51.995.41-58.912l.845-9.4c.6-7.057 2.198-17.66 3.177-21.2.883-3.193 2.176-8.259 2.588-10.134.556-2.538 3.477-3.938 4.856-2.328m74.23 2.785c-.588.618-1.718 2.208-2.5 3.534-1.656 2.769-3.8 4.355-8.883 6.543-4.65 2.005-5.52 3.907-2.56 5.589 3.28 1.863 13.625-4.31 16.61-9.912 2.4-4.503.358-8.922-2.658-5.754m2.257 2.366c.506 3.545-7.718 10.885-13.39 11.949-2.635.495-3.346-1.696-.8-2.47 4.453-1.353 8.557-4.308 10.88-7.833 1.892-2.872 3.053-3.449 3.31-1.646m43.5 3.811c5.8 3.908 11.23 13.83 12.774 23.3 1.974 12.109-.97 16.853-10.4 16.767-7.197-.065-9.775-1.168-22-9.41-14.66-9.884-14.645-9.867-13.633-14.54.336-1.549.732-5.305.88-8.346.387-7.886-.6-7.257 11.617-7.33 8.34-.05 10.513-.188 13.535-.864 4.84-1.08 5.024-1.07 7.236.423" fill="#facc51"/><path d="M264.6 133.386c-4.62.297-9.84.733-11.6.969s-6.53.703-10.6 1.039c-8.322.687-11.6 1.371-18.8 3.92-6.292 2.227-7.45 2.434-10.392 1.856-2.25-.443-3.835-1.157-11.35-5.115-4.125-2.172-7-2.267-12.91-.422-5.12 1.598-7.56 1.634-13.183.194-6.333-1.622-7.352-1.437-15.72 2.846-12.684 6.493-13.47 10.391-3.536 17.521 4.206 3.018 5.126 4.099 6.135 7.206.97 2.988 1.38 3.29 3.294 2.428 3.597-1.622 5.803.761 4.5 4.862-.88 2.77-1.394 7.157-1.016 8.662.473 1.885 1.485 1.117 2.217-1.682 1.732-6.623 5.228-7.047 12.847-1.56 8.005 5.765 11.27 7.526 18.645 10.052 10.358 3.548 10.613 4.009 11.885 21.537.247 3.408.644 4.399 1.444 3.599.216-.216.724-3.818 1.13-8.006.85-8.783 1.523-10.958 3.672-11.862 2.713-1.14 4.138.569 5.708 6.848.595 2.377 1.8 5.942 2.7 7.922s1.86 4.86 2.15 6.4c2.333 12.27 2.3 12.2 3.93 12.2 1.274 0 1.758-1.121 2.435-5.645.863-5.772 2.253-7.497 5.094-6.322 1.653.685 12.287 8.636 18.118 13.548 14.7 12.391 21.448 12.799 26.755 1.619 1.214-2.558 1.238-2.726 1.458-10.4.306-10.705.33-10.739 7.212-9.979 11.037 1.218 22.59.095 26.027-2.531 7.648-5.845 3.485-15.502-10.4-24.101-5.812-3.602-5.85-4.497-.31-7.156 7.283-3.496 8.23-7.292 3.16-12.667-3.667-3.888-3.634-4.189.96-8.658 14.274-13.884-7.552-21.961-51.673-19.122m30.942 3.003c21.247 1.757 27.756 10.066 13.494 17.224-3.014 1.513-3.975 1.491-9.016-.206-20.77-6.994-54.744-10.21-69.883-6.614-8.858 2.103-9.87-2.176-1.268-5.364 10.25-3.799 47.57-6.621 66.673-5.04m-93.758 2.849c4.984 1.255 5.402 6.501.56 7.047-3.725.42-8.745-1.957-8.745-4.14 0-2.581 3.93-3.978 8.184-2.907m-35.57 8.634c.974.974.605 4.23-.627 5.541-3.1 3.299-5.107-2.037-2.075-5.513.77-.884 1.835-.894 2.702-.028m101.385.75c32.5 4.438 52.874 13.798 45.684 20.988-4.032 4.032-13.155 4.775-20.3 1.653-10.726-4.679-27.716-9.288-41.374-11.223-9.743-1.38-12.713-1.724-17.376-2.014-13.063-.811-7.183-7.579 8.348-9.607 4.562-.596 20.097-.47 25.028.203m-29 11.779c1.32.217 3.93.583 5.8.812 26.1 3.196 49.75 11.254 67.702 23.066 13.934 9.168 15.2 18.382 2.828 20.747-13.237 2.533-28.432-1.206-43.877-10.796-6.915-4.294-12.626-7.613-18.553-10.782l-11.4-6.102c-9.024-4.836-11.287-6.592-13.12-10.183-2.75-5.393 1.708-8.232 10.62-6.762m-13.526 9.625c.62.234 1.945 1.114 2.946 1.956 2.878 2.421 6.86 4.857 14.8 9.057 18.138 9.593 20.71 12.093 17.6 17.111-1.477 2.39-8.2 6.285-11.876 6.872-4.34.694-4.908-4.069-.65-5.448 4.04-1.307 8.094-4.132 8.094-5.638 0-.943-.54-1.197-7.92-3.733-16.9-5.807-29.67-13.408-29.678-17.667-.003-2.188 3.77-3.607 6.673-2.51m31.826 3.043c-1.42.561.37 3.032 2.6 3.592 1.23.308 2.283-.659 1.93-1.773-.33-1.04-3.4-2.269-4.528-1.819m13 5.96c-2.73 1.48-1.23 4.055 3.834 6.59 5.334 2.67 9.466 1.877 9.466-1.816 0-2.788-10.208-6.452-13.3-4.774m19.5 6.54c-3.595 1.513-2.934 4.85 1.272 6.424 8.673 3.245 14.997 1.582 10.622-2.793-2.164-2.165-9.823-4.503-11.894-3.631m-16.808 13.622c3.042 3.361-4.997 11.525-13.4 13.609-4.724 1.172-6.374-3.11-1.92-4.978 6.084-2.55 7.396-3.454 11.233-7.741 1.678-1.874 2.946-2.15 4.087-.89m9.626 4.991c4.47 4.471-11.145 19.076-16.902 15.807-2.96-1.682-2.1-3.584 2.56-5.589 5.073-2.188 7.227-3.774 8.883-6.543 2.716-4.542 3.837-5.297 5.46-3.675" fill="#1e1a17"/><path d="M0 200v200h400V0H0v200M200.084 23.337c1.824.955 7.006 3.812 11.516 6.347L241 46.183l14.6 8.204 26.8 15.011 25.443 14.232 33.757 18.85c12.642 7.025 14.064 8.045 14.773 10.599.62 2.23.594 174.304-.026 176.766-.674 2.677-1.81 3.546-12.22 9.355l-19.23 10.758-40.1 22.449-36.4 20.406-11.8 6.597-32.2 18.025c-8.976 5.084-9.366 5.124-15.612 1.607l-9.588-5.36-47.6-26.674-8.314-4.607c-5.308-2.803-5.686-4.131-3.478-12.233 7.723-28.34 21.2-56.53 34.943-73.095l5.274-6.4c.014-.04.18-1.513.37-3.273l.79-6.835c.982-8.029-1.464-8.146-7.663-.365-1.226 1.54-3.8 4.476-5.697 6.525-13.586 14.598-26.89 40.652-37.4 73.238-3.035 9.412-4.018 11.237-6.05 11.237-.914 0-5.156-2.237-18.975-10.01l-21.8-12.212c-29.35-16.404-28.897-16.129-29.618-18.026-.5-1.34-.553-177.256-.044-178.568.77-1.984 1.934-2.772 13.862-9.385l11.6-6.523 13.4-7.494 14-7.783 15.6-8.698 12.6-7.09 7.8-4.419 14.6-8.194c1.76-1.035 5.27-3.016 7.8-4.4l36.2-20.199c13.87-7.809 13.327-7.668 18.684-4.862M213.2 65.822c-12.886 2.765-16.06 9.748-17.025 37.46-.37 10.631-.52 10.731-6.098 4.08C179.21 94.404 173.85 91.27 156.35 87.645c-11.9-2.464-13.12-2.591-25.35-2.619-12.41-.029-12.173.015-15.558-2.873-6.75-5.759-11.3 3.065-6.36 12.333 3.238 6.074 8.54 10.752 18.457 16.28 6.598 3.679 29.213 17.178 32.362 19.318 3.298 2.241 4.8 2.698 8.902 2.707 2.09.005 4.43.193 5.2.417 7.208 2.106 12.166 1.513 11.443-1.369-.863-3.436-26.2-22.408-35.4-26.496-5.72-2.544-5.834-2.622-5.97-4.043-.644-6.679 21.047 5.467 40.387 22.614 8.495 7.532 7.646 6.963 10.865 7.287 2.075.209 3.888.749 6.526 1.944 7.055 3.196 6.747 3.918 6.747-15.802 0-16.95.05-17.343 2.233-17.343 2.128 0 2.216.649 2.515 18.501.338 20.201.444 20.7 4.29 20.185 4.158-.558 6-4.511 10.553-22.637 2.3-9.122 2.825-9.766 6.546-7.88 3.688 1.868 3.68 2.588-.088 9.171-8.496 14.839-9.347 20.447-2.206 14.544l5.813-4.77 7.543-6.328c4.876-4.255 6.936-5.042 7.865-3.002.603 1.322-.018 2.216-3.935 5.673-5.372 4.741-7.33 6.784-7.33 7.651 0 2.661 9.665 1.791 17.55-1.579 4.663-1.992 6.486-2.187 6.84-.729.428 1.765 2.076 2.027 11.2 1.782 11.008-.297 11.847-.543 10.1-2.962-1.76-2.439-4.944-3.422-11-3.397-7.016.03-7.06.352 1.042-7.601 14.424-14.161 12.2-24.503-6.062-28.194-5.815-1.175-11.485.264-17.618 4.47-2.848 1.954-4.004 1.751-5.302-.929-2.238-4.622-7.45-6.702-12.4-4.951-2.718.961-2.983.397-3.243-6.889-.224-6.292-.6-7.877-2.533-10.399-2.95-3.868-10.364-5.499-17.774-3.908m-36.8 12.564c-4.933 1.059-10.076 3.049-11.856 4.587-2.44 2.11-1.84 3.068 3.66 5.852 2.418 1.224 7.366 3.877 10.996 5.896 9.4 5.234 10.558 4.968 12.166-2.819 2.29-11.09-3.194-16.043-14.966-13.516m-66.243 37.831C99 118.666 79.608 132.623 79.6 138.211c-.005 4.216 4.08 4.733 14.2 1.794 11.834-3.436 34.76-2.398 48.17 2.181 3.214 1.097 5.576 1.284 6.956.549 1.445-.77 6.313-4.771 6.547-5.381 1.08-2.811-8.957-10.115-23.48-17.088-9.423-4.525-14.978-5.555-21.837-4.049M267 137.835l-7.6.584c-18.91 1.383-29.92 3.357-32.683 5.856-1.645 1.489-.3 1.698 4.483.695 15.472-3.243 51.24.427 69.924 7.174 4.922 1.778 7.357 1.124 11.982-3.219 4.886-4.587.776-8.12-12.083-10.385-3.423-.603-29.217-1.137-34.023-.705m-71.01 3.292c-1.717 1.39-.177 2.813 4.022 3.713 2.683.576 4.08-.029 3.912-1.695-.24-2.419-5.718-3.812-7.934-2.018m-85.39 6.539c-7.56.402-21.95 1.715-27.6 2.52-11.32 1.611-13.547 1.991-17.92 3.06-12.548 3.064-18.28 7.412-18.28 13.87 0 12.026 21.733 21.033 50.6 20.972 15.22-.032 17.987-.579 24.54-4.848 5.562-3.624 10.783-6.383 17.533-9.265 5.268-2.248 6.352-3.039 5.942-4.332-.72-2.27-9.844-4.126-16.058-3.268-4.496.621-6.474-.285-5.322-2.438 2.085-3.896 16.625-2.653 28.944 2.474 5.733 2.386 7.422 2.003 7.422-1.683 0-2.445-1.167-4.075-4.613-6.442-1.533-1.053-4.06-3.177-5.617-4.72-5.623-5.576-16.147-7.145-39.57-5.9m135.8 2.002c-9.685.52-17.2 2.78-17.2 5.171 0 1.084 1.504 1.561 4.926 1.563 13.773.007 42.458 6.419 58.44 13.063 6.153 2.558 7.833 2.842 11.867 2.008 8.602-1.779 10.723-4.137 6.962-7.741-8.6-8.24-41.372-15.332-64.994-14.064m-82.108.574c-.16.16-.292.567-.292.905 0 .45.118.495.445.168.245-.245.376-.652.292-.905s-.285-.329-.445-.168m66.616 11.639c-1.3.252-2.606 2.074-2.315 3.234.978 3.897 4.274 6.263 21.007 15.082 4.07 2.145 11.8 6.558 17.2 9.807 19.9 11.995 24.543 13.596 39.424 13.596 9.278 0 11.65-.361 13.598-2.073 11.313-9.933-29.705-32.128-70.022-37.889-14.902-2.129-16.294-2.259-18.892-1.757m-9.708 9.435c-4.764 2.402 8.674 11.355 25.327 16.874 10.233 3.392 8.737 1.229-3.706-5.358-8.453-4.475-12.056-6.662-15.065-9.143-3.496-2.882-4.7-3.314-6.556-2.373m38.184.459c3.39 1.021 4.978 3.806 3.188 5.596-2.254 2.254-8.572-.845-8.572-4.205 0-1.949 1.898-2.44 5.384-1.391M155 173.366c-14.87 4.651-30.66 16.413-40.317 30.034-7.852 11.076-20.527 21.612-27.228 22.633-3.745.571-4.1.689-5.417 1.796-5.92 4.981 2.793 17.623 15.53 22.535 14.332 5.527 29.52 2.196 51.63-11.321 8.548-5.226 9.18-5.734 12.336-9.938 1.53-2.038 4.804-5.865 7.274-8.505 8.618-9.211 9.972-8.946 4.666.913-9.656 17.94-12.676 25.55-12.676 31.945-.001 2.168-.194 5.922-.43 8.342-1.06 10.879-.202 31.047 1.458 34.256 5.734 11.089 15.975 10.056 20.385-2.056l1.092-3 .1-13.4c.14-18.859 1.842-37.204 4.157-44.8l2.798-9.135c3.568-11.612 1.133-10.402-6.31 3.135-2.454 4.464-3.827 5.787-5.15 4.959-1.76-1.102-1.226-2.831 4.073-13.182 5.9-11.546 6.106-12.577 2.395-12.577-1.964 0-1.827-.254 2.846-5.272 7.904-8.486 8.706-14.467 2.35-17.543-4.773-2.311-18.755 1.079-26.8 6.498-2.22 1.495-4.32 2.717-4.668 2.717-3.773 0-2.02-3.887 3.418-7.574 3.478-2.359 4.008-3.347 4.05-7.55.054-5.462-3.146-6.544-11.567-3.91m20.43 2.063c-.746.746-.822 2.218-.15 2.891 1.235 1.235 4.32 0 4.32-1.729 0-1.658-2.874-2.46-4.17-1.162m101.45 2.817c5.93 1.868 7.826 3.281 8.206 6.115.12.901.277 1.639.347 1.639s.972-.45 2.006-1c5.95-3.163 18.85 3.155 16.49 8.077-1.05 2.19-3.328 2.582-8.644 1.489-7.123-1.466-9.495-2.956-9.93-6.237-.14-1.061-.3-1.929-.354-1.929s-.886.436-1.85.97c-3.527 1.954-6.567 1.553-11.89-1.567-8.193-4.802-3.91-10.56 5.62-7.557m-72.18 12.186c-1.166.679-.15 8.909 1.39 11.253.97 1.477 3.96 4.315 4.544 4.315 2.235 0 1.878-10.217-.472-13.543-1.165-1.648-4.186-2.768-5.46-2.025m50.54 7.016c-1.183.797-3.457 2.044-5.053 2.771-3.285 1.497-3.757 1.982-2.83 2.909 1.825 1.825 12.46-4.255 11.558-6.608-.333-.867-1.416-.593-3.675.928m-34.235.69c-.433.661-.733 2.813-1.018 7.3-.26 4.087-.698 7.417-1.23 9.312-1.307 4.669-.903 5.541 7.99 17.233l6.22 8.217c25.38 33.78 53.935 54.196 69.648 49.796 9.2-2.576 4.837-29.082-7.948-48.273-4.6-6.904-5.858-7.692-8.92-5.584-5.59 3.845-8.726 3.673-17.69-.972-6.04-3.13-6.388-2.9-3.4 2.243 3.868 6.654 4.132 7.205 4.14 8.641.017 3.529-2.503 3.051-5.076-.963-2.97-4.633-6.67-9.261-12.616-15.781-8.18-8.97-9.212-9.478-10.738-5.293-1.09 2.985-2.608 4.386-4.758 4.386-2.907 0-3.82-1.936-5.004-10.591-.736-5.393-1.33-7.341-4.13-13.565-2.878-6.396-4.264-7.943-5.467-6.106m46.917 4.677c-2.753 2.788-4.42 3.917-7.973 5.395-3.325 1.383-3.95 1.961-3.068 2.841 2.608 2.609 15.915-6.559 14.578-10.044-.397-1.035-1.067-.692-3.537 1.808m-66.523-1.049c-.53.531-1.077 1.476-1.214 2.1-.412 1.875-1.705 6.941-2.588 10.134-.98 3.54-2.567 14.143-3.177 21.2l-.845 9.4c-.65 6.917-.986 54.98-.41 58.912 2.1 14.353 9.42 23.313 16.258 19.901 13.93-6.952 23.57-28.149 25.395-55.85.88-13.332.306-15.602-6.54-25.905-2.726-4.102-5.658-8.786-6.516-10.408-5.962-11.281-7.73-6.497-7.754 20.988-.006 6.673-.383 7.755-2.52 7.219-2.096-.526-2.41-7.62-1.45-32.657l.484-12.6-1.434-3.6c-3.652-9.164-4.02-9.8-5.7-9.8-.562 0-1.457.434-1.988.966m76.817 6.569c-2.322 3.525-6.426 6.48-10.88 7.833-2.545.774-1.834 2.965.8 2.47 5.67-1.064 13.895-8.404 13.39-11.949-.258-1.803-1.42-1.226-3.31 1.646m39.585 1.742c-3.022.676-5.195.814-13.535.864-12.227.073-11.23-.556-11.617 7.33-.15 3.041-.545 6.797-.88 8.346-1.012 4.673-1.028 4.656 13.633 14.54 13.658 9.208 20.545 11.394 27.475 8.72 8.64-3.334 6.904-22.183-3.195-34.706-4.728-5.863-5.998-6.407-11.88-5.094" fill="#fbfbf9"/></svg>
