<svg xmlns="http://www.w3.org/2000/svg" width="793.7" height="793.7" fill-rule="evenodd" stroke-linejoin="round" stroke-width="28.2" preserveAspectRatio="xMidYMid" viewBox="0 0 29700 29700" xmlns:v="https://vecta.io/nano"><defs><clipPath id="A"><path d="M0 0h29700v21000H0z"/></clipPath></defs><g clip-path="url(#A)" fill="#231f20"><path d="M6799 7044a406 406 0 0 0-13 339 458 458 0 0 0 262 254 481 481 0 0 0 637-217c53-110 56-223 10-336a464 464 0 0 0-255-254 516 516 0 0 0-372-19 461 461 0 0 0-269 233zm-242-107a685 685 0 0 1 421-361c193-72 385-60 574 22a696 696 0 0 1 392 392c73 182 66 361-20 537a699 699 0 0 1-425 370 751 751 0 0 1-567-25 736 736 0 0 1-305-235 635 635 0 0 1-133-342c-13-126 7-245 63-358zm845-685l126-182 110 69c-30-47-47-91-47-138s14-88 40-129c20-25 47-50 83-69l149 182c-29 19-53 35-63 51-23 31-19 72 7 119 27 50 100 116 226 191l43 29 355 219-146 211-883-553zm435-657l179-182 90 78a392 392 0 0 1 278-417c60-16 123-16 189 0-16-69-16-135 4-198 16-63 49-119 99-169a350 350 0 0 1 358-104c57 19 133 72 226 154l454 399-182 185-391-346c-90-78-160-119-209-125-50-6-97 9-136 50-34 32-50 69-57 110-6 44 4 85 23 126 24 40 70 94 143 160l352 307-183 182-375-326a632 632 0 0 0-165-119c-40-16-77-22-110-16-36 3-66 22-93 50-30 28-46 66-53 107-3 41 3 85 27 125 23 44 69 98 146 164l341 301-179 185-776-681zm2023-1584l-33 217c-93-13-163-3-206 28-23 16-40 35-43 53-7 19-3 35 7 51 6 9 20 15 36 19 17 3 47 0 93-7l106-19c113-18 203-18 266-3 59 19 112 60 156 113 56 69 72 148 56 236-17 84-73 163-166 229a465 465 0 0 1-405 69l24-226c46 9 92 12 139 6 46-6 86-19 113-37 26-22 46-44 53-70 6-22 3-44-10-59-23-32-80-41-166-25l-100 15c-189 32-321-3-398-100-49-63-66-138-49-220 16-81 63-150 142-207 57-38 116-63 183-75 66-13 132-7 202 12zm-16-625l232-119 408 700 129-543 292-154-152 631 716 220-288 154-631-198 236 402-232 122-710-1215zm1260-186l245-97 411 926-242 97-414-926zm-47-427c43-15 86-15 130 0 43 19 76 48 92 88 20 44 20 85 4 126-17 41-47 69-90 85-43 18-86 18-133 0-43-16-73-47-92-88a160 160 0 0 1 89-211zm509 251l215-69 40 119c7-56 26-100 56-138a257 257 0 0 1 226-85l-7 229c-33-3-63-3-79 4-40 12-63 44-77 97-10 56 10 147 57 279l16 47 140 386-252 79-335-948zm663-608l259-53 169 782 295-478 325-65-341 555 613 411-325 66-537-364 99 452-262 50-295-1356zm2342 299c73-56 110-106 113-150 0-22-7-41-23-57a88 88 0 0 0-63-25c-24 0-47 6-63 22-17 19-27 38-27 60-3 44 20 94 63 150zm143 562c-50-47-116-125-206-235-96 72-146 135-149 191 0 25 10 51 36 76 27 22 60 34 100 34 56 3 129-19 219-66zm361-248l156 179-76 63-73 60 219 238-328-9-90-94a900 900 0 0 1-425 113c-109-4-195-38-265-101-63-66-96-144-93-238 3-73 27-139 66-201 40-63 110-126 206-192-86-119-129-223-126-314 3-66 33-132 100-194 59-63 149-94 258-88 113 3 196 37 256 103 56 66 83 132 79 198 0 50-16 101-43 145-30 47-96 116-199 204 113 131 183 216 216 248 23-13 76-54 162-120zm2497-51l-236 109a574 574 0 0 0-354-307 502 502 0 0 0-375 31 454 454 0 0 0-236 273c-26 85-33 167-13 245 16 79 56 148 116 207 60 60 133 101 222 126 77 22 150 31 223 22 69-10 155-38 252-85l119 226a956 956 0 0 1-348 110c-103 13-213 0-329-35a728 728 0 0 1-457-345 668 668 0 0 1-44-549 691 691 0 0 1 206-314c93-82 209-138 342-166 139-26 272-19 404 18 113 32 213 88 302 164 90 75 160 163 206 270zm187 223l205 94-56 116c46-34 93-56 139-62 50-7 97 0 140 22 30 12 59 34 86 66l-173 160c-23-25-43-41-59-51-37-15-80-9-126 22-47 32-106 110-169 236l-20 47-186 364-236-107 455-907zm1010 758c-66-41-143-53-219-34-76 15-139 59-186 131-49 73-69 148-53 220 14 72 57 129 126 173 70 41 143 53 219 37 80-18 143-62 193-135 46-72 66-144 49-216-13-72-56-132-129-176zm133-198a520 520 0 0 1 259 468c-7 94-34 179-90 257a537 537 0 0 1-491 245c-99-3-192-31-279-85a506 506 0 0 1-242-329c-30-141-3-273 80-396a536 536 0 0 1 378-235c139-22 269 3 385 75zm1094 1007l-232 15c-7-87-30-150-70-185-27-15-50-28-70-28s-36 3-50 19c-9 9-13 22-13 37 0 16 10 44 27 85l43 94c43 98 66 179 60 239-4 63-34 122-80 173a321 321 0 0 1-232 103c-93 3-183-34-272-103a419 419 0 0 1-159-361l238-29a342 342 0 0 0 87 226c26 19 53 32 83 32 26 3 46-3 59-19 27-31 27-82-6-157l-40-88c-73-169-67-298 20-389 53-60 122-91 212-94s173 28 245 88c54 44 93 94 120 153 23 60 36 123 30 189zm609-139l182 182-282 258 107 107-163 150-109-110-604 540-183-182 601-540-93-94 169-151 93 95 282-255zm286 1213a278 278 0 0 0-193-110c-76-10-152 12-229 63a289 289 0 0 0-129 185c-13 75 3 141 53 207 50 63 116 97 196 107 80 9 156-10 229-63 73-50 116-110 129-185 13-72-6-142-56-204zm199-145a511 511 0 0 1-113 738c-80 56-169 91-269 100a569 569 0 0 1-514-213 510 510 0 0 1 120-731 579 579 0 0 1 441-95c139 29 252 95 335 201zm477 712l119 223-96 44c73 31 130 60 173 94 39 32 69 69 93 116 49 88 56 179 26 270-30 79-96 145-209 198l-620 301-120-222 412-198c112-54 185-94 215-123 33-28 50-56 57-91 6-31 0-66-17-100-26-47-63-82-113-97-46-16-102-19-166-4-33 10-99 35-195 85l-378 185-120-222 939-459zM7207 11024l-302 25 6 53c7 63 27 110 57 138s69 38 116 35c43-3 80-22 103-51 23-31 33-78 26-135l-6-65zm-544 44l-365 31 6 63c10 106 30 179 63 213 30 35 73 50 130 47 59-6 106-31 136-78 33-47 43-123 33-223l-3-53zm-647-205l1426-119 20 214c10 122 10 213 0 270-17 84-53 153-109 207-57 50-126 81-209 88-57 6-107-3-153-19-46-19-93-50-136-97-33 84-80 150-136 191-56 44-126 69-209 75-80 7-156-6-226-40-69-35-122-79-159-139-40-59-63-144-73-254l-36-377zm979 1765c53-29 90-72 113-129 23-53 27-113 10-176-20-69-56-122-109-163-34-25-87-47-156-56l142 524zm-136 292l-212-779c-70 28-119 72-149 132s-33 126-13 204c26 91 79 160 165 207l-46 229c-90-31-163-78-219-141a581 581 0 0 1-129-238 490 490 0 0 1 53-408 552 552 0 0 1 345-236c156-41 298-25 424 47a496 496 0 0 1 252 320c44 154 24 289-53 412a575 575 0 0 1-368 241l-50 10zm617 860c47-37 77-87 90-144 10-60 3-119-27-176-30-66-73-113-136-144-36-22-93-32-162-32l235 496zm-79 308l-352-731c-63 40-103 91-123 153-20 63-10 132 23 201 40 88 107 148 199 182l-3 233c-93-19-176-54-242-104a701 701 0 0 1-169-216 498 498 0 0 1-23-412 522 522 0 0 1 298-288c146-63 289-73 428-22a498 498 0 0 1 305 276c70 144 77 279 23 411a555 555 0 0 1-318 298l-46 19zm984-302l146 213-700 443 577 78 189 261-676-91-176 687-183-257 156-609-405 257-145-210 1217-772zm551 1896c33-50 43-104 33-163-7-63-33-116-80-163-53-51-109-82-179-95-43-6-99 0-166 22l392 399zm30 317l-581-590c-46 56-70 122-66 188 6 66 36 126 93 182 66 69 149 107 248 110l77 223c-96 13-183 3-266-25-79-28-156-82-229-154a519 519 0 0 1-165-383c6-141 69-260 182-364a573 573 0 0 1 401-151c150 4 276 60 382 167a491 491 0 0 1 162 386c-6 141-73 267-202 380l-36 31zm976 476c20-57 24-113 4-170-20-56-57-103-110-144-59-41-122-63-192-63-43 0-96 16-159 47l457 330zm83 311l-676-490c-37 63-47 129-30 191 16 66 56 123 123 170 79 56 169 78 265 69l116 204c-93 28-182 34-265 19-87-16-170-54-256-116a507 507 0 0 1-232-352 485 485 0 0 1 113-383 582 582 0 0 1 371-217c146-18 282 16 405 104a517 517 0 0 1 229 352c20 141-23 279-129 411l-34 38zm904 48c-73-35-149-41-222-16-76 22-133 72-176 151-46 78-56 154-33 226 27 72 73 129 149 163 70 35 146 41 223 16 76-28 132-79 175-154 40-78 50-151 30-223-23-72-73-129-146-163zm-149-305l-53 98c66-19 129-29 189-25 60 3 119 18 176 47a446 446 0 0 1 239 285c39 129 23 264-53 402a543 543 0 0 1-312 267 488 488 0 0 1-388-19c-53-28-103-60-140-100-36-41-66-94-89-157l-229 417-232-113 660-1218 232 116zm1560 998c0-57-20-110-57-160-39-47-89-82-155-101-70-19-140-19-203 3-46 13-89 44-139 98l554 160zm192 263l-816-235c-10 69 4 135 40 188 40 54 96 95 179 117 96 28 186 18 275-22l183 157c-76 53-156 87-242 100-86 16-179 6-286-25a531 531 0 0 1-338-251 476 476 0 0 1-36-399 515 515 0 0 1 265-323c136-69 275-79 425-38a543 543 0 0 1 341 257c67 129 77 270 27 427l-17 47zm308-539l222 35-23 125c33-47 73-78 116-97 47-19 93-25 139-16 34 4 70 19 103 41l-119 201c-30-19-53-31-73-34-40-7-76 12-113 53-36 44-66 135-93 273l-6 50-70 399-262-44 179-986zm1304 278l-173 144c-63-66-123-100-176-104-29-3-53 0-69 13-20 9-30 25-30 44 0 13 3 25 13 38 10 12 37 28 76 50l93 53a551 551 0 0 1 199 157c37 54 50 110 47 179-7 91-47 163-120 217-73 56-166 78-282 72a452 452 0 0 1-358-195l173-160c33 38 66 66 106 91 40 22 76 38 109 38 37 3 63-3 86-19 24-12 34-31 37-53 3-38-33-79-109-120l-87-47c-166-91-245-197-235-320 3-78 43-144 113-198 69-50 152-72 252-66a432 432 0 0 1 335 186zm1346-227l-106 486 378-59-272-427zm-199-336l272-44 780 1249-279 44-159-257-577 91-66 295-279 44 308-1422zm1678 92l-103 201c-86-41-156-50-209-35-26 10-46 22-59 38-10 16-14 34-7 50 3 13 13 22 26 32 14 6 44 12 90 18l113 16c113 13 196 38 249 72 49 38 89 85 112 148 30 85 20 166-23 241a391 391 0 0 1-232 170 475 475 0 0 1-411-50l99-207a379 379 0 0 0 249 40c33-9 56-25 73-47 13-22 16-44 10-62-13-38-60-60-146-73l-103-12c-189-25-305-98-345-214-26-75-20-147 23-219 40-73 110-129 206-157a466 466 0 0 1 388 50zm787-347l-79 208c-87-29-156-32-206-10-27 13-43 25-53 44-10 22-10 38-3 54 6 12 16 22 29 28 17 6 47 9 93 9h110c113 3 199 19 255 47 57 29 103 76 136 135 40 79 43 160 7 242a418 418 0 0 1-213 195 464 464 0 0 1-411-7l70-216c46 19 89 28 139 31 47 0 83-3 113-19 33-12 53-31 66-53 10-25 14-44 4-63-17-38-70-53-156-56l-100-3c-192-4-315-60-371-170-34-72-37-151-4-226s93-135 186-176a454 454 0 0 1 388 6zm658-300a270 270 0 0 0-126 176c-13 72 7 145 57 217 53 72 116 116 192 132a291 291 0 0 0 342-217c13-75-4-147-57-220a303 303 0 0 0-189-131c-76-16-149 0-219 43zm-146-194c87-50 180-82 279-88 100-6 196 9 282 50 90 41 163 101 216 179a506 506 0 0 1-156 732 548 548 0 0 1-412 81 549 549 0 0 1-355-229 486 486 0 0 1-76-418 504 504 0 0 1 222-307zm1521-912l-77 226c-59-3-109 3-152 19-40 15-80 40-120 75a304 304 0 0 0-112 220c-4 81 26 153 89 216s136 91 216 94c83 0 159-31 232-94 83-78 123-166 116-267l249-37c20 176-47 333-196 467a598 598 0 0 1-431 170c-153-6-279-60-382-160a529 529 0 0 1-139-245c-20-91-17-188 17-282 33-91 89-176 172-248a568 568 0 0 1 518-154zm-35-293l169-192 816 641-169 191-816-640zm-249-358c30-35 66-54 113-57 49-6 89 7 126 38a151 151 0 0 1 26 223c-30 34-69 53-116 56-46 7-89-9-126-37-36-29-56-63-63-107-3-44 10-85 40-116zm1022-272c-46 66-60 135-40 208 20 72 70 131 143 178 83 48 159 63 239 51 79-16 139-54 186-120 43-66 56-135 36-207-17-72-66-135-146-182-76-47-152-63-232-50-80 16-143 56-186 122zm-33-336l143-210 892 543-146 211-93-57c13 66 17 126 7 179-10 50-33 104-67 151a479 479 0 0 1-325 200c-142 26-282-3-414-84a540 540 0 0 1-259-320 402 402 0 0 1 60-358 458 458 0 0 1 298-195l-96-60zm-97-609l112-226 352 157 70-135 209 95-70 135 750 339-116 226-750-339-56 119-206-97 56-117-351-157zm569-289l96-236 985 364-96 233-985-361zm-358-267c16-41 46-72 89-88 43-19 90-19 133-3 43 15 76 44 96 84 17 41 20 82 4 126-17 41-47 69-93 88-43 19-87 19-133 0-43-16-73-44-93-82-20-44-20-84-3-125zm877-561c-20 76-10 145 33 208 43 62 109 106 196 125 89 22 169 16 235-22 70-34 113-91 136-166 20-76 10-148-33-211a319 319 0 0 0-196-128c-86-22-166-13-232 22-73 37-116 94-139 172zm-242-56c26-91 73-170 142-239a571 571 0 0 1 790-9 498 498 0 0 1 146 508 493 493 0 0 1-252 317 562 562 0 0 1-418 57 546 546 0 0 1-359-264 481 481 0 0 1-49-370zm189-681l23-255 106 10c-43-60-76-116-90-163-16-48-23-95-16-145 6-97 50-179 129-242 67-53 163-75 282-62l700 53-23 248-465-38c-126-9-208-9-252-3-39 6-73 22-96 47-26 25-40 57-43 98-3 50 10 94 43 131 33 41 80 70 143 88 30 10 103 19 212 29l425 34-23 251-1055-81zm-5879-4000c591-22 1181-63 1769-122a8905 8905 0 0 0-720-1159 27346 27346 0 0 1-2064 76c-600 0-1190-19-1771-57l-484-37a8231 8231 0 0 0-717 1145c348 44 770 85 1254 117 889 59 1808 72 2733 37zm0 1890c853-31 1712-101 2561-210-162-437-341-876-544-1303a28754 28754 0 0 1-3032 163c-600 0-1190-19-1771-56-577-38-1065-91-1453-142-199 418-378 851-541 1281 408 69 1112 170 2047 232 889 57 1808 69 2733 35zm4-3635l630-31c-511-550-1095-930-1751-1024-654 94-1234 468-1742 1008l126 9c889 60 1811 72 2737 38zm3304 5848a27046 27046 0 0 1-4051 298c-779 0-1565-31-2345-94-1131-91-1977-226-2431-311-209 819-312 1372-312 1372 36 1133 2806 1039 2806 1039h478c0-747 640-1353 1430-1353 789 0 1429 606 1429 1353h478s2767 94 2803-1039c0 0-93-505-285-1265zm-3397-232c1115-25 2209-120 3264-277-119-430-262-910-434-1412a29408 29408 0 0 1-3752 251c-601 0-1194-22-1775-60-1025-66-1771-179-2173-248-166 481-308 945-424 1366 451 81 1277 210 2355 298 975 78 1967 107 2939 82z"/><path d="M7087 9322l7-6c-7-6-10-13-17-13-3-3-10 4-16 7v3l26 9zm-633 242c20 19 39 3 56 3-17 0-36-3-56-3zm355-684c-4 0-4-4-4-4l-23 16c-3 3-3 6-3 10 3 0 10 3 13 0 7-7 10-16 17-22zm-478 467v-6c-7 0-13-6-17-3-10 3-13 9-16 16 0 0 0 3 3 6 10-3 20-6 30-13zm693-483c-3-3-6-3-6-6-14 12-24 28-34 40l4 4 36-38zm-633 75l3-3c-13-16-20-31-40-41 0 3-3 3-7 7 17 12 30 25 44 37zm278 929c-6 10-13 16-13 19 7 10 17 16 23 25l4-3-14-41zm395-323h-7l10 85c17-22 17-63-3-85zm-726 97l9-69c4-3 0-9-3-15-3 3-10 6-13 12-7 25-3 50 7 72zm311-813c-23 0-33 13-43 26-3 3 0 15 0 21 7 0 20 0 23-3 14-9 20-25 20-44zm352 528c13 37 33 81 50 125 0 3 3 3 3 3 0-9 3-18 3-25-10-44-29-78-56-103zm-590 6h3a97 97 0 0 0-17 19c-26 28-43 60-46 97 0 3 3 10 6 16l10-13 44-119zm991-138c-26-6-46-3-63 9-10 7-16 19-6 25 13 10 30 16 43 22 0 0 3-3 3-6 7-16 17-31 23-50zm0-16c0-6 4-19 4-28 0-13-7-16-17-13-46 19-93 32-143 38 0 0-3 0-6 3 36 16 73 19 113 13l49-13zm-524-28c0 3 0 3-3 3 3 6 3 10 7 13 39 53 96 81 162 106 7 0 13-3 20-6-3-6-7-12-13-16-47-31-100-59-146-87-7-4-17-10-27-13zm-763 75s0-3-3-3l-50-6c-36-6-76-16-113-22h-23c4 12 0 25 4 38 3 3 16 3 23 6h23c33 12 66 9 99 0 14-3 27-6 40-13zm418-47l-6-6c-7 6-17 9-27 16l-159 94c-3 3-7 3-7 6-3 6-6 9-6 13 0 3 6 6 13 6 3 0 10 0 13-3 63-25 120-57 163-104 6-6 10-16 16-22zm790 22c-67 0-126-37-196-28 20 28 43 50 76 53 34 3 67 3 97 3 19 0 23-12 23-28zm-1022 101a87 87 0 0 0-63-4c-13 4-27 0-33-15-3-3-17-6-20-3-23 18-43 44-56 72 3 3 6 3 6 3 50 3 100-6 143-28 10-3 13-13 23-25zm-504-349c56-6 109-9 162 6l20-40-146-35c-13 22-23 44-36 69zm454 258c-83-4-152 37-229 40 4 22 10 32 30 29 37-3 73-3 110-10 40-3 63-28 89-59zm-540-273v12c3 35 10 38 39 19l10-10c30-12 50-34 60-62 3-10 0-19-7-29-3-9-16-15-19-25-10-15-20-12-30-6-37 25-50 60-53 101zm1479 166c-3-28-10-35-33-38l-100-9c-46-3-96-10-146-13-3 0-10 7-16 10 3 6 6 12 10 15l20 10c66 22 132 28 199 28 20 0 43-3 66-3zm-962 41c93 0 173-13 249-44 7-3 13-3 16-10 4-3 7-9 7-15 0 0-10-7-13-7-17 0-33 0-50 3l-242 38c-3 0-10 0-13 3-4 7-7 16-14 25 10 4 17 7 24 7 10 3 23 0 36 0zm902 100v3s4-3 7 0c13 3 27-3 27-15 0-7-4-16-10-22-30-26-63-41-100-47l-153-29c-6-3-13 0-19 0 3 7 6 13 13 16 53 34 113 66 166 97 13 10 20 10 33 3 10-6 23-3 36-6zm-13-298c7 3 7 6 10 6s3 3 7 3c66 13 132 7 199-6 6 0 10-3 13-6 10-22 7-41-7-60-6-19-23-19-39-12-50 15-97 31-146 50-14 3-24 16-37 25zm-156 22c149 12 232-66 229-148-89 29-166 73-229 148zm-63 107c-16 37-13 50 27 56 69 13 136 22 202 32 27 3 53 3 80 3 6 0 20 0 16-13-3-25-26-44-53-41a641 641 0 0 1-272-37zm-587 219c3-3 7-6 10-6 30-19 56-38 86-53l110-63c3-3 3-9 6-13-3-3-10-6-13-6l-189 47c-40 10-73 28-103 54-7 3-10 12-10 18 3 10 13 16 27 16 13-3 26-6 43-3 10 0 20 6 33 9zm-73-304v-6c-10-7-20-16-30-19-60-25-126-38-189-47-30-3-43 9-46 40-4 32 6 48 36 48a1137.2 1137.2 0 0 0 143 0c30-4 56-10 86-16zm262 110c-3 0-10 0-13 3-90 38-186 53-285 47-34 0-54 13-67 41-3 12 0 19 13 19h14c106-7 212-22 315-51 40-12 43-18 23-59zm120-72h3c6 0 10 0 16-4 60-9 123-18 186-3 13 3 20-6 13-19-10-22-19-44-33-62-10-19-26-35-49-35-27-3-54-3-80 0-7 0-13 6-17 13l-30 81-9 29zm-754-73c-53 0-86 0-119 22-20 13-23 19-3 38l50 56c6 10 13 7 23 4l99-32c20-6 43-6 63-6 7-3 14-6 20-6-3-7-6-16-10-22-6-10-20-16-23-25-3-13-13-19-23-22-30-4-63-7-77-7zm1314-59h17l212-57c30-9 53-22 73-44 7-6 10-15 13-25-10-3-16-6-26-6-87-6-173 12-252 44-7 0-14 3-14 9-10 25-16 50-23 79zm143 78h-133c-56 0-109-6-162 0-40 3-83 16-123 25-13 3-13 13-10 22 3 7 10 13 16 16l150 9c40 4 79 13 116 13 46 0 89-6 119-38 17-15 27-31 27-47zm-1314 44c0 3-3 6 0 10 0 3 0 6 3 9 17 31 44 47 77 56 56 13 113 7 169-3 76-12 149-31 229-28 3 0 10-9 13-12 7-16-3-22-20-29-89-25-179-19-272-12l-159 12-40-3zm521 405v88c0 28 3 28 30 25 119-16 239-9 358-3 27 3 40-9 40-38 0-15 0-34-3-53-4-22-20-35-44-38-89-6-179-9-268 0-47 3-90 10-136 16v3h23zm0 242h-7c-33 6-43 28-26 53 6 13 16 22 23 32 10 18 27 34 50 28 79-16 159-13 239-7 33 4 63-6 79-34 13-16 23-31 33-53 14-26 10-35-20-38-76 0-152-3-225 0-50 3-96 12-146 19zm73-455c-3 9-3 18-7 28l-30 66h14c96-3 192-10 288-16 17 0 24-9 14-25-14-19-30-35-44-53a68 68 0 0 0-49-22c-37 3-73 0-113 3-23 3-47 12-73 19-20 0-40 12-50 28-6 9-3 22-6 31 0 16 6 35-17 38h26c-16-50 0-79 47-97zm-650-148v-19c-53 3-100 25-146 47 16 32 40 54 69 73 14 6 20 0 27-10 17-31 33-63 50-91-10 25-23 50-37 72-10 25-6 35 17 44 53 19 106 32 159 35 10 0 23-3 27-10 20-28 36-59 56-94-13-3-23-3-33-3-53-3-96-16-133-53-20-19-40-13-56 9zm205-154l-19-37c-7-10-14-19-20-19-97-28-199-38-299-28-10 0-17 3-26 6 6 9 9 22 16 25 23 12 50 25 76 31 87 19 173 35 259 51h23c-3-10-6-19-13-29l10 10c20 31 56 53 93 69 50 19 106 9 162 12-26-41-56-69-99-84-53-19-106-35-163-54h-16c6 19 10 35 16 47zm1211 94c-16-18-36-15-50 7-23 31-56 44-96 50-13 3-23 3-40 6 17 32 34 57 47 82 10 16 20 19 36 16 43-7 87-19 126-38 27-16 27-22 14-50-14-25-27-51-37-73 17 32 37 63 53 95 7 9 14 12 23 6 17-22 34-41 50-63 4-3 0-16-3-16-37-15-70-31-110-34-3 0-9 9-13 12zm-1366 292c19-22 23-28 6-37a85 85 0 0 0-73-7c3 10 3 16 7 22 16 32 23 35 56 22h4l-20 19 6 6c33 22 73 32 113 38 7 0 17-6 20-12 13-16 26-35 40-51 0-6 3-9 3-12s0-6-3-6l-159 18zm1469-461c17 34 46 56 80 78 13 7 16 4 20-9 6-47-7-88-40-122-7-7-17-10-23-13-14 16-24 28-30 41-4 9-4 19-7 25-3-6-10-9-20-6-30 12-60 22-93 31-6 3-13 3-20 6l17 35c50-3 96-10 139-13-6-15-13-34-23-53zm-259 424l-20-19c-10-10-20-10-23 6-6 13-16 13-26 13-14 0-24-3-34 0-6 0-13 6-19 9 3 6 6 13 10 16 43 28 89 28 139 22-10-13-13-25-20-38 7 10 17 19 23 31 7 13 13 13 27 10 16-6 36-10 53-19l40-28a63 63 0 0 0-54-25c-26-3-53 0-82 0h-27c7 9 10 15 13 22zm-1519-317v-38c17-63 63-82 126-88 70-9 136-6 206 6 109 19 222 38 325 85-17-22-10-53-43-66-4 0-4-6-4-9-3-13-13-13-23-13-6 3-13 3-16 3 0-12-4-25-4-34 7 0 67 28 73 38 4 3 4 6 4 9 3 3 6 9 9 9 47 32 73 76 100 120 3 6 7 12 10 12 20 10 40 16 63 22 0-3 7-6 7-12 16-22 13-29-7-47-7-7-17-13-17-22-3-26-26-41-36-63-13-19-23-44-33-66-10-28-20-60-27-88-3-25-16-35-36-35l10-34a400.1 400.1 0 0 1 49 56c17 22 27 47 37 73 13 31 23 66 33 100 3 6 3 19 10 19 23 6 30 22 40 41 0 6 10 9 20 12l3-22c-3-12-13-28-10-37 7-26 7-51 10-76 3-22 0-37-7-56-6-16-13-28-16-41-3-6 0-16 3-16 7-6 13-6 20-3 3 0 7 10 7 16s-4 12-4 19c4 34 17 56 44 62 3 4 13 0 16-3 37-34 93-37 133-6 3 3 13 3 16 0 17-13 30-31 30-53 0-10-3-22 0-32 0-6 10-12 13-19 4 10 10 16 10 22-3 13-10 26-10 41-6 28-6 60-9 88 0 3 0 3 3 6 13 22 10 47 0 73-3 3 0 12 0 15 23-19 26-44 53-53 3 0 3-3 3-6 14-54 27-107 53-157 17-29 33-51 57-76h3c3 10 3 19 7 25-10 7-27 13-30 19-10 16-13 35-17 51-10 53-20 106-59 150-4 3-7 6-7 10 0 22-13 34-27 50-3 3-6 16-3 19 3 9 13 18 17 25 16-7 26-16 43-19 10-6 16-13 23-22 20-44 46-85 86-116 4-3 7-6 7-10 13-28 46-37 66-53 4-3 7-3 7-3 0 12-3 25-3 34-10 0-24 0-30 7-14 9-24 22-30 34-10 25-20 50-27 76l4-4a704 704 0 0 1 451-138c69 0 96 22 113 85 3 3 3 3 3 6v38c-10 22-17 44-27 69 0-12 10-25-6-31-14-7-27-16-40-19-47-6-90-3-136 9-7 3-13 7-17 13-10 12-16 28-26 41 0 6-4 12 0 18 0 4 10 4 13 4 17 0 33-4 50 3 30 6 59 15 89 25 17 6 24 3 30-10 10-18 27-34 37-50l-10 19c-10 19-24 35-30 53-17 44-43 76-86 98-7 3-10 12-10 19 6 94-47 160-146 172a449 449 0 0 1-359-107c-16-12-29-25-46-40-3 6-3 9-7 12 0 0-3 3-6 10 40 31 59 78 109 100 13 6 27 13 37 22 49 47 79 101 69 170-3 6 0 12 4 18 20 44 20 91-4 132-10 16-20 32-13 50 3 7 0 16 0 22 0 4-3 10 0 13 20 28 10 63 20 94 0 3-3 10-7 19-10-19-20-16-36-3l16-41 4-16c-20-18-14-47-30-66-7-9 0-28 0-40 0-7 7-13 7-19 6-44 13-88 23-129 0-16 0-25-10-34l-50-79c-3-3-7-6-7-12 4 72 10 144 0 216a331 331 0 0 1-195 258c-4 3-10 3-14 6-13 19-36 31-59 37h-30c-23-6-47-15-60-37-3-3-10-6-13-6-63-22-110-60-146-113-50-82-63-173-60-261 4-25 10-47 13-72-19 28-39 53-59 78-4 10-4 19-4 29l20 119c4 12 10 22 10 34 4 10 7 29 0 32-16 12-13 31-20 47v3c-20 22-10 44 0 63 4 3 4 6 7 9-20-16-30 0-43 10 0-13-3-26 0-35 3-19 3-38 10-53 3-22 10-44 10-73 0-6 0-15-4-22-23-34-36-75-23-116 7-28 20-53 14-84-4 0 0-7 0-10 13-72 56-125 126-163 6-3 13-6 20-13 16-15 33-34 49-53 7-6 7-13 10-16 0-3-3-3-3-3l-17 10c-46 40-99 75-156 103-89 41-182 63-282 50-99-9-162-75-172-166 0-6-7-13-10-16-46-15-80-44-103-84-10-16-20-32-33-47-30-32-60-66-73-110z"/><path d="m22502 9322 7-6c-7-6-10-13-17-13-3-3-9 4-16 7v3l26 9Zm-633 242c20 19 40 3 56 3-16 0-36-3-56-3Zm358-684c-3 0-3-4-3-4-10 7-17 10-23 16-4 3-4 6-4 10 4 0 10 3 13 0 7-7 10-16 17-22Zm-481 467v-6c-7 0-13-6-20-3-6 3-10 9-16 16 3 0 3 3 6 6 10-3 20-6 30-13Zm693-483c-3-3-6-3-6-6l-33 40 3 4c13-13 23-26 36-38Zm-633 75 3-3c-13-16-20-31-40-41 0 3-3 3-6 7l43 37Zm282 929c-10 10-17 16-17 19 7 10 17 16 27 25l3-3-13-41Zm391-323h-6c3 28 6 60 10 85 13-22 16-63-4-85Zm-726 97 10-69c0-3 0-9-4-15-3 3-10 6-13 12-7 25-3 50 7 72Zm312-813c-24 0-34 13-44 26-3 3 0 15 0 21 7 0 20 0 24-3 13-9 20-25 20-44Zm351 528c13 37 33 81 50 125 0 3 3 3 3 3 0-9 4-18 4-25-10-44-30-78-57-103Zm-590 6h3c-7 6-13 13-17 19-26 28-43 60-46 97 0 3 3 10 7 16 3-6 6-10 10-13 13-40 29-81 43-119Zm992-138c-27-6-47-3-63 9-10 7-17 19-7 25 13 10 30 16 43 22 0 0 3-3 3-6 7-16 17-31 24-50Zm0-16 3-28c0-13-7-16-17-13-46 19-93 32-142 38-4 0-4 0-7 3 36 16 73 19 113 13l50-13Zm-521-28c0 3 0 3-4 3 4 6 4 10 7 13 40 53 96 81 159 106 7 0 14-3 20-6-3-6-6-12-13-16-47-31-96-59-143-87-10-4-16-10-26-13Zm-767 75s0-3-3-3c-16-3-33-3-50-6-36-6-76-16-112-22h-24c4 12 0 25 4 38 3 3 13 3 23 6h23c33 12 66 9 96 0 17-3 30-6 43-13Zm418-47-6-6c-7 6-17 9-27 16l-159 94c-3 3-7 3-7 6-3 6-6 9-6 13 0 3 6 6 13 6 3 0 10 0 13-3 63-25 120-57 163-104 6-6 10-16 16-22Zm790 22c-66 0-126-37-199-28 23 28 43 50 80 53 33 3 66 3 96 3 20 0 23-12 23-28Zm-1022 101a87 87 0 0 0-63-4c-16 4-26 0-33-15-3-3-17-6-20-3-23 18-43 44-56 72 3 3 6 3 6 3 50 3 100-6 143-28 10-3 13-13 23-25Zm-504-349c56-6 109-9 163 6l19-40c-53-13-99-22-145-35-14 22-24 44-37 69Zm454 258c-82-4-152 37-228 40 3 22 10 32 29 29 37-3 73-3 110-10 40-3 63-28 89-59Zm-540-273v12c3 35 10 38 40 19l10-10c29-12 49-34 59-62 4-10 0-19-6-29-4-9-17-15-20-25-10-15-20-12-30-6-37 25-50 60-53 101Zm1479 166c-3-28-10-35-33-38l-99-9c-47-3-97-10-143-13-3 0-10 7-17 10l10 15 20 10c63 22 130 28 196 28 20 0 43-3 66-3Zm-965 41c96 0 172-13 252-44 7-3 13-3 17-10 3-3 6-9 6-15 0 0-10-7-13-7-17 0-33 0-50 3l-242 38c-3 0-10 0-13 3-4 7-7 16-13 25 6 4 16 7 23 7 10 3 23 0 33 0Zm902 100c4 0 4 0 4 3 0 0 3-3 6 0 13 3 27-3 27-15 0-7-7-16-14-22-26-26-59-41-96-47l-149-29c-7-3-13 0-20 0 3 7 7 13 10 16 56 34 113 66 166 97 13 10 20 10 33 3 10-6 23-3 33-6Zm-10-298c7 3 7 6 10 6a513 513 0 0 0 206-3c7 0 10-3 13-6 10-22 7-41-6-60-7-19-24-19-40-12-50 15-96 31-146 50-14 3-23 16-37 25Zm-152 22c146 12 229-66 225-148-89 29-166 73-225 148Zm-63 107c-17 37-14 50 26 56 67 13 133 22 199 32 27 3 53 3 80 3 6 0 20 0 16-13-3-25-26-44-53-41a632 632 0 0 1-268-37Zm-591 219c4-3 7-6 10-6 30-19 57-38 86-53l110-63c3-3 3-9 6-13-3-3-9-6-13-6l-189 47c-40 10-73 28-103 54-6 3-13 12-10 18 4 10 14 16 27 16 13-3 26-6 43-3 10 0 20 6 33 9Zm-73-304v-6c-10-7-20-16-33-19-56-25-123-38-186-47-30-3-43 9-46 40-3 32 6 48 36 48 47 3 97 3 143 0 30-4 56-10 86-16Zm262 110c-3 0-10 0-13 3-90 38-186 53-285 47-33 0-53 13-67 41-3 12 0 19 14 19h13c106-7 212-22 315-51 37-12 43-18 23-59Zm120-72h3c7 0 10 0 17-4 63-9 126-18 189-3 13 3 20-6 13-19-10-22-20-44-33-62-10-19-27-35-50-35-27-3-53-3-80 0-6 0-16 6-20 13l-29 81-10 29Zm-753-73c-53 0-87 0-120 22-20 13-23 19-6 38 20 19 36 38 53 56 6 10 13 7 23 4l99-32c20-6 44-6 63-6l17-6c0-7-3-16-7-22-6-10-19-16-23-25-3-13-13-19-23-22-30-4-63-7-76-7Zm1313-59h17l212-57c30-9 53-22 73-44 7-6 7-15 13-25-10-3-16-6-26-6-86-6-173 12-252 44-7 0-13 3-13 9-10 25-17 50-24 79Zm143 78h-133c-56 0-109-6-162 0-40 3-80 16-120 25-13 3-16 13-10 22 4 7 10 13 17 16l146 9c40 4 79 13 116 13 43 0 86-6 119-38 17-15 27-31 27-47Zm-1317 44c0 3 0 6 3 10 0 3 0 6 4 9 16 31 43 47 76 56 56 13 113 7 169-3 76-12 149-31 226-28 6 0 13-9 16-12 7-16-3-22-20-29-89-25-179-19-272-12l-159 12c-13 0-26-3-43-3Zm524 405v88c0 28 3 28 30 25 123-16 242-9 362-3 26 3 39-9 39-38 0-15 0-34-3-53-3-22-20-35-43-38-90-6-179-9-272 0-47 3-90 10-136 16v3h23Zm0 242h-7c-33 6-43 28-26 53 7 13 17 22 23 32 10 18 27 34 50 28 80-16 162-13 242-7 33 4 60-6 80-34 13-16 23-31 33-53 13-26 10-35-23-38-73 0-150-3-226 0-50 3-96 12-146 19Zm73-455c-3 9-3 18-7 28l-29 66h13c99-3 196-10 292-16 16 0 23-9 13-25-13-19-30-35-46-53a59 59 0 0 0-47-22c-36 3-76 0-113 3-26 3-49 12-76 19-20 0-40 12-50 28-6 9-6 22-6 31 0 16 6 35-17 38h27c-17-50 0-79 46-97Zm-650-148v-19c-53 3-100 25-146 47 17 32 40 54 70 73 10 6 20 0 26-10 17-31 33-63 50-91-10 25-23 50-37 72-10 25-6 35 17 44 53 19 106 32 159 35 10 0 23-3 27-10 20-28 36-59 56-94-13-3-23-3-36-3-50-3-93-16-130-53-20-19-39-13-56 9Zm206-154-20-37c-7-10-14-19-20-19a802 802 0 0 0-299-28c-10 0-16 3-26 6 6 9 10 22 16 25 24 12 50 25 77 31 86 19 172 35 258 51h24c-4-10-7-19-14-29l10 10c20 31 57 53 93 69 50 19 106 9 163 12-27-41-57-69-100-84-53-19-106-35-162-54h-17c7 19 10 35 17 47Zm1210 94c-16-18-36-15-53 7-23 31-53 44-93 50l-39 6c16 32 33 57 46 82 10 16 20 19 37 16 43-7 86-19 126-38 26-16 26-22 13-50-13-25-27-51-37-73 17 32 37 63 53 95 7 9 14 12 24 6l49-63c4-3 0-16-3-16-36-15-70-31-109-34-4 0-10 9-14 12Zm-1366 292c20-22 23-28 6-37a85 85 0 0 0-73-7c4 10 4 16 7 22 17 32 23 35 56 22h4l-20 19c3 3 3 3 3 6 37 22 76 32 116 38 7 0 17-6 20-12 13-16 27-35 37-51 3-6 6-9 6-12s0-6-3-6l-159 18Zm1469-461c17 34 47 56 80 78 13 7 16 4 20-9 6-47-7-88-43-122-4-7-14-10-20-13-14 16-24 28-30 41-3 9-3 19-7 25-3-6-10-9-20-6-30 12-63 22-93 31-6 3-13 3-19 6 6 16 13 29 16 35 50-3 96-10 139-13-6-15-13-34-23-53Zm-259 424-19-19c-10-10-20-10-27 6-3 13-13 13-23 13-13 0-23-3-33 0-7 0-14 6-20 9 3 6 6 13 10 16 43 28 89 28 139 22-10-13-13-25-20-38 7 10 17 19 23 31 7 13 14 13 24 10 19-6 39-10 56-19l36-28c-10-19-29-25-49-25-27-3-57 0-83 0h-27c7 9 10 15 13 22Zm-1519-317v-38c13-63 63-82 126-88 70-9 136-6 206 6 109 19 222 38 325 85-17-22-10-53-43-66-3 0-3-6-7-9 0-13-10-13-20-13-6 3-13 3-16 3 0-12-4-25-4-34 7 0 67 28 73 38 4 3 4 6 4 9 3 3 6 9 10 9 46 32 73 76 99 120 0 6 7 12 10 12 20 10 40 16 63 22 0-3 3-6 7-12 16-22 13-29-7-47-6-7-16-13-16-22-4-26-27-41-37-63-13-19-23-44-33-66-10-28-20-60-27-88-3-25-16-35-36-35 3-9 7-18 10-34 20 19 36 38 50 56 16 22 26 47 36 73 13 31 23 66 33 100 4 6 4 19 10 19 23 6 30 22 37 41 3 6 13 9 20 12 3-6 6-15 6-22-3-12-13-28-10-37 7-26 7-51 10-76 4-22 0-37-6-56-7-16-14-28-17-41-3-6 0-16 3-16 7-6 14-6 20-3 4 0 7 10 7 16s-3 12-3 19c3 34 13 56 43 62 3 4 13 0 16-3 37-34 96-37 136-6 4 3 14 3 17 0 16-13 30-31 30-53 0-10-4-22 0-32 0-6 10-12 13-19 3 10 10 16 10 22-3 13-10 26-13 41-4 28-4 60-7 88 0 3 0 3 3 6 14 22 10 47 0 73-3 3 0 12 0 15 24-19 27-44 53-53 4 0 4-3 4-6 13-54 26-107 53-157 16-29 33-51 53-76h3c4 10 4 19 7 25-10 7-23 13-27 19-10 16-13 35-16 51-10 53-20 106-60 150-3 3-7 6-7 10 0 22-13 34-26 50-3 3-7 16-3 19 3 9 13 18 16 25 17-7 27-16 43-19 10-6 17-13 20-22 23-44 47-85 86-116 4-3 7-6 7-10 13-28 43-37 66-53 4-3 7-3 7-3-3 12-3 25-3 34-10 0-24 0-30 7-13 9-23 22-30 34-10 25-20 50-27 76l4-4a699 699 0 0 1 451-138c70 0 96 22 113 85 3 3 3 3 3 6v38l-30 69c3-12 10-25-3-31-13-7-27-16-40-19-46-6-93-3-136 9-7 3-13 7-17 13-10 12-19 28-26 41 0 6-3 12 0 18 0 4 10 4 13 4 17 0 33-4 50 3 30 6 60 15 89 25 17 6 24 3 30-10 10-18 24-34 37-50l-10 19c-10 19-23 35-30 53-17 44-46 76-86 98-7 3-10 12-10 19 3 94-47 160-146 172a436 436 0 0 1-355-107c-17-12-30-25-47-40-3 6-3 9-6 12l-7 10c37 31 60 78 110 100 13 6 23 13 33 22 50 47 79 101 70 170-4 6 0 12 3 18 20 44 20 91-3 132-10 16-20 32-14 50 4 7 0 16 0 22 0 4-3 10 0 13 20 28 10 63 20 94l-6 19c-10-19-24-16-37-3 7-16 10-28 17-41l3-16c-20-18-13-47-30-66-7-9 0-28 0-40 0-7 7-13 7-19 6-44 13-88 23-129 0-16 0-25-10-34l-50-79c-3-3-6-6-6-12 3 72 6 144 0 216a320 320 0 0 1-193 258c-3 3-10 3-13 6-13 19-37 31-60 37h-30c-26-6-49-15-63-37-3-3-10-6-13-6-63-22-109-60-146-113-50-82-63-173-60-261l14-72c-20 28-40 53-60 78-3 10-3 19-3 29l20 119c3 12 9 22 9 34 4 10 7 29 0 32-16 12-13 31-19 47v3c-20 22-10 44 0 63 3 3 3 6 3 9-17-16-27 0-40 10 0-13-3-26 0-35 3-19 3-38 7-53 6-22 13-44 13-73 0-6 0-15-3-22-27-34-37-75-24-116 7-28 20-53 14-84-4 0 0-7 0-10 13-72 56-125 126-163 6-3 13-6 20-13 16-15 33-34 49-53l10-16c0-3-3-3-3-3l-17 10c-46 40-99 75-155 103-90 41-183 63-282 50-100-9-163-75-173-166 0-6-7-13-13-16-43-15-76-44-100-84-10-16-20-32-33-47-33-32-60-66-73-110Z"/></g></svg>
